<?xml version="1.0" encoding="utf-8"?>
<!-- Generator: Adobe Illustrator 16.0.0, SVG Export Plug-In . SVG Version: 6.00 Build 0)  -->
<!DOCTYPE svg PUBLIC "-//W3C//DTD SVG 1.1//EN" "http://www.w3.org/Graphics/SVG/1.1/DTD/svg11.dtd">
<svg version="1.1" id="books" xmlns="http://www.w3.org/2000/svg" xmlns:xlink="http://www.w3.org/1999/xlink" x="0px" y="0px"
	 width="436.333px" height="403.693px" viewBox="0 0 436.333 403.693" enable-background="new 0 0 436.333 403.693"
	 xml:space="preserve">
<linearGradient id="SVGID_1_" gradientUnits="userSpaceOnUse" x1="-585.2773" y1="-212.0837" x2="-196.019" y2="-212.0837" gradientTransform="matrix(1 0 0 -1 607.0195 46.5044)">
	<stop  offset="0" style="stop-color:#000000;stop-opacity:0"/>
	<stop  offset="0.7937" style="stop-color:#707070"/>
	<stop  offset="1" style="stop-color:#FFFFFF;stop-opacity:0"/>
</linearGradient>
<polygon opacity="0.3" fill="url(#SVGID_1_)" enable-background="new    " points="411,82.865 344.588,12.15 258.083,102.53 
	106.085,108.666 159.304,192.993 21.742,198.84 103.363,323.711 23.544,329.792 67.655,350.359 411,505.026 "/>
<g>
	<path fill="#8C5B48" d="M103.633,295.26H23.289c-0.854,0-1.547-0.689-1.547-1.547v-12.58c0-0.854,0.692-1.547,1.547-1.547h80.344
		c0.854,0,1.547,0.692,1.547,1.547v12.58C105.18,294.569,104.488,295.26,103.633,295.26z"/>
	<rect x="77.25" y="279.587" fill="#FFFFFF" width="17.146" height="15.674"/>
	<rect x="71.543" y="279.587" fill="#FFFFFF" width="2.567" height="15.674"/>
	<rect x="83.569" y="280.68" fill="#BDD186" width="4.508" height="13.485"/>
	<ellipse fill="#F95D68" cx="85.823" cy="287.424" rx="5.216" ry="3.771"/>
</g>
<g>
	<path fill="#F95D68" d="M17.687,250.842h56.177c0.598,0,1.082,0.684,1.082,1.521v12.359c0,0.84-0.484,1.52-1.082,1.52H17.687
		c-0.597,0-1.082-0.68-1.082-1.52v-12.359C16.605,251.523,17.09,250.842,17.687,250.842z"/>
	<rect x="25.941" y="250.842" fill="#8C5B48" width="14.842" height="15.398"/>
	<g>
		<rect x="26.93" y="251.869" fill="#BDD186" width="1.808" height="13.346"/>
		<rect x="29.85" y="251.869" fill="#BDD186" width="1.808" height="13.346"/>
	</g>
	<rect x="35.934" y="255.922" fill="#FFFFFF" width="2.816" height="5.239"/>
</g>
<g>
	<path fill="#FFFFFF" d="M97.231,315.927c-26.029,0-52.057,0-78.086,0c3.342-6.075,3.342-13.44,0-19.521c26.029,0,52.057,0,78.086,0
		C99.242,301.718,98.994,310.639,97.231,315.927z"/>
	<g>
		<ellipse fill="#DDDCDB" cx="59.441" cy="300.064" rx="35.897" ry="0.573"/>
		<ellipse fill="#DDDCDB" cx="59.441" cy="304.017" rx="35.897" ry="0.574"/>
		<ellipse fill="#DDDCDB" cx="59.441" cy="307.971" rx="35.897" ry="0.573"/>
		<ellipse fill="#DDDCDB" cx="59.441" cy="311.924" rx="35.897" ry="0.574"/>
	</g>
	<path fill="#BDD186" d="M97.231,317.072H19.145c-0.632,0-1.145-0.513-1.145-1.146c0-0.633,0.513-1.145,1.145-1.145h77.241
		c1.335-4.699,1.628-12.233,0.032-17.232H19.145c-0.632,0-1.145-0.513-1.145-1.145s0.513-1.146,1.145-1.146h78.086
		c0.476,0,0.902,0.297,1.07,0.739c2.227,5.881,1.741,15.11,0.015,20.288C98.161,316.756,97.724,317.072,97.231,317.072z"/>
	<rect x="70.707" y="303.472" fill="#F95D68" width="4.239" height="8.971"/>
	<path fill="#2E8E89" d="M77.998,318.471c0,0.699-0.569,1.271-1.271,1.271h-7.799c-0.702,0-1.271-0.569-1.271-1.271v-7.802
		c0-0.703,0.569-1.271,1.271-1.271h7.799c0.702,0,1.271,0.566,1.271,1.271V318.471z"/>
</g>
<g>
	<path fill="#FFFFFF" d="M13.775,267.131c28.538,0,57.077,0,85.615,0c-3.664,3.604-3.664,7.968,0,11.565
		c-28.539,0-57.077,0-85.615,0C11.57,275.549,11.842,270.264,13.775,267.131z"/>
	<path fill="#2E8E89" d="M99.391,279.587H13.775c-0.291,0-0.563-0.142-0.729-0.38c-2.551-3.641-2.001-9.346-0.029-12.543
		c0.162-0.263,0.449-0.423,0.758-0.423H99.39c0.491,0,0.89,0.398,0.89,0.89c0,0.492-0.398,0.894-0.89,0.894H14.292
		c-1.413,2.667-1.727,6.961-0.033,9.785h85.132c0.491,0,0.89,0.396,0.89,0.89C100.28,279.189,99.882,279.587,99.391,279.587z"/>
	<g>
		<ellipse fill="#DDDCDB" cx="55.209" cy="276.53" rx="39.358" ry="0.34"/>
		<ellipse fill="#DDDCDB" cx="55.209" cy="274.187" rx="39.358" ry="0.339"/>
		<ellipse fill="#DDDCDB" cx="55.209" cy="271.845" rx="39.358" ry="0.34"/>
		<ellipse fill="#DDDCDB" cx="55.209" cy="269.502" rx="39.358" ry="0.339"/>
	</g>
	<rect x="29.105" y="271.844" fill="#F95D68" width="3.021" height="6.396"/>
	<path fill="#F9C573" d="M34.301,282.535c0,0.501-0.406,0.906-0.906,0.906h-5.559c-0.5,0-0.906-0.405-0.906-0.906v-5.559
		c0-0.5,0.406-0.906,0.906-0.906h5.559c0.5,0,0.906,0.406,0.906,0.906V282.535z"/>
</g>
<g>
	
		<rect x="120.778" y="251.315" transform="matrix(0.9281 -0.3723 0.3723 0.9281 -97.0939 66.9161)" fill="#2E8E89" width="7.871" height="67.082"/>
	
		<rect x="128.003" y="291.375" transform="matrix(0.9282 -0.372 0.372 0.9282 -103.1784 70.8198)" fill="#BDD186" width="7.87" height="22.836"/>
	
		<rect x="126.189" y="296.834" transform="matrix(-0.9281 0.3723 -0.3723 -0.9281 361.9431 526.6171)" fill="#F95D68" width="7.871" height="2.844"/>
	
		<rect x="128.914" y="301.328" transform="matrix(-0.9281 0.3723 -0.3723 -0.9281 369.7256 538.6972)" fill="#F95D68" width="7.871" height="7.437"/>
</g>
<g>
	
		<rect x="106.942" y="254.435" transform="matrix(0.96 -0.28 0.28 0.96 -75.5843 42.8488)" fill="#F95D68" width="10.441" height="63.012"/>
	
		<rect x="101.109" y="255.282" transform="matrix(0.96 -0.28 0.28 0.96 -70.2274 40.4109)" fill="#8C5B48" width="10.439" height="21.452"/>
	
		<rect x="110.718" y="297.652" transform="matrix(-0.96 0.2799 -0.2799 -0.96 310.9413 553.5654)" fill="#FFBC6C" width="10.441" height="2.672"/>
	
		<rect x="112.67" y="302.085" transform="matrix(-0.96 0.2801 -0.2801 -0.96 316.6412 565.9132)" fill="#FFBC6C" width="10.44" height="6.986"/>
</g>
<g>
	<rect x="146.792" y="304.96" fill="#2E8E89" width="96.354" height="12.586"/>
	<path fill="#BDD186" d="M189.727,308.033c-0.367,0-0.666,0.298-0.666,0.665v5.11c0,0.365,0.299,0.666,0.666,0.666h47.705
		c0.367,0,0.666-0.301,0.666-0.666v-5.11c0-0.367-0.299-0.665-0.666-0.665H189.727z"/>
	<ellipse fill="#F95D68" cx="155.979" cy="311.253" rx="4.377" ry="3.221"/>
</g>
<g>
	<rect x="161.567" y="274.994" fill="#BDD186" width="61.531" height="17.24"/>
	<g>
		<rect x="178.164" y="274.994" fill="#FFBC6C" width="1.352" height="17.24"/>
		<rect x="176.051" y="274.994" fill="#FFBC6C" width="1.353" height="17.24"/>
		<rect x="173.939" y="274.994" fill="#FFBC6C" width="1.353" height="17.24"/>
		<rect x="209.374" y="274.994" fill="#FFBC6C" width="1.352" height="17.24"/>
		<rect x="207.262" y="274.994" fill="#FFBC6C" width="1.353" height="17.24"/>
		<rect x="205.149" y="274.994" fill="#FFBC6C" width="1.353" height="17.24"/>
	</g>
	<g>
		<rect x="189.762" y="274.969" fill="#FFFFFF" width="4.831" height="17.29"/>
		<circle fill="#FFFFFF" cx="192.333" cy="283.614" r="5.531"/>
		<circle fill="#2E8E89" cx="192.333" cy="283.614" r="4.465"/>
	</g>
</g>
<g>
	<path fill="#FFFFFF" d="M161.39,292.771c28.76,0,57.521,0,86.278,0c-3.69,3.629-3.69,8.023,0,11.652c-28.76,0-57.521,0-86.278,0
		C159.167,301.254,159.442,295.927,161.39,292.771z"/>
	<g>
		<ellipse fill="#DDDCDB" cx="203.145" cy="302.243" rx="39.664" ry="0.343"/>
		<ellipse fill="#DDDCDB" cx="203.145" cy="299.882" rx="39.664" ry="0.343"/>
		<ellipse fill="#DDDCDB" cx="203.145" cy="297.522" rx="39.664" ry="0.343"/>
		<ellipse fill="#DDDCDB" cx="203.145" cy="295.161" rx="39.664" ry="0.342"/>
	</g>
	<path fill="#BABABA" d="M161.678,292.771v11.652c-0.096,0-0.192,0-0.288,0c-2.222-3.172-1.948-8.498,0-11.652
		C161.485,292.771,161.582,292.771,161.678,292.771z"/>
	<path fill="#8C5B48" d="M161.39,304.939h86.278c0.283,0,0.514-0.229,0.514-0.516c0-0.281-0.229-0.513-0.514-0.513h-86.005
		c-1.947-3.028-1.581-7.804,0.02-10.63h85.987c0.283,0,0.513-0.229,0.513-0.513c0-0.282-0.229-0.515-0.513-0.515h-86.28
		c-0.178,0-0.343,0.095-0.437,0.243c-1.924,3.118-2.465,8.677,0.017,12.218C161.065,304.858,161.222,304.939,161.39,304.939z"/>
	<path fill="#FFBC6C" d="M172.501,308.316c-0.759,0-1.374-0.378-1.374-0.845c0-0.47,0.615-0.848,1.374-0.848
		s1.375,0.378,1.375,0.848C173.876,307.938,173.261,308.316,172.501,308.316z"/>
	<rect x="171.819" y="297.311" fill="#BDD186" width="1.366" height="9.838"/>
</g>
<g>
	<rect x="293.209" y="208.731" fill="#FFBC6C" width="24.385" height="108.912"/>
	<rect x="293.209" y="285.082" fill="#FFB05A" width="24.385" height="32.563"/>
	<ellipse fill="#FFFFFF" cx="305.401" cy="226.059" rx="9.168" ry="6.114"/>
</g>
<g>
	<rect x="319.625" y="208.731" fill="#2E8E89" width="24.383" height="108.912"/>
	<rect x="319.625" y="285.082" fill="#327C73" width="24.383" height="32.563"/>
	<ellipse fill="#FFFFFF" cx="331.817" cy="226.059" rx="9.168" ry="6.114"/>
</g>
<g>
	<g>
		<rect x="287.979" y="213.912" fill="#F4F2EF" width="0.533" height="100.938"/>
		<rect x="287.241" y="213.912" fill="#F4F2EF" width="0.531" height="100.938"/>
		<rect x="286.502" y="213.912" fill="#F4F2EF" width="0.531" height="100.938"/>
		<rect x="285.763" y="213.912" fill="#F4F2EF" width="0.532" height="100.938"/>
		<rect x="285.024" y="213.912" fill="#F4F2EF" width="0.532" height="100.938"/>
		<rect x="284.286" y="213.912" fill="#F4F2EF" width="0.532" height="100.938"/>
		<rect x="283.547" y="213.912" fill="#F4F2EF" width="0.533" height="100.938"/>
		<rect x="282.809" y="213.912" fill="#F4F2EF" width="0.533" height="100.938"/>
		<rect x="282.07" y="213.912" fill="#F4F2EF" width="0.532" height="100.938"/>
		<rect x="281.333" y="213.912" fill="#F4F2EF" width="0.531" height="100.938"/>
		<rect x="280.592" y="213.912" fill="#F4F2EF" width="0.533" height="100.938"/>
		<rect x="279.854" y="213.912" fill="#F4F2EF" width="0.532" height="100.938"/>
		<rect x="279.116" y="213.912" fill="#F4F2EF" width="0.532" height="100.938"/>
		<rect x="278.377" y="213.912" fill="#F4F2EF" width="0.533" height="100.938"/>
		<rect x="277.639" y="213.912" fill="#F4F2EF" width="0.533" height="100.938"/>
		<rect x="276.9" y="213.912" fill="#F4F2EF" width="0.532" height="100.938"/>
		<rect x="276.163" y="213.912" fill="#F4F2EF" width="0.531" height="100.938"/>
		<rect x="275.422" y="213.912" fill="#F4F2EF" width="0.533" height="100.938"/>
		<rect x="274.685" y="213.912" fill="#F4F2EF" width="0.532" height="100.938"/>
		<rect x="273.946" y="213.912" fill="#F4F2EF" width="0.532" height="100.938"/>
		<rect x="273.208" y="213.912" fill="#F4F2EF" width="0.533" height="100.938"/>
		<rect x="272.469" y="213.912" fill="#F4F2EF" width="0.533" height="100.938"/>
		<rect x="271.73" y="213.912" fill="#F4F2EF" width="0.532" height="100.938"/>
		<rect x="270.993" y="213.912" fill="#F4F2EF" width="0.531" height="100.938"/>
		<rect x="270.252" y="213.912" fill="#F4F2EF" width="0.533" height="100.938"/>
		<rect x="269.515" y="213.912" fill="#F4F2EF" width="0.532" height="100.938"/>
		<rect x="268.776" y="213.912" fill="#F4F2EF" width="0.532" height="100.938"/>
		<rect x="268.038" y="213.912" fill="#F4F2EF" width="0.532" height="100.938"/>
		<rect x="267.299" y="213.912" fill="#F4F2EF" width="0.533" height="100.938"/>
		<rect x="266.561" y="213.912" fill="#F4F2EF" width="0.531" height="100.938"/>
		<rect x="265.822" y="213.912" fill="#F4F2EF" width="0.532" height="100.938"/>
		<rect x="265.083" y="213.912" fill="#F4F2EF" width="0.533" height="100.938"/>
		<rect x="264.345" y="213.912" fill="#F4F2EF" width="0.532" height="100.938"/>
		<rect x="263.606" y="213.912" fill="#F4F2EF" width="0.532" height="100.938"/>
		<path fill="#F4F2EF" d="M263.4,314.846h-0.532c0,0,0.532-73.739-2.88-100.446c1.298-0.188,3.412-0.488,3.412-0.488V314.846
			L263.4,314.846z"/>
		<path fill="#F4F2EF" d="M262.663,314.846h-0.533v-31.232c0-1.35-0.086-13.634-3.055-29.002c-1.369-7.09-3.125-13.576-5.222-19.276
			c-2.501-6.805-5.502-12.521-8.918-17.001l3.841-0.32c14.83,15.593,13.887,64.245,13.887,65.603V314.846L262.663,314.846z"/>
		<path fill="#F4F2EF" d="M261.922,314.846h-0.531v-30.619c0-22.495-7.569-44.159-21.891-62.65l2.887-1.201
			c18.798,17.102,19.535,60.756,19.535,63.854V314.846L261.922,314.846z"/>
		<path fill="#F4F2EF" d="M261.185,314.846h-0.532V285.08c0-8.676-5.254-36.242-28.596-48.679l2.835-0.953
			c23.571,12.559,26.293,40.873,26.293,49.632V314.846z"/>
	</g>
	<g>
		<g>
			<g>
				<g>
					<defs>
						<polygon id="SVGID_2_" points="289.943,317.433 259.988,317.433 259.988,283.614 289.943,262.094 						"/>
					</defs>
					<clipPath id="SVGID_3_">
						<use xlink:href="#SVGID_2_"  overflow="visible"/>
					</clipPath>
					<polygon clip-path="url(#SVGID_3_)" fill="#8C5B48" points="289.943,317.433 259.988,317.433 259.988,283.614 289.943,262.094 
											"/>
				</g>
			</g>
		</g>
		<g>
			<g>
				<g>
					<defs>
						<polygon id="SVGID_4_" points="289.943,317.433 259.988,317.433 259.988,283.614 289.943,262.094 						"/>
					</defs>
					<clipPath id="SVGID_5_">
						<use xlink:href="#SVGID_4_"  overflow="visible"/>
					</clipPath>
					<g clip-path="url(#SVGID_5_)">
						<g>
							<circle fill="#FFBC6C" cx="260.355" cy="314.846" r="1.145"/>
							<circle fill="#FFBC6C" cx="268.465" cy="314.846" r="1.145"/>
							<circle fill="#FFBC6C" cx="276.579" cy="314.846" r="1.145"/>
							<circle fill="#FFBC6C" cx="284.688" cy="314.846" r="1.145"/>
							<circle fill="#FFBC6C" cx="292.799" cy="314.846" r="1.145"/>
						</g>
						<g>
							<circle fill="#FFBC6C" cx="264.649" cy="311.097" r="1.145"/>
							<circle fill="#FFBC6C" cx="272.76" cy="311.097" r="1.145"/>
							<circle fill="#FFBC6C" cx="280.872" cy="311.097" r="1.145"/>
							<circle fill="#FFBC6C" cx="288.981" cy="311.097" r="1.145"/>
							<circle fill="#FFBC6C" cx="297.092" cy="311.097" r="1.145"/>
						</g>
						<g>
							<circle fill="#FFBC6C" cx="260.355" cy="307.348" r="1.145"/>
							<circle fill="#FFBC6C" cx="268.465" cy="307.348" r="1.145"/>
							<circle fill="#FFBC6C" cx="276.579" cy="307.348" r="1.145"/>
							<circle fill="#FFBC6C" cx="284.688" cy="307.348" r="1.145"/>
							<circle fill="#FFBC6C" cx="292.799" cy="307.348" r="1.145"/>
						</g>
						<g>
							<circle fill="#FFBC6C" cx="264.649" cy="303.6" r="1.145"/>
							<circle fill="#FFBC6C" cx="272.76" cy="303.6" r="1.145"/>
							<circle fill="#FFBC6C" cx="280.872" cy="303.6" r="1.145"/>
							<circle fill="#FFBC6C" cx="288.981" cy="303.6" r="1.145"/>
							<circle fill="#FFBC6C" cx="297.092" cy="303.6" r="1.145"/>
						</g>
						<g>
							<circle fill="#FFBC6C" cx="260.355" cy="299.851" r="1.145"/>
							<circle fill="#FFBC6C" cx="268.465" cy="299.851" r="1.145"/>
							<circle fill="#FFBC6C" cx="276.579" cy="299.851" r="1.145"/>
							<circle fill="#FFBC6C" cx="284.688" cy="299.851" r="1.145"/>
							<circle fill="#FFBC6C" cx="292.799" cy="299.851" r="1.145"/>
						</g>
						<g>
							<circle fill="#FFBC6C" cx="264.649" cy="296.102" r="1.145"/>
							<circle fill="#FFBC6C" cx="272.76" cy="296.102" r="1.145"/>
							<circle fill="#FFBC6C" cx="280.872" cy="296.102" r="1.145"/>
							<circle fill="#FFBC6C" cx="288.981" cy="296.102" r="1.145"/>
							<circle fill="#FFBC6C" cx="297.092" cy="296.102" r="1.145"/>
						</g>
						<g>
							<circle fill="#FFBC6C" cx="260.355" cy="292.353" r="1.145"/>
							<circle fill="#FFBC6C" cx="268.465" cy="292.353" r="1.145"/>
							<circle fill="#FFBC6C" cx="276.579" cy="292.353" r="1.145"/>
							<circle fill="#FFBC6C" cx="284.688" cy="292.353" r="1.145"/>
							<circle fill="#FFBC6C" cx="292.799" cy="292.353" r="1.145"/>
						</g>
						<g>
							<circle fill="#FFBC6C" cx="264.649" cy="288.604" r="1.145"/>
							<circle fill="#FFBC6C" cx="272.76" cy="288.604" r="1.145"/>
							<circle fill="#FFBC6C" cx="280.872" cy="288.604" r="1.145"/>
							<circle fill="#FFBC6C" cx="288.981" cy="288.604" r="1.145"/>
							<circle fill="#FFBC6C" cx="297.092" cy="288.604" r="1.145"/>
						</g>
						<g>
							<circle fill="#FFBC6C" cx="260.355" cy="284.856" r="1.145"/>
							<circle fill="#FFBC6C" cx="268.465" cy="284.856" r="1.145"/>
							<circle fill="#FFBC6C" cx="276.579" cy="284.856" r="1.145"/>
							<circle fill="#FFBC6C" cx="284.688" cy="284.856" r="1.145"/>
							<circle fill="#FFBC6C" cx="292.799" cy="284.856" r="1.145"/>
						</g>
						<g>
							<circle fill="#FFBC6C" cx="264.649" cy="281.107" r="1.145"/>
							<circle fill="#FFBC6C" cx="272.76" cy="281.107" r="1.145"/>
							<circle fill="#FFBC6C" cx="280.872" cy="281.107" r="1.145"/>
							<circle fill="#FFBC6C" cx="288.981" cy="281.107" r="1.145"/>
							<circle fill="#FFBC6C" cx="297.092" cy="281.107" r="1.145"/>
						</g>
						<g>
							<circle fill="#FFBC6C" cx="260.355" cy="277.358" r="1.145"/>
							<circle fill="#FFBC6C" cx="268.465" cy="277.358" r="1.145"/>
							<circle fill="#FFBC6C" cx="276.579" cy="277.358" r="1.145"/>
							<circle fill="#FFBC6C" cx="284.688" cy="277.358" r="1.145"/>
							<circle fill="#FFBC6C" cx="292.799" cy="277.358" r="1.145"/>
						</g>
						<g>
							<circle fill="#FFBC6C" cx="264.649" cy="273.609" r="1.145"/>
							<circle fill="#FFBC6C" cx="272.76" cy="273.609" r="1.145"/>
							<circle fill="#FFBC6C" cx="280.872" cy="273.609" r="1.145"/>
							<circle fill="#FFBC6C" cx="288.981" cy="273.609" r="1.145"/>
							<circle fill="#FFBC6C" cx="297.092" cy="273.609" r="1.145"/>
						</g>
						<g>
							<circle fill="#FFBC6C" cx="260.355" cy="269.861" r="1.145"/>
							<circle fill="#FFBC6C" cx="268.465" cy="269.861" r="1.145"/>
							<circle fill="#FFBC6C" cx="276.579" cy="269.861" r="1.145"/>
							<circle fill="#FFBC6C" cx="284.688" cy="269.861" r="1.145"/>
							<circle fill="#FFBC6C" cx="292.799" cy="269.861" r="1.145"/>
						</g>
						<g>
							<circle fill="#FFBC6C" cx="264.649" cy="266.112" r="1.145"/>
							<circle fill="#FFBC6C" cx="272.76" cy="266.112" r="1.145"/>
							<circle fill="#FFBC6C" cx="280.872" cy="266.112" r="1.145"/>
							<circle fill="#FFBC6C" cx="288.981" cy="266.112" r="1.145"/>
							<circle fill="#FFBC6C" cx="297.092" cy="266.112" r="1.145"/>
						</g>
					</g>
				</g>
			</g>
		</g>
	</g>
</g>
<g>
	<rect x="123.805" y="175.624" fill="#8C5B48" width="89.986" height="5.402"/>
	<ellipse fill="#FFBC6C" cx="209.407" cy="178.325" rx="2.141" ry="1.508"/>
</g>
<g>
	<rect x="123.805" y="181.026" fill="#BDD186" width="89.986" height="5.403"/>
	<ellipse fill="#2E8E89" cx="209.407" cy="183.728" rx="2.141" ry="1.508"/>
</g>
<g>
	<path fill="#FFFFFF" d="M212.643,163.592c-28.539,0-57.077,0-85.615,0c3.664,3.604,3.664,7.967,0,11.565
		c28.539,0,57.077,0,85.615,0C214.848,172.01,214.575,166.725,212.643,163.592z"/>
	<g>
		<ellipse fill="#DDDCDB" cx="171.208" cy="172.99" rx="39.358" ry="0.34"/>
		<ellipse fill="#DDDCDB" cx="171.208" cy="170.647" rx="39.358" ry="0.34"/>
		<ellipse fill="#DDDCDB" cx="171.208" cy="168.305" rx="39.358" ry="0.34"/>
		<ellipse fill="#DDDCDB" cx="171.208" cy="165.963" rx="39.358" ry="0.34"/>
	</g>
	<path fill="#BABABA" d="M212.356,163.592v11.565c0.096,0,0.19,0,0.286,0c2.205-3.147,1.933-8.432,0-11.565
		C212.547,163.592,212.452,163.592,212.356,163.592z"/>
	<path fill="#2E8E89" d="M212.643,175.666h-85.615c-0.281,0-0.509-0.228-0.509-0.509c0-0.28,0.228-0.508,0.509-0.508h85.344
		c1.933-3.006,1.568-7.744-0.019-10.548h-85.325c-0.281,0-0.509-0.229-0.509-0.512c0-0.278,0.228-0.509,0.509-0.509h85.615
		c0.176,0,0.34,0.091,0.433,0.242c1.909,3.094,2.446,8.61-0.017,12.124C212.964,175.584,212.809,175.666,212.643,175.666z"/>
	<path fill="#FFBC6C" d="M190.061,178.177c0-0.463,0.611-0.838,1.364-0.838c0.753,0,1.363,0.375,1.363,0.838
		c0,0.466-0.61,0.841-1.363,0.841C190.672,179.016,190.061,178.641,190.061,178.177z"/>
</g>
<g>
	<rect x="261.18" y="120.984" fill="#8C5B48" width="23.357" height="65.404"/>
	<rect x="261.18" y="130.019" fill="#F95D68" width="23.357" height="14.31"/>
	<rect x="265.724" y="172.743" fill="#BDD186" width="14.271" height="6.218"/>
	<g>
		<rect x="261.18" y="145.217" fill="#2E8E89" width="23.357" height="1.169"/>
		<rect x="261.18" y="127.962" fill="#2E8E89" width="23.357" height="1.168"/>
	</g>
</g>
<g>
	<rect x="285.577" y="110.667" fill="#FFBC6C" width="12.584" height="75.725"/>
	<path fill="#F95D68" d="M295.09,152.647c0,0.289-0.299,0.521-0.666,0.521h-5.11c-0.366,0-0.666-0.231-0.666-0.521v-37.49
		c0-0.289,0.3-0.523,0.666-0.523h5.11c0.367,0,0.666,0.234,0.666,0.523V152.647z"/>
	<ellipse fill="#2E8E89" cx="291.87" cy="179.168" rx="3.221" ry="3.44"/>
</g>
<g>
	<rect x="312.413" y="112.672" fill="#F95D68" width="16.936" height="73.719"/>
	<g>
		<rect x="312.413" y="127.494" fill="#FFFFFF" width="16.936" height="1.62"/>
		<rect x="312.413" y="130.024" fill="#FFFFFF" width="16.936" height="1.62"/>
		<rect x="312.413" y="132.555" fill="#FFFFFF" width="16.936" height="1.617"/>
	</g>
</g>
<g>
	<rect x="299.409" y="115.871" fill="#BDD186" width="5.402" height="70.52"/>
	<rect x="299.409" y="115.871" fill="#8C5B48" width="5.402" height="7.484"/>
	<ellipse fill="#2E8E89" cx="302.11" cy="119.306" rx="1.508" ry="1.678"/>
</g>
<g>
	<rect x="305.776" y="115.871" fill="#2E8E89" width="5.4" height="70.52"/>
	<rect x="305.776" y="115.871" fill="#FFBC6C" width="5.4" height="7.484"/>
	<ellipse fill="#8C5B48" cx="308.477" cy="119.306" rx="1.508" ry="1.678"/>
</g>
<g>
	<rect x="329.961" y="112.64" fill="#8C5B48" width="14.654" height="73.749"/>
	<rect x="329.961" y="120.061" fill="#2E8E89" width="14.654" height="19.553"/>
	<rect x="329.961" y="143.194" fill="#2E8E89" width="14.654" height="2.927"/>
	<rect x="329.961" y="128.313" fill="#BDD186" width="14.654" height="3.049"/>
	<circle fill="#BDD186" cx="337.288" cy="129.837" r="3.527"/>
	<circle fill="#FFFFFF" cx="337.288" cy="129.838" r="2.533"/>
</g>
<g>
	<path fill="#F95D68" d="M171.849,96.396h-44.208c-0.47,0-0.851-0.536-0.851-1.196v-9.727c0-0.661,0.381-1.196,0.851-1.196h44.208
		c0.47,0,0.851,0.535,0.851,1.196V95.2C172.7,95.86,172.319,96.396,171.849,96.396z"/>
	<rect x="153.674" y="84.277" fill="#8C5B48" width="11.68" height="12.118"/>
	<g>
		<rect x="163.152" y="85.085" fill="#BDD186" width="1.423" height="10.502"/>
		<rect x="160.854" y="85.085" fill="#BDD186" width="1.423" height="10.502"/>
	</g>
	<rect x="155.274" y="88.274" fill="#FFFFFF" width="2.216" height="4.124"/>
</g>
<g>
	<rect x="321.231" y="12.15" fill="#FFBC6C" width="23.357" height="84.205"/>
	<rect x="321.231" y="23.782" fill="#8C5B48" width="23.357" height="18.423"/>
	<rect x="325.776" y="78.786" fill="#BDD186" width="14.27" height="8.006"/>
	<g>
		<rect x="321.231" y="43.349" fill="#8C5B48" width="23.357" height="1.505"/>
		<rect x="321.231" y="21.133" fill="#8C5B48" width="23.357" height="1.508"/>
	</g>
</g>
<g>
	<rect x="307.606" y="0" fill="#2E8E89" width="12.586" height="96.354"/>
	<path fill="#BDD186" d="M310.678,53.42c0,0.368,0.299,0.666,0.666,0.666h5.111c0.367,0,0.664-0.298,0.664-0.666V5.715
		c0-0.365-0.297-0.666-0.664-0.666h-5.111c-0.367,0-0.666,0.301-0.666,0.666V53.42z"/>
	<ellipse fill="#F95D68" cx="313.899" cy="87.167" rx="3.221" ry="4.378"/>
</g>
<g>
	
		<rect x="260.005" y="15.499" transform="matrix(0.9894 0.1451 -0.1451 0.9894 9.9058 -37.7707)" fill="#2E8E89" width="7.869" height="67.076"/>
	
		<rect x="262.809" y="18.482" transform="matrix(0.9894 0.1452 -0.1452 0.9894 7.1654 -38.4025)" fill="#BDD186" width="7.871" height="22.838"/>
	
		<rect x="262.094" y="33.3" transform="matrix(-0.9894 -0.1452 0.1452 -0.9894 524.1974 107.7017)" fill="#F95D68" width="7.87" height="2.845"/>
	
		<rect x="263.154" y="23.768" transform="matrix(-0.9894 -0.1452 0.1452 -0.9894 527.358 93.4559)" fill="#F95D68" width="7.87" height="7.437"/>
</g>
<g>
	
		<rect x="244.469" y="19.017" transform="matrix(0.96 0.2799 -0.2799 0.96 24.1154 -67.8584)" fill="#8C5B48" width="10.441" height="63.006"/>
	
		<rect x="238.651" y="59.741" transform="matrix(0.96 0.28 -0.28 0.96 29.4809 -65.458)" fill="#F95D68" width="10.44" height="21.45"/>
	
		<rect x="248.257" y="36.144" transform="matrix(-0.96 -0.2799 0.2799 -0.96 486.3378 144.3982)" fill="#FFBC6C" width="10.441" height="2.671"/>
	
		<rect x="250.175" y="27.397" transform="matrix(-0.96 -0.2799 0.2799 -0.96 491.9322 132.0398)" fill="#FFBC6C" width="10.441" height="6.986"/>
</g>
<g>
	<rect x="272.695" y="22.638" fill="#BDD186" width="20.654" height="73.717"/>
	<g>
		<rect x="272.695" y="74.851" fill="#FFBC6C" width="20.654" height="1.62"/>
		<rect x="272.695" y="77.381" fill="#FFBC6C" width="20.654" height="1.62"/>
		<rect x="272.695" y="79.912" fill="#FFBC6C" width="20.654" height="1.62"/>
		<rect x="272.695" y="37.46" fill="#FFBC6C" width="20.654" height="1.62"/>
		<rect x="272.695" y="39.991" fill="#FFBC6C" width="20.654" height="1.62"/>
		<rect x="272.695" y="42.521" fill="#FFBC6C" width="20.654" height="1.62"/>
	</g>
	<g>
		<rect x="272.667" y="56.788" fill="#FFFFFF" width="20.713" height="5.788"/>
		<circle fill="#FFFFFF" cx="283.022" cy="59.496" r="6.626"/>
		<circle fill="#2E8E89" cx="283.022" cy="59.496" r="5.35"/>
	</g>
</g>
<g>
	<rect x="300.958" y="6.368" fill="#8C5B48" width="5.402" height="89.986"/>
	<ellipse fill="#FFBC6C" cx="303.659" cy="10.752" rx="1.508" ry="2.141"/>
</g>
<g>
	<rect x="294.59" y="6.368" fill="#F95D68" width="5.402" height="89.986"/>
	<ellipse fill="#2E8E89" cx="297.292" cy="10.752" rx="1.508" ry="2.141"/>
</g>
<g>
	<rect x="230.45" y="83.113" fill="#8C5B48" width="41.275" height="13.283"/>
	<rect x="234.604" y="83.113" fill="#2E8E89" width="10.941" height="13.283"/>
	<rect x="247.551" y="83.113" fill="#2E8E89" width="1.639" height="13.283"/>
	<rect x="238.637" y="84.039" fill="#BDD186" width="2.878" height="11.43"/>
	<ellipse fill="#BDD186" cx="240.077" cy="89.754" rx="3.328" ry="3.195"/>
	<ellipse fill="#FFFFFF" cx="240.077" cy="89.754" rx="2.389" ry="2.294"/>
</g>
<g>
	<path fill="#565656" d="M223.254,75.857c0,11.003-9.648,19.923-21.551,19.923c-11.903,0-21.553-8.92-21.553-19.923
		s7.957-21.201,21.553-21.201C215.298,54.656,223.254,64.854,223.254,75.857z"/>
	<g>
		<circle fill="#3F3F3F" cx="216.421" cy="92.965" r="3.034"/>
		<circle fill="#3F3F3F" cx="186.984" cy="92.965" r="3.034"/>
	</g>
	<rect x="201.146" y="51.15" fill="#B2B1B1" width="1.114" height="3.94"/>
	<path fill="#B2B1B1" d="M203.74,51.15c0,0.467-0.378,0.845-0.845,0.845h-2.386c-0.467,0-0.845-0.378-0.845-0.845l0,0
		c0-0.467,0.378-0.845,0.845-0.845h2.386C203.362,50.306,203.74,50.684,203.74,51.15L203.74,51.15z"/>
	<g>
		<polygon points="190.618,58.184 189.122,55.037 190.778,54.274 192.274,57.421 		"/>
		<rect x="211.098" y="55.252" transform="matrix(0.4173 -0.9088 0.9088 0.4173 72.9398 226.0772)" width="3.314" height="1.823"/>
	</g>
	<ellipse fill="#3F3F3F" cx="201.703" cy="75.857" rx="21.551" ry="19.923"/>
	<ellipse fill="#FFFFFF" cx="201.703" cy="75.857" rx="19.676" ry="18.189"/>
	<g>
		<path fill="#3F3F3F" d="M190.523,56.948c2.974-1.181,5.728-2.51,8.172-3.906c-1.899-3.849-6.781-5.541-11.223-3.774
			c-4.442,1.764-6.833,6.344-5.574,10.445C184.635,59.051,187.551,58.128,190.523,56.948z"/>
		<path fill="#3F3F3F" d="M212.882,56.948c-2.973-1.181-5.728-2.51-8.172-3.906c1.899-3.849,6.781-5.541,11.223-3.774
			c4.44,1.764,6.833,6.344,5.573,10.445C218.771,59.051,215.854,58.128,212.882,56.948z"/>
	</g>
	<g>
		<g>
			<path fill="#3F3F3F" d="M201.703,64.412c-0.303,0-0.548-0.245-0.548-0.547V59.17c0-0.302,0.245-0.547,0.548-0.547
				c0.302,0,0.547,0.245,0.547,0.547v4.695C202.25,64.167,202.005,64.412,201.703,64.412z"/>
		</g>
		<g>
			<path fill="#3F3F3F" d="M201.703,93.09c-0.303,0-0.548-0.245-0.548-0.547V87.85c0-0.305,0.245-0.55,0.548-0.55
				c0.302,0,0.547,0.245,0.547,0.55v4.691C202.25,92.844,202.005,93.09,201.703,93.09z"/>
		</g>
		<g>
			<path fill="#3F3F3F" d="M218.389,76.404h-4.694c-0.302,0-0.547-0.245-0.547-0.547s0.245-0.547,0.547-0.547h4.694
				c0.303,0,0.548,0.245,0.548,0.547S218.691,76.404,218.389,76.404z"/>
		</g>
		<g>
			<path fill="#3F3F3F" d="M189.711,76.404h-4.695c-0.302,0-0.547-0.245-0.547-0.547s0.245-0.547,0.547-0.547h4.695
				c0.302,0,0.547,0.245,0.547,0.547S190.013,76.404,189.711,76.404z"/>
		</g>
		<g>
			<path fill="#3F3F3F" d="M210.585,90.53c-0.183,0-0.36-0.09-0.464-0.256l-1.249-1.987c-0.161-0.255-0.084-0.593,0.172-0.754
				s0.593-0.084,0.754,0.172l1.249,1.987c0.161,0.255,0.084,0.593-0.172,0.754C210.785,90.503,210.684,90.53,210.585,90.53z"/>
		</g>
		<g>
			<path fill="#3F3F3F" d="M194.071,64.265c-0.182,0-0.359-0.093-0.464-0.259l-1.249-1.984c-0.161-0.256-0.084-0.593,0.172-0.754
				c0.256-0.161,0.594-0.083,0.754,0.172l1.25,1.984c0.16,0.259,0.083,0.597-0.173,0.757
				C194.271,64.237,194.171,64.265,194.071,64.265z"/>
		</g>
		<g>
			<path fill="#3F3F3F" d="M216.253,84.571c-0.091,0-0.183-0.022-0.267-0.07l-2.047-1.146c-0.264-0.148-0.357-0.481-0.21-0.745
				c0.148-0.267,0.481-0.357,0.745-0.209l2.047,1.146c0.264,0.148,0.357,0.481,0.209,0.745
				C216.631,84.469,216.444,84.571,216.253,84.571z"/>
		</g>
		<g>
			<path fill="#3F3F3F" d="M189.198,69.385c-0.091,0-0.183-0.021-0.268-0.067l-2.047-1.149c-0.263-0.146-0.357-0.479-0.209-0.745
				c0.147-0.263,0.481-0.354,0.744-0.209l2.047,1.149c0.264,0.146,0.357,0.479,0.21,0.745
				C189.575,69.285,189.39,69.385,189.198,69.385z"/>
		</g>
		<g>
			<path fill="#3F3F3F" d="M192.821,90.53c-0.1,0-0.2-0.027-0.291-0.084c-0.256-0.161-0.333-0.499-0.172-0.754l1.249-1.987
				c0.161-0.256,0.499-0.333,0.754-0.172c0.256,0.161,0.333,0.499,0.173,0.754l-1.25,1.987
				C193.181,90.44,193.003,90.53,192.821,90.53z"/>
		</g>
		<g>
			<path fill="#3F3F3F" d="M209.334,64.265c-0.1,0-0.2-0.027-0.29-0.084c-0.256-0.161-0.333-0.499-0.172-0.757l1.249-1.984
				c0.161-0.256,0.498-0.333,0.754-0.172s0.333,0.498,0.172,0.754l-1.249,1.984C209.693,64.174,209.516,64.265,209.334,64.265z"/>
		</g>
		<g>
			<path fill="#3F3F3F" d="M187.152,84.571c-0.191,0-0.377-0.104-0.478-0.279c-0.148-0.263-0.054-0.597,0.209-0.745l2.047-1.146
				c0.264-0.147,0.597-0.057,0.745,0.209c0.147,0.263,0.054,0.597-0.21,0.745l-2.047,1.146
				C187.335,84.548,187.243,84.571,187.152,84.571z"/>
		</g>
		<g>
			<path fill="#3F3F3F" d="M214.207,69.385c-0.191,0-0.377-0.101-0.478-0.276c-0.147-0.267-0.054-0.6,0.21-0.745l2.047-1.149
				c0.263-0.146,0.597-0.054,0.744,0.209c0.148,0.267,0.055,0.6-0.209,0.745l-2.047,1.149
				C214.39,69.363,214.298,69.385,214.207,69.385z"/>
		</g>
	</g>
</g>
<g>
	
		<path fill="none" stroke="#2D5452" stroke-width="4.5789" stroke-linecap="round" stroke-linejoin="round" stroke-miterlimit="10" d="
		M35.488,137.382c0,0,0-20.996-8.335-37.343"/>
	
		<path fill="none" stroke="#2D5452" stroke-width="4.5789" stroke-linecap="round" stroke-linejoin="round" stroke-miterlimit="10" d="
		M61.023,141.509c0,0-7.515-61.461-1.325-96.392"/>
	
		<path fill="none" stroke="#2D5452" stroke-width="4.5789" stroke-linecap="round" stroke-linejoin="round" stroke-miterlimit="10" d="
		M46.58,150.648c0,0-4.861-50.408-14.59-81.36"/>
	
		<path fill="none" stroke="#2D5452" stroke-width="4.5789" stroke-linecap="round" stroke-linejoin="round" stroke-miterlimit="10" d="
		M66.626,154.628c0,0-3.54-36.701,3.094-83.128"/>
	
		<path fill="none" stroke="#2D5452" stroke-width="4.5789" stroke-linecap="round" stroke-linejoin="round" stroke-miterlimit="10" d="
		M76.943,140.92c0,0-2.212-20.779,7.073-44.218"/>
	
		<path fill="none" stroke="#2D5452" stroke-width="4.5789" stroke-linecap="round" stroke-linejoin="round" stroke-miterlimit="10" d="
		M71.342,136.499c0,0-0.356-40.043,8.572-73.512"/>
	<g>
		<path fill="#64BE7B" d="M37.98,62.54c-1.748,1.563-4.045,2.959-5.994,0.899c-2.656-2.808,1.228-5.633,3.262-7.225
			c2.928-2.289,5.764-3.21,9.184-3.436c-1.472-2.496-3.193-4.669-4.591-6.126c-0.682-0.71-1.39-1.367-2.114-1.983
			c-0.711,1.129-1.491,2.214-2.249,3.325c-0.948,1.396-1.701,2.917-2.716,4.268c-1.346,1.784-3.277,3.861-5.631,2.599
			c-2.783-1.498-1.663-5.358,0.069-7.068c2.193-2.164,5.363-3.686,8.333-4.81c-3.123-2.175-6.504-3.636-9.801-4.606
			c0.058,1.68,0.244,3.364-0.145,5.004c-0.387,1.6-2.683,3.097-4.323,2.738c-2.127-0.465-2.326-2.711-1.813-4.512
			c0.451-1.584,1.563-2.953,2.803-4.087C14.191,35.88,7.42,36.853,7.42,36.853c2.809,3.679,1.5,8.008-0.232,12.854
			c1.428-0.467,2.938-0.647,4.403-0.199c1.5,0.462,4.775,1.821,4.877,3.738c0.102,1.878-3.059,2.877-4.477,2.701
			c-2.441-0.301-4.169-1.648-5.943-3.042c-1.557,4.497-2.816,9.382-1.214,14.563c1.929-1.926,3.309-4.09,6.208-4.885
			c1.765-0.484,3.632,0.406,4.045,2.234c0.404,1.768-1.288,3.296-2.721,3.93c-2.131,0.942-4.252,1.185-6.436,1.434
			c1.28,2.533,3.317,5.137,6.412,7.793c1.265,1.089,2.453,1.983,3.566,2.719c0.019-0.612,0.043-1.228,0.169-1.811
			c0.273-1.257,0.583-2.519,1.05-3.72c0.622-1.587,1.421-3.119,2.267-4.597c1.049-1.825,3.268-6.276,5.969-5.841
			c3.765,0.604,2.366,5.254,1.037,7.356c-1.475,2.335-2.767,4.858-4.578,6.96c-0.906,1.053-2.102,2.09-3.183,3.189
			c11.053,5.133,13.966-7.975,19.391-9.422c11.056-2.957,10.862-10.604,7.893-17.171C43.054,57.677,40.598,60.196,37.98,62.54z"/>
		<path fill="#59AA68" d="M18.179,42.596c0.349,0.228,0.694,0.465,1.038,0.704c-0.007-0.563,0.082-1.146,0.236-1.692
			c0.451-1.584,1.563-2.953,2.803-4.087c-8.063-1.643-14.834-0.667-14.834-0.667c0.444,0.58,0.774,1.177,1.027,1.787
			C11.94,39.485,15.367,40.757,18.179,42.596z"/>
		<path fill="#59AA68" d="M22.661,46.042c1.189,1.063,2.329,2.209,3.386,3.418c0.309-0.646,0.713-1.228,1.155-1.667
			c2.193-2.164,5.363-3.686,8.333-4.81c-3.123-2.175-6.504-3.636-9.801-4.606c0.058,1.68,0.244,3.364-0.145,5.004
			C25.305,44.557,23.986,45.674,22.661,46.042z"/>
		<path fill="#59AA68" d="M37.728,44.672c-0.711,1.129-1.491,2.214-2.249,3.325c-0.948,1.396-1.701,2.917-2.716,4.268
			c-0.753,1.004-1.696,2.098-2.792,2.641c0.274,0.475,0.539,0.954,0.784,1.438c0.469,0.926,0.879,1.883,1.23,2.859
			c0.902-1.186,2.29-2.226,3.262-2.984c2.928-2.288,5.764-3.21,9.184-3.436c-1.472-2.496-3.193-4.669-4.591-6.126
			C39.16,45.944,38.452,45.288,37.728,44.672z"/>
		<path fill="#59AA68" d="M33.169,64.273c0.385,3.609-0.224,7.269-2.293,10.452c-1.761,2.714-4.011,5.032-6.498,7.097
			c-0.646,0.538-1.394,1.031-2.148,1.514c8.185,1.102,11.021-9.245,15.802-10.521c11.056-2.957,10.862-10.604,7.893-17.171
			c-2.872,2.034-5.327,4.555-7.945,6.896C36.576,63.796,34.816,64.94,33.169,64.273z"/>
	</g>
	<g>
		<path fill="#64BE7B" d="M88.512,66.191c-2.066-1.105-4.168-2.782-2.901-5.318c1.726-3.46,5.713-0.78,7.906,0.583
			c3.154,1.966,4.99,4.314,6.377,7.45c1.84-2.239,3.287-4.604,4.178-6.417c0.434-0.882,0.807-1.773,1.136-2.666
			c-1.305-0.28-2.592-0.639-3.894-0.97c-1.632-0.413-3.325-0.599-4.938-1.086c-2.141-0.65-4.757-1.753-4.375-4.397
			c0.451-3.129,4.462-3.4,6.663-2.355c2.785,1.313,5.302,3.768,7.377,6.172c0.969-3.683,1.183-7.355,0.964-10.786
			c-1.557,0.629-3.076,1.385-4.753,1.58c-1.631,0.187-3.825-1.459-4.052-3.119c-0.296-2.159,1.747-3.114,3.613-3.252
			c1.646-0.121,3.309,0.455,4.803,1.229c-1.23-8.138-4.463-14.162-4.463-14.162c-2.494,3.9-7.006,4.158-12.153,4.191
			c0.927,1.182,1.616,2.538,1.696,4.068c0.081,1.563-0.071,5.106-1.838,5.861c-1.727,0.74-3.75-1.886-4.07-3.276
			c-0.557-2.396,0.116-4.481,0.815-6.629c-4.758,0.085-9.777,0.576-14.095,3.856c2.471,1.154,4.977,1.707,6.719,4.157
			c1.062,1.491,0.863,3.549-0.71,4.567c-1.524,0.982-3.539-0.08-4.625-1.208c-1.618-1.681-2.568-3.592-3.551-5.558
			c-1.944,2.073-3.688,4.881-5.121,8.697c-0.586,1.563-1.025,2.986-1.331,4.284c0.58-0.194,1.167-0.38,1.757-0.46
			c1.274-0.18,2.565-0.319,3.852-0.291c1.705,0.037,3.418,0.262,5.099,0.553c2.073,0.358,7.017,0.913,7.534,3.6
			c0.721,3.745-4.124,4.024-6.558,3.5c-2.698-0.583-5.512-0.93-8.107-1.907c-1.3-0.489-2.684-1.259-4.089-1.896
			c-1.028,12.145,12.284,10.385,15.505,14.98c6.573,9.372,13.688,6.563,18.835,1.521C94.821,69.29,91.612,67.847,88.512,66.191z"/>
		<path fill="#59AA68" d="M100.449,40.75c-0.092,0.404-0.196,0.813-0.308,1.218c0.529-0.2,1.109-0.318,1.672-0.359
			c1.646-0.121,3.309,0.455,4.803,1.229c-1.23-8.138-4.463-14.162-4.463-14.162c-0.392,0.614-0.84,1.132-1.33,1.575
			C101.23,33.823,101.21,37.475,100.449,40.75z"/>
		<path fill="#59AA68" d="M98.753,46.14c-0.594,1.48-1.278,2.943-2.051,4.354c0.714,0.068,1.397,0.249,1.962,0.516
			c2.785,1.316,5.302,3.771,7.377,6.175c0.969-3.683,1.183-7.355,0.964-10.786c-1.557,0.629-3.076,1.385-4.753,1.58
			C101.051,48.113,99.553,47.26,98.753,46.14z"/>
		<path fill="#59AA68" d="M105.208,59.822c-1.305-0.28-2.592-0.639-3.894-0.97c-1.632-0.413-3.325-0.599-4.938-1.086
			c-1.201-0.365-2.553-0.874-3.44-1.721c-0.352,0.426-0.709,0.836-1.081,1.232c-0.706,0.754-1.464,1.469-2.265,2.134
			c1.422,0.44,2.875,1.393,3.925,2.04c3.154,1.966,4.99,4.314,6.377,7.45c1.84-2.239,3.287-4.604,4.178-6.417
			C104.505,61.606,104.878,60.715,105.208,59.822z"/>
		<path fill="#59AA68" d="M85.231,62.265c-3.259,1.604-6.904,2.284-10.602,1.438c-3.153-0.724-6.106-2.042-8.896-3.67
			c-0.728-0.423-1.447-0.955-2.159-1.498c1.778,8.067,12.465,7.179,15.308,11.231c6.573,9.372,13.688,6.563,18.835,1.521
			c-2.896-1.999-6.105-3.438-9.206-5.097C86.852,65.302,85.169,64.043,85.231,62.265z"/>
	</g>
	<g>
		<path fill="#64BE7B" d="M64.062,72.137c1.292,0.483,2.645,1.305,2.099,2.882c-0.741,2.147-3.271,0.894-4.654,0.265
			c-1.993-0.904-3.244-2.134-4.296-3.858c-0.899,1.447-1.565,2.938-1.945,4.064c-0.185,0.55-0.334,1.098-0.459,1.642
			c0.784,0.063,1.561,0.178,2.347,0.271c0.986,0.116,1.986,0.094,2.965,0.256c1.3,0.216,2.91,0.66,2.889,2.229
			c-0.021,1.861-2.344,2.324-3.707,1.89c-1.726-0.558-3.381-1.793-4.776-3.038c-0.286,2.223-0.13,4.383,0.262,6.369
			c0.86-0.487,1.69-1.043,2.653-1.285c0.938-0.234,2.346,0.557,2.604,1.509c0.335,1.238-0.783,1.952-1.862,2.174
			c-0.945,0.197-1.961-0.011-2.895-0.35c1.343,4.654,3.689,7.922,3.689,7.922c1.157-2.467,3.771-2.963,6.773-3.378
			c-0.632-0.618-1.138-1.356-1.303-2.243c-0.167-0.909-0.35-2.986,0.622-3.563c0.952-0.564,2.335,0.812,2.631,1.601
			c0.507,1.355,0.271,2.624,0.029,3.93c2.769-0.414,5.662-1.085,7.931-3.332c-1.532-0.481-3.037-0.61-4.244-1.906
			c-0.732-0.79-0.773-2.008,0.066-2.724c0.814-0.688,2.072-0.225,2.794,0.353c1.07,0.854,1.77,1.896,2.498,2.969
			c0.973-1.358,1.779-3.13,2.323-5.467c0.222-0.957,0.367-1.82,0.446-2.604c-0.323,0.157-0.65,0.313-0.99,0.403
			c-0.729,0.201-1.473,0.383-2.228,0.465c-0.996,0.109-2.013,0.109-3.015,0.068c-1.236-0.05-4.163,0.005-4.674-1.523
			c-0.706-2.13,2.1-2.665,3.56-2.544c1.618,0.133,3.286,0.12,4.879,0.492c0.795,0.186,1.66,0.527,2.529,0.793
			c-0.329-7.165-7.964-5.118-10.193-7.553c-4.555-4.966-8.494-2.782-11.112,0.555C60.142,70.812,62.125,71.408,64.062,72.137z"/>
		<path fill="#59AA68" d="M59.044,87.898c0.024-0.242,0.052-0.488,0.087-0.735c-0.292,0.16-0.621,0.272-0.951,0.339
			c-0.945,0.197-1.961-0.011-2.895-0.35c1.343,4.654,3.689,7.922,3.689,7.922c0.184-0.388,0.405-0.723,0.655-1.021
			C59.119,92,58.851,89.867,59.044,87.898z"/>
		<path fill="#59AA68" d="M59.624,84.623c0.231-0.911,0.519-1.814,0.862-2.699c-0.423,0.016-0.835-0.039-1.186-0.147
			c-1.726-0.558-3.381-1.793-4.776-3.038c-0.286,2.223-0.13,4.383,0.262,6.369c0.86-0.487,1.69-1.043,2.653-1.285
			C58.128,83.646,59.071,84.03,59.624,84.623z"/>
		<path fill="#59AA68" d="M54.807,77.132c0.784,0.063,1.561,0.178,2.347,0.271c0.986,0.116,1.986,0.094,2.965,0.256
			c0.731,0.121,1.555,0.313,2.14,0.737c0.171-0.271,0.35-0.54,0.535-0.803c0.353-0.49,0.741-0.97,1.159-1.42
			c-0.866-0.146-1.786-0.589-2.446-0.889c-1.993-0.904-3.244-2.134-4.296-3.858c-0.899,1.447-1.565,2.938-1.945,4.064
			C55.082,76.04,54.932,76.587,54.807,77.132z"/>
		<path fill="#59AA68" d="M66.276,74.175c1.782-1.185,3.854-1.859,6.08-1.647c1.896,0.182,3.716,0.724,5.471,1.459
			c0.456,0.19,0.916,0.447,1.373,0.71c-1.653-4.572-7.821-3.235-9.79-5.381c-4.555-4.965-8.494-2.782-11.112,0.555
			c1.844,0.944,3.827,1.541,5.764,2.271C65.099,72.528,66.174,73.135,66.276,74.175z"/>
	</g>
	<g>
		<path fill="#0A5D61" d="M21.048,99.404c1.374,0.757,2.765,1.896,1.899,3.583c-1.182,2.3-3.829,0.476-5.285-0.456
			c-2.093-1.341-3.303-2.926-4.207-5.037c-1.248,1.484-2.24,3.054-2.847,4.259c-0.298,0.587-0.558,1.183-0.783,1.775
			c0.869,0.196,1.727,0.448,2.597,0.679c1.089,0.29,2.222,0.427,3.294,0.771c1.428,0.45,3.167,1.213,2.893,2.979
			c-0.331,2.089-3.015,2.236-4.477,1.522c-1.854-0.903-3.517-2.564-4.888-4.191c-0.678,2.455-0.851,4.912-0.733,7.209
			c1.047-0.409,2.072-0.901,3.193-1.018c1.093-0.112,2.547,1.007,2.686,2.12c0.18,1.445-1.193,2.067-2.444,2.146
			c-1.1,0.067-2.21-0.332-3.203-0.863c0.755,5.455,2.87,9.514,2.87,9.514c1.701-2.589,4.724-2.727,8.166-2.703
			c-0.61-0.799-1.062-1.711-1.103-2.736c-0.04-1.049,0.091-3.417,1.281-3.909c1.161-0.479,2.492,1.292,2.696,2.229
			c0.353,1.604-0.116,2.997-0.602,4.428c3.184-0.017,6.547-0.305,9.462-2.466c-1.642-0.792-3.314-1.183-4.46-2.834
			c-0.701-1.007-0.549-2.382,0.512-3.051c1.028-0.646,2.367,0.081,3.084,0.846c1.07,1.136,1.689,2.422,2.332,3.745
			c1.317-1.371,2.506-3.234,3.497-5.775c0.406-1.042,0.708-1.991,0.926-2.854c-0.391,0.126-0.783,0.245-1.179,0.295
			c-0.855,0.105-1.722,0.189-2.581,0.162c-1.141-0.038-2.287-0.203-3.406-0.412c-1.386-0.257-4.686-0.668-5.013-2.473
			c-0.45-2.512,2.793-2.655,4.419-2.285c1.8,0.412,3.678,0.667,5.407,1.345c0.863,0.338,1.785,0.86,2.718,1.302
			c0.79-8.117-8.13-7.049-10.251-10.15C23.2,90.77,18.417,92.589,14.93,95.92C16.854,97.28,18.988,98.271,21.048,99.404z"/>
		<path fill="#175451" d="M12.853,116.329c0.068-0.271,0.138-0.542,0.215-0.813c-0.354,0.131-0.745,0.206-1.122,0.229
			c-1.1,0.067-2.21-0.332-3.203-0.863c0.755,5.455,2.87,9.514,2.87,9.514c0.269-0.406,0.574-0.747,0.9-1.041
			C12.273,120.956,12.315,118.513,12.853,116.329z"/>
		<path fill="#175451" d="M14.034,112.737c0.407-0.989,0.877-1.96,1.404-2.898c-0.473-0.05-0.931-0.177-1.306-0.357
			c-1.854-0.903-3.517-2.564-4.888-4.191c-0.678,2.455-0.851,4.912-0.733,7.209c1.047-0.409,2.072-0.898,3.193-1.018
			C12.51,111.396,13.505,111.98,14.034,112.737z"/>
		<path fill="#175451" d="M9.826,103.53c0.869,0.196,1.727,0.448,2.597,0.679c1.089,0.29,2.222,0.427,3.294,0.771
			c0.801,0.254,1.702,0.604,2.288,1.177c0.238-0.279,0.482-0.553,0.732-0.815c0.479-0.499,0.991-0.97,1.533-1.407
			c-0.948-0.309-1.915-0.952-2.608-1.397c-2.093-1.341-3.303-2.926-4.207-5.037c-1.248,1.484-2.24,3.054-2.847,4.259
			C10.311,102.342,10.051,102.934,9.826,103.53z"/>
		<path fill="#175451" d="M23.211,102.058c2.194-1.05,4.639-1.477,7.106-0.874c2.102,0.511,4.066,1.416,5.919,2.525
			c0.486,0.289,0.962,0.651,1.434,1.021c-1.123-5.412-8.281-4.905-10.153-7.644c-4.318-6.32-9.101-4.503-12.588-1.172
			c1.923,1.362,4.058,2.354,6.117,3.485C22.156,100.013,23.265,100.87,23.211,102.058z"/>
	</g>
	<g>
		<path fill="#0A5D61" d="M89.397,96.798c-1.154,0.635-2.32,1.587-1.594,3c0.99,1.931,3.207,0.399,4.428-0.381
			c1.756-1.124,2.771-2.452,3.524-4.221c1.047,1.244,1.875,2.559,2.387,3.569c0.249,0.489,0.465,0.985,0.655,1.482
			c-0.727,0.167-1.446,0.377-2.177,0.572c-0.911,0.242-1.859,0.354-2.76,0.643c-1.194,0.379-2.655,1.019-2.42,2.495
			c0.275,1.75,2.524,1.874,3.752,1.275c1.549-0.757,2.943-2.147,4.091-3.51c0.569,2.055,0.714,4.112,0.614,6.039
			c-0.877-0.345-1.735-0.757-2.675-0.854c-0.916-0.094-2.133,0.844-2.248,1.775c-0.151,1.213,1,1.732,2.048,1.798
			c0.92,0.056,1.85-0.277,2.681-0.725c-0.632,4.568-2.405,7.971-2.405,7.971c-1.422-2.167-3.954-2.281-6.841-2.269
			c0.513-0.668,0.891-1.434,0.925-2.291c0.034-0.879-0.077-2.86-1.072-3.272c-0.972-0.403-2.09,1.083-2.259,1.865
			c-0.297,1.348,0.095,2.512,0.5,3.709c-2.665-0.015-5.482-0.257-7.928-2.064c1.378-0.663,2.78-0.991,3.739-2.375
			c0.586-0.844,0.459-1.996-0.429-2.556c-0.859-0.542-1.982,0.066-2.583,0.708c-0.897,0.95-1.418,2.027-1.953,3.138
			c-1.104-1.147-2.102-2.71-2.931-4.839c-0.338-0.873-0.594-1.668-0.776-2.396c0.327,0.105,0.658,0.205,0.99,0.248
			c0.714,0.091,1.44,0.16,2.16,0.139c0.958-0.033,1.915-0.171,2.855-0.348c1.16-0.215,3.926-0.56,4.198-2.067
			c0.378-2.104-2.338-2.229-3.697-1.916c-1.512,0.345-3.084,0.56-4.533,1.125c-0.727,0.282-1.494,0.723-2.277,1.091
			c-0.665-6.8,6.811-5.905,8.584-8.505c3.622-5.298,7.63-3.774,10.551-0.982C92.909,95.017,91.12,95.847,89.397,96.798z"/>
		<path fill="#175451" d="M96.262,110.978c-0.058-0.229-0.117-0.454-0.181-0.683c0.295,0.109,0.622,0.171,0.941,0.19
			c0.92,0.056,1.85-0.277,2.681-0.723c-0.632,4.566-2.405,7.969-2.405,7.969c-0.222-0.34-0.478-0.626-0.755-0.872
			C96.747,114.854,96.709,112.807,96.262,110.978z"/>
		<path fill="#175451" d="M95.271,107.967c-0.338-0.826-0.733-1.643-1.179-2.427c0.399-0.043,0.784-0.146,1.1-0.304
			c1.549-0.757,2.943-2.147,4.091-3.51c0.569,2.055,0.714,4.112,0.614,6.039c-0.877-0.345-1.735-0.757-2.675-0.854
			C96.55,106.844,95.714,107.333,95.271,107.967z"/>
		<path fill="#175451" d="M98.797,100.251c-0.727,0.167-1.446,0.377-2.177,0.572c-0.911,0.242-1.859,0.356-2.76,0.643
			c-0.67,0.212-1.425,0.51-1.916,0.986c-0.202-0.234-0.403-0.464-0.616-0.684c-0.401-0.417-0.829-0.813-1.282-1.185
			c0.793-0.256,1.602-0.798,2.185-1.169c1.756-1.124,2.771-2.452,3.524-4.221c1.047,1.244,1.875,2.559,2.387,3.569
			C98.391,99.258,98.607,99.754,98.797,100.251z"/>
		<path fill="#175451" d="M87.582,99.02c-1.836-0.877-3.885-1.233-5.951-0.732c-1.765,0.428-3.412,1.188-4.965,2.119
			c-0.403,0.242-0.805,0.545-1.198,0.854c0.939-4.53,6.938-4.106,8.501-6.399c3.622-5.298,7.63-3.774,10.551-0.982
			c-1.611,1.144-3.4,1.974-5.123,2.922C88.468,97.306,87.534,98.023,87.582,99.02z"/>
	</g>
	<g>
		<path fill="#0A5D61" d="M67.732,49.446c-2.438-0.265-5.128-1.074-4.891-4.028c0.321-4.027,5.237-2.984,7.893-2.52
			c3.829,0.676,6.53,2.235,9.097,4.741c0.911-2.894,1.395-5.751,1.552-7.856c0.075-1.027,0.089-2.035,0.061-3.031
			c-1.374,0.239-2.763,0.393-4.158,0.58c-1.745,0.235-3.455,0.719-5.213,0.872c-2.329,0.205-5.299,0.153-5.96-2.561
			c-0.781-3.212,3.004-5.038,5.545-4.891c3.215,0.19,6.614,1.588,9.563,3.111c-0.492-3.949-1.723-7.599-3.272-10.84
			c-1.264,1.218-2.443,2.544-3.995,3.385c-1.509,0.819-4.278,0.079-5.15-1.443c-1.127-1.979,0.482-3.701,2.24-4.563
			c1.546-0.76,3.389-0.854,5.139-0.68c-4.366-7.414-9.858-11.997-9.858-11.997c-0.895,4.755-5.175,6.766-10.155,8.808
			c1.361,0.785,2.56,1.831,3.233,3.286c0.692,1.488,1.925,4.98,0.507,6.406c-1.388,1.391-4.377-0.367-5.23-1.596
			c-1.475-2.105-1.638-4.394-1.796-6.75c-4.582,1.939-9.26,4.376-12.169,9.245c2.845,0.153,5.494-0.288,8.141,1.408
			c1.612,1.035,2.221,3.107,1.094,4.71c-1.094,1.549-3.464,1.304-4.959,0.633c-2.221-0.997-3.896-2.479-5.615-4.002
			c-1.078,2.771-1.672,6.172-1.573,10.438c0.04,1.746,0.171,3.296,0.38,4.675c0.49-0.415,0.982-0.825,1.525-1.134
			c1.166-0.668,2.364-1.313,3.625-1.786c1.667-0.629,3.418-1.08,5.16-1.453c2.152-0.461,7.165-1.854,8.715,0.553
			c2.162,3.354-2.432,5.516-4.998,5.954c-2.844,0.487-5.708,1.248-8.609,1.313c-1.45,0.029-3.096-0.174-4.708-0.244
			c3.743,12.183,15.971,5.284,20.889,8.48c10.033,6.527,15.842,1.029,18.871-5.874C75.062,49.991,71.385,49.843,67.732,49.446z"/>
		<path fill="#175451" d="M69.385,20.103c0.066,0.431,0.125,0.862,0.177,1.303c0.433-0.402,0.95-0.743,1.482-1.004
			c1.546-0.76,3.389-0.854,5.139-0.68c-4.366-7.414-9.858-11.997-9.858-11.997c-0.14,0.749-0.374,1.422-0.671,2.045
			C67.441,13.079,68.848,16.629,69.385,20.103z"/>
		<path fill="#175451" d="M69.843,25.997c0.003,1.67-0.093,3.356-0.291,5.025c0.719-0.212,1.453-0.307,2.107-0.27
			c3.215,0.19,6.614,1.588,9.563,3.111c-0.492-3.949-1.723-7.599-3.272-10.84c-1.264,1.218-2.443,2.544-3.995,3.385
			C72.845,27.014,71.057,26.771,69.843,25.997z"/>
		<path fill="#175451" d="M81.445,36.752c-1.374,0.239-2.763,0.393-4.158,0.58c-1.745,0.235-3.455,0.719-5.213,0.872
			c-1.308,0.115-2.817,0.149-4.009-0.325c-0.174,0.546-0.362,1.089-0.567,1.618c-0.39,1.006-0.845,1.996-1.363,2.956
			c1.551-0.129,3.333,0.225,4.6,0.446c3.829,0.676,6.53,2.238,9.097,4.741c0.911-2.894,1.395-5.751,1.552-7.856
			C81.459,38.756,81.473,37.748,81.445,36.752z"/>
		<path fill="#175451" d="M63.017,46.917c-2.537,2.83-5.808,4.912-9.728,5.531c-3.343,0.528-6.722,0.403-10.062-0.089
			c-0.87-0.127-1.777-0.363-2.679-0.611c4.87,7.133,14.896,2.104,19.234,4.924c10.033,6.527,15.842,1.029,18.871-5.874
			c-3.592-0.808-7.269-0.956-10.921-1.353C65.771,49.232,63.652,48.667,63.017,46.917z"/>
	</g>
	
		<path fill="none" stroke="#2D5452" stroke-width="4.5789" stroke-linecap="round" stroke-linejoin="round" stroke-miterlimit="10" d="
		M52.331,135.885c0,0-0.259-18.933-4.074-35.627"/>
	<g>
		<path fill="#64BE7B" d="M43.436,106.222c1.23-0.731,2.767-1.305,3.696,0.155c1.264,1.99-1.391,3.231-2.795,3.946
			c-2.017,1.032-3.823,1.253-5.898,0.991c0.588,1.666,1.371,3.167,2.035,4.203c0.328,0.503,0.676,0.979,1.038,1.432
			c0.558-0.593,1.151-1.152,1.731-1.729c0.732-0.726,1.36-1.553,2.125-2.239c1.011-0.914,2.414-1.937,3.674-0.903
			c1.491,1.221,0.374,3.402-0.865,4.227c-1.564,1.042-3.637,1.585-5.545,1.911c1.616,1.665,3.47,2.935,5.333,3.897
			c0.162-1.013,0.243-2.043,0.671-2.981c0.414-0.909,1.964-1.541,2.904-1.137c1.222,0.525,1.076,1.896,0.561,2.913
			c-0.454,0.896-1.275,1.586-2.153,2.123c4.642,1.918,8.807,2.122,8.807,2.122c-1.253-2.53,0.028-4.971,1.631-7.67
			c-0.908,0.113-1.835,0.047-2.657-0.396c-0.845-0.448-2.648-1.644-2.488-2.805c0.157-1.137,2.165-1.368,2.997-1.098
			c1.426,0.464,2.302,1.472,3.207,2.514c1.451-2.514,2.774-5.293,2.418-8.583c-1.38,0.93-2.458,2.065-4.287,2.205
			c-1.117,0.085-2.128-0.665-2.165-1.809c-0.036-1.104,1.153-1.823,2.087-2.037c1.385-0.317,2.682-0.215,4.021-0.109
			c-0.473-1.668-1.39-3.461-2.935-5.412c-0.634-0.8-1.241-1.476-1.818-2.045c-0.085,0.366-0.172,0.73-0.313,1.065
			c-0.308,0.722-0.642,1.438-1.063,2.104c-0.555,0.88-1.21,1.705-1.891,2.491c-0.843,0.971-2.687,3.379-4.254,2.804
			c-2.186-0.801-0.804-3.421,0.236-4.525c1.153-1.229,2.22-2.587,3.549-3.64c0.662-0.522,1.501-1.007,2.274-1.54
			c-6.019-4.355-9.29,3.152-12.707,3.394c-6.964,0.482-7.737,5.088-6.721,9.363C39.833,108.544,41.596,107.321,43.436,106.222z"/>
		<path fill="#59AA68" d="M52.98,120.467c-0.183-0.178-0.366-0.357-0.542-0.544c-0.06,0.343-0.179,0.682-0.338,0.988
			c-0.454,0.896-1.275,1.586-2.153,2.123c4.642,1.918,8.807,2.122,8.807,2.122c-0.197-0.399-0.326-0.795-0.406-1.19
			C56.353,123.054,54.45,121.896,52.98,120.467z"/>
		<path fill="#59AA68" d="M50.695,117.883c-0.591-0.773-1.139-1.593-1.633-2.438c-0.261,0.351-0.568,0.65-0.886,0.863
			c-1.564,1.042-3.637,1.585-5.545,1.911c1.616,1.665,3.47,2.935,5.333,3.897c0.162-1.013,0.243-2.043,0.671-2.981
			C48.938,118.466,49.856,117.95,50.695,117.883z"/>
		<path fill="#59AA68" d="M41.511,116.952c0.558-0.593,1.151-1.152,1.731-1.729c0.732-0.726,1.36-1.553,2.125-2.239
			c0.57-0.514,1.258-1.063,1.979-1.257c-0.111-0.318-0.214-0.638-0.302-0.953c-0.173-0.607-0.31-1.229-0.405-1.856
			c-0.678,0.605-1.631,1.067-2.301,1.408c-2.017,1.032-3.823,1.253-5.898,0.991c0.588,1.666,1.371,3.167,2.035,4.203
			C40.801,116.023,41.149,116.499,41.511,116.952z"/>
		<path fill="#59AA68" d="M46.52,105.744c0.188-2.209,0.98-4.329,2.588-5.994c1.37-1.42,2.985-2.55,4.714-3.494
			c0.452-0.247,0.955-0.457,1.464-0.655c-4.777-1.61-7.671,4.257-10.688,4.468c-6.964,0.482-7.737,5.088-6.721,9.366
			c1.957-0.889,3.719-2.109,5.56-3.209C44.424,105.633,45.608,105.152,46.52,105.744z"/>
	</g>
	<g>
		<path fill="#0A5D61" d="M32.8,82.766c0.858-1.334,2.103-2.661,3.744-1.67c2.238,1.349,0.219,3.893-0.818,5.297
			c-1.495,2.021-3.178,3.135-5.369,3.897c1.414,1.361,2.929,2.465,4.103,3.162c0.571,0.341,1.152,0.644,1.737,0.91
			c0.26-0.864,0.571-1.712,0.864-2.573c0.365-1.078,0.582-2.209,0.999-3.271c0.553-1.409,1.44-3.111,3.202-2.713
			c2.084,0.473,2.049,3.188,1.229,4.618c-1.035,1.809-2.825,3.371-4.561,4.642c2.432,0.853,4.899,1.194,7.224,1.229
			c-0.344-1.083-0.771-2.146-0.81-3.289c-0.039-1.107,1.188-2.501,2.32-2.563c1.472-0.082,2.006,1.346,1.999,2.612
			c-0.008,1.113-0.484,2.207-1.087,3.173c5.552-0.395,9.786-2.247,9.786-2.247c-2.492-1.894-2.424-4.948-2.168-8.421
			c-0.848,0.563-1.8,0.956-2.836,0.926c-1.063-0.029-3.441-0.324-3.855-1.554c-0.406-1.206,1.474-2.431,2.432-2.571
			c1.643-0.245,3.014,0.322,4.425,0.908c0.198-3.212,0.137-6.624-1.844-9.711c-0.907,1.604-1.417,3.265-3.165,4.307
			c-1.062,0.636-2.437,0.391-3.042-0.724c-0.58-1.081,0.248-2.383,1.065-3.056c1.222-1.001,2.561-1.541,3.936-2.097
			c-1.291-1.422-3.09-2.748-5.586-3.92c-1.023-0.479-1.96-0.854-2.817-1.128c0.101,0.403,0.193,0.806,0.218,1.21
			c0.047,0.869,0.074,1.746-0.013,2.615c-0.118,1.146-0.361,2.29-0.649,3.403c-0.352,1.38-0.993,4.684-2.829,4.889
			c-2.564,0.283-2.493-2.999-2.008-4.61c0.54-1.786,0.923-3.664,1.725-5.362c0.401-0.849,0.992-1.74,1.496-2.651
			c-8.131-1.35-7.662,7.72-10.936,9.646c-6.67,3.926-5.161,8.874-2.04,12.618C30.371,86.851,31.519,84.766,32.8,82.766z"/>
		<path fill="#175451" d="M49.31,92.186c-0.266-0.087-0.535-0.182-0.802-0.274c0.105,0.366,0.156,0.764,0.153,1.146
			c-0.008,1.113-0.484,2.207-1.087,3.173c5.552-0.395,9.786-2.247,9.786-2.247c-0.391-0.299-0.715-0.628-0.99-0.981
			C53.938,93.085,51.479,92.875,49.31,92.186z"/>
		<path fill="#175451" d="M45.77,90.749c-0.969-0.478-1.917-1.019-2.827-1.616c-0.083,0.479-0.241,0.932-0.454,1.299
			c-1.035,1.807-2.825,3.369-4.561,4.64c2.432,0.853,4.899,1.195,7.224,1.229c-0.344-1.083-0.771-2.146-0.81-3.286
			C44.313,92.196,44.971,91.229,45.77,90.749z"/>
		<path fill="#175451" d="M36.196,94.365c0.26-0.864,0.571-1.712,0.864-2.573c0.365-1.078,0.582-2.209,0.999-3.271
			c0.311-0.79,0.725-1.673,1.342-2.229c-0.265-0.26-0.524-0.521-0.773-0.795c-0.469-0.516-0.91-1.063-1.316-1.642
			c-0.374,0.936-1.092,1.864-1.586,2.535c-1.495,2.021-3.178,3.135-5.369,3.897c1.414,1.361,2.929,2.465,4.103,3.162
			C35.03,93.796,35.611,94.096,36.196,94.365z"/>
		<path fill="#175451" d="M35.623,80.767c-0.904-2.286-1.167-4.779-0.395-7.229c0.656-2.086,1.706-4.007,2.952-5.799
			c0.325-0.468,0.724-0.925,1.128-1.376c-5.537,0.765-5.513,8.017-8.4,9.717c-6.67,3.926-5.161,8.874-2.04,12.618
			c1.503-1.848,2.651-3.933,3.932-5.933C33.49,81.693,34.43,80.628,35.623,80.767z"/>
	</g>
	<path fill="#2C61AD" d="M25.946,128.686c0,0-1.476,42.891,7.957,53.648c5.271,6.006,16.47,7.947,23.29,7.959
		c7.047,0.015,17.498-2.104,21.369-5.896c13.563-13.269,8.7-55.714,8.7-55.714L25.946,128.686L25.946,128.686z"/>
	<path fill="#22528C" d="M87.261,128.686h-8.723c-0.606,13.165-2.493,26.218-8.346,38.196c-4.379,8.958-10.751,17.649-20.822,20.426
		c-1.768,0.485-3.557,0.799-5.352,0.969c4.589,1.451,9.514,2.014,13.175,2.02c7.047,0.015,17.498-2.104,21.369-5.896
		C92.125,171.134,87.261,128.686,87.261,128.686z"/>
	<g>
		<path fill="#64BE7B" d="M70.759,98.197c0.734,0.278,1.509,0.746,1.197,1.646c-0.423,1.229-1.869,0.512-2.659,0.15
			c-1.141-0.517-1.854-1.219-2.452-2.204c-0.519,0.827-0.897,1.679-1.115,2.322c-0.105,0.313-0.191,0.627-0.261,0.938
			c0.449,0.037,0.889,0.104,1.337,0.153c0.562,0.067,1.137,0.053,1.696,0.146c0.743,0.123,1.66,0.377,1.652,1.272
			c-0.015,1.063-1.342,1.329-2.12,1.077c-0.987-0.315-1.932-1.023-2.729-1.735c-0.162,1.271-0.075,2.504,0.149,3.643
			c0.493-0.279,0.968-0.601,1.519-0.736c0.533-0.133,1.336,0.319,1.484,0.863c0.194,0.707-0.443,1.115-1.062,1.242
			c-0.542,0.11-1.121-0.006-1.655-0.201c0.767,2.661,2.109,4.526,2.109,4.526c0.661-1.408,2.153-1.69,3.87-1.932
			c-0.362-0.353-0.653-0.772-0.745-1.282c-0.095-0.519-0.2-1.707,0.354-2.035c0.546-0.32,1.335,0.467,1.503,0.916
			c0.291,0.773,0.157,1.499,0.018,2.244c1.582-0.232,3.233-0.619,4.53-1.9c-0.874-0.276-1.734-0.354-2.421-1.092
			c-0.423-0.45-0.443-1.146,0.038-1.555c0.464-0.396,1.182-0.13,1.595,0.199c0.61,0.489,1.014,1.084,1.426,1.696
			c0.559-0.776,1.016-1.788,1.327-3.123c0.127-0.548,0.211-1.04,0.257-1.487c-0.186,0.09-0.373,0.178-0.565,0.231
			c-0.42,0.111-0.842,0.218-1.273,0.266c-0.572,0.063-1.151,0.063-1.726,0.038c-0.707-0.028-2.378,0.003-2.671-0.87
			c-0.404-1.218,1.202-1.521,2.036-1.454c0.925,0.077,1.876,0.069,2.785,0.282c0.458,0.104,0.954,0.301,1.447,0.453
			c-0.188-4.094-4.549-2.926-5.825-4.316c-2.602-2.836-4.851-1.589-6.349,0.318C68.519,97.44,69.652,97.781,70.759,98.197z"/>
		<path fill="#59AA68" d="M67.89,107.203c0.014-0.139,0.032-0.278,0.047-0.42c-0.163,0.091-0.353,0.157-0.541,0.194
			c-0.542,0.11-1.121-0.005-1.655-0.201c0.767,2.661,2.109,4.528,2.109,4.528c0.105-0.225,0.229-0.414,0.375-0.583
			C67.932,109.547,67.779,108.328,67.89,107.203z"/>
		<path fill="#59AA68" d="M68.221,105.332c0.132-0.521,0.297-1.039,0.491-1.542c-0.241,0.007-0.476-0.021-0.676-0.086
			c-0.987-0.313-1.932-1.021-2.729-1.735c-0.162,1.271-0.075,2.506,0.149,3.643c0.493-0.279,0.968-0.601,1.519-0.736
			C67.365,104.774,67.904,104.993,68.221,105.332z"/>
		<path fill="#59AA68" d="M65.47,101.052c0.449,0.037,0.889,0.104,1.337,0.153c0.562,0.067,1.137,0.053,1.696,0.146
			c0.417,0.066,0.89,0.18,1.222,0.423c0.098-0.157,0.201-0.313,0.308-0.458c0.201-0.283,0.423-0.558,0.661-0.813
			c-0.496-0.083-1.022-0.336-1.397-0.508c-1.141-0.517-1.854-1.219-2.452-2.204c-0.519,0.827-0.897,1.679-1.115,2.322
			C65.626,100.426,65.54,100.74,65.47,101.052z"/>
		<path fill="#59AA68" d="M72.023,99.362c1.017-0.676,2.201-1.064,3.474-0.942c1.082,0.104,2.122,0.413,3.127,0.833
			c0.258,0.109,0.525,0.255,0.784,0.406c-0.945-2.613-4.471-1.849-5.597-3.076c-2.602-2.836-4.851-1.589-6.349,0.318
			c1.056,0.54,2.19,0.88,3.297,1.296C71.35,98.42,71.964,98.767,72.023,99.362z"/>
	</g>
</g>
<g>
	<rect x="102.033" y="96.396" fill="#AA7355" width="255.004" height="12.27"/>
	<rect x="344.77" y="48.177" fill="#AA7355" width="12.27" height="60.488"/>
	<rect x="344.77" y="138.211" fill="#AA7355" width="12.27" height="60.489"/>
	<rect x="344.77" y="269.358" fill="#AA7355" width="12.27" height="60.489"/>
	<rect x="15.006" y="186.429" fill="#AA7355" width="341.989" height="12.271"/>
	<rect x="15.006" y="317.577" fill="#AA7355" width="341.989" height="12.271"/>
</g>
</svg>
