<?xml version="1.0" encoding="utf-8"?>
<!-- Generator: Adobe Illustrator 16.0.0, SVG Export Plug-In . SVG Version: 6.00 Build 0)  -->
<!DOCTYPE svg PUBLIC "-//W3C//DTD SVG 1.1//EN" "http://www.w3.org/Graphics/SVG/1.1/DTD/svg11.dtd">
<svg version="1.1" id="Layer_1" xmlns="http://www.w3.org/2000/svg" xmlns:xlink="http://www.w3.org/1999/xlink" x="0px" y="0px"
	 width="236.511px" height="79.3px" viewBox="0 0 236.511 79.3" enable-background="new 0 0 236.511 79.3" xml:space="preserve">
<path fill="#373A3D" d="M218.685,216.15c1.28,5.32,7.9,38.59,2.301,56.77l-22.61,1.86l-77.3,6.37v0.15l-0.96-0.07l-0.96,0.07v-0.15
	l-77.311-6.37l-22.61-1.86c-5.6-18.18,1.02-51.449,2.29-56.77c1.26-5.22,12.84-26.39-0.8-60.31c-0.23-0.58-0.47-1.171-0.72-1.761
	c-14.77-34.96-16.29-92.84-16.29-92.84c5.34-48.1,25.2-51.17,47.09-55.93c9.55-2.08,24.14-3.35,37.57-4.13
	c13.69-0.79,26.16-1.07,30.78-1.15V0c0,0,0.35,0,0.96,0.02c0.6-0.02,0.96-0.02,0.96-0.02v0.03c5.38,0.09,21.42,0.46,37.649,1.59
	c11.32,0.79,22.75,1.96,30.69,3.69c21.89,4.76,41.75,7.83,47.1,55.93c0,0-1.529,57.88-16.3,92.84c-1.47,3.49-2.68,6.84-3.65,10.061
	C207.736,193.22,217.545,211.37,218.685,216.15z"/>
<path fill="#414549" d="M24.875,266.36c-2.802-16.305,1.883-41.983,3.459-48.585c0.078-0.317,0.452-1.36,0.752-2.198
	c2.993-8.339,10.944-30.489-1.866-62.348c-0.237-0.599-0.498-1.24-0.77-1.881C13.06,119.653,10.917,67.029,10.728,61.521
	c4.71-41.412,19.482-44.6,39.897-49.01l1.668-0.361c7.739-1.686,20.015-3.025,36.489-3.982c14.045-0.81,26.892-1.077,30.495-1.139
	l0.647-0.011l0.193,0.006c0,0,0.234-0.008,0.235-0.008l0.605,0.013c4.536,0.076,20.632,0.415,37.28,1.574
	c13.087,0.913,23.075,2.106,29.687,3.546l1.671,0.362c20.416,4.41,35.188,7.597,39.906,49.01
	c-0.19,5.513-2.342,58.134-15.735,89.834c-1.542,3.661-2.854,7.28-3.904,10.766c-8.199,27.006-1.575,45.517,1.254,53.422
	c0.302,0.844,0.678,1.894,0.76,2.231c1.489,6.191,6.234,32.261,3.463,48.586l-95.224,7.846L24.875,266.36z"/>
<path fill="#3A3A3A" d="M198.375,274.78l-77.3,6.37v0.15l-0.96-0.08l-0.96,0.08v-0.15l-77.311-6.37
	c-4.12-6.25-5.55-18.36-4.28-30.939c1.27-12.591,8.15-50.62,6.88-64.32c-0.33-3.51-1.27-7.811-2.63-13.13
	c1.79,0.279,3.6,0.43,5.44,0.43c31.76,0,57.5-43.66,57.5-97.5c0-16.82-2.51-32.64-6.93-46.45c9.97-0.41,18.37-0.65,21.581-0.74
	v-0.04c0,0,0.25,0.01,0.71,0.02c0.449-0.01,0.699-0.02,0.699-0.02v0.04c3.9,0.1,15.41,0.44,28.11,1.02
	c-4.78,14.2-7.5,30.64-7.5,48.17c0,53.2,25.13,96.47,56.38,97.48c-1.03,4.229-1.75,7.76-2.02,10.72
	c-1.28,13.7,5.59,51.729,6.87,64.32C203.925,256.419,202.505,268.53,198.375,274.78z"/>
<path fill="#2D2D2D" d="M104.755,69.32c0,53.84-25.74,97.5-57.5,97.5c-1.84,0-3.65-0.15-5.44-0.43
	c-3.94-15.431-11.36-39.41-17.23-77.471c-7.89-51.169,12.98-58.72,25.46-62.08c7.25-1.95,30.01-3.23,47.78-3.97
	C102.246,36.68,104.755,52.5,104.755,69.32z"/>
<path fill="#2D2D2D" d="M215.635,88.919c-6.18,40.101-14.09,64.58-17.83,79.881c-31.25-1.011-56.38-44.28-56.38-97.48
	c0-17.53,2.72-33.97,7.5-48.17c16.44,0.77,34.86,1.97,41.25,3.69C202.656,30.2,223.525,37.75,215.635,88.919z"/>
</svg>
