<?xml version="1.0" encoding="utf-8"?>
<!-- Generator: Adobe Illustrator 16.0.0, SVG Export Plug-In . SVG Version: 6.00 Build 0)  -->
<!DOCTYPE svg PUBLIC "-//W3C//DTD SVG 1.1//EN" "http://www.w3.org/Graphics/SVG/1.1/DTD/svg11.dtd">
<svg version="1.1" id="Layer_1" xmlns="http://www.w3.org/2000/svg" xmlns:xlink="http://www.w3.org/1999/xlink" x="0px" y="0px"
	 width="236.511px" height="79.3px" viewBox="0 0 236.511 79.3" enable-background="new 0 0 236.511 79.3" xml:space="preserve">
<path fill="#414549" d="M220.218,154.075c14.768-34.954,16.293-92.836,16.293-92.836c-5.346-48.098-25.203-51.173-47.098-55.927
	C170.105,1.12,130.22,0.19,121.072,0.031V0c0,0-0.355,0.005-0.961,0.015C119.503,0.005,119.154,0,119.154,0v0.03
	c-9.153,0.16-49.037,1.09-68.346,5.282C28.914,10.067,9.057,13.143,3.711,61.24c0,0,1.528,57.882,16.293,92.836
	c14.764,34.954,2.8,56.765,1.526,62.078c-1.272,5.313-7.893,38.588-2.291,56.764l99.913,8.229v0.158l0.959-0.08l0.961,0.08v-0.158
	l99.91-8.229c5.6-18.176-1.018-51.452-2.292-56.764C217.419,210.84,205.455,189.03,220.218,154.075z"/>
<path fill="#3A3A3A" d="M215.636,88.923c7.893-51.173-12.98-58.723-25.457-62.078c-11.325-3.047-60.416-4.479-69.362-4.717V22.09
	c0,0-0.251,0.006-0.704,0.018c-0.455-0.011-0.705-0.018-0.705-0.018v0.038c-8.949,0.237-58.039,1.67-69.365,4.717
	C37.57,30.2,16.693,37.75,24.586,88.923c7.892,51.171,18.584,76.897,19.857,90.599c1.272,13.702-5.602,51.731-6.873,64.314
	c-1.273,12.582,0.152,24.697,4.275,30.944l77.308,6.367v0.158l0.959-0.08l0.959,0.08v-0.158l77.305-6.367
	c4.125-6.247,5.549-18.362,4.279-30.944c-1.275-12.583-8.148-50.612-6.875-64.314C197.05,165.821,207.746,140.094,215.636,88.923z"
	/>
</svg>
