<?xml version="1.0" encoding="utf-8"?>
<!-- Generator: Adobe Illustrator 16.0.0, SVG Export Plug-In . SVG Version: 6.00 Build 0)  -->
<!DOCTYPE svg PUBLIC "-//W3C//DTD SVG 1.1//EN" "http://www.w3.org/Graphics/SVG/1.1/DTD/svg11.dtd">
<svg version="1.1" id="Capa_1" xmlns="http://www.w3.org/2000/svg" xmlns:xlink="http://www.w3.org/1999/xlink" x="0px" y="0px"
	 width="1377.61px" height="1377.92px" viewBox="0 15.355 1377.61 1377.92" enable-background="new 0 15.355 1377.61 1377.92"
	 xml:space="preserve">
<path fill="#FFFFFF" d="M1377.92,704.314c0,7.04-0.1,14.061-0.31,21.061c-2.551,85.52-20.642,168.57-53.892,247.16
	c-34.71,82.06-84.358,155.729-147.59,218.949c-63.22,63.229-136.89,112.881-218.95,147.591
	c-75.83,32.079-155.81,50.05-238.148,53.56c-9.99,0.43-20.012,0.641-30.07,0.641c-26.78,0-53.32-1.511-79.59-4.529
	c-64.91-7.45-128.09-24.062-188.63-49.67c-82.06-34.71-155.72-84.36-218.95-147.59c-63.22-63.222-112.88-136.892-147.59-218.951
	C18.24,887.505,0,797.255,0,704.314c0-92.939,18.24-183.18,54.2-268.22c34.71-82.06,84.37-155.72,147.59-218.95
	c63.23-63.22,136.89-112.88,218.95-147.59c85.04-35.96,175.28-54.2,268.22-54.2c92.95,0,183.189,18.24,268.22,54.2
	c82.062,34.71,155.73,84.37,218.95,147.59c63.23,63.23,112.88,136.89,147.59,218.95c25.75,60.87,42.4,124.4,49.79,189.681
	C1376.45,651.695,1377.92,677.895,1377.92,704.314z"/>
<path fill="#EAEAEA" d="M1377.61,725.375c-2.551,85.52-20.642,168.57-53.892,247.16c-34.71,82.06-84.358,155.729-147.59,218.949
	c-63.22,63.229-136.89,112.881-218.95,147.591c-75.83,32.079-155.81,50.05-238.148,53.56l-385.13-385.13l662.92-662.92
	L1377.61,725.375z"/>
<path fill="#F44336" d="M1126.596,527.241H688.979c-97.806-0.098-177.17,79.111-177.269,176.917
	c-0.03,30.379,7.755,60.256,22.606,86.752L315.51,415.475c159.37-206.268,455.779-244.284,662.047-84.913
	C1043.799,381.744,1095.236,449.624,1126.596,527.241z"/>
<path fill="#FFC107" d="M1161.228,704.334c-0.219,260.725-211.523,472.032-472.248,472.249c-19.746,0.072-39.473-1.24-59.031-3.937
	l212.511-379.766c48.706-84.791,19.673-193.004-64.934-242.028c-26.787-15.509-57.203-23.656-88.153-23.611h437.222
	C1149.575,583.449,1161.34,643.61,1161.228,704.334z"/>
<path fill="#4CAF50" d="M842.459,792.881l-212.511,379.766h-0.395c-258.606-32.674-441.762-268.805-409.089-527.411
	c10.577-83.705,43.396-163.044,95.044-229.76L534.315,790.91l1.182,1.971c48.794,84.764,157.064,113.924,241.83,65.131
	C804.404,842.426,826.875,819.955,842.459,792.881z"/>
<path fill="#F44336" d="M842.459,792.881c-48.795,84.764-157.065,113.924-241.83,65.131c-27.075-15.586-49.545-38.057-65.131-65.131
	l-1.181-1.971c-47.817-85.318-17.412-193.248,67.907-241.065c26.501-14.852,56.375-22.636,86.753-22.605h0.395
	c30.95-0.045,61.366,8.104,88.152,23.61C862.133,599.877,891.165,708.09,842.459,792.881z"/>
<path fill="#2196F3" d="M842.459,792.881c-48.795,84.764-157.065,113.924-241.83,65.131c-27.075-15.586-49.545-38.057-65.131-65.131
	l-1.181-1.971c-47.817-85.318-17.412-193.248,67.907-241.065c26.501-14.852,56.375-22.636,86.753-22.605h0.395
	c30.95-0.045,61.366,8.104,88.152,23.61C862.133,599.877,891.165,708.09,842.459,792.881z"/>
<path fill="#EAEAEA" d="M688.312,901.104c-34.31-0.004-68.013-9.043-97.718-26.209c-29.953-17.323-54.828-42.211-72.136-72.174
	c-54.336-94.115-22.09-214.458,72.023-268.793c29.945-17.288,63.921-26.38,98.5-26.363
	c108.672-0.085,196.839,87.945,196.922,196.617c0.026,34.595-9.067,68.581-26.363,98.54l0,0
	C824.076,863.689,758.842,901.17,688.312,901.104z M689.332,546.919c-56.472-0.302-108.755,29.755-136.913,78.708
	c-43.469,75.376-17.604,171.721,57.771,215.189c75.375,43.468,171.72,17.604,215.188-57.772l0,0
	c43.469-75.291,17.672-171.563-57.618-215.034c-23.837-13.762-50.866-21.035-78.389-21.089h-0.04L689.332,546.919L689.332,546.919z"
	/>
</svg>
