<?xml version="1.0" encoding="utf-8"?>
<!-- Generator: Adobe Illustrator 16.0.0, SVG Export Plug-In . SVG Version: 6.00 Build 0)  -->
<!DOCTYPE svg PUBLIC "-//W3C//DTD SVG 1.1//EN" "http://www.w3.org/Graphics/SVG/1.1/DTD/svg11.dtd">
<svg version="1.1" id="Layer_1" xmlns="http://www.w3.org/2000/svg" xmlns:xlink="http://www.w3.org/1999/xlink" x="0px" y="0px"
	 width="23.159px" height="11.043px" viewBox="0 0 23.159 11.043" enable-background="new 0 0 23.159 11.043" xml:space="preserve">
<g>
	<polygon fill="#FEF1BC" points="5.76,0.004 5.76,5.523 5.76,11.043 23.159,11.043 23.159,5.523 23.159,0.004 	"/>
	<path fill="#D6C996" d="M18.923,8.575c0,0.164-1.498,0.295-3.331,0.295h-0.14c-1.833,0-3.332-0.131-3.332-0.295
		c0-0.161,1.499-0.292,3.332-0.292h0.14C17.425,8.283,18.923,8.415,18.923,8.575z"/>
	<path fill="#3B3D40" d="M18.626,8.512c0,0.128-1.498,0.23-3.331,0.23h-0.14c-1.833,0-3.332-0.103-3.332-0.23
		c0-0.126,1.499-0.229,3.332-0.229h0.14C17.128,8.283,18.626,8.386,18.626,8.512z"/>
</g>
<polygon fill="#C1A972" points="23.159,5.821 5.76,5.867 5.76,5.572 23.159,5.572 "/>
<polyline fill="#C1A972" points="0.031,11.043 5.453,11.043 5.453,5.523 5.453,0.004 0.031,0.053 "/>
<g>
	<path fill="#D6C996" d="M18.923,3.056c0,0.164-1.498,0.295-3.331,0.295h-0.14c-1.833,0-3.332-0.131-3.332-0.295
		c0-0.161,1.499-0.292,3.332-0.292h0.14C17.425,2.764,18.923,2.895,18.923,3.056z"/>
	<path fill="#3B3D40" d="M18.626,2.992c0,0.128-1.498,0.23-3.331,0.23h-0.14c-1.833,0-3.332-0.103-3.332-0.23
		c0-0.126,1.499-0.229,3.332-0.229h0.14C17.128,2.764,18.626,2.866,18.626,2.992z"/>
</g>
<polygon fill="#DBC182" points="23.159,0.632 5.453,0.75 5.453,0 23.159,0 "/>
<polygon fill="#444444" points="5.453,0.004 5.453,5.523 5.453,11.043 5.76,11.043 5.76,5.523 5.76,0.004 "/>
</svg>
