<?xml version="1.0" encoding="utf-8"?>
<!-- Generator: Adobe Illustrator 16.0.0, SVG Export Plug-In . SVG Version: 6.00 Build 0)  -->
<!DOCTYPE svg PUBLIC "-//W3C//DTD SVG 1.1//EN" "http://www.w3.org/Graphics/SVG/1.1/DTD/svg11.dtd">
<svg version="1.1" id="Layer_1" xmlns="http://www.w3.org/2000/svg" xmlns:xlink="http://www.w3.org/1999/xlink" x="0px" y="0px"
	 width="160.68px" height="72.646px" viewBox="0 0 160.68 72.646" enable-background="new 0 0 160.68 72.646" xml:space="preserve">
<g>
	<polygon fill="#FEF1BC" points="160.68,4.153 160.68,4.933 46.12,4.933 46.12,9.823 160.68,9.823 160.68,72.643 45.17,72.643 
		45.17,0.023 46.12,0.023 46.12,4.233 148.68,4.233 	"/>
	<path fill="#D6C996" d="M132.812,56.412c0,1.079-9.854,1.94-21.92,1.94h-0.912c-12.064,0-21.92-0.861-21.92-1.94
		c0-1.061,9.854-1.921,21.92-1.921h0.912C122.957,54.491,132.812,55.358,132.812,56.412z"/>
	<path fill="#3B3D40" d="M130.859,55.994c0,0.849-9.854,1.517-21.92,1.517h-0.912c-12.064,0-21.924-0.681-21.924-1.517
		c0-0.828,9.858-1.503,21.924-1.503h0.912C121.003,54.491,130.859,55.166,130.859,55.994z"/>
</g>
<polygon fill="#C1A972" points="160.68,38.292 45.167,38.598 45.167,36.657 160.68,36.657 "/>
<polyline fill="#C1A972" points="6.512,72.646 42.179,72.646 42.179,36.333 42.179,0.025 6.512,0.347 "/>
<g>
	<path fill="#D6C996" d="M132.812,20.105c0,1.076-9.854,1.938-21.92,1.938h-0.912c-12.064,0-21.92-0.862-21.92-1.938
		c0-1.062,9.854-1.922,21.92-1.922h0.912C122.957,18.184,132.812,19.045,132.812,20.105z"/>
	<path fill="#3B3D40" d="M130.859,19.684c0,0.842-9.854,1.514-21.92,1.514h-0.912c-12.064,0-21.924-0.678-21.924-1.514
		c0-0.828,9.858-1.507,21.924-1.507h0.912C121.003,18.184,130.859,18.855,130.859,19.684z"/>
</g>
<polygon fill="#C6AB6F" points="46.12,0.023 46.12,4.233 148.68,4.233 46.12,4.913 45.93,4.913 45.89,4.923 45.17,4.923 
	43.66,4.933 43.66,0.003 160.68,0.003 160.68,0.023 "/>
<polygon fill="#C1A972" points="43.537,72.646 43.188,2.855 46.12,4.233 46.12,72.646 "/>
<rect x="45.89" y="4.233" fill="#C1A972" width="115.21" height="0.7"/>
<polygon fill="#DBC182" points="160.68,37.751 46.025,37.751 44.08,36.684 44.08,35.615 46.021,36.333 160.68,36.333 "/>
<polygon fill="#444444" points="42.179,0.025 42.179,36.333 42.179,72.646 44.198,72.646 44.198,36.333 44.198,0.025 "/>
<polygon fill="#C6AB6F" points="160.68,0.023 160.68,4.153 148.58,4.233 45.17,4.233 45.17,0.023 "/>
<rect x="46.12" y="4.933" fill="#EADDA9" width="114.56" height="4.89"/>
<polygon fill="#AA9261" points="160.68,4.153 160.68,4.933 46.12,4.933 46.12,4.233 148.68,4.233 "/>
<rect x="46.12" y="0.003" fill="#FFFFFF" width="114.56" height="0.02"/>
</svg>
