<?xml version="1.0" encoding="utf-8"?>
<!-- Generator: Adobe Illustrator 16.0.0, SVG Export Plug-In . SVG Version: 6.00 Build 0)  -->
<!DOCTYPE svg PUBLIC "-//W3C//DTD SVG 1.1//EN" "http://www.w3.org/Graphics/SVG/1.1/DTD/svg11.dtd">
<svg version="1.1" id="Capa_1" xmlns="http://www.w3.org/2000/svg" xmlns:xlink="http://www.w3.org/1999/xlink" x="0px" y="0px"
	 width="1080px" height="1080px" viewBox="420 0 1080 1080" enable-background="new 420 0 1080 1080" xml:space="preserve">
<g>
	<g id="c142_x">
		<path fill="#5CBFCA" d="M959.903,0C661.721,0,420,241.798,420,540.02C420,838.202,661.721,1080,959.903,1080
			C1258.24,1080,1500,838.163,1500,540.02C1500,241.798,1258.24,0,959.903,0z M1192.085,686.233l-86.006,85.891
			c0,0-136.058-145.982-146.214-145.982c-10.003,0-146.099,145.982-146.099,145.982l-86.045-85.891
			c0,0,146.137-134.088,146.137-146.021c0-12.127-146.137-146.253-146.137-146.253l86.045-86.084c0,0,137.216,146.06,146.099,146.06
			c8.96,0,146.214-146.06,146.214-146.06l86.006,86.084c0,0-146.176,136.057-146.176,146.253
			C1045.909,549.906,1192.085,686.233,1192.085,686.233z"/>
	</g>
	<g id="Capa_1_104_">
	</g>
</g>
</svg>
