<?xml version="1.0" encoding="utf-8"?>
<!-- Generator: Adobe Illustrator 16.0.0, SVG Export Plug-In . SVG Version: 6.00 Build 0)  -->
<!DOCTYPE svg PUBLIC "-//W3C//DTD SVG 1.1//EN" "http://www.w3.org/Graphics/SVG/1.1/DTD/svg11.dtd">
<svg version="1.1" id="Layer_1" xmlns="http://www.w3.org/2000/svg" xmlns:xlink="http://www.w3.org/1999/xlink" x="0px" y="0px"
	 width="96.465px" height="119.305px" viewBox="0 0 96.465 119.305" enable-background="new 0 0 96.465 119.305"
	 xml:space="preserve">
<g>
	<g>
		<g>
			<g>
				<path fill="#439A7E" d="M35.016,11.476c-0.145-0.284,0.085-0.728,0.644-1.324c1.854-1.991,7.935-7.916,9.909-4.479
					c1.975,3.445-6.307,5.559-9.019,6.057C35.596,11.902,35.144,11.735,35.016,11.476z"/>
				<path fill="#307A5F" d="M45.569,5.67c-0.04-0.066-0.08-0.129-0.123-0.188c-0.953,1.479-2.239,2.728-3.869,3.444
					c-1.666,0.734-4.084,1.949-5.943,1.258c-0.535,0.58-0.759,1.012-0.618,1.292c0.128,0.26,0.58,0.427,1.534,0.251
					C39.262,11.229,47.544,9.117,45.569,5.67z"/>
			</g>
			<g>
				<path fill="#439A7E" d="M35.404,12.377c0.085-0.312-0.228-0.699-0.883-1.181C32.322,9.59,25.229,4.925,23.943,8.67
					c-1.291,3.759,7.243,4.266,10.004,4.24C34.914,12.904,35.323,12.656,35.404,12.377z"/>
				<path fill="#307A5F" d="M23.943,8.67c0.026-0.073,0.052-0.145,0.083-0.208c1.213,1.271,2.71,2.251,4.447,2.647
					c1.779,0.408,4.381,1.146,6.079,0.109c0.634,0.47,0.936,0.853,0.851,1.154c-0.081,0.275-0.49,0.523-1.457,0.533
					C31.186,12.936,22.652,12.429,23.943,8.67z"/>
			</g>
			<g>
				<path fill="#439A7E" d="M35.25,16.037c-0.113-0.368,0.258-0.852,1.042-1.443c2.617-1.99,11.083-7.789,12.722-3.291
					c1.641,4.512-8.658,5.316-11.99,5.35C35.853,16.662,35.353,16.37,35.25,16.037z"/>
				<path fill="#307A5F" d="M49.014,11.301c-0.031-0.089-0.064-0.17-0.103-0.249c-1.441,1.563-3.228,2.78-5.319,3.302
					c-2.139,0.534-5.265,1.48-7.339,0.271c-0.755,0.582-1.112,1.052-1.002,1.412c0.103,0.336,0.603,0.628,1.774,0.611
					C40.357,16.619,50.654,15.813,49.014,11.301z"/>
			</g>
			<g>
				<path fill="#439A7E" d="M35.636,18.076c0.105-0.371-0.273-0.844-1.069-1.426c-2.654-1.939-11.228-7.582-12.783-3.057
					c-1.557,4.543,8.753,5.156,12.088,5.129C35.042,18.715,35.54,18.415,35.636,18.076z"/>
				<path fill="#307A5F" d="M21.784,13.596c0.033-0.086,0.066-0.169,0.101-0.25c1.467,1.536,3.279,2.721,5.378,3.203
					c2.149,0.494,5.292,1.383,7.343,0.135c0.766,0.566,1.133,1.027,1.03,1.395c-0.096,0.34-0.595,0.641-1.764,0.646
					C30.537,18.752,20.227,18.139,21.784,13.596z"/>
			</g>
			<g>
				<path fill="#439A7E" d="M36.111,27.639c-0.145-0.286,0.089-0.729,0.646-1.324c1.852-1.995,7.934-7.918,9.903-4.479
					c1.98,3.442-6.304,5.56-9.017,6.058C36.691,28.065,36.242,27.896,36.111,27.639z"/>
				<path fill="#307A5F" d="M46.66,21.832c-0.038-0.065-0.076-0.13-0.119-0.188c-0.95,1.479-2.239,2.725-3.867,3.445
					c-1.67,0.734-4.083,1.947-5.949,1.256c-0.531,0.582-0.756,1.014-0.614,1.295c0.131,0.257,0.58,0.426,1.532,0.25
					C40.357,27.391,48.641,25.277,46.66,21.832z"/>
			</g>
			<g>
				<path fill="#439A7E" d="M36.433,28.113c0.063-0.313-0.276-0.682-0.967-1.105c-2.312-1.44-9.736-5.563-10.735-1.732
					c-1.008,3.846,7.54,3.713,10.29,3.482C35.983,28.675,36.375,28.395,36.433,28.113z"/>
				<path fill="#307A5F" d="M24.73,25.272c0.018-0.072,0.041-0.145,0.067-0.213c1.302,1.178,2.873,2.041,4.637,2.313
					c1.802,0.272,4.45,0.813,6.066-0.346c0.666,0.419,0.995,0.778,0.933,1.09c-0.058,0.279-0.45,0.563-1.413,0.643
					C32.27,28.985,23.722,29.115,24.73,25.272z"/>
			</g>
			<g>
				<path fill="#439A7E" d="M36.774,32.278c-0.125-0.421,0.293-0.967,1.188-1.646c2.992-2.274,12.66-8.896,14.528-3.763
					c1.878,5.152-9.883,6.071-13.692,6.11C37.466,32.995,36.894,32.661,36.774,32.278z"/>
				<path fill="#307A5F" d="M52.492,26.87c-0.036-0.101-0.077-0.188-0.117-0.282c-1.645,1.787-3.685,3.176-6.073,3.771
					c-2.443,0.609-6.014,1.69-8.384,0.313c-0.86,0.66-1.269,1.197-1.144,1.61c0.12,0.383,0.692,0.717,2.025,0.702
					C42.608,32.943,54.369,32.025,52.492,26.87z"/>
			</g>
			<g>
				<path fill="#439A7E" d="M37.079,33.681c0.06-0.438-0.438-0.912-1.428-1.448c-3.303-1.789-13.869-6.85-14.932-1.486
					c-1.066,5.381,10.697,4.484,14.465,3.938C36.507,34.494,37.021,34.077,37.079,33.681z"/>
				<path fill="#307A5F" d="M20.719,30.744c0.02-0.104,0.045-0.202,0.073-0.301c1.897,1.516,4.127,2.572,6.58,2.797
					c2.509,0.229,6.2,0.75,8.328-0.979c0.956,0.521,1.44,0.99,1.38,1.419c-0.058,0.396-0.571,0.813-1.895,1.003
					C31.416,35.231,19.653,36.124,20.719,30.744z"/>
			</g>
			<g>
				<path fill="#439A7E" d="M35.118,9.172c-0.232-0.104-0.317-0.5-0.282-1.156c0.125-2.195,0.854-9.013,3.852-7.893
					c3.006,1.12-1.055,6.703-2.486,8.412C35.702,9.136,35.335,9.266,35.118,9.172z"/>
				<path fill="#307A5F" d="M38.689,0.124c-0.06-0.023-0.118-0.041-0.171-0.061c0.171,1.41,0.009,2.849-0.633,4.137
					c-0.655,1.317-1.532,3.318-3.048,3.849c-0.034,0.637,0.052,1.02,0.282,1.123c0.217,0.094,0.584-0.036,1.084-0.637
					C37.634,6.828,41.695,1.245,38.689,0.124z"/>
			</g>
			<g>
				<path fill="#439A7E" d="M35.169,9.152c0.173-0.188,0.09-0.586-0.212-1.171c-1.008-1.956-4.447-7.886-6.73-5.644
					c-2.285,2.25,3.695,5.694,5.695,6.676C34.624,9.358,35.011,9.324,35.169,9.152z"/>
				<path fill="#307A5F" d="M28.226,2.338c0.047-0.044,0.093-0.083,0.135-0.12c0.418,1.354,1.149,2.604,2.259,3.521
					c1.138,0.938,2.751,2.403,4.351,2.271c0.291,0.566,0.369,0.954,0.198,1.141c-0.158,0.174-0.544,0.205-1.248-0.139
					C31.92,8.033,25.94,4.588,28.226,2.338z"/>
			</g>
			<g>
				<path fill="#439A7E" d="M35.876,21.578c-0.092-0.266,0.159-0.617,0.708-1.073c1.825-1.521,7.757-5.958,9.076-2.77
					c1.322,3.204-6.084,4.104-8.487,4.229C36.331,22.01,35.961,21.817,35.876,21.578z"/>
				<path fill="#307A5F" d="M45.66,17.737c-0.025-0.063-0.055-0.118-0.084-0.176c-0.989,1.172-2.243,2.104-3.735,2.546
					c-1.525,0.449-3.752,1.229-5.287,0.42c-0.528,0.443-0.771,0.791-0.679,1.053c0.085,0.236,0.455,0.434,1.297,0.39
					C39.576,21.84,46.982,20.942,45.66,17.737z"/>
			</g>
			<g>
				<path fill="#439A7E" d="M36.128,22.37c0.032-0.275-0.29-0.568-0.926-0.893c-2.119-1.07-8.887-4.084-9.464-0.676
					c-0.576,3.418,6.841,2.646,9.214,2.232C35.784,22.895,36.1,22.62,36.128,22.37z"/>
				<path fill="#307A5F" d="M25.738,20.805c0.014-0.064,0.026-0.129,0.042-0.188c1.222,0.922,2.656,1.554,4.205,1.649
					c1.593,0.1,3.934,0.363,5.25-0.768c0.613,0.313,0.926,0.601,0.894,0.871c-0.028,0.25-0.344,0.521-1.176,0.67
					C32.579,23.45,25.162,24.223,25.738,20.805z"/>
			</g>
			<g>
				<path fill="#439A7E" d="M38.358,44.529c-0.156-0.313,0.097-0.801,0.71-1.453c2.031-2.188,8.713-8.691,10.875-4.926
					c2.172,3.786-6.92,6.105-9.899,6.654C38.997,44.995,38.501,44.813,38.358,44.529z"/>
				<path fill="#307A5F" d="M49.945,38.151c-0.041-0.066-0.084-0.139-0.133-0.201c-1.043,1.618-2.457,2.986-4.25,3.777
					c-1.831,0.812-4.483,2.145-6.529,1.382c-0.585,0.642-0.832,1.112-0.679,1.423c0.143,0.281,0.639,0.469,1.687,0.273
					C43.024,44.256,52.117,41.937,49.945,38.151z"/>
			</g>
			<g>
				<path fill="#439A7E" d="M38.541,45.063c0.071-0.346-0.304-0.748-1.065-1.219c-2.536-1.58-10.688-6.107-11.789-1.899
					c-1.104,4.225,8.284,4.075,11.301,3.823C38.046,45.68,38.477,45.375,38.541,45.063z"/>
				<path fill="#307A5F" d="M25.687,41.944c0.023-0.081,0.049-0.157,0.075-0.23c1.434,1.292,3.154,2.24,5.091,2.534
					c1.981,0.305,4.889,0.896,6.661-0.377c0.734,0.461,1.095,0.854,1.027,1.191c-0.063,0.313-0.495,0.617-1.553,0.705
					C33.97,46.02,24.583,46.166,25.687,41.944z"/>
			</g>
			<g>
				<path fill="#439A7E" d="M38.955,48.803c-0.116-0.387,0.271-0.891,1.091-1.516c2.743-2.086,11.608-8.152,13.323-3.445
					c1.721,4.727-9.063,5.568-12.556,5.604C39.59,49.458,39.064,49.153,38.955,48.803z"/>
				<path fill="#307A5F" d="M53.369,43.842c-0.032-0.09-0.069-0.178-0.107-0.26c-1.507,1.639-3.382,2.908-5.569,3.458
					c-2.241,0.56-5.515,1.55-7.689,0.279c-0.793,0.608-1.165,1.104-1.049,1.479c0.108,0.351,0.635,0.655,1.858,0.645
					C44.306,49.412,55.09,48.568,53.369,43.842z"/>
			</g>
			<g>
				<path fill="#439A7E" d="M39.36,50.113c0.009-0.4-0.497-0.781-1.457-1.162c-3.203-1.271-13.373-4.736-13.761,0.26
					c-0.386,5.014,10.229,2.931,13.6,2.022C38.927,50.917,39.352,50.481,39.36,50.113z"/>
				<path fill="#307A5F" d="M24.142,49.208c0.009-0.101,0.021-0.189,0.038-0.279c1.889,1.173,4.036,1.896,6.292,1.834
					c2.311-0.063,5.729,0.013,7.482-1.792c0.923,0.374,1.417,0.747,1.407,1.146c-0.009,0.365-0.434,0.805-1.619,1.118
					C34.371,52.138,23.756,54.221,24.142,49.208z"/>
			</g>
			<g>
				<path fill="#439A7E" d="M37.473,38.005c-0.093-0.265,0.157-0.62,0.707-1.074c1.825-1.52,7.755-5.959,9.076-2.767
					c1.325,3.204-6.082,4.103-8.485,4.229C37.926,38.438,37.557,38.244,37.473,38.005z"/>
				<path fill="#307A5F" d="M47.256,34.165c-0.026-0.063-0.057-0.119-0.086-0.18c-0.988,1.174-2.239,2.105-3.733,2.547
					c-1.527,0.451-3.752,1.229-5.285,0.421c-0.527,0.441-0.772,0.792-0.679,1.053c0.084,0.237,0.454,0.433,1.298,0.389
					C41.174,38.267,48.581,37.37,47.256,34.165z"/>
			</g>
			<g>
				<path fill="#439A7E" d="M37.849,39.537c0.054-0.271-0.241-0.594-0.851-0.969c-2.017-1.254-8.499-4.84-9.365-1.494
					c-0.873,3.354,6.584,3.229,8.981,3.023C37.457,40.029,37.798,39.785,37.849,39.537z"/>
				<path fill="#307A5F" d="M27.633,37.074c0.015-0.063,0.037-0.128,0.057-0.188c1.14,1.023,2.508,1.778,4.046,2.01
					c1.574,0.238,3.885,0.704,5.295-0.31c0.582,0.365,0.872,0.682,0.818,0.947c-0.051,0.248-0.392,0.49-1.235,0.563
					C34.217,40.305,26.76,40.43,27.633,37.074z"/>
			</g>
			<g>
				<path fill="#439A7E" d="M40.278,56.113c-0.125-0.422,0.293-0.969,1.188-1.646c2.992-2.274,12.658-8.896,14.529-3.762
					c1.877,5.151-9.883,6.071-13.692,6.11C40.968,56.828,40.395,56.494,40.278,56.113z"/>
				<path fill="#307A5F" d="M55.996,50.704c-0.037-0.101-0.077-0.19-0.119-0.281c-1.643,1.786-3.686,3.175-6.07,3.771
					c-2.446,0.61-6.016,1.691-8.385,0.313c-0.861,0.664-1.265,1.197-1.143,1.611c0.117,0.381,0.69,0.715,2.025,0.701
					C46.113,56.777,57.873,55.858,55.996,50.704z"/>
			</g>
			<g>
				<path fill="#439A7E" d="M40.583,57.516c0.059-0.438-0.438-0.914-1.428-1.448c-3.305-1.792-13.872-6.851-14.934-1.488
					c-1.066,5.381,10.699,4.485,14.467,3.938C40.011,58.328,40.524,57.91,40.583,57.516z"/>
				<path fill="#307A5F" d="M24.221,54.577c0.023-0.104,0.046-0.202,0.075-0.301c1.896,1.517,4.129,2.573,6.576,2.798
					c2.51,0.229,6.201,0.75,8.333-0.979c0.951,0.522,1.437,0.99,1.378,1.421c-0.059,0.396-0.572,0.813-1.895,1.002
					C34.92,59.065,23.155,59.957,24.221,54.577z"/>
			</g>
			<g>
				<path fill="#439A7E" d="M40.975,61.838c-0.091-0.265,0.161-0.619,0.705-1.074c1.829-1.52,7.757-5.959,9.078-2.766
					c1.324,3.203-6.08,4.102-8.483,4.229C41.43,62.272,41.061,62.076,40.975,61.838z"/>
				<path fill="#A0B5C7" d="M50.758,57.999c-0.027-0.063-0.052-0.119-0.081-0.178c-0.993,1.172-2.245,2.104-3.738,2.545
					c-1.524,0.449-3.752,1.229-5.285,0.42c-0.526,0.443-0.771,0.793-0.68,1.053c0.086,0.236,0.455,0.434,1.3,0.389
					C44.678,62.1,52.082,61.203,50.758,57.999z"/>
			</g>
			<g>
				<path fill="#439A7E" d="M41.351,63.37c0.055-0.271-0.243-0.594-0.847-0.97c-2.018-1.252-8.5-4.839-9.369-1.493
					c-0.874,3.354,6.583,3.229,8.985,3.025C40.961,63.863,41.301,63.619,41.351,63.37z"/>
				<path fill="#307A5F" d="M31.135,60.908c0.016-0.064,0.038-0.127,0.058-0.188c1.138,1.023,2.508,1.778,4.046,2.008
					c1.575,0.238,3.887,0.705,5.295-0.307c0.583,0.367,0.872,0.68,0.816,0.945c-0.049,0.248-0.39,0.49-1.23,0.563
					C37.719,64.139,30.262,64.264,31.135,60.908z"/>
			</g>
			
				<path fill="none" stroke="#167070" stroke-width="2.2321" stroke-linecap="round" stroke-linejoin="round" stroke-miterlimit="10" d="
				M43.254,71.379c0,0-6.828-29.11-8.25-62.771"/>
		</g>
		<g>
			<g>
				<path fill="#167070" d="M10.928,24.018c-0.131-0.227,0.04-0.604,0.469-1.123c1.439-1.734,6.184-6.924,7.975-4.178
					c1.798,2.754-4.945,4.896-7.165,5.436C11.429,24.342,11.047,24.227,10.928,24.018z"/>
				<path fill="#175B56" d="M19.372,18.717c-0.033-0.053-0.07-0.104-0.108-0.148c-0.717,1.27-1.72,2.355-3.033,3.029
					c-1.344,0.688-3.281,1.811-4.854,1.322c-0.412,0.506-0.577,0.875-0.449,1.098c0.119,0.209,0.501,0.324,1.28,0.135
					C14.427,23.612,21.17,21.471,19.372,18.717z"/>
			</g>
			<g>
				<path fill="#167070" d="M11.292,24.744c0.059-0.26-0.219-0.563-0.787-0.934c-1.894-1.224-7.977-4.742-8.861-1.585
					c-0.887,3.167,6.189,3.183,8.467,3.03C10.91,25.204,11.241,24.979,11.292,24.744z"/>
				<path fill="#175B56" d="M1.645,22.228c0.017-0.062,0.037-0.119,0.056-0.175c1.065,0.992,2.35,1.729,3.806,1.979
					c1.491,0.253,3.672,0.733,5.027-0.196c0.545,0.354,0.812,0.658,0.758,0.91c-0.051,0.232-0.382,0.463-1.181,0.516
					C7.834,25.408,0.757,25.395,1.645,22.228z"/>
			</g>
			<g>
				<path fill="#167070" d="M11.34,27.777c-0.111-0.301,0.173-0.713,0.792-1.241c2.066-1.771,8.788-6.969,10.358-3.327
					c1.573,3.647-6.901,4.809-9.654,4.994C11.87,28.266,11.44,28.049,11.34,27.777z"/>
				<path fill="#175B56" d="M22.49,23.204c-0.032-0.066-0.065-0.137-0.1-0.198c-1.113,1.358-2.532,2.452-4.234,2.979
					c-1.745,0.546-4.284,1.479-6.055,0.573c-0.596,0.519-0.869,0.921-0.76,1.216c0.1,0.271,0.529,0.488,1.496,0.426
					C15.589,28.014,24.063,26.857,22.49,23.204z"/>
			</g>
			<g>
				<path fill="#167070" d="M11.759,29.445c0.067-0.313-0.271-0.684-0.952-1.127c-2.289-1.479-9.644-5.729-10.712-1.914
					c-1.072,3.827,7.479,3.844,10.233,3.66C11.298,30.002,11.692,29.728,11.759,29.445z"/>
				<path fill="#175B56" d="M0.095,26.404c0.022-0.075,0.045-0.146,0.073-0.213c1.284,1.199,2.838,2.094,4.596,2.395
					c1.801,0.305,4.44,0.89,6.073-0.24c0.662,0.432,0.988,0.797,0.921,1.104c-0.067,0.28-0.46,0.559-1.431,0.617
					C7.574,30.245-0.977,30.232,0.095,26.404z"/>
			</g>
			<g>
				<path fill="#167070" d="M12.606,37.324c-0.135-0.229,0.037-0.604,0.468-1.125c1.435-1.734,6.179-6.924,7.974-4.18
					c1.8,2.755-4.946,4.896-7.165,5.438C13.107,37.649,12.726,37.532,12.606,37.324z"/>
				<path fill="#175B56" d="M21.048,32.022c-0.034-0.053-0.071-0.102-0.106-0.146c-0.718,1.268-1.723,2.354-3.033,3.026
					c-1.347,0.688-3.284,1.81-4.856,1.321c-0.413,0.506-0.58,0.876-0.446,1.102c0.12,0.208,0.501,0.322,1.277,0.137
					C16.102,36.917,22.848,34.777,21.048,32.022z"/>
			</g>
			<g>
				<path fill="#167070" d="M12.894,37.701c0.039-0.266-0.263-0.551-0.854-0.871c-1.979-1.077-8.311-4.132-8.956-0.918
					c-0.649,3.228,6.41,2.708,8.674,2.391C12.549,38.188,12.86,37.938,12.894,37.701z"/>
				<path fill="#175B56" d="M3.085,35.912c0.014-0.063,0.029-0.119,0.045-0.182c1.136,0.91,2.471,1.553,3.941,1.688
					c1.502,0.141,3.718,0.46,4.998-0.574c0.571,0.313,0.864,0.597,0.825,0.854c-0.034,0.234-0.345,0.484-1.135,0.602
					C9.495,38.62,2.436,39.138,3.085,35.912z"/>
			</g>
			<g>
				<path fill="#167070" d="M13.377,41.129c-0.126-0.346,0.194-0.814,0.902-1.42c2.363-2.022,10.038-7.953,11.828-3.803
					c1.797,4.172-7.879,5.489-11.023,5.703C13.981,41.688,13.49,41.44,13.377,41.129z"/>
				<path fill="#175B56" d="M26.107,35.908c-0.033-0.079-0.073-0.154-0.113-0.229c-1.271,1.556-2.892,2.8-4.837,3.406
					c-1.988,0.621-4.89,1.684-6.912,0.65c-0.683,0.594-0.994,1.057-0.868,1.393c0.114,0.311,0.604,0.559,1.708,0.48
					C18.228,41.4,27.904,40.079,26.107,35.908z"/>
			</g>
			<g>
				<path fill="#167070" d="M13.692,42.274c0.028-0.362-0.407-0.73-1.248-1.129c-2.816-1.32-11.792-5.002-12.415-0.52
					c-0.621,4.498,9.057,3.196,12.145,2.564C13.257,42.973,13.665,42.603,13.692,42.274z"/>
				<path fill="#175B56" d="M0.029,40.625c0.014-0.086,0.031-0.174,0.048-0.25c1.641,1.157,3.535,1.93,5.573,1.998
					c2.081,0.063,5.158,0.32,6.836-1.207c0.813,0.387,1.234,0.75,1.206,1.104c-0.027,0.329-0.435,0.699-1.519,0.92
					C9.086,43.824-0.592,45.124,0.029,40.625z"/>
			</g>
			<g>
				<path fill="#167070" d="M10.905,22.11c-0.201-0.072-0.288-0.396-0.288-0.938c-0.002-1.819,0.273-7.489,2.802-6.708
					c2.54,0.783-0.55,5.596-1.649,7.073C11.385,22.053,11.085,22.176,10.905,22.11z"/>
				<path fill="#175B56" d="M13.419,14.459c-0.045-0.019-0.094-0.027-0.14-0.038c0.207,1.157,0.143,2.353-0.326,3.448
					c-0.481,1.121-1.109,2.813-2.335,3.322c0.003,0.527,0.09,0.843,0.288,0.914c0.179,0.066,0.479-0.057,0.865-0.573
					C12.869,20.055,15.959,15.244,13.419,14.459z"/>
			</g>
			<g>
				<path fill="#167070" d="M10.947,22.092c0.131-0.166,0.044-0.488-0.236-0.957c-0.927-1.57-4.05-6.309-5.83-4.345
					c-1.784,1.97,3.324,4.529,5.025,5.243C10.505,22.285,10.823,22.24,10.947,22.092z"/>
				<path fill="#175B56" d="M4.882,16.791c0.033-0.038,0.07-0.071,0.104-0.104c0.41,1.103,1.074,2.1,2.036,2.801
					c0.985,0.725,2.39,1.858,3.704,1.674c0.265,0.455,0.352,0.771,0.221,0.936c-0.125,0.146-0.442,0.191-1.04-0.059
					C8.206,21.323,3.098,18.76,4.882,16.791z"/>
			</g>
			<g>
				<path fill="#167070" d="M12.122,32.326c-0.09-0.215,0.1-0.521,0.533-0.92c1.437-1.344,6.126-5.299,7.368-2.721
					c1.25,2.586-4.828,3.681-6.808,3.898C12.518,32.662,12.203,32.52,12.122,32.326z"/>
				<path fill="#175B56" d="M20.023,28.688c-0.025-0.051-0.05-0.099-0.075-0.143c-0.762,1.016-1.755,1.846-2.966,2.279
					c-1.24,0.445-3.043,1.193-4.35,0.602c-0.412,0.393-0.597,0.688-0.509,0.898c0.081,0.191,0.396,0.336,1.092,0.262
					C15.194,32.366,21.272,31.274,20.023,28.688z"/>
			</g>
			<g>
				<path fill="#167070" d="M12.37,32.971c0.012-0.229-0.269-0.457-0.811-0.692c-1.802-0.782-7.54-2.944-7.853-0.104
					c-0.316,2.854,5.777,1.859,7.72,1.405C12.105,33.42,12.359,33.179,12.37,32.971z"/>
				<path fill="#175B56" d="M3.707,32.172c0.006-0.058,0.014-0.107,0.023-0.16c1.058,0.705,2.268,1.158,3.555,1.164
					c1.32,0.006,3.269,0.113,4.303-0.883c0.521,0.229,0.794,0.449,0.782,0.678c-0.011,0.208-0.265,0.449-0.943,0.606
					C9.483,34.033,3.391,35.026,3.707,32.172z"/>
			</g>
			<g>
				<path fill="#167070" d="M15.272,51.178c-0.148-0.252,0.041-0.666,0.511-1.236c1.579-1.904,6.79-7.6,8.755-4.586
					c1.979,3.025-5.431,5.374-7.867,5.971C15.82,51.533,15.402,51.404,15.272,51.178z"/>
				<path fill="#175B56" d="M24.539,45.356c-0.038-0.06-0.076-0.111-0.115-0.164c-0.788,1.395-1.889,2.59-3.333,3.328
					c-1.475,0.756-3.604,1.983-5.33,1.453c-0.452,0.554-0.634,0.957-0.488,1.205c0.13,0.229,0.548,0.354,1.4,0.146
					C19.108,50.73,26.517,48.381,24.539,45.356z"/>
			</g>
			<g>
				<path fill="#167070" d="M15.444,51.61c0.042-0.284-0.287-0.602-0.939-0.953c-2.171-1.188-9.121-4.537-9.834-1.012
					c-0.711,3.543,7.042,2.979,9.524,2.623C15.067,52.144,15.408,51.87,15.444,51.61z"/>
				<path fill="#175B56" d="M4.671,49.645c0.017-0.066,0.032-0.131,0.05-0.193c1.247,1,2.714,1.701,4.329,1.854
					c1.651,0.154,4.083,0.504,5.487-0.631c0.629,0.348,0.949,0.654,0.907,0.938c-0.036,0.266-0.377,0.534-1.25,0.658
					C11.712,52.62,3.96,53.188,4.671,49.645z"/>
			</g>
			<g>
				<path fill="#167070" d="M15.965,54.682c-0.113-0.313,0.18-0.748,0.831-1.301c2.167-1.856,9.204-7.297,10.846-3.486
					c1.649,3.824-7.225,5.035-10.108,5.232C16.52,55.193,16.07,54.966,15.965,54.682z"/>
				<path fill="#175B56" d="M27.641,49.895c-0.032-0.074-0.066-0.143-0.101-0.211c-1.168,1.426-2.652,2.568-4.436,3.124
					c-1.827,0.569-4.485,1.546-6.34,0.604c-0.629,0.54-0.912,0.966-0.8,1.271c0.105,0.284,0.555,0.512,1.568,0.445
					C20.417,54.93,29.291,53.719,27.641,49.895z"/>
			</g>
			<g>
				<path fill="#167070" d="M16.362,55.744c-0.011-0.333-0.449-0.623-1.26-0.894c-2.707-0.896-11.28-3.276-11.36,0.869
					c-0.082,4.164,8.592,1.937,11.336,1.026C16.043,56.43,16.373,56.049,16.362,55.744z"/>
				<path fill="#175B56" d="M3.742,55.722c0-0.079,0.009-0.157,0.017-0.23c1.62,0.88,3.426,1.376,5.287,1.219
					c1.905-0.163,4.734-0.268,6.099-1.839c0.78,0.266,1.207,0.549,1.218,0.875c0.01,0.307-0.32,0.688-1.284,1.006
					C12.335,57.656,3.661,59.886,3.742,55.722z"/>
			</g>
			<g>
				<path fill="#167070" d="M14.224,45.826c-0.09-0.212,0.102-0.519,0.533-0.919c1.438-1.343,6.126-5.299,7.37-2.722
					c1.248,2.586-4.83,3.682-6.811,3.9C14.623,46.166,14.305,46.02,14.224,45.826z"/>
				<path fill="#175B56" d="M22.127,42.188c-0.026-0.049-0.049-0.096-0.078-0.141c-0.759,1.016-1.75,1.847-2.963,2.279
					c-1.24,0.443-3.042,1.192-4.351,0.602c-0.413,0.39-0.598,0.688-0.51,0.896c0.081,0.191,0.399,0.341,1.091,0.264
					C17.297,45.867,23.374,44.774,22.127,42.188z"/>
			</g>
			<g>
				<path fill="#167070" d="M14.606,47.077c0.033-0.229-0.229-0.479-0.745-0.761c-1.727-0.938-7.255-3.596-7.814-0.791
					c-0.562,2.816,5.597,2.355,7.569,2.072C14.307,47.501,14.578,47.283,14.606,47.077z"/>
				<path fill="#175B56" d="M6.047,45.527c0.011-0.055,0.023-0.104,0.037-0.151c0.989,0.793,2.159,1.35,3.441,1.468
					c1.312,0.121,3.247,0.396,4.362-0.507c0.499,0.271,0.751,0.519,0.718,0.742c-0.028,0.206-0.299,0.426-0.99,0.521
					C11.644,47.883,5.485,48.344,6.047,45.527z"/>
			</g>
			<g>
				<path fill="#167070" d="M17.41,60.662c-0.13-0.346,0.194-0.814,0.901-1.42c2.364-2.021,10.039-7.957,11.827-3.804
					c1.798,4.17-7.877,5.49-11.024,5.703C18.013,61.219,17.521,60.971,17.41,60.662z"/>
				<path fill="#175B56" d="M30.138,55.441c-0.035-0.081-0.07-0.153-0.111-0.229c-1.271,1.555-2.893,2.801-4.837,3.404
					c-1.992,0.619-4.889,1.686-6.913,0.653c-0.682,0.591-0.995,1.054-0.867,1.392c0.11,0.311,0.603,0.559,1.704,0.479
					C22.261,60.931,31.937,59.61,30.138,55.441z"/>
			</g>
			<g>
				<path fill="#167070" d="M17.723,61.805c0.032-0.363-0.403-0.73-1.249-1.129c-2.814-1.322-11.789-5-12.412-0.52
					c-0.623,4.494,9.056,3.195,12.144,2.564C17.29,62.504,17.697,62.134,17.723,61.805z"/>
				<path fill="#175B56" d="M4.063,60.158c0.013-0.091,0.03-0.174,0.047-0.252c1.639,1.159,3.534,1.932,5.573,1.994
					c2.082,0.069,5.156,0.324,6.837-1.204c0.813,0.39,1.235,0.748,1.204,1.106c-0.026,0.329-0.433,0.699-1.517,0.92
					C13.118,63.356,3.44,64.654,4.063,60.158z"/>
			</g>
			<g>
				<path fill="#167070" d="M18.257,65.36c-0.09-0.213,0.101-0.52,0.533-0.921c1.438-1.341,6.126-5.295,7.368-2.72
					c1.249,2.587-4.828,3.682-6.81,3.898C18.653,65.696,18.334,65.553,18.257,65.36z"/>
				<path fill="#175B56" d="M26.158,61.719c-0.025-0.049-0.051-0.1-0.076-0.143c-0.762,1.018-1.754,1.85-2.966,2.279
					c-1.24,0.446-3.043,1.194-4.35,0.604c-0.411,0.391-0.596,0.688-0.509,0.896c0.077,0.193,0.396,0.337,1.091,0.262
					C21.33,65.401,27.406,64.306,26.158,61.719z"/>
			</g>
			<g>
				<path fill="#167070" d="M18.639,66.609c0.034-0.228-0.228-0.478-0.745-0.759c-1.73-0.938-7.255-3.595-7.814-0.79
					c-0.562,2.814,5.595,2.355,7.568,2.073C18.34,67.034,18.61,66.816,18.639,66.609z"/>
				<path fill="#175B56" d="M10.08,65.06c0.013-0.055,0.023-0.104,0.038-0.156c0.992,0.795,2.158,1.354,3.44,1.47
					c1.313,0.123,3.248,0.396,4.362-0.506c0.499,0.273,0.752,0.521,0.718,0.741c-0.028,0.207-0.299,0.428-0.991,0.524
					C15.675,67.416,9.518,67.875,10.08,65.06z"/>
			</g>
			
				<path fill="none" stroke="#167070" stroke-width="1.8479" stroke-linecap="round" stroke-linejoin="round" stroke-miterlimit="10" d="
				M20.596,73.135c0,0-7.034-23.733-9.816-51.484"/>
		</g>
		<g>
			<g>
				<path fill="#FCDF90" d="M26.575,35.092c-0.103-0.178,0.032-0.465,0.359-0.865c1.102-1.328,4.74-5.303,6.112-3.199
					c1.379,2.109-3.792,3.754-5.49,4.166C26.958,35.338,26.668,35.25,26.575,35.092z"/>
				<path fill="#E0C280" d="M33.046,31.027c-0.026-0.043-0.051-0.076-0.082-0.113c-0.547,0.974-1.317,1.809-2.325,2.32
					c-1.031,0.529-2.517,1.387-3.721,1.018c-0.317,0.387-0.444,0.67-0.343,0.844c0.093,0.158,0.383,0.246,0.981,0.102
					C29.254,34.779,34.425,33.137,33.046,31.027z"/>
			</g>
			<g>
				<path fill="#FCDF90" d="M26.854,35.647c0.045-0.196-0.168-0.434-0.603-0.715c-1.453-0.938-6.115-3.634-6.792-1.215
					c-0.68,2.428,4.744,2.438,6.492,2.322C26.564,36,26.813,35.826,26.854,35.647z"/>
				<path fill="#E0C280" d="M19.458,33.717c0.015-0.047,0.028-0.092,0.045-0.135c0.816,0.763,1.801,1.325,2.916,1.518
					c1.141,0.193,2.815,0.563,3.854-0.15c0.418,0.271,0.623,0.504,0.58,0.697c-0.041,0.182-0.29,0.354-0.903,0.396
					C24.202,36.156,18.778,36.145,19.458,33.717z"/>
			</g>
			<g>
				<path fill="#FCDF90" d="M26.89,37.971c-0.085-0.229,0.131-0.546,0.606-0.953c1.587-1.355,6.738-5.339,7.942-2.551
					c1.202,2.799-5.288,3.684-7.402,3.828C27.297,38.347,26.966,38.18,26.89,37.971z"/>
				<path fill="#E0C280" d="M35.438,34.467c-0.025-0.056-0.051-0.105-0.077-0.154c-0.853,1.043-1.943,1.881-3.25,2.288
					c-1.333,0.416-3.28,1.13-4.638,0.438c-0.458,0.396-0.666,0.705-0.583,0.934c0.076,0.209,0.407,0.376,1.146,0.324
					C30.15,38.151,36.64,37.266,35.438,34.467z"/>
			</g>
			<g>
				<path fill="#FCDF90" d="M27.207,39.25c0.057-0.24-0.201-0.524-0.727-0.865c-1.752-1.133-7.39-4.395-8.209-1.468
					c-0.82,2.936,5.734,2.942,7.844,2.807C26.858,39.676,27.161,39.465,27.207,39.25z"/>
				<path fill="#E0C280" d="M18.272,36.917c0.017-0.061,0.034-0.11,0.054-0.162c0.986,0.92,2.175,1.604,3.524,1.833
					c1.38,0.23,3.401,0.682,4.656-0.188c0.506,0.331,0.753,0.609,0.701,0.85c-0.046,0.215-0.349,0.426-1.091,0.474
					C24.006,39.863,17.451,39.853,18.272,36.917z"/>
			</g>
			<g>
				<path fill="#FCDF90" d="M27.857,45.287c-0.1-0.177,0.031-0.464,0.363-0.861c1.099-1.33,4.736-5.306,6.11-3.2
					c1.377,2.11-3.791,3.752-5.493,4.166C28.241,45.537,27.952,45.448,27.857,45.287z"/>
				<path fill="#E0C280" d="M34.331,41.225c-0.028-0.041-0.053-0.079-0.083-0.114c-0.549,0.974-1.317,1.812-2.324,2.321
					c-1.029,0.529-2.516,1.385-3.722,1.017c-0.315,0.39-0.444,0.67-0.345,0.844c0.094,0.157,0.383,0.247,0.98,0.103
					C30.54,44.977,35.708,43.335,34.331,41.225z"/>
			</g>
			<g>
				<path fill="#FCDF90" d="M28.082,45.577c0.028-0.198-0.201-0.421-0.654-0.669c-1.517-0.824-6.371-3.166-6.865-0.7
					c-0.496,2.472,4.911,2.073,6.647,1.827C27.815,45.951,28.055,45.76,28.082,45.577z"/>
				<path fill="#E0C280" d="M20.563,44.207c0.011-0.05,0.022-0.097,0.034-0.142c0.872,0.697,1.896,1.188,3.021,1.293
					c1.153,0.108,2.848,0.354,3.83-0.438c0.441,0.241,0.663,0.457,0.635,0.653c-0.027,0.185-0.267,0.374-0.873,0.458
					C25.474,46.281,20.066,46.678,20.563,44.207z"/>
			</g>
			<g>
				<path fill="#FCDF90" d="M28.452,48.204c-0.098-0.264,0.147-0.625,0.691-1.088c1.812-1.553,7.69-6.1,9.067-2.913
					c1.374,3.192-6.042,4.208-8.45,4.371C28.913,48.633,28.537,48.443,28.452,48.204z"/>
				<path fill="#E0C280" d="M38.211,44.204c-0.028-0.063-0.055-0.117-0.087-0.179c-0.976,1.193-2.217,2.146-3.707,2.611
					c-1.527,0.479-3.749,1.291-5.302,0.502c-0.522,0.452-0.76,0.806-0.662,1.063c0.085,0.236,0.46,0.43,1.308,0.369
					C32.169,48.412,39.584,47.399,38.211,44.204z"/>
			</g>
			<g>
				<path fill="#FCDF90" d="M28.693,49.083c0.023-0.28-0.31-0.563-0.956-0.865c-2.161-1.015-9.039-3.833-9.513-0.398
					c-0.478,3.447,6.94,2.451,9.306,1.971C28.359,49.617,28.67,49.334,28.693,49.083z"/>
				<path fill="#E0C280" d="M18.224,47.818c0.006-0.063,0.02-0.131,0.033-0.189c1.26,0.891,2.711,1.479,4.271,1.529
					c1.596,0.056,3.955,0.25,5.241-0.928c0.625,0.299,0.947,0.576,0.924,0.854c-0.023,0.252-0.333,0.533-1.163,0.703
					C25.164,50.27,17.746,51.266,18.224,47.818z"/>
			</g>
			<g>
				<path fill="#FCDF90" d="M26.558,33.627c-0.154-0.061-0.222-0.309-0.222-0.727c0-1.396,0.213-5.738,2.151-5.141
					c1.943,0.602-0.425,4.287-1.266,5.422C26.924,33.583,26.695,33.678,26.558,33.627z"/>
				<path fill="#E0C280" d="M28.486,27.764c-0.038-0.012-0.075-0.021-0.111-0.029c0.159,0.889,0.114,1.808-0.248,2.646
					c-0.369,0.858-0.849,2.154-1.792,2.548c0.002,0.404,0.068,0.646,0.222,0.701c0.137,0.051,0.366-0.045,0.663-0.441
					C28.062,32.051,30.43,28.365,28.486,27.764z"/>
			</g>
			<g>
				<path fill="#FCDF90" d="M26.589,33.611c0.102-0.125,0.034-0.373-0.18-0.729c-0.711-1.201-3.107-4.834-4.468-3.329
					c-1.368,1.509,2.548,3.474,3.85,4.021C26.251,33.762,26.491,33.727,26.589,33.611z"/>
				<path fill="#E0C280" d="M21.941,29.55c0.025-0.03,0.051-0.058,0.08-0.081c0.313,0.844,0.821,1.606,1.558,2.146
					c0.754,0.554,1.833,1.427,2.842,1.28c0.203,0.35,0.267,0.589,0.168,0.713c-0.098,0.115-0.339,0.15-0.798-0.041
					C24.49,33.024,20.574,31.059,21.941,29.55z"/>
			</g>
			<g>
				<path fill="#FCDF90" d="M27.488,41.458c-0.069-0.163,0.079-0.398,0.409-0.705c1.103-1.028,4.698-4.063,5.647-2.086
					c0.957,1.979-3.699,2.822-5.219,2.987C27.795,41.715,27.549,41.606,27.488,41.458z"/>
				<path fill="#E0C280" d="M33.544,38.667c-0.016-0.037-0.039-0.072-0.059-0.107c-0.585,0.779-1.343,1.416-2.272,1.75
					c-0.95,0.341-2.333,0.916-3.332,0.459c-0.317,0.3-0.46,0.531-0.394,0.689c0.062,0.146,0.307,0.258,0.837,0.196
					C29.845,41.49,34.501,40.65,33.544,38.667z"/>
			</g>
			<g>
				<path fill="#FCDF90" d="M27.678,41.951c0.008-0.179-0.205-0.352-0.62-0.528c-1.381-0.604-5.778-2.264-6.019-0.083
					c-0.24,2.188,4.432,1.427,5.916,1.079C27.478,42.295,27.669,42.111,27.678,41.951z"/>
				<path fill="#E0C280" d="M21.04,41.338c0.004-0.041,0.011-0.082,0.02-0.121c0.809,0.539,1.738,0.887,2.724,0.893
					c1.012,0.006,2.506,0.086,3.295-0.678c0.401,0.176,0.608,0.346,0.6,0.521c-0.009,0.158-0.2,0.346-0.723,0.468
					C25.471,42.765,20.799,43.526,21.04,41.338z"/>
			</g>
			<g>
				<path fill="#FCDF90" d="M29.903,55.906c-0.115-0.19,0.03-0.513,0.392-0.945c1.211-1.465,5.205-5.825,6.711-3.52
					c1.517,2.318-4.16,4.119-6.029,4.575C30.323,56.18,30.002,56.079,29.903,55.906z"/>
				<path fill="#E0C280" d="M37.006,51.443c-0.027-0.045-0.059-0.086-0.087-0.127c-0.603,1.066-1.447,1.986-2.557,2.555
					c-1.128,0.578-2.759,1.521-4.084,1.111c-0.348,0.426-0.486,0.734-0.375,0.926c0.099,0.174,0.42,0.271,1.074,0.11
					C32.846,55.563,38.523,53.762,37.006,51.443z"/>
			</g>
			<g>
				<path fill="#FCDF90" d="M30.036,56.236c0.032-0.219-0.222-0.459-0.72-0.729c-1.664-0.909-6.993-3.479-7.534-0.773
					c-0.546,2.717,5.394,2.279,7.296,2.012C29.743,56.648,30.008,56.438,30.036,56.236z"/>
				<path fill="#E0C280" d="M21.782,54.733c0.008-0.053,0.023-0.104,0.035-0.148c0.955,0.768,2.082,1.307,3.319,1.422
					c1.266,0.119,3.128,0.387,4.208-0.483c0.479,0.269,0.725,0.503,0.693,0.72c-0.028,0.199-0.293,0.409-0.958,0.506
					C27.175,57.012,21.236,57.448,21.782,54.733z"/>
			</g>
			<g>
				<path fill="#FCDF90" d="M30.434,58.592c-0.087-0.241,0.139-0.573,0.639-0.998c1.657-1.422,7.051-5.592,8.313-2.672
					c1.263,2.932-5.541,3.857-7.748,4.009C30.861,58.985,30.517,58.811,30.434,58.592z"/>
				<path fill="#E0C280" d="M39.386,54.922c-0.023-0.061-0.051-0.109-0.081-0.16c-0.892,1.092-2.033,1.969-3.399,2.396
					c-1.398,0.438-3.438,1.187-4.861,0.463c-0.48,0.411-0.696,0.735-0.611,0.976c0.083,0.219,0.427,0.395,1.204,0.339
					C33.845,58.782,40.649,57.854,39.386,54.922z"/>
			</g>
			<g>
				<path fill="#FCDF90" d="M30.739,59.408c-0.007-0.26-0.343-0.479-0.964-0.686c-2.074-0.689-8.645-2.514-8.708,0.665
					c-0.064,3.188,6.585,1.479,8.687,0.786C30.494,59.93,30.747,59.641,30.739,59.408z"/>
				<path fill="#E0C280" d="M21.067,59.39c0.002-0.063,0.005-0.12,0.011-0.179c1.242,0.675,2.629,1.055,4.054,0.934
					c1.46-0.125,3.629-0.203,4.673-1.41c0.602,0.204,0.927,0.424,0.934,0.676c0.008,0.23-0.245,0.521-0.985,0.77
					C27.652,60.87,21.003,62.579,21.067,59.39z"/>
			</g>
			<g>
				<path fill="#FCDF90" d="M29.102,51.807c-0.069-0.164,0.076-0.396,0.408-0.707c1.102-1.025,4.696-4.06,5.649-2.084
					c0.956,1.982-3.703,2.82-5.219,2.99C29.404,52.063,29.163,51.953,29.102,51.807z"/>
				<path fill="#E0C280" d="M35.158,49.016c-0.018-0.038-0.04-0.073-0.058-0.106c-0.584,0.776-1.344,1.414-2.274,1.749
					c-0.95,0.344-2.333,0.912-3.333,0.459c-0.316,0.303-0.46,0.527-0.391,0.689c0.061,0.146,0.303,0.256,0.837,0.199
					C31.455,51.836,36.114,50.999,35.158,49.016z"/>
			</g>
			<g>
				<path fill="#FCDF90" d="M29.396,52.762c0.023-0.174-0.176-0.365-0.572-0.58c-1.325-0.721-5.56-2.756-5.991-0.604
					c-0.431,2.156,4.291,1.809,5.801,1.59C29.165,53.088,29.373,52.922,29.396,52.762z"/>
				<path fill="#E0C280" d="M22.833,51.576c0.007-0.041,0.018-0.082,0.03-0.117c0.758,0.604,1.655,1.031,2.64,1.125
					c1.003,0.092,2.486,0.303,3.338-0.393c0.384,0.211,0.578,0.398,0.555,0.568c-0.023,0.16-0.231,0.326-0.762,0.4
					C27.123,53.383,22.402,53.735,22.833,51.576z"/>
			</g>
			<g>
				<path fill="#FCDF90" d="M31.54,63.174c-0.096-0.264,0.151-0.624,0.695-1.088c1.812-1.551,7.691-6.101,9.064-2.912
					c1.377,3.193-6.038,4.209-8.45,4.371C32.004,63.603,31.629,63.412,31.54,63.174z"/>
				<path fill="#E0C280" d="M41.299,59.174c-0.029-0.063-0.057-0.119-0.085-0.176c-0.976,1.188-2.219,2.146-3.708,2.607
					c-1.528,0.479-3.747,1.289-5.3,0.502c-0.522,0.453-0.762,0.809-0.666,1.063c0.089,0.236,0.464,0.429,1.31,0.371
					C35.261,63.383,42.676,62.369,41.299,59.174z"/>
			</g>
			<g>
				<path fill="#FCDF90" d="M31.783,64.051c0.026-0.278-0.307-0.563-0.956-0.865c-2.16-1.012-9.038-3.832-9.513-0.396
					c-0.479,3.44,6.941,2.449,9.308,1.967C31.45,64.587,31.762,64.304,31.783,64.051z"/>
				<path fill="#E0C280" d="M21.314,62.79c0.007-0.066,0.021-0.133,0.033-0.193c1.257,0.891,2.71,1.479,4.27,1.531
					c1.599,0.053,3.959,0.249,5.245-0.927c0.619,0.299,0.947,0.573,0.921,0.851c-0.021,0.253-0.333,0.536-1.161,0.705
					C28.255,65.24,20.835,66.234,21.314,62.79z"/>
			</g>
			<g>
				<path fill="#FCDF90" d="M32.192,66.777c-0.068-0.164,0.077-0.396,0.406-0.707c1.104-1.025,4.697-4.061,5.65-2.085
					c0.957,1.983-3.702,2.821-5.219,2.989C32.497,67.034,32.253,66.924,32.192,66.777z"/>
				<path fill="#E0C280" d="M38.248,63.985c-0.021-0.036-0.038-0.071-0.06-0.106c-0.58,0.775-1.344,1.418-2.271,1.752
					c-0.951,0.342-2.335,0.916-3.332,0.46c-0.319,0.298-0.46,0.526-0.393,0.688c0.061,0.146,0.304,0.259,0.836,0.197
					C34.546,66.807,39.205,65.969,38.248,63.985z"/>
			</g>
			<g>
				<path fill="#FCDF90" d="M32.485,67.733c0.025-0.174-0.177-0.363-0.571-0.581c-1.324-0.72-5.562-2.755-5.991-0.604
					c-0.429,2.155,4.29,1.806,5.802,1.589C32.256,68.06,32.461,67.893,32.485,67.733z"/>
				<path fill="#E0C280" d="M25.923,66.546c0.009-0.042,0.02-0.081,0.03-0.12c0.76,0.606,1.656,1.035,2.638,1.125
					c1.006,0.094,2.485,0.305,3.341-0.391c0.383,0.213,0.577,0.397,0.552,0.568c-0.023,0.16-0.229,0.327-0.759,0.402
					C30.213,68.352,25.494,68.703,25.923,66.546z"/>
			</g>
			
				<path fill="none" stroke="#F4A66C" stroke-width="1.4163" stroke-linecap="round" stroke-linejoin="round" stroke-miterlimit="10" d="
				M33.982,72.736c0,0-5.39-18.188-7.521-39.461"/>
		</g>
	</g>
	<g>
		<g>
			<path fill="#64BE7B" d="M66.355,68.186c0,0-8.61-31.541-5.563-50.349c0.742-4.571-15.443,20.14-2.838,50.411L66.355,68.186z"/>
			<path fill="#50A562" d="M59.039,19.278c-0.861,2.364-2.952,15.706-2.443,25.618c0.725,14.095,3.953,21.933,4.984,23.325
				l-3.623,0.024C48.376,45.237,55.43,25.443,59.039,19.278z"/>
			<path fill="#FCDF90" d="M54.066,37.349c0.119,0.899,1.271,0.675,3.227-0.624C57.293,36.725,53.925,36.318,54.066,37.349z"/>
			<path fill="#FCDF90" d="M59.909,34.008c-0.085,0.629-0.89,0.473-2.261-0.439C57.648,33.568,60.007,33.284,59.909,34.008z"/>
			<path fill="#FCDF90" d="M53.837,44.948c0.119,0.896,1.269,0.678,3.226-0.625C57.063,44.323,53.695,43.917,53.837,44.948z"/>
			<path fill="#FCDF90" d="M54.65,54.811c0.313,1.436,1.379,1.188,4.354-1.173C59.005,53.638,54.284,53.168,54.65,54.811z"/>
			<path fill="#FCDF90" d="M60.327,40.863c-0.087,0.633-0.894,0.479-2.261-0.436C58.066,40.428,60.425,40.143,60.327,40.863z"/>
			<path fill="#FCDF90" d="M61.661,49.328c-0.183,1.343-1.896,1.01-4.808-0.932C56.854,48.399,61.87,47.793,61.661,49.328z"/>
			<path fill="#FCDF90" d="M57.123,64.25c0.275,1.233,1.363,0.983,3.936-1.056C61.059,63.198,56.809,62.828,57.123,64.25z"/>
			<path fill="#FCDF90" d="M63.878,58.717c-0.166,1.21-1.712,0.908-4.345-0.844C59.533,57.874,64.068,57.328,63.878,58.717z"/>
			<path fill="#FCDF90" d="M54.881,31.506c0.082,0.631,0.889,0.473,2.258-0.438C57.141,31.068,54.781,30.782,54.881,31.506z"/>
			<path fill="#FCDF90" d="M57.26,23.938c0.068,0.506,0.717,0.382,1.817-0.352C59.077,23.586,57.182,23.358,57.26,23.938z"/>
			<path fill="#FCDF90" d="M59.807,27.615c-0.064,0.507-0.715,0.38-1.813-0.354C57.992,27.262,59.889,27.033,59.807,27.615z"/>
		</g>
		<g>
			<path fill="#439A7E" d="M58.813,68.055c0,0,11.164-40.902,7.211-65.292c-0.965-5.929,20.029,26.117,3.685,65.374L58.813,68.055z"
				/>
			<path fill="#307F63" d="M68.303,4.63c1.115,3.063,3.829,20.37,3.166,33.222c-0.938,18.277-5.128,28.441-6.462,30.25l4.699,0.034
				C82.129,38.295,72.984,12.626,68.303,4.63z"/>
			<path fill="#FCDF90" d="M74.751,28.065c-0.161,1.164-1.651,0.875-4.183-0.811C70.568,27.254,74.932,26.729,74.751,28.065z"/>
			<path fill="#FCDF90" d="M67.171,23.731c0.11,0.816,1.156,0.615,2.931-0.566C70.102,23.162,67.043,22.795,67.171,23.731z"/>
			<path fill="#FCDF90" d="M75.047,37.918c-0.156,1.166-1.646,0.877-4.182-0.813C70.865,37.11,75.23,36.583,75.047,37.918z"/>
			<path fill="#FCDF90" d="M73.995,50.711c-0.416,1.854-1.79,1.54-5.649-1.522C68.346,49.189,74.467,48.578,73.995,50.711z"/>
			<path fill="#FCDF90" d="M66.63,32.624c0.11,0.813,1.155,0.611,2.931-0.566C69.561,32.057,66.503,31.688,66.63,32.624z"/>
			<path fill="#FCDF90" d="M64.898,43.602c0.234,1.736,2.459,1.308,6.232-1.206C71.133,42.396,64.628,41.61,64.898,43.602z"/>
			<path fill="#FCDF90" d="M70.779,62.949c-0.355,1.604-1.768,1.279-5.098-1.361C65.682,61.586,71.191,61.109,70.779,62.949z"/>
			<path fill="#FCDF90" d="M62.025,55.776c0.213,1.57,2.221,1.184,5.638-1.092C67.663,54.684,61.777,53.975,62.025,55.776z"/>
			<path fill="#FCDF90" d="M73.693,20.486c-0.111,0.816-1.155,0.613-2.935-0.563C70.762,19.92,73.82,19.549,73.693,20.486z"/>
			<path fill="#FCDF90" d="M70.607,10.674c-0.092,0.654-0.933,0.494-2.357-0.456C68.25,10.218,70.71,9.922,70.607,10.674z"/>
			<path fill="#FCDF90" d="M67.302,15.441c0.089,0.657,0.931,0.493,2.354-0.456C69.656,14.985,67.199,14.688,67.302,15.441z"/>
		</g>
		<g>
			<path fill="#439A7E" d="M78.738,68.681c0,0,13.637-15.784,17.058-27.45c0.831-2.835,3.347,15.845-12.235,29.797L78.738,68.681z"
				/>
			<path fill="#317C61" d="M96.411,42.545c-0.156,1.598-2.625,9.853-5.642,15.417c-4.297,7.912-8.313,11.532-9.291,12.054
				l2.082,1.012C95.402,60.422,96.792,47.086,96.411,42.545z"/>
			<path fill="#FCDF90" d="M94.299,54.314c-0.316,0.483-0.921,0.038-1.686-1.248C92.613,53.066,94.665,53.758,94.299,54.314z"/>
			<path fill="#FCDF90" d="M91.855,50.781c-0.125,0.389,0.383,0.52,1.424,0.369C93.279,51.152,91.998,50.338,91.855,50.781z"/>
			<path fill="#FCDF90" d="M92.341,58.75c-0.315,0.48-0.918,0.039-1.685-1.247C90.656,57.503,92.705,58.195,92.341,58.75z"/>
			<path fill="#FCDF90" d="M89.158,64.203c-0.577,0.735-1.121,0.307-2.182-1.873C86.977,62.329,89.822,63.36,89.158,64.203z"/>
			<path fill="#FCDF90" d="M89.73,54.613c-0.125,0.391,0.381,0.521,1.418,0.371C91.148,54.985,89.872,54.172,89.73,54.613z"/>
			<path fill="#FCDF90" d="M86.631,59.119c-0.264,0.818,0.814,1.103,3.023,0.787C89.654,59.906,86.934,58.178,86.631,59.119z"/>
			<path fill="#FCDF90" d="M85.135,68.954c-0.496,0.637-1.058,0.19-1.973-1.688C83.162,67.268,85.711,68.225,85.135,68.954z"/>
			<path fill="#FCDF90" d="M82.773,63.912c-0.239,0.74,0.734,0.996,2.73,0.713C85.506,64.624,83.046,63.061,82.773,63.912z"/>
			<path fill="#FCDF90" d="M95.441,50.727c-0.229,0.338-0.646,0.027-1.185-0.875C94.26,49.852,95.693,50.336,95.441,50.727z"/>
			<path fill="#FCDF90" d="M96.152,45.715c-0.18,0.271-0.521,0.021-0.95-0.702C95.202,45.013,96.357,45.402,96.152,45.715z"/>
			<path fill="#FCDF90" d="M93.674,47.131c-0.102,0.309,0.309,0.416,1.141,0.297C94.814,47.428,93.785,46.774,93.674,47.131z"/>
		</g>
		<g>
			<path fill="#439A7E" d="M54.773,68.792c0,0-13.637-15.785-17.057-27.45c-0.832-2.833-3.348,15.844,12.235,29.798L54.773,68.792z"
				/>
			<path fill="#317C61" d="M37.102,42.656c0.156,1.6,2.621,9.854,5.645,15.415c4.292,7.912,8.312,11.536,9.286,12.058l-2.079,1.013
				C38.107,60.531,36.723,47.198,37.102,42.656z"/>
			<path fill="#FCDF90" d="M39.211,54.426c0.323,0.481,0.92,0.038,1.688-1.248C40.899,53.178,38.851,53.87,39.211,54.426z"/>
			<path fill="#FCDF90" d="M41.658,50.893c0.122,0.391-0.384,0.521-1.423,0.373C40.235,51.266,41.516,50.451,41.658,50.893z"/>
			<path fill="#FCDF90" d="M41.171,58.863c0.318,0.482,0.916,0.038,1.686-1.246C42.857,57.615,40.807,58.308,41.171,58.863z"/>
			<path fill="#FCDF90" d="M44.352,64.317c0.581,0.736,1.124,0.305,2.187-1.875C46.539,62.442,43.691,63.472,44.352,64.317z"/>
			<path fill="#FCDF90" d="M43.782,54.727c0.127,0.386-0.38,0.52-1.419,0.371C42.362,55.098,43.642,54.283,43.782,54.727z"/>
			<path fill="#FCDF90" d="M46.882,59.231c0.262,0.822-0.816,1.104-3.023,0.788C43.859,60.019,46.579,58.29,46.882,59.231z"/>
			<path fill="#FCDF90" d="M48.376,69.068c0.498,0.638,1.058,0.191,1.976-1.688C50.352,67.379,47.804,68.336,48.376,69.068z"/>
			<path fill="#FCDF90" d="M50.738,64.024c0.24,0.742-0.732,0.996-2.729,0.712C48.009,64.735,50.467,63.173,50.738,64.024z"/>
			<path fill="#FCDF90" d="M38.074,50.838c0.221,0.339,0.643,0.023,1.18-0.873C39.254,49.965,37.817,50.449,38.074,50.838z"/>
			<path fill="#FCDF90" d="M37.363,45.826c0.178,0.272,0.516,0.021,0.947-0.699C38.31,45.125,37.159,45.516,37.363,45.826z"/>
			<path fill="#FCDF90" d="M39.841,47.242c0.1,0.311-0.307,0.416-1.141,0.299C38.7,47.54,39.723,46.886,39.841,47.242z"/>
		</g>
		<g>
			<path fill="#167070" d="M68.777,68.117c0,0,10.813-32.15,8.781-51.813c-0.49-4.779,14.784,21.789-0.086,52.384L68.777,68.117z"/>
			<path fill="#175B56" d="M79.293,17.902c0.749,2.5,2.117,16.443,0.994,26.683c-1.6,14.554-5.413,22.478-6.564,23.855l3.752,0.246
				C88.779,45.43,82.664,24.504,79.293,17.902z"/>
			<path fill="#FCDF90" d="M83.357,36.917c-0.182,0.924-1.359,0.623-3.301-0.843C80.057,36.075,83.566,35.857,83.357,36.917z"/>
			<path fill="#FCDF90" d="M77.507,33.106c0.05,0.656,0.896,0.543,2.366-0.316C79.873,32.787,77.447,32.35,77.507,33.106z"/>
			<path fill="#FCDF90" d="M83.143,44.801c-0.183,0.924-1.355,0.623-3.306-0.84C79.837,43.961,83.35,43.74,83.143,44.801z"/>
			<path fill="#FCDF90" d="M81.706,54.967c-0.414,1.465-1.501,1.146-4.44-1.479C77.266,53.49,82.184,53.287,81.706,54.967z"/>
			<path fill="#FCDF90" d="M76.662,40.183c0.053,0.655,0.895,0.542,2.369-0.317C79.031,39.863,76.605,39.427,76.662,40.183z"/>
			<path fill="#FCDF90" d="M74.773,48.867c0.104,1.396,1.899,1.156,5.035-0.676C79.809,48.193,74.65,47.266,74.773,48.867z"/>
			<path fill="#FCDF90" d="M78.574,64.594c-0.358,1.265-1.473,0.939-4.01-1.324C74.564,63.27,78.988,63.144,78.574,64.594z"/>
			<path fill="#FCDF90" d="M71.912,58.458c0.098,1.265,1.721,1.047,4.554-0.609C76.466,57.848,71.799,57.009,71.912,58.458z"/>
			<path fill="#FCDF90" d="M82.869,30.815c-0.129,0.646-0.954,0.438-2.318-0.59C80.551,30.225,83.012,30.073,82.869,30.815z"/>
			<path fill="#FCDF90" d="M80.855,22.835c-0.102,0.519-0.765,0.351-1.856-0.479C78.998,22.36,80.975,22.238,80.855,22.835z"/>
			<path fill="#FCDF90" d="M77.998,26.488c0.039,0.527,0.715,0.438,1.9-0.254C79.898,26.235,77.951,25.883,77.998,26.488z"/>
		</g>
		<g>
			<path fill="#167070" d="M60.007,68.124c0,0-12.568-24.176-13.398-40.031c-0.201-3.855-9.033,19.124,6.565,41.563L60.007,68.124z"
				/>
			<path fill="#185B56" d="M45.433,29.574c-0.285,2.076,0.361,13.313,2.52,21.3c3.072,11.354,7.084,17.169,8.168,18.12l-2.947,0.66
				C41.316,52.599,43.575,35.234,45.433,29.574z"/>
			<path fill="#FCDF90" d="M44.565,45.17c0.258,0.711,1.154,0.324,2.518-1.078C47.083,44.092,44.268,44.356,44.565,45.17z"/>
			<path fill="#FCDF90" d="M48.734,41.418c0.041,0.525-0.645,0.543-1.917,0.043C46.817,41.461,48.69,40.813,48.734,41.418z"/>
			<path fill="#FCDF90" d="M45.715,51.401c0.258,0.711,1.154,0.326,2.516-1.074C48.231,50.324,45.418,50.584,45.715,51.401z"/>
			<path fill="#FCDF90" d="M48.116,59.292c0.51,1.107,1.333,0.725,3.34-1.727C51.457,57.568,47.529,58.018,48.116,59.292z"/>
			<path fill="#FCDF90" d="M50.283,46.932c0.041,0.527-0.645,0.543-1.917,0.041C48.365,46.973,50.236,46.326,50.283,46.932z"/>
			<path fill="#FCDF90" d="M52.859,53.592c0.092,1.121-1.364,1.15-4.077,0.088C48.783,53.68,52.758,52.303,52.859,53.592z"/>
			<path fill="#FCDF90" d="M51.795,66.543c0.441,0.961,1.286,0.563,3.02-1.551C54.814,64.994,51.286,65.443,51.795,66.543z"/>
			<path fill="#FCDF90" d="M56.32,60.848c0.078,1.014-1.233,1.043-3.689,0.08C52.63,60.928,56.229,59.682,56.32,60.848z"/>
			<path fill="#FCDF90" d="M44.198,40.267c0.182,0.499,0.808,0.229,1.762-0.755C45.96,39.512,43.99,39.694,44.198,40.267z"/>
			<path fill="#FCDF90" d="M44.804,33.684c0.145,0.4,0.651,0.186,1.417-0.604C46.22,33.077,44.639,33.226,44.804,33.684z"/>
			<path fill="#FCDF90" d="M47.529,36.229c0.032,0.424-0.519,0.438-1.544,0.033C45.984,36.262,47.488,35.742,47.529,36.229z"/>
		</g>
		<g>
			<path fill="#64BE7B" d="M76.284,68.477c0,0,10.788-22.344,12.184-36.841c0.339-3.521,6.007,17.271-7.021,38.091L76.284,68.477z"
				/>
			<path fill="#50A562" d="M89.3,32.966c0.116,1.892-0.916,12.165-2.952,19.501c-2.896,10.429-6.252,15.826-7.127,16.721
				l2.225,0.539C91.35,53.9,90.447,38.092,89.3,32.966z"/>
			<path fill="#FCDF90" d="M89.216,47.188c-0.231,0.652-0.899,0.322-1.876-0.93C87.34,46.258,89.484,46.436,89.216,47.188z"/>
			<path fill="#FCDF90" d="M86.199,43.852c-0.057,0.482,0.47,0.48,1.471-0.004C87.67,43.848,86.268,43.297,86.199,43.852z"/>
			<path fill="#FCDF90" d="M88.037,52.9c-0.23,0.653-0.898,0.323-1.877-0.929C86.16,51.971,88.302,52.149,88.037,52.9z"/>
			<path fill="#FCDF90" d="M85.822,60.156c-0.447,1.023-1.059,0.688-2.479-1.504C83.346,58.654,86.331,58.98,85.822,60.156z"/>
			<path fill="#FCDF90" d="M84.75,48.917c-0.055,0.48,0.467,0.479,1.471-0.002C86.219,48.915,84.814,48.363,84.75,48.917z"/>
			<path fill="#FCDF90" d="M82.457,55.053c-0.123,1.025,0.992,1.023,3.123-0.006C85.579,55.047,82.596,53.876,82.457,55.053z"/>
			<path fill="#FCDF90" d="M82.652,66.858c-0.385,0.887-1.014,0.542-2.238-1.35C80.415,65.508,83.093,65.842,82.652,66.858z"/>
			<path fill="#FCDF90" d="M79.458,61.754c-0.106,0.928,0.897,0.925,2.821-0.01C82.279,61.745,79.583,60.688,79.458,61.754z"/>
			<path fill="#FCDF90" d="M89.732,42.703c-0.162,0.458-0.629,0.227-1.313-0.651C88.419,42.05,89.92,42.176,89.732,42.703z"/>
			<path fill="#FCDF90" d="M89.585,36.704c-0.13,0.369-0.511,0.183-1.058-0.521C88.525,36.181,89.732,36.281,89.585,36.704z"/>
			<path fill="#FCDF90" d="M87.374,39.086c-0.045,0.389,0.375,0.389,1.183-0.002C88.557,39.084,87.425,38.642,87.374,39.086z"/>
		</g>
	</g>
	<g>
		<path fill="#9B5C83" d="M75.542,114.252c-1.5,1.221-3.739,2.271-6.409,3.15H24.782c-3.81-1.32-7-3.15-8.76-5.69
			c-12.35-17.859-8.6-43.979-8.6-43.979h79.6C87.022,67.733,93.152,99.962,75.542,114.252z"/>
		<path fill="#753863" d="M75.542,114.252c-1.5,1.221-3.739,2.271-6.409,3.15h-39.28c1.25-0.23,2.47-0.51,3.64-0.81
			c8.82-2.301,16.95-6.301,23.19-11.971c10.609-9.64,17.569-23.43,17.88-36.89h12.46C87.022,67.733,93.152,99.962,75.542,114.252z"
			/>
	</g>
	<g>
		<g>
			<path fill="#64BE7B" d="M33.597,70.042c1.382,0.457,1.536,0.954,1.633,2.64c0.041,0.743,0.551,1.228,0.441,1.552
				c-0.119,0.365-0.68,0.271-1.231,1.014c-0.897,1.215-1.52,1.496-2.908,1.036c-1.601-0.527-2.434-2.354-1.865-4.078
				C30.236,70.477,31.996,69.512,33.597,70.042z"/>
			<path fill="#53A564" d="M31.358,70.908c0.436,0.186,1.155,0.402,2.194,1.527c0.713,0.771,1.309,2.457,1.197,3.158
				c0.435-0.381,0.822-0.38,0.921-0.676c0.11-0.326-0.4-0.813-0.441-1.553c-0.097-1.686-0.25-2.185-1.633-2.643
				C32.837,70.477,32.044,70.567,31.358,70.908z"/>
		</g>
		<g>
			<path fill="#64BE7B" d="M35.007,80.354c-0.885-0.879-0.816-1.32-0.249-2.648c0.249-0.588,0.043-1.148,0.249-1.357
				c0.234-0.236,0.629,0.055,1.334-0.311c1.149-0.593,1.736-0.572,2.625,0.311c1.029,1.016,0.977,2.735-0.117,3.842
				C37.758,81.293,36.038,81.369,35.007,80.354z"/>
			<path fill="#53A564" d="M36.798,81.754c-0.265-0.312-0.732-0.75-1.104-2.012c-0.255-0.864-0.075-2.387,0.281-2.885
				c-0.481,0.129-0.776-0.02-0.967,0.17c-0.206,0.211,0,0.772-0.249,1.36c-0.567,1.328-0.636,1.771,0.249,2.649
				C35.497,81.523,36.14,81.756,36.798,81.754z"/>
		</g>
		<g>
			<path fill="#64BE7B" d="M30.83,78.141c0.97,0.225,1.112,0.521,1.312,1.54c0.087,0.45,0.469,0.722,0.421,0.927
				c-0.053,0.229-0.438,0.188-0.751,0.663c-0.506,0.772-0.903,0.972-1.875,0.745c-1.122-0.258-1.833-1.334-1.585-2.404
				C28.598,78.541,29.709,77.883,30.83,78.141z"/>
			<path fill="#53A564" d="M29.336,78.34c0.307,0.094,0.808,0.888,1.598,1.528c0.545,0.438,1.081,0.755,1.062,1.187
				c0.263-0.25,0.526-0.265,0.567-0.447c0.048-0.205-0.334-0.477-0.421-0.927c-0.2-1.021-0.342-1.315-1.312-1.54
				C30.295,78.018,29.768,78.104,29.336,78.34z"/>
		</g>
		<g>
			<path fill="#64BE7B" d="M32.905,87.105c-0.879-0.466-0.941-0.79-0.87-1.826c0.029-0.454-0.27-0.814-0.173-1.003
				c0.109-0.206,0.472-0.068,0.896-0.447c0.687-0.617,1.122-0.707,2.002-0.24c1.023,0.535,1.431,1.76,0.92,2.729
				C35.166,87.287,33.924,87.639,32.905,87.105z"/>
			<path fill="#53A564" d="M34.405,87.981c-0.273-0.17-0.731-0.396-1.338-1.223c-0.409-0.566-0.673-1.67-0.541-2.081
				c-0.321,0.171-0.578,0.119-0.665,0.286c-0.096,0.186,0.203,0.547,0.173,1.004c-0.071,1.036-0.009,1.358,0.87,1.826
				C33.39,88.047,33.921,88.098,34.405,87.981z"/>
		</g>
		<g>
			<path fill="#64BE7B" d="M28.994,86.056c0.994,0.067,1.184,0.337,1.541,1.313c0.159,0.434,0.576,0.642,0.565,0.85
				c-0.018,0.23-0.403,0.258-0.637,0.773c-0.378,0.846-0.737,1.104-1.735,1.033c-1.148-0.074-2.02-1.026-1.947-2.124
				C26.856,86.805,27.846,85.98,28.994,86.056z"/>
			<path fill="#53A564" d="M27.548,86.49c0.321,0.046,0.835,0.066,1.717,0.575c0.608,0.354,1.295,1.252,1.345,1.686
				c0.219-0.288,0.475-0.35,0.489-0.533c0.011-0.208-0.406-0.416-0.565-0.85c0.332,0.904-1.235-1.291-1.541-1.313
				C28.449,86.02,27.942,86.188,27.548,86.49z"/>
		</g>
		<g>
			<path fill="#64BE7B" d="M31.151,95.172c-0.882-0.465-0.941-0.788-0.874-1.824c0.031-0.457-0.268-0.82-0.174-1.004
				c0.112-0.206,0.476-0.072,0.897-0.451c0.688-0.617,1.119-0.705,2.004-0.24c1.018,0.539,1.428,1.764,0.916,2.731
				C33.408,95.353,32.169,95.708,31.151,95.172z"/>
			<path fill="#53A564" d="M32.647,95.363c-0.273-0.172-0.733-0.398-1.333-1.225c-0.414-0.567-0.674-1.67-0.545-2.082
				c-0.317,0.173-0.576,0.12-0.665,0.287c-0.093,0.184,0.205,0.547,0.174,1.004c-0.068,1.036-0.008,2.047,0.874,2.513
				C31.634,96.115,32.167,95.479,32.647,95.363z"/>
		</g>
		<g>
			<path fill="#64BE7B" d="M26.738,92.719c1.088,0.343,1.225,0.697,1.357,1.877c0.061,0.521,0.47,0.869,0.4,1.096
				c-0.082,0.257-0.519,0.179-0.916,0.691c-0.649,0.835-1.123,1.023-2.212,0.681c-1.257-0.396-1.971-1.688-1.589-2.892
				C24.154,92.972,25.482,92.323,26.738,92.719z"/>
			<path fill="#53A564" d="M25.012,92.809c0.346,0.137,0.91,0.99,1.754,1.797c0.58,0.555,1.103,1.059,1.039,1.546
				c0.322-0.261,0.624-0.253,0.69-0.46c0.07-0.227-0.339-0.572-0.4-1.096c-0.133-1.18-0.269-1.534-1.357-1.877
				C26.141,92.529,25.533,92.579,25.012,92.809z"/>
		</g>
		<g>
			<path fill="#64BE7B" d="M25.683,103.149c-0.612-0.883-0.51-1.225,0.072-2.182c0.258-0.422,0.153-0.919,0.337-1.045
				c0.207-0.146,0.488,0.166,1.08,0.014c0.97-0.248,1.428-0.115,2.042,0.771c0.707,1.021,0.493,2.396-0.485,3.066
				C27.752,104.452,26.389,104.172,25.683,103.149z"/>
			<path fill="#53A564" d="M27.021,104.768c-0.18-0.302-0.5-0.75-0.666-1.839c-0.113-0.747,0.186-1.938,0.517-2.267
				c-0.391,0.01-0.612-0.172-0.779-0.057c-0.184,0.127-0.079,0.623-0.337,1.046c-0.582,0.957-0.684,1.3-0.072,2.185
				C26.019,104.323,26.5,104.638,27.021,104.768z"/>
		</g>
		<g>
			<path fill="#64BE7B" d="M21.833,100.836c0.736,0.779,0.693,1.129,0.282,2.146c-0.182,0.448,0.002,0.918-0.156,1.068
				c-0.177,0.169-0.504-0.099-1.055,0.133c-0.902,0.374-1.369,0.309-2.109-0.476c-0.852-0.903-0.867-2.277-0.029-3.072
				C19.606,99.844,20.977,99.932,21.833,100.836z"/>
			<path fill="#53A564" d="M20.379,100.11c0.223,0.271,0.611,0.664,0.947,1.707c0.231,0.717,0.131,1.918-0.136,2.283
				c0.38-0.059,0.625,0.086,0.768-0.05c0.159-0.15-0.026-0.62,0.156-1.068c-0.108,0.271,0.974-0.813-0.282-2.146
				C21.426,100.407,20.906,100.166,20.379,100.11z"/>
		</g>
		<g>
			<path fill="#64BE7B" d="M18.863,108.704c-0.294-1.033-0.097-1.32,0.74-2.033c0.367-0.314,0.422-0.814,0.631-0.875
				c0.237-0.066,0.401,0.318,0.999,0.371c0.969,0.082,1.356,0.355,1.649,1.396c0.339,1.195-0.287,2.418-1.396,2.734
				C20.377,110.612,19.202,109.899,18.863,108.704z"/>
			<path fill="#53A564" d="M19.814,110.02c0.101,0.481-0.407,0.142-0.051-1.949c0.125-0.74,0.772-1.764,1.175-1.967
				c-0.364-0.121-0.513-0.361-0.704-0.309c-0.209,0.061-0.264,0.561-0.631,0.875c-0.836,0.713-1.034,1-0.74,2.033
				C19.023,109.272,19.372,109.729,19.814,110.02z"/>
		</g>
		
			<path fill="none" stroke="#64BE7B" stroke-width="1.9956" stroke-linecap="round" stroke-linejoin="round" stroke-miterlimit="10" d="
			M42.657,67.649c0,0-9.589,5.377-11.373,19.371c-1.754,13.733-13.239,20.008-13.239,20.008"/>
	</g>
	<g>
		<g>
			<path fill="#64BE7B" d="M43.051,79.065c0.901-0.223,1.027-0.529,1.17-1.596c0.066-0.471,0.414-0.751,0.362-0.963
				c-0.059-0.239-0.423-0.205-0.734-0.708c-0.509-0.815-0.889-1.028-1.797-0.809c-1.041,0.258-1.665,1.373-1.392,2.498
				C40.936,78.615,42.008,79.319,43.051,79.065z"/>
			<path fill="#53A564" d="M41.637,78.836c0.285-0.1,0.751-0.197,1.472-0.86c0.352-0.325,1.1,0.208,0.921-1.948
				c0.259,0.269,0.507,0.285,0.554,0.479c0.051,0.212-0.296,0.492-0.362,0.963c-0.143,1.063-0.27,1.373-1.17,1.596
				C42.556,79.186,42.055,79.088,41.637,78.836z"/>
		</g>
		<g>
			<path fill="#64BE7B" d="M46.565,79.25c-0.705-0.229-0.91-0.098-1.425,0.479c-0.227,0.253-0.577,0.283-0.623,0.431
				c-0.054,0.165,0.204,0.29,0.226,0.712c0.027,0.688,0.207,0.968,0.913,1.191c0.813,0.266,1.677-0.15,1.931-0.932
				C47.838,80.356,47.381,79.514,46.565,79.25z"/>
			<path fill="#53A564" d="M47.443,79.945c-0.232-0.057-0.591-0.18-1.342-0.069c-0.519,0.069-1.244,0.508-1.394,0.789
				c-0.075-0.263-0.234-0.368-0.191-0.504c0.046-0.146,0.396-0.178,0.623-0.431c0.516-0.572,0.721-0.709,1.425-0.479
				C46.95,79.374,47.256,79.63,47.443,79.945z"/>
		</g>
		<g>
			<path fill="#64BE7B" d="M41.814,84.177c0.74,0.038,0.905-0.146,1.255-0.831c0.156-0.305,0.483-0.42,0.492-0.574
				c0.011-0.174-0.272-0.227-0.397-0.631c-0.204-0.657-0.447-0.879-1.189-0.919c-0.853-0.048-1.584,0.577-1.627,1.396
				C40.301,83.43,40.959,84.131,41.814,84.177z"/>
			<path fill="#53A564" d="M40.788,83.727c0.238-0.005,0.618,0.023,1.316-0.271c0.48-0.205,1.067-0.813,1.144-1.121
				c0.136,0.229,0.321,0.297,0.312,0.438c-0.008,0.154-0.335,0.271-0.492,0.574c-0.35,0.688-0.515,0.869-1.255,0.831
				C41.409,84.154,41.049,83.985,40.788,83.727z"/>
		</g>
		<g>
			<path fill="#64BE7B" d="M44.712,85.003c-0.66-0.337-0.884-0.235-1.484,0.249c-0.267,0.216-0.614,0.188-0.682,0.324
				c-0.083,0.152,0.155,0.315,0.107,0.734c-0.083,0.688,0.048,0.985,0.713,1.324c0.76,0.39,1.678,0.115,2.052-0.611
				C45.791,86.299,45.472,85.393,44.712,85.003z"/>
			<path fill="#53A564" d="M45.469,85.833c-0.222-0.098-0.557-0.273-1.315-0.287c-0.521-0.012-1.307,0.305-1.5,0.559
				c-0.034-0.268-0.173-0.398-0.107-0.523c0.068-0.141,0.416-0.108,0.682-0.324c0.6-0.484,0.825-0.586,1.484-0.249
				C45.075,85.188,45.334,85.49,45.469,85.833z"/>
		</g>
		<g>
			<path fill="#64BE7B" d="M39.851,90c0.739,0.039,0.905-0.146,1.254-0.832c0.161-0.308,0.486-0.42,0.495-0.574
				c0.008-0.174-0.275-0.229-0.401-0.631c-0.203-0.655-0.443-0.88-1.189-0.918c-0.853-0.048-1.585,0.574-1.627,1.393
				C38.338,89.254,38.997,89.953,39.851,90z"/>
			<path fill="#53A564" d="M38.825,89.548c0.239-0.003,0.621,0.021,1.321-0.271c0.475-0.203,1.065-0.809,1.139-1.119
				c0.139,0.23,0.324,0.297,0.316,0.438c-0.009,0.152-0.334,0.271-0.495,0.574c-0.349,0.688-0.516,0.869-1.254,0.832
				C39.445,89.979,39.086,89.807,38.825,89.548z"/>
		</g>
		<g>
			<path fill="#64BE7B" d="M43.602,90.119c-0.821-0.194-1.046-0.022-1.58,0.682c-0.24,0.311-0.632,0.375-0.675,0.547
				c-0.042,0.191,0.265,0.313,0.325,0.79c0.093,0.782,0.322,1.085,1.151,1.28c0.955,0.227,1.902-0.327,2.117-1.238
				C45.16,91.268,44.561,90.344,43.602,90.119z"/>
			<path fill="#53A564" d="M44.673,90.835c-0.273-0.044-0.696-0.154-1.544,0.038c-0.582,0.131-1.369,0.689-1.518,1.025
				c-0.106-0.29-0.301-0.396-0.265-0.557c0.043-0.172,0.435-0.236,0.675-0.547c0.534-0.704,0.759-0.876,1.58-0.683
				C44.059,90.226,44.428,90.49,44.673,90.835z"/>
		</g>
		<g>
			<path fill="#64BE7B" d="M40.295,97.183c0.728-0.331,0.794-0.589,0.787-1.423c-0.001-0.369,0.253-0.645,0.185-0.796
				c-0.075-0.171-0.374-0.079-0.695-0.403c-0.522-0.525-0.868-0.619-1.6-0.289c-0.842,0.385-1.227,1.346-0.86,2.146
				C38.475,97.223,39.454,97.565,40.295,97.183z"/>
			<path fill="#53A564" d="M39.086,97.264c0.228-0.124,0.606-0.287,1.126-0.918c0.359-0.437,0.62-1.311,0.535-1.646
				c0.249,0.152,0.458,0.121,0.519,0.264c0.069,0.151-0.186,0.427-0.185,0.796c0.007,0.834-0.059,1.092-0.787,1.423
				C39.894,97.363,39.467,97.379,39.086,97.264z"/>
		</g>
		<g>
			<path fill="#64BE7B" d="M43.637,97.176c-0.771,0.217-0.873,0.455-1,1.261c-0.054,0.356-0.352,0.587-0.307,0.742
				c0.05,0.176,0.358,0.13,0.623,0.489c0.429,0.582,0.756,0.719,1.53,0.502c0.887-0.251,1.422-1.125,1.19-1.951
				C45.437,97.393,44.525,96.924,43.637,97.176z"/>
			<path fill="#53A564" d="M44.84,97.266c-0.245,0.088-0.643,0.191-1.254,0.729c-0.423,0.369-0.818,1.177-0.79,1.514
				c-0.216-0.188-0.427-0.188-0.467-0.327c-0.045-0.155,0.253-0.386,0.307-0.742c0.128-0.806,0.23-1.044,1-1.261
				C44.059,97.056,44.485,97.101,44.84,97.266z"/>
		</g>
		<g>
			<path fill="#64BE7B" d="M42.529,103.335c0.58-0.55,0.565-0.813,0.302-1.581c-0.112-0.345,0.041-0.688-0.067-0.803
				c-0.128-0.135-0.38,0.052-0.78-0.146c-0.65-0.318-1.004-0.29-1.589,0.26c-0.672,0.635-0.742,1.654-0.151,2.28
				C40.83,103.975,41.855,103.967,42.529,103.335z"/>
			<path fill="#53A564" d="M41.415,103.811c0.18-0.188,0.484-0.467,0.781-1.227c0.201-0.521,0.181-1.419,0-1.703
				c0.278,0.061,0.464-0.037,0.568,0.07c0.108,0.115-0.045,0.458,0.067,0.803c0.263,0.771,0.278,1.031-0.302,1.581
				C42.209,103.633,41.808,103.792,41.415,103.811z"/>
		</g>
		
			<path fill="none" stroke="#64BE7B" stroke-width="1.4847" stroke-linecap="round" stroke-linejoin="round" stroke-miterlimit="10" d="
			M43.024,68.029c0,0,4.063,7.102-0.141,16.717c-4.127,9.438,0.808,17.832,0.808,17.832"/>
	</g>
	<g>
		<g>
			<path fill="#64BE7B" d="M48.975,67.404c-0.894,0.618-0.896,1.009-0.607,2.229c0.126,0.538-0.135,0.986,0.01,1.199
				c0.165,0.232,0.544,0.047,1.096,0.463c0.896,0.676,1.396,0.748,2.293,0.127c1.025-0.717,1.239-2.195,0.473-3.307
				C51.465,67.006,50.006,66.688,48.975,67.404z"/>
			<path fill="#53A564" d="M50.609,67.061c-0.271,0.225-0.737,1.221-1.244,2.241c-0.348,0.702-0.415,1.341-0.188,1.816
				c-0.392-0.181-0.667-0.099-0.802-0.286c-0.145-0.213,0.116-0.661-0.01-1.199c-0.287-1.224-0.285-1.61,0.607-2.229
				C49.462,67.065,50.046,66.961,50.609,67.061z"/>
		</g>
		<g>
			<path fill="#64BE7B" d="M49.49,75.959c0.721-0.59,0.695-0.924,0.367-1.943c-0.145-0.455,0.049-0.855-0.088-1.023
				c-0.156-0.189-0.47-0.007-0.969-0.32c-0.807-0.521-1.242-0.544-1.968,0.047c-0.832,0.681-0.91,1.959-0.179,2.854
				C47.39,76.465,48.659,76.64,49.49,75.959z"/>
			<path fill="#53A564" d="M48.116,76.363c0.217-0.21,0.595-0.506,0.957-1.41c0.25-0.623,0.218-1.764-0.009-2.15
				c0.347,0.125,0.578,0.037,0.705,0.189c0.138,0.168-0.055,0.568,0.088,1.023c0.793,2.479-0.11,1.734-0.366,1.943
				C49.094,76.281,48.604,76.408,48.116,76.363z"/>
		</g>
		<g>
			<path fill="#64BE7B" d="M52.389,72.867c-0.646,0.362-0.688,0.605-0.613,1.377c0.033,0.342-0.18,0.612-0.104,0.75
				c0.083,0.146,0.35,0.042,0.674,0.313c0.524,0.442,0.85,0.501,1.495,0.137c0.746-0.423,1.026-1.339,0.625-2.051
				C54.064,72.684,53.132,72.448,52.389,72.867z"/>
			<path fill="#53A564" d="M53.499,72.695c-0.204,0.135-0.541,0.313-0.968,0.938c-0.295,0.432-0.467,1.256-0.361,1.56
				c-0.24-0.122-0.43-0.075-0.498-0.196c-0.076-0.138,0.137-0.408,0.104-0.75c-0.073-0.771-0.03-0.322,0.613-0.688
				C52.742,73.357,53.134,72.619,53.499,72.695z"/>
		</g>
		<g>
			<path fill="#64BE7B" d="M55.217,78.437c-0.646,0.364-0.686,0.606-0.611,1.376c0.031,0.338-0.186,0.613-0.104,0.748
				c0.085,0.15,0.354,0.043,0.674,0.316c0.527,0.44,0.852,0.502,1.496,0.137c0.745-0.422,1.023-1.338,0.623-2.051
				S55.961,78.016,55.217,78.437z"/>
			<path fill="#53A564" d="M56.326,78.262c-0.203,0.133-0.538,1.002-0.965,1.627c-0.297,0.43-0.469,0.568-0.364,0.872
				c-0.241-0.122-0.429-0.077-0.498-0.2c-0.079-0.135,0.138-0.41,0.104-0.748c-0.074-0.77-0.035-1.012,0.61-1.376
				C55.57,78.236,55.964,78.186,56.326,78.262z"/>
		</g>
		<g>
			<path fill="#64BE7B" d="M58.229,83.828c-1.234,0.469-1.369,0.886-1.451,2.264c-0.031,0.605-0.483,1.035-0.389,1.293
				c0.11,0.291,0.611,0.172,1.108,0.74c0.804,0.926,1.36,1.114,2.603,0.646c1.428-0.543,2.17-2.088,1.654-3.451
				C61.238,83.953,59.66,83.285,58.229,83.828z"/>
			<path fill="#53A564" d="M60.232,83.82c-0.391,0.182-1.031,0.408-1.957,1.396c-0.639,0.679-1.162,2.092-1.062,2.656
				c-0.392-0.282-0.733-0.254-0.825-0.489c-0.099-0.258,0.354-0.688,0.391-1.293c0.08-1.378,0.213-1.795,1.451-2.264
				C58.908,83.57,59.617,83.589,60.232,83.82z"/>
		</g>
		<g>
			<path fill="#64BE7B" d="M53.514,86.671c1.008-0.288,1.145-0.606,1.293-1.688c0.068-0.477,0.455-0.781,0.396-0.992
				c-0.065-0.232-0.472-0.176-0.82-0.653c-0.571-0.784-1.002-0.972-2.013-0.687c-1.164,0.331-1.85,1.5-1.532,2.609
				C51.152,86.37,52.35,87.003,53.514,86.671z"/>
			<path fill="#53A564" d="M51.936,86.543c0.316-0.115,0.838-0.254,1.633-0.975c0.549-0.49,1.06-1.567,1.017-2.021
				c0.29,0.248,0.563,0.248,0.617,0.438c0.063,0.213-0.325,0.521-0.396,0.994c-0.152,1.082-0.285,1.4-1.293,1.688
				C52.962,86.827,52.404,86.766,51.936,86.543z"/>
		</g>
		<g>
			<path fill="#64BE7B" d="M59.268,91.328c-0.646,0.361-0.686,0.604-0.615,1.375c0.033,0.342-0.18,0.613-0.104,0.749
				c0.084,0.149,0.352,0.043,0.676,0.313c0.522,0.446,0.85,0.503,1.496,0.141c0.742-0.423,1.024-1.341,0.623-2.053
				C60.941,91.143,60.01,90.906,59.268,91.328z"/>
			<path fill="#53A564" d="M60.376,91.154c-0.203,0.135-0.539,0.313-0.967,0.938c-0.296,0.431-0.468,1.255-0.362,1.562
				c-0.24-0.121-0.432-0.076-0.499-0.2c-0.075-0.136,0.136-0.407,0.104-0.749c-0.07-0.771-0.033-1.014,0.613-1.375
				C59.619,91.129,60.012,91.077,60.376,91.154z"/>
		</g>
		<g>
			<path fill="#64BE7B" d="M57.711,98.432c1.006-0.287,1.143-0.605,1.294-1.688c0.067-0.479,0.456-0.783,0.396-0.993
				c-0.068-0.234-0.473-0.177-0.822-0.657c-0.575-0.783-1.002-0.969-2.012-0.684c-1.164,0.332-1.851,1.501-1.533,2.608
				C55.352,98.133,56.548,98.764,57.711,98.432z"/>
			<path fill="#53A564" d="M56.132,98.303c0.317-0.115,0.839-0.254,1.636-0.97c0.547-0.493,1.057-1.57,1.012-2.022
				c0.289,0.247,0.563,0.249,0.619,0.438c0.063,0.21-0.324,0.517-0.395,0.993c-0.15,1.079-0.288,1.398-1.294,1.688
				C57.159,98.588,56.602,98.527,56.132,98.303z"/>
		</g>
		<g>
			<path fill="#64BE7B" d="M51.743,80.26c0.714-0.189,0.812-0.414,0.937-1.178c0.053-0.339,0.332-0.55,0.289-0.697
				c-0.042-0.167-0.326-0.131-0.57-0.479c-0.396-0.563-0.696-0.697-1.414-0.512c-0.832,0.223-1.332,1.038-1.121,1.827
				C50.074,80.018,50.913,80.479,51.743,80.26z"/>
			<path fill="#53A564" d="M50.624,80.149c0.228-0.078,0.599-0.17,1.171-0.666c0.396-0.341,0.768-1.097,0.746-1.418
				c0.199,0.182,0.396,0.188,0.43,0.32c0.043,0.147-0.236,0.358-0.291,0.697c-0.123,0.764-0.222,0.984-0.936,1.178
				C51.35,80.363,50.956,80.313,50.624,80.149z"/>
		</g>
		<g>
			<path fill="#64BE7B" d="M61.896,95.928c-0.895,0.618-0.896,1.006-0.605,2.229c0.124,0.539-0.139,0.99,0.009,1.199
				c0.162,0.234,0.542,0.047,1.093,0.463c0.896,0.678,1.4,0.746,2.291,0.127c1.032-0.717,1.243-2.19,0.471-3.305
				C64.384,95.531,62.924,95.212,61.896,95.928z"/>
			<path fill="#53A564" d="M63.529,95.584c-0.271,0.223-0.738,0.53-1.242,1.553c-0.348,0.703-0.418,2.029-0.188,2.507
				c-0.395-0.179-0.673-0.097-0.803-0.288c-0.146-0.209,0.114-0.66-0.009-1.199c-0.289-1.223-0.286-1.606,0.604-2.229
				C62.385,95.588,62.967,95.483,63.529,95.584z"/>
		</g>
		<g>
			<path fill="#64BE7B" d="M61.994,104.422c0.721-0.587,0.697-0.92,0.371-1.944c-0.146-0.452,0.045-0.854-0.092-1.023
				c-0.156-0.188-0.469-0.003-0.965-0.319c-0.813-0.518-1.246-0.543-1.969,0.047c-0.832,0.681-0.913,1.958-0.18,2.854
				C59.896,104.93,61.161,105.104,61.994,104.422z"/>
			<path fill="#53A564" d="M60.622,104.826c0.218-0.21,0.594-0.505,0.958-1.408c0.25-0.623,0.218-1.768-0.01-2.156
				c0.348,0.129,0.576,0.039,0.703,0.19c0.138,0.172-0.053,0.571,0.093,1.023c0.327,1.024,0.35,1.357-0.371,1.944
				C61.6,104.745,61.105,104.874,60.622,104.826z"/>
		</g>
		<g>
			<path fill="#64BE7B" d="M71.318,109.061c-0.41,0.617-0.336,0.852,0.072,1.504c0.186,0.287,0.115,0.631,0.243,0.715
				c0.146,0.102,0.334-0.119,0.745-0.02c0.67,0.156,0.984,0.061,1.396-0.559c0.476-0.715,0.311-1.654-0.365-2.107
				C72.729,108.137,71.796,108.348,71.318,109.061z"/>
			<path fill="#53A564" d="M72.232,108.404c-0.123,0.209-0.34,0.523-0.438,1.275c-0.071,0.514,0.147,1.332,0.379,1.553
				c-0.271,0-0.419,0.127-0.536,0.047c-0.128-0.084-0.06-0.428-0.244-0.715c-0.41-0.652-0.481-0.887-0.074-1.504
				C71.543,108.723,71.873,108.5,72.232,108.404z"/>
		</g>
		<g>
			<path fill="#64BE7B" d="M73.652,116.024c0.826-0.639,0.834-0.984,0.574-2.047c-0.113-0.469,0.133-0.895-0.002-1.066
				c-0.15-0.191-0.5,0.014-1.008-0.307c-0.822-0.516-1.292-0.527-2.119,0.111c-0.957,0.738-1.162,2.078-0.455,2.988
				C71.348,116.624,72.695,116.764,73.652,116.024z"/>
			<path fill="#53A564" d="M72.134,116.49c0.257-0.227,0.688-0.549,1.161-1.51c0.327-0.656,0.398-1.85,0.191-2.252
				c0.359,0.119,0.619,0.021,0.738,0.18c0.135,0.176-0.111,0.602,0.002,1.066c0.26,1.063,0.252,1.408-0.574,2.047
				C73.197,116.375,72.654,116.524,72.134,116.49z"/>
		</g>
		<g>
			<path fill="#64BE7B" d="M75.166,110.793c-0.367,1.021-0.143,1.342,0.801,2.17c0.414,0.363,0.465,0.883,0.707,0.971
				c0.27,0.098,0.469-0.277,1.156-0.262c1.122,0.033,1.574-0.201,1.941-1.229c0.424-1.182-0.267-2.508-1.539-2.963
				C76.964,109.026,75.591,109.613,75.166,110.793z"/>
			<path fill="#53A564" d="M76.298,109.567c-0.092,0.34-0.292,0.861-0.11,1.986c0.125,0.771,0.84,1.893,1.303,2.148
				c-0.422,0.08-0.602,0.311-0.814,0.229c-0.24-0.088-0.293-0.604-0.707-0.971c-0.941-0.828-1.168-1.146-0.801-2.17
				C75.365,110.235,75.785,109.811,76.298,109.567z"/>
		</g>
		<g>
			<path fill="#64BE7B" d="M81.598,117.334c0.373-0.854,0.202-1.138-0.549-1.9c-0.334-0.338-0.344-0.785-0.544-0.873
				c-0.226-0.1-0.42,0.207-1.009,0.148c-0.956-0.098-1.357,0.076-1.735,0.928c-0.434,0.986,0.075,2.162,1.13,2.629
				C79.949,118.736,81.159,118.318,81.598,117.334z"/>
			<path fill="#53A564" d="M80.551,118.317c0.1-0.283,0.305-0.719,0.219-1.688c-0.061-0.671-0.601-1.674-0.979-1.921
				c0.367-0.04,0.533-0.228,0.716-0.146c0.2,0.088,0.21,0.535,0.544,0.873c0.75,0.768,0.922,1.051,0.551,1.9
				C81.387,117.803,81.008,118.139,80.551,118.317z"/>
		</g>
		<g>
			<path fill="#64BE7B" d="M65.072,101.749c-0.646,0.36-0.688,0.604-0.611,1.377c0.032,0.338-0.184,0.609-0.107,0.748
				c0.088,0.146,0.355,0.043,0.68,0.313c0.521,0.443,0.847,0.501,1.494,0.138c0.744-0.423,1.023-1.34,0.625-2.052
				C66.748,101.563,65.818,101.327,65.072,101.749z"/>
			<path fill="#53A564" d="M66.178,101.574c-0.197,0.135-0.533,0.313-0.965,0.938c-0.293,0.431-0.465,1.257-0.361,1.563
				c-0.24-0.123-0.428-0.077-0.5-0.199c-0.076-0.139,0.142-0.41,0.107-0.748c-0.074-0.771-0.034-1.017,0.611-1.377
				C65.425,101.549,65.82,101.499,66.178,101.574z"/>
		</g>
		<g>
			<path fill="#64BE7B" d="M68.525,106.303c-0.646,0.365-0.688,0.607-0.612,1.377c0.032,0.34-0.183,0.613-0.106,0.75
				c0.088,0.148,0.354,0.043,0.676,0.314c0.525,0.441,0.852,0.5,1.496,0.139c0.744-0.422,1.024-1.34,0.625-2.051
				C70.201,106.118,69.271,105.883,68.525,106.303z"/>
			<path fill="#53A564" d="M69.633,106.131c-0.201,0.131-0.535,0.313-0.967,0.938c-0.294,0.434-0.463,1.258-0.357,1.563
				c-0.242-0.121-0.433-0.078-0.504-0.199c-0.076-0.137,0.139-0.41,0.107-0.75c-0.073-0.77-0.034-1.012,0.611-1.377
				C68.88,106.104,69.273,106.055,69.633,106.131z"/>
		</g>
		<g>
			<path fill="#64BE7B" d="M65.914,109.256c0.625-0.396,0.654-0.639,0.547-1.402c-0.049-0.338,0.154-0.623,0.074-0.754
				c-0.094-0.146-0.355-0.023-0.691-0.283c-0.544-0.422-0.871-0.463-1.5-0.064c-0.727,0.451-0.963,1.383-0.531,2.074
				C64.248,109.518,65.189,109.709,65.914,109.256z"/>
			<path fill="#53A564" d="M64.816,109.481c0.188-0.145,0.517-0.34,0.918-0.982c0.271-0.438,0.408-1.271,0.289-1.57
				c0.248,0.107,0.434,0.057,0.511,0.176c0.081,0.131-0.123,0.416-0.074,0.754c0.108,0.768,0.079,1.01-0.547,1.402
				C65.568,109.473,65.178,109.538,64.816,109.481z"/>
		</g>
		
			<path fill="none" stroke="#64BE7B" stroke-width="1.9956" stroke-linecap="round" stroke-linejoin="round" stroke-miterlimit="10" d="
			M42.819,67.551c0,0,8.416,1.51,13.058,18.182c3.45,12.375,12.506,31.203,29.02,28.822"/>
	</g>
</g>
</svg>
