<?xml version="1.0" encoding="utf-8"?>
<!-- Generator: Adobe Illustrator 16.0.0, SVG Export Plug-In . SVG Version: 6.00 Build 0)  -->
<!DOCTYPE svg PUBLIC "-//W3C//DTD SVG 1.1//EN" "http://www.w3.org/Graphics/SVG/1.1/DTD/svg11.dtd">
<svg version="1.1" id="Layer_1" xmlns="http://www.w3.org/2000/svg" xmlns:xlink="http://www.w3.org/1999/xlink" x="0px" y="0px"
	 width="1373.51px" height="1373.39px" viewBox="0 0 1373.51 1373.39" enable-background="new 0 0 1373.51 1373.39"
	 xml:space="preserve">
<path fill="#FFFFFF" d="M1377.92,688.96c0,7.04-0.1,14.061-0.31,21.061c-2.55,85.52-20.64,168.569-53.89,247.159
	c-34.711,82.061-84.36,155.73-147.591,218.95c-63.22,63.23-136.89,112.88-218.949,147.59c-75.83,32.08-155.811,50.051-238.15,53.561
	c-9.99,0.43-20.01,0.64-30.07,0.64c-22.08,0-43.99-1.03-65.72-3.08c-4.63-0.439-9.26-0.92-13.87-1.45
	c-64.91-7.449-128.09-24.06-188.63-49.67c-82.06-34.71-155.72-84.359-218.95-147.59c-63.22-63.22-112.88-136.89-147.59-218.95
	C18.24,872.15,0,781.9,0,688.96c0-92.94,18.24-183.18,54.2-268.22c34.71-82.06,84.37-155.72,147.59-218.95
	C265.02,138.57,338.68,88.91,420.74,54.2C505.78,18.24,596.02,0,688.96,0c92.95,0,183.19,18.24,268.22,54.2
	c82.06,34.71,155.729,84.37,218.949,147.59c63.23,63.23,112.88,136.89,147.591,218.95c25.75,60.87,42.399,124.4,49.789,189.68
	c2.08,18.38,3.431,36.9,4.03,55.54C1377.79,673.61,1377.92,681.271,1377.92,688.96z"/>
<path fill="#EAEAEA" d="M1377.92,688.96c0,7.04-0.1,14.061-0.31,21.061c-2.55,85.52-20.64,168.569-53.89,247.159
	c-34.711,82.061-84.36,155.73-147.591,218.95c-63.22,63.23-136.89,112.88-218.949,147.59c-75.83,32.08-155.811,50.051-238.15,53.561
	c-9.99,0.43-20.01,0.64-30.07,0.64c-22.08,0-43.99-1.03-65.72-3.08L279.85,1021.5l804-649.23l293.689,293.69
	C1377.79,673.61,1377.92,681.271,1377.92,688.96z"/>
<g>
	<path fill="#F6C358" d="M307.837,346.805H516.44c13.662,0,26.281,7.298,33.098,19.136l34.333,46.902
		c6.817,11.839,19.438,19.136,33.098,19.136h508.111v535.483c0,28.123-22.801,50.924-50.924,50.924H303.768
		c-28.122,0-50.923-22.797-50.923-50.924V491.38c0-39.362,6.082-78.49,18.029-115.995l0,0
		C275.251,358.554,290.446,346.805,307.837,346.805z"/>
	<rect x="332.218" y="423.219" fill="#EBF0F3" width="670.459" height="283.219"/>
	<path fill="#FCD462" d="M1086.889,372.267H876.675c-14.948,0-28.524,8.722-34.737,22.319l-35.972,78.727
		c-6.214,13.597-19.788,22.319-34.737,22.319H252.845v484.561c0,28.123,22.799,50.924,50.923,50.924h770.391
		c28.124,0,50.924-22.799,50.924-50.924V410.458C1125.081,389.366,1107.98,372.267,1086.889,372.267z"/>
</g>
</svg>
