<?xml version="1.0" encoding="utf-8"?>
<!-- Generator: Adobe Illustrator 16.0.0, SVG Export Plug-In . SVG Version: 6.00 Build 0)  -->
<!DOCTYPE svg PUBLIC "-//W3C//DTD SVG 1.1//EN" "http://www.w3.org/Graphics/SVG/1.1/DTD/svg11.dtd">
<svg version="1.1" id="Capa_1" xmlns="http://www.w3.org/2000/svg" xmlns:xlink="http://www.w3.org/1999/xlink" x="0px" y="0px"
	 width="1079.998px" height="847.312px" viewBox="-1.814 -0.001 1079.998 847.312"
	 enable-background="new -1.814 -0.001 1079.998 847.312" xml:space="preserve">
<path fill="#F6C358" d="M66.277-0.001h258.291c16.916,0,32.541,9.036,40.981,23.694l42.512,58.074
	c8.44,14.659,24.067,23.694,40.981,23.694h629.141v663.035c0,34.822-28.231,63.053-63.054,63.053H61.238
	c-34.821,0-63.053-28.229-63.053-63.053V179.012c0-48.738,7.53-97.185,22.324-143.624l0,0C25.93,14.547,44.744-0.001,66.277-0.001z"
	/>
<rect x="96.466" y="94.615" fill="#EBF0F3" width="830.16" height="350.683"/>
<path fill="#FCD462" d="M1030.896,31.526H770.61c-18.51,0-35.32,10.8-43.012,27.636l-44.54,97.479
	c-7.694,16.835-24.502,27.635-43.012,27.635H-1.814v599.981c0,34.822,28.229,63.054,63.053,63.054h953.896
	c34.822,0,63.053-28.23,63.053-63.054V78.815C1078.186,52.699,1057.012,31.526,1030.896,31.526z"/>
</svg>
