<?xml version="1.0" encoding="utf-8"?>
<!-- Generator: Adobe Illustrator 16.0.0, SVG Export Plug-In . SVG Version: 6.00 Build 0)  -->
<!DOCTYPE svg PUBLIC "-//W3C//DTD SVG 1.1//EN" "http://www.w3.org/Graphics/SVG/1.1/DTD/svg11.dtd">
<svg version="1.1" id="Layer_1" xmlns="http://www.w3.org/2000/svg" xmlns:xlink="http://www.w3.org/1999/xlink" x="0px" y="0px"
	 width="112.81px" height="113.823px" viewBox="0 0 112.81 113.823" enable-background="new 0 0 112.81 113.823"
	 xml:space="preserve">
<ellipse fill="#161B22" cx="55.342" cy="60.578" rx="47" ry="53.244"/>
<path fill="#FFFFFF" d="M56.398,0C25.256,0,0,25.354,0,56.63c0,25.015,16.161,46.237,38.581,53.733
	c2.82,0.521,3.849-1.227,3.849-2.73c0-1.346-0.049-4.906-0.078-9.63c-15.687,3.421-19.001-7.592-19.001-7.592
	c-2.56-6.545-6.261-8.285-6.261-8.285c-5.126-3.512,0.381-3.441,0.381-3.441c5.662,0.402,8.637,5.839,8.637,5.839
	c5.034,8.65,13.206,6.155,16.421,4.702c0.508-3.658,1.966-6.155,3.582-7.572c-12.522-1.43-25.691-6.289-25.691-27.984
	c0-6.183,2.199-11.239,5.808-15.201c-0.584-1.43-2.516-7.191,0.55-14.982c0,0,4.738-1.523,15.511,5.802
	c4.498-1.255,9.322-1.882,14.123-1.903c4.787,0.027,9.617,0.648,14.123,1.91c10.766-7.326,15.496-5.803,15.496-5.803
	c3.074,7.798,1.143,13.552,0.565,14.982c3.616,3.963,5.796,9.018,5.796,15.202c0,21.752-13.186,26.539-25.75,27.942
	c2.023,1.748,3.828,5.202,3.828,10.483c0,7.572-0.07,13.679-0.07,15.531c0,1.516,1.016,3.279,3.878,2.723
	c22.386-7.502,38.533-28.716,38.533-53.725C112.811,25.354,87.554,0,56.398,0z"/>
</svg>
