<?xml version="1.0" encoding="utf-8"?>
<!-- Generator: Adobe Illustrator 16.0.0, SVG Export Plug-In . SVG Version: 6.00 Build 0)  -->
<!DOCTYPE svg PUBLIC "-//W3C//DTD SVG 1.1//EN" "http://www.w3.org/Graphics/SVG/1.1/DTD/svg11.dtd">
<svg version="1.1" id="Capa_1" xmlns="http://www.w3.org/2000/svg" xmlns:xlink="http://www.w3.org/1999/xlink" x="0px" y="0px"
	 width="1079.855px" height="1080px" viewBox="0 0 1079.855 1080" enable-background="new 0 0 1079.855 1080" xml:space="preserve">
<circle fill="#704923" cx="539.927" cy="540" r="540"/>
<path fill="#593619" d="M1078.287,497.705L859.773,279.192h-99.605v92.167l51.045,51.045h-51.045v83.515L533.441,279.192H422.49
	L220.082,798.86l279.65,279.652c13.271,0.975,26.674,1.485,40.193,1.485c298.234,0,540-241.768,540-540
	C1079.927,525.764,1079.369,511.663,1078.287,497.705z"/>
<g>
	<path fill="#DF871E" d="M741.521,798.86H627.378l-45.373-118.043H374.281L331.388,798.86H220.082l202.406-519.668h110.951
		L741.521,798.86z M548.33,593.26l-71.605-192.837L406.537,593.26H548.33z"/>
	<path fill="#DF871E" d="M760.167,371.357v-92.167h99.605v92.167H760.167z M760.167,798.86V422.402h99.605v376.456h-99.605V798.86z"
		/>
</g>
</svg>
