<?xml version="1.0" encoding="utf-8"?>
<!-- Generator: Adobe Illustrator 16.0.0, SVG Export Plug-In . SVG Version: 6.00 Build 0)  -->
<!DOCTYPE svg PUBLIC "-//W3C//DTD SVG 1.1//EN" "http://www.w3.org/Graphics/SVG/1.1/DTD/svg11.dtd">
<svg version="1.1" id="Capa_1" xmlns="http://www.w3.org/2000/svg" xmlns:xlink="http://www.w3.org/1999/xlink" x="0px" y="0px"
	 width="1079.854px" height="1080px" viewBox="420 0 1079.854 1080" enable-background="new 420 0 1079.854 1080"
	 xml:space="preserve">
<circle fill="#704923" cx="960" cy="540" r="540"/>
<path fill="#593619" d="M1498.358,497.705l-218.513-218.513h-99.605v92.166l51.044,51.045h-51.044v83.515L953.514,279.192H842.562
	L640.153,798.86l279.651,279.653c13.272,0.974,26.673,1.485,40.194,1.485c298.234,0,540-241.767,540-540
	C1500,525.764,1499.441,511.663,1498.358,497.705z"/>
<g>
	<path fill="#DF871E" d="M1161.593,798.86H1047.45l-45.372-118.043H794.353L751.461,798.86H640.153L842.56,279.192h110.951
		L1161.593,798.86z M968.401,593.26l-71.604-192.837L826.609,593.26H968.401z"/>
	<path fill="#DF871E" d="M1180.24,371.357v-92.166h99.605v92.166H1180.24z M1180.24,798.86V422.402h99.605v376.456h-99.605V798.86z"
		/>
</g>
</svg>
