<?xml version="1.0" encoding="utf-8"?>
<!-- Generator: Adobe Illustrator 16.0.0, SVG Export Plug-In . SVG Version: 6.00 Build 0)  -->
<!DOCTYPE svg PUBLIC "-//W3C//DTD SVG 1.1//EN" "http://www.w3.org/Graphics/SVG/1.1/DTD/svg11.dtd">
<svg version="1.1" id="Layer_1" xmlns="http://www.w3.org/2000/svg" xmlns:xlink="http://www.w3.org/1999/xlink" x="0px" y="0px"
	 width="4408.507px" height="737.777px" viewBox="0 0 4408.507 737.777" enable-background="new 0 0 4408.507 737.777"
	 xml:space="preserve">
<polygon fill="#FFFFFF" points="0.415,636.392 21.191,731.949 4387.233,743.388 4408.507,646.496 "/>
<path fill="#D8D7D6" d="M4401.438,623.082c14.088,15.834,7.949,43.229-27.627,42.998L42.014,663.929
	c-32.384-0.233-49.941-18.944-38.521-33.89L450.802,10.729C457.65,1.763,488.823,0,513.72,0h3288.992
	c26.768,0,44.158,1.938,52.439,11.225L4401.438,623.082z"/>
<path fill="#FFFFFF" d="M3093.403,611.416c4.18,10.442-6.094,31.256-29.146,31.109l-241.32-1.65
	c-22.939-0.181-47.379-21.149-50.314-31.541l-22.377-74.992c-2.805-9.783,6.973-33.176,28.736-33.033l229.059,1.228
	c21.859,0.125,50.129,23.765,54.057,33.601L3093.403,611.416z"/>
<path fill="#FFFFFF" d="M1226.605,599.25c-3.06,10.209-27.163,30.506-49.317,30.326l-231.762-1.582
	c-22.031-0.143-31.414-20.58-27.18-30.771l27.793-73.217c3.984-9.553,27.821-32.43,48.784-32.285l220.439,1.173
	c21.062,0.104,33.7,23.233,30.818,32.837L1226.605,599.25z"/>
<path fill="#FFFFFF" d="M707.646,457.156c-4.768,9.108,8.484,11.065-32.135,10.871l-494.804-2.563
	c-40.176-0.196-31.984-2.026-25.225-11.08l47.405-62.524c6.351-8.558,5.514-11.744,44.311-11.58l477.826,2.011
	c39.205,0.158,20.848,3.289,16.355,11.899L707.646,457.156z"/>
<path fill="#FFFFFF" d="M4217.765,474.75c8.254,9.516,29.813,11.633-13.99,11.401l-533.334-2.755
	c-43.285-0.197-41.605-2.156-47.574-11.598l-41.258-65.319c-5.648-8.896-10.008-12.204,31.662-12.042l513.65,2.15
	c42.168,0.196,25.951,3.432,33.734,12.432L4217.765,474.75z"/>
<path fill="#FFFFFF" d="M867.17,596.902c-4.429,10.157-31.129,30.346-53.089,30.188l-152.773-1.031
	c-21.889-0.143-29.048-20.548-23.729-30.65l35.211-72.965c4.999-9.537,30.926-32.304,51.746-32.18l145.338,0.783
	c20.91,0.107,30.623,23.122,26.46,32.676L867.17,596.902z"/>
<path fill="#FFFFFF" d="M561.294,594.893c-5.604,10.139-34.464,30.24-56.282,30.096l-151.742-1.065
	c-21.746-0.142-26.505-20.421-20.039-30.506l43.208-72.683c6.066-9.465,34.242-32.16,54.93-32.055l144.423,0.783
	c20.775,0.104,27.997,23.032,22.743,32.552L561.294,594.893z"/>
<path fill="#FFFFFF" d="M282.687,593.078c-6.607,10.104-37.479,30.135-59.182,29.955l-150.817-1.031
	c-21.604-0.143-24.191-20.35-16.721-30.419l50.501-72.38c7.024-9.461,37.229-32.055,57.81-31.965l143.586,0.783
	c20.645,0.09,25.625,22.965,19.382,32.428L282.687,593.078z"/>
<path fill="#FFFFFF" d="M1061.434,150.224c-3.077,7.024-20.313,11.243-38.511,11.205l-126.59-0.229
	c-18.135-0.054-29.965-4.287-26.317-11.295l24.325-50.574c3.486-6.651,19.281-13.731,36.83-13.715l122.472,0.106
	c17.584,0.039,30.81,7.151,27.883,13.821L1061.434,150.224z"/>
<path fill="#FFFFFF" d="M806.396,149.781c-3.86,7.006-21.551,11.225-39.667,11.203l-125.896-0.248
	c-18.038-0.035-29.253-4.287-24.807-11.26l29.894-50.429c4.26-6.635,20.615-13.683,38.065-13.664L805.8,85.508
	c17.495,0,29.992,7.081,26.309,13.754L806.396,149.781z"/>
<path fill="#FFFFFF" d="M1554.211,151.058c-1.494,7.063-17.833,11.298-36.235,11.263l-127.95-0.25
	c-18.339-0.017-31.388-4.305-29.261-11.349l13.475-50.856c2.002-6.687,16.721-13.806,34.447-13.767l123.725,0.106
	c17.789,0.033,32.375,7.183,30.97,13.892L1554.211,151.058z"/>
<path fill="#FFFFFF" d="M1296.461,150.615c-2.322,7.063-19.132,11.276-37.437,11.242l-127.238-0.248
	c-18.233-0.019-30.641-4.287-27.732-11.314l19.167-50.715c2.801-6.67,18.073-13.75,35.719-13.732l123.058,0.123
	c17.69,0.021,31.557,7.138,29.342,13.822L1296.461,150.615z"/>
<path fill="#FFFFFF" d="M573.844,149.403c-4.581,6.974-22.716,11.174-40.717,11.135l-125.247-0.229
	c-17.957-0.019-28.612-4.25-23.445-11.222l34.972-50.31c4.909-6.597,21.781-13.66,39.16-13.625l121.208,0.106
	c17.405,0.017,29.244,7.097,24.885,13.749L573.844,149.403z"/>
<path fill="#FFFFFF" d="M4041.61,617.608c7.986,10.565,4.898,31.644-18.605,31.483l-163.572-1.138
	c-23.424-0.146-56.459-21.384-63.477-31.948l-50.93-75.957c-6.596-9.908-4.838-33.582,17.363-33.459l155.086,0.818
	c22.299,0.141,58.699,24.049,66.207,33.976L4041.61,617.608z"/>
<path fill="#FFFFFF" d="M4343.526,619.563c9.244,10.64,8.506,31.771-15.15,31.627l-164.643-1.14
	c-23.551-0.158-59.18-21.487-67.373-32.088l-59.455-76.276c-7.711-9.905-8.336-33.674,14.016-33.528l156.029,0.816
	c22.449,0.105,61.477,24.141,70.113,34.116L4343.526,619.563z"/>
<path fill="#FFFFFF" d="M3714.38,615.473c6.66,10.529,1.082,31.503-22.271,31.341l-162.451-1.101
	c-23.24-0.162-53.531-21.313-59.242-31.84l-41.813-75.639c-5.361-9.907-1.041-33.422,21.018-33.334l154.082,0.834
	c22.164,0.107,55.766,23.963,62.018,33.852L3714.38,615.473z"/>
<path fill="#FFFFFF" d="M3416.356,613.515c5.488,10.53-2.357,31.397-25.563,31.237l-161.398-1.104
	c-23.152-0.158-50.955-21.237-55.447-31.699l-33.547-75.386c-4.244-9.817,2.4-33.299,24.332-33.191l153.164,0.839
	c22.008,0.104,53.002,23.836,58.168,33.705L3416.356,613.515z"/>
<path fill="#FFFFFF" d="M3766.515,253.678c5.977,7.9-5.734,13.945-25.871,13.895l-140.059-0.41
	c-20.047-0.068-40.404-6.172-45.67-14.054l-36.057-54.181c-4.963-7.474,6.865-13.129,26.238-13.095l135.107,0.271
	c19.416,0.033,39.545,5.797,45.184,13.248L3766.515,253.678z"/>
<path fill="#FFFFFF" d="M4026.417,254.391c6.859,7.934-4.277,13.964-24.475,13.908l-140.84-0.407
	c-20.18-0.071-41.295-6.172-47.432-14.087l-42.236-54.325c-5.818-7.489,5.514-13.185,24.936-13.146l135.852,0.283
	c19.531,0.017,40.377,5.801,46.898,13.308L4026.417,254.391z"/>
<path fill="#FFFFFF" d="M3484.591,252.896c5.006,7.899-7.301,13.894-27.33,13.839l-139.246-0.407
	c-19.941-0.056-39.49-6.14-43.76-13.963l-29.457-54.024c-4.012-7.414,8.387-13.092,27.625-13.058l134.354,0.287
	c19.293,0.033,38.707,5.744,43.43,13.215L3484.591,252.896z"/>
<path fill="#FFFFFF" d="M3227.642,252.219c4.117,7.848-8.799,13.822-28.666,13.788l-138.49-0.41
	c-19.826-0.054-38.68-6.118-42.051-13.946l-23.42-53.859c-3.211-7.4,9.676-13.061,28.836-13.004l133.643,0.266
	c19.23,0.056,37.908,5.767,41.803,13.185L3227.642,252.219z"/>
<path fill="#FFFFFF" d="M3621.069,61.692c5.025,6.67-9.559,7.524-28.016,7.524l-128.207-0.127
	c-18.35-0.018-33.344-0.869-37.73-7.521l-27.418-37.732c-4.236-6.33,10.334-2.668,28.166-2.668h124.412
	c17.877,0,32.486-3.662,37.309,2.703L3621.069,61.692z"/>
<path fill="#FFFFFF" d="M3859.19,61.869c5.783,6.674-8.527,7.524-27.045,7.508l-128.84-0.09c-18.465-0.018-33.869-0.906-39.037-7.56
	l-32.393-37.854c-4.9-6.314,9.455-2.703,27.412-2.703h125.006c17.984,0,32.891-3.611,38.414,2.74L3859.19,61.869z"/>
<path fill="#FFFFFF" d="M3362.636,61.531c4.207,6.635-10.674,7.453-29.012,7.453l-127.49-0.086
	c-18.275-0.019-32.771-0.892-36.395-7.508L3147.7,19.643c-3.441-6.314,11.287-6.76,29.021-6.76l123.787,0.033
	c17.762,0,32.037,0.445,36.039,6.776L3362.636,61.531z"/>
<path fill="#FFFFFF" d="M3126.978,61.354c3.496,6.635-11.688,7.47-29.92,7.437l-126.875-0.09c-18.168,0-32.275-0.873-35.104-7.49
	l-17.229-37.496c-2.73-6.28,12.184-2.545,29.83-2.545h123.166c17.689,0,31.689-3.697,34.963,2.617L3126.978,61.354z"/>
<path fill="#FFFFFF" d="M3309.884,154.011c4.217,7.204-8.885,11.513-27.973,11.494l-132.877-0.233
	c-19.025-0.054-36.412-4.429-39.969-11.599l-26.115-51.832c-3.359-6.851,7.375-14.106,25.75-14.091l128.289,0.146
	c18.438,0.033,38.127,7.289,42.131,14.139L3309.884,154.011z"/>
<path fill="#FFFFFF" d="M3556.517,154.403c5,7.224-7.631,11.581-26.814,11.524l-133.563-0.229
	c-19.129-0.035-37.168-4.394-41.508-11.615l-31.807-51.994c-4.129-6.849,6.004-14.125,24.494-14.106l128.975,0.145
	c18.498,0.018,38.93,7.346,43.697,14.177L3556.517,154.403z"/>
<path fill="#FFFFFF" d="M3042.343,153.547c3.309,7.188-10.311,11.49-29.271,11.457l-132.104-0.23
	c-18.953-0.034-35.641-4.395-38.307-11.546l-20.029-51.708c-2.52-6.813,8.795-14.001,27.09-14.001l127.613,0.125
	c18.34,0.021,37.248,7.293,40.395,14.106L3042.343,153.547z"/>
<path fill="#FFFFFF" d="M2798.401,153.121c2.502,7.17-11.561,11.474-30.432,11.457l-131.43-0.231
	c-18.846-0.052-34.943-4.41-36.813-11.524l-14.453-51.553c-1.787-6.811,10.121-14.016,28.309-13.98l127.01,0.125
	c18.225,0,36.412,7.242,38.777,14.069L2798.401,153.121z"/>
<path fill="#FFFFFF" d="M2292.401,152.287c0.846,7.151-14.133,11.401-32.836,11.365l-130.033-0.213
	c-18.623-0.068-33.459-4.359-33.681-11.457l-3.023-51.281c-0.231-6.76,12.816-13.893,30.817-13.893l125.682,0.105
	c18.055,0,34.76,7.224,35.559,13.981L2292.401,152.287z"/>
<path fill="#FFFFFF" d="M2533.733,152.697c1.637,7.148-12.924,11.436-31.709,11.383l-130.688-0.23
	c-18.723,0-34.172-4.357-35.195-11.49l-8.439-51.408c-0.961-6.758,11.535-13.945,29.617-13.928l126.289,0.123
	c18.168,0.019,35.547,7.239,37.156,14.02L2533.733,152.697z"/>
<path fill="#FFFFFF" d="M2030.507,151.858c0.025,7.099-15.44,11.351-34.029,11.313l-129.284-0.248
	c-18.518,0-32.722-4.324-32.116-11.387l2.854-51.121c0.587-6.76,14.213-13.895,32.135-13.855l124.961,0.09
	c17.958,0.033,33.931,7.222,33.94,13.979L2030.507,151.858z"/>
<path fill="#FFFFFF" d="M1791.754,151.453c-0.748,7.08-16.668,11.328-35.149,11.295l-128.6-0.231
	c-18.43-0.036-32.046-4.321-30.686-11.385l8.184-51.019c1.299-6.703,15.483-13.821,33.3-13.783l124.348,0.106
	c17.851,0.034,33.157,7.185,32.437,13.908L1791.754,151.453z"/>
<path fill="#FFFFFF" d="M1201.01,60.002c-2.508,6.474-19.798,7.291-37.284,7.291l-121.715-0.104
	c-17.478-0.021-28.275-0.855-25.188-7.333l21.648-36.409c2.935-6.189,19.14-2.279,36.102-2.279h118.3
	c17.032,0,28.532-3.895,26.141,2.313L1201.01,60.002z"/>
<path fill="#FFFFFF" d="M975.962,59.84c-3.176,6.478-20.724,7.293-38.121,7.276l-121.146-0.124c-17.369,0-27.775-0.839-24.03-7.277
	l26.086-36.322c3.583-6.19,19.958-2.225,36.83-2.225h117.739c16.935,0,28.177-3.932,25.117,2.279L975.962,59.84z"/>
<path fill="#FFFFFF" d="M1675.107,60.319c-1.067,6.528-17.833,7.367-35.495,7.351l-122.988-0.107
	c-17.655,0-29.235-0.855-27.607-7.366l12.248-36.713c1.574-6.19,17.45-2.313,34.589-2.313h119.492
	c17.183,0,29.297-3.842,28.265,2.349L1675.107,60.319z"/>
<path fill="#FFFFFF" d="M1447.766,60.162c-1.771,6.512-18.775,7.367-36.367,7.328l-122.364-0.107
	c-17.558-0.018-28.8-0.852-26.442-7.346l16.756-36.555c2.214-6.208,18.26-2.313,35.31-2.313h118.924
	c17.121,0,28.951-3.877,27.261,2.313L1447.766,60.162z"/>
<path fill="#FFFFFF" d="M2871.229,61.174c2.703,6.603-12.791,7.437-30.934,7.437l-126.174-0.106
	c-18.063-0.033-31.705-0.89-33.789-7.47l-11.926-37.319c-1.975-6.299,13.104-2.545,30.676-2.545h122.516
	c17.594,0,31.246-3.735,33.771,2.578L2871.229,61.174z"/>
<path fill="#FFFFFF" d="M2384.935,60.836c1.141,6.545-14.887,7.401-32.811,7.385l-124.881-0.106
	c-17.867-0.019-30.694-0.854-31.235-7.401l-2.057-37.088c-0.531-6.28,14.854-2.455,32.25-2.455h121.279
	c17.469,0,30.48-3.771,31.549,2.51L2384.935,60.836z"/>
<path fill="#FFFFFF" d="M2638.026,61.017c1.922,6.58-13.803,7.418-31.822,7.396l-125.551-0.084
	c-17.975-0.021-31.244-0.873-32.578-7.457l-7.195-41.41c-1.254-6.26,13.973-6.703,31.477-6.703l121.895,0.033
	c17.512,0,30.889,0.463,32.705,6.709L2638.026,61.017z"/>
<path fill="#FFFFFF" d="M2154.099,60.679c0.408,6.563-15.832,7.38-33.7,7.347l-124.241-0.09c-17.822-0.019-30.23-0.853-30.069-7.4
	l2.614-41.214c0.16-6.226,15.75-6.651,33.05-6.651l120.685,0.033c17.353,0,30.07,0.41,30.471,6.67L2154.099,60.679z"/>
<path fill="#FFFFFF" d="M1924.428,60.498c-0.312,6.528-16.829,7.367-34.59,7.347l-123.646-0.067
	c-17.718-0.019-29.769-0.873-28.861-7.401l7.231-36.841c0.845-6.208,16.562-2.365,33.779-2.365h120.104
	c17.282,0,29.707-3.825,29.431,2.42L1924.428,60.498z"/>
<path fill="#FFFFFF" d="M1131.786,246.512c-2.962,7.665-20.323,13.52-39.384,13.445l-132.353-0.354
	c-18.98-0.071-31.947-6.011-28.319-13.625l24.468-52.584c3.434-7.222,20.412-12.735,38.743-12.698l127.959,0.268
	c18.395,0.018,31.663,5.604,28.845,12.877L1131.786,246.512z"/>
<path fill="#FFFFFF" d="M887.386,245.853c-3.753,7.649-21.648,13.446-40.584,13.412l-131.659-0.39
	c-18.865-0.057-31.183-5.979-26.762-13.574l29.911-52.387c4.196-7.223,21.64-12.719,39.89-12.686l127.284,0.252
	c18.304,0.035,30.952,5.602,27.367,12.86L887.386,245.853z"/>
<path fill="#FFFFFF" d="M1647.012,247.916c-1.254,7.721-17.548,13.59-36.786,13.539l-133.875-0.395
	c-19.186-0.052-33.583-5.993-31.636-13.695l12.878-52.885c1.832-7.275,17.833-12.826,36.377-12.771l129.329,0.266
	c18.604,0.035,33.174,5.639,31.974,12.949L1647.012,247.916z"/>
<path fill="#FFFFFF" d="M1399.881,247.222c-2.072,7.722-18.882,13.573-38.022,13.521l-133.136-0.392
	c-19.086-0.056-32.792-5.996-30.053-13.663l18.429-52.705c2.623-7.275,19.095-12.791,37.55-12.771l128.653,0.268
	c18.519,0.053,32.446,5.639,30.472,12.912L1399.881,247.222z"/>
<path fill="#FFFFFF" d="M2948.901,251.457c3.148,7.824-10.346,13.821-30.143,13.731l-137.645-0.394
	c-19.719-0.035-37.748-6.084-40.191-13.908l-16.928-53.67c-2.313-7.381,11.137-13.019,30.16-12.967l132.941,0.27
	c19.064,0.034,37.023,5.729,40.002,13.125L2948.901,251.457z"/>
<path fill="#FFFFFF" d="M2419.231,250.033c1.354,7.772-13.289,13.697-32.898,13.643l-136.063-0.406
	c-19.514-0.021-36.082-6.065-36.67-13.821l-4.75-53.347c-0.605-7.332,13.91-12.932,32.73-12.897l131.445,0.267
	c18.9,0.056,35.496,5.711,36.76,13.057L2419.231,250.033z"/>
<path fill="#FFFFFF" d="M2694.831,250.76c2.295,7.813-11.758,13.753-31.469,13.698l-136.887-0.39
	c-19.611-0.057-36.91-6.084-38.512-13.856l-11.049-53.524c-1.477-7.385,12.488-12.972,31.426-12.933l132.176,0.267
	c19.004,0.017,36.295,5.711,38.459,13.094L2694.831,250.76z"/>
<path fill="#FFFFFF" d="M2167.991,249.322c0.48,7.772-14.693,13.694-34.162,13.625l-135.368-0.394
	c-19.38-0.051-35.229-6.045-35.024-13.801l1.031-53.151c0.205-7.347,15.2-12.934,33.939-12.877l130.733,0.266
	c18.812,0.033,34.731,5.672,35.195,13.021L2167.991,249.322z"/>
<path fill="#FFFFFF" d="M1918.103,248.646c-0.346,7.735-16.063,13.644-35.434,13.588l-134.64-0.407
	c-19.272-0.034-34.429-6.016-33.397-13.732l6.742-53.027c0.971-7.328,16.454-12.877,35.105-12.825l130.058,0.252
	c18.704,0.052,33.966,5.673,33.638,13.001L1918.103,248.646z"/>
<path fill="#FFFFFF" d="M3624.985,358.683c5.752,8.629-7.605,14.088-28.643,14.019l-145.881-0.59
	c-20.891-0.086-41-5.654-45.928-14.283l-32.891-57.543c-4.645-8.131,8.938-13.057,29.129-13.004l140.633,0.444
	c20.242,0.056,39.916,5.104,45.34,13.271L3624.985,358.683z"/>
<path fill="#FFFFFF" d="M3355.661,357.652c4.793,8.589-9.143,14.052-29.99,13.962l-145.105-0.567
	c-20.787-0.107-40.166-5.656-44.125-14.232l-26.334-57.35c-3.764-8.11,10.334-13.058,30.373-12.984l139.912,0.411
	c20.162,0.067,39.107,5.12,43.609,13.288L3355.661,357.652z"/>
<path fill="#FFFFFF" d="M1161.493,349.237c-3.024,8.377-21.168,13.681-41.073,13.608l-138.41-0.569
	c-19.843-0.056-33.478-5.463-29.759-13.84l25.375-55.856c3.505-7.896,21.675-12.717,40.833-12.662l133.695,0.444
	c19.221,0.034,32.65,4.944,29.831,12.877L1161.493,349.237z"/>
<path fill="#FFFFFF" d="M905.894,348.256c-3.895,8.364-22.493,13.647-42.3,13.574l-137.644-0.567
	c-19.72-0.071-32.703-5.479-28.105-13.788l31.229-55.693c4.349-7.879,22.946-12.685,42.015-12.595l132.983,0.394
	c19.104,0.051,31.912,4.963,28.247,12.858L905.894,348.256z"/>
<path fill="#FFFFFF" d="M1700.446,351.317c-1.119,8.413-18.259,13.771-38.386,13.681l-140.046-0.551
	c-20.056-0.09-35.096-5.533-33.211-13.947l12.861-56.211c1.762-7.967,18.943-12.805,38.333-12.754l135.208,0.43
	c19.434,0.051,34.207,4.979,33.147,12.965L1700.446,351.317z"/>
<path fill="#FFFFFF" d="M1441.888,350.34c-2.02,8.377-19.629,13.697-39.676,13.607l-139.246-0.551
	c-19.968-0.072-34.313-5.479-31.557-13.895l18.892-56.033c2.615-7.951,20.242-12.771,39.516-12.719l134.497,0.429
	c19.336,0.052,33.479,4.979,31.557,12.95L1441.888,350.34z"/>
<path fill="#FFFFFF" d="M3063.636,356.547c3.66,8.572-10.791,13.981-31.514,13.912l-144.227-0.59
	c-20.67-0.086-39.25-5.621-42.193-14.178l-19.344-57.152c-2.748-8.076,11.908-13.002,31.805-12.949l139.119,0.444
	c19.996,0.071,38.229,5.087,41.695,13.196L3063.636,356.547z"/>
<path fill="#FFFFFF" d="M2508.796,354.414c1.725,8.504-13.842,13.891-34.342,13.821l-142.51-0.586
	c-20.412-0.056-37.543-5.587-38.494-14.069l-6.137-56.746c-0.881-8.061,14.791-12.933,34.49-12.897l137.521,0.444
	c19.754,0.057,36.572,5.053,38.184,13.11L2508.796,354.414z"/>
<path fill="#FFFFFF" d="M2797.433,355.5c2.75,8.572-12.254,13.963-32.887,13.873l-143.357-0.568
	c-20.553-0.057-38.432-5.621-40.404-14.107l-12.977-56.976c-1.877-8.06,13.279-12.967,33.066-12.896l138.348,0.41
	c19.889,0.071,37.443,5.069,40.051,13.146L2797.433,355.5z"/>
<path fill="#FFFFFF" d="M2245.733,353.399c0.775,8.467-15.279,13.856-35.674,13.767l-141.655-0.551
	c-20.332-0.068-36.776-5.566-36.813-14.033l0.099-56.604c-0.027-8.004,16.144-12.877,35.753-12.805l136.729,0.406
	c19.674,0.074,35.844,5.035,36.565,13.095L2245.733,353.399z"/>
<path fill="#FFFFFF" d="M1984.141,352.386c-0.124,8.466-16.72,13.839-36.972,13.749l-140.883-0.568
	c-20.215-0.09-35.967-5.565-35.078-13.979l6.252-56.426c0.826-7.987,17.477-12.826,36.964-12.771l136.007,0.406
	c19.577,0.072,35.071,5.019,34.938,13.039L1984.141,352.386z"/>
<path fill="#FFFFFF" d="M3545.604,471.051c5.701,9.428-11.162,11.648-33.068,11.563l-152.426-0.783
	c-21.801-0.125-40.066-2.51-44.873-11.918l-31.84-62.58c-4.563-8.912,9.898-14.229,30.926-14.156l146.842,0.62
	c21.088,0.09,41.33,5.604,46.729,14.515L3545.604,471.051z"/>
<path fill="#FFFFFF" d="M1242.197,459.471c-2.846,9.195-22.413,11.35-43.278,11.242l-145.018-0.749
	c-20.813-0.106-34.707-2.416-31.067-11.58l24.895-60.798c3.435-8.646,22.466-13.839,42.558-13.749l139.959,0.547
	c20.172,0.129,34.215,5.463,31.512,14.161L1242.197,459.471z"/>
<path fill="#FFFFFF" d="M974.227,458.136c-3.814,9.16-23.685,11.295-44.407,11.19l-144.208-0.75
	c-20.651-0.088-34.063-2.381-29.483-11.526l31.342-60.585c4.323-8.628,23.89-13.805,43.847-13.749l139.202,0.62
	c20.012,0.073,33.389,5.409,29.778,14.055L974.227,458.136z"/>
<path fill="#FFFFFF" d="M1832.23,462.44c-0.676,9.286-19.558,11.422-40.7,11.332l-146.902-0.783
	c-21.053-0.106-36.021-2.418-34.544-11.632l10.602-61.281c1.441-8.696,19.345-13.945,39.667-13.855l141.701,0.604
	c20.404,0.072,36.021,5.463,35.346,14.213L1832.23,462.44z"/>
<path fill="#FFFFFF" d="M1536.28,460.981c-1.771,9.214-21,11.349-41.996,11.242l-145.972-0.745
	c-20.918-0.105-35.362-2.421-32.773-11.618l17.788-61.028c2.445-8.664,20.918-13.877,41.099-13.806l140.854,0.586
	c20.252,0.071,35.088,5.444,33.398,14.16L1536.28,460.981z"/>
<path fill="#FFFFFF" d="M3264.187,469.644c4.623,9.412-12.574,11.599-34.375,11.494l-151.432-0.783
	c-21.693-0.09-39.418-2.472-43.234-11.849l-24.752-62.363c-3.531-8.859,11.512-14.193,32.402-14.107l145.986,0.606
	c20.99,0.09,40.477,5.582,44.846,14.459L3264.187,469.644z"/>
<path fill="#FFFFFF" d="M2655.929,466.584c2.34,9.355-15.555,11.529-37.063,11.422l-149.555-0.766
	c-21.424-0.125-37.949-2.49-39.443-11.777l-9.633-61.885c-1.396-8.805,14.855-14.104,35.506-14.018l144.172,0.623
	c20.715,0.073,38.557,5.531,40.762,14.336L2655.929,466.584z"/>
<path fill="#FFFFFF" d="M2959.103,468.099c3.457,9.392-14.107,11.58-35.744,11.476l-150.479-0.783
	c-21.561-0.09-38.689-2.475-41.324-11.813l-17.156-62.137c-2.506-8.821,13.209-14.123,33.941-14.033l145.104,0.604
	c20.832,0.09,39.482,5.549,42.756,14.426L2959.103,468.099z"/>
<path fill="#FFFFFF" d="M2379.759,465.199c1.324,9.305-16.936,11.49-38.279,11.383l-148.665-0.783
	c-21.293-0.09-37.33-2.438-37.829-11.722l-2.782-61.67c-0.463-8.771,16.347-14.054,36.892-13.967l143.364,0.606
	c20.59,0.09,37.701,5.516,38.939,14.301L2379.759,465.199z"/>
<path fill="#FFFFFF" d="M2105.2,463.83c0.293,9.283-18.252,11.437-39.508,11.35l-147.785-0.766
	c-21.177-0.146-36.67-2.455-36.162-11.705l3.947-61.478c0.49-8.731,17.859-13.979,38.271-13.892l142.545,0.604
	c20.475,0.09,36.831,5.479,37.115,14.248L2105.2,463.83z"/>
<path fill="#FFFFFF" d="M4114.87,356.262c6.234,7.137,20.438,18.555-0.773,18.502l-382.533-1.532
	c-21.045-0.09-55.502-11.522-60.355-18.66l-38.141-55.801c-4.656-6.74,18.42-10.726,38.682-10.635l368.74,1.121
	c20.439,0.051,19.752,4.123,25.668,10.922L4114.87,356.262z"/>
<path fill="#FFFFFF" d="M654.104,343.188c-3.94,6.832-17.05,17.72-36.715,17.663l-355.133-1.421
	c-19.53-0.09-25.444-10.994-20.384-17.826l40.388-53.56c4.812-6.494,21.879-10.317,40.733-10.244l343.179,1.047
	c19.042,0.056,22.875,4.004,19.14,10.494L654.104,343.188z"/>
<path fill="#FFFFFF" d="M3940.146,155.063c6.297,7.256-5.604,11.631-24.939,11.597l-270.717-0.518
	c-19.193-0.018-37.844-4.427-43.029-11.648l-37.559-52.14c-4.883-6.849,4.686-14.144,23.256-14.104l261.291,0.248
	c18.693,0,40.244,7.362,46.215,14.229L3940.146,155.063z"/>
<path fill="#FFFFFF" d="M752.019,59.666c-3.878,6.455-21.64,7.271-38.966,7.271l-242.381-0.191
	c-17.229-0.021-27.083-0.855-22.306-7.277l32.872-40.541c4.571-6.102,21.15-6.545,37.925-6.545l235.656,0.038
	c16.838,0,27.795,0.444,24.096,6.579L752.019,59.666z"/>
<path fill="#FFFFFF" d="M644.293,245.194c-4.589,7.615-22.956,13.411-41.784,13.377l-263.319-0.767
	c-18.704-0.071-30.008-5.924-24.369-13.502l38.208-52.172c5.355-7.205,23.49-12.664,41.607-12.646l254.62,0.535
	c18.215,0.019,30.239,5.565,25.917,12.787L644.293,245.194z"/>
<path fill="#FFFFFF" d="M2718.021,603.819c2.721,10.371,13.545,36.414-9.037,36.253l-1388.972-9.498
	c-21.896-0.143-43.261-25.863-40.405-36.059l18.873-75.955c2.676-9.553,31.77-25.063,52.608-24.937L2670.78,500.7
	c21.438,0.146,23.135,16.03,25.645,25.757L2718.021,603.819z"/>
</svg>
