<?xml version="1.0" encoding="utf-8"?>
<!-- Generator: Adobe Illustrator 16.0.0, SVG Export Plug-In . SVG Version: 6.00 Build 0)  -->
<!DOCTYPE svg PUBLIC "-//W3C//DTD SVG 1.1//EN" "http://www.w3.org/Graphics/SVG/1.1/DTD/svg11.dtd">
<svg version="1.1" id="Layer_1" xmlns="http://www.w3.org/2000/svg" xmlns:xlink="http://www.w3.org/1999/xlink" x="0px" y="0px"
	 width="168.953px" height="187.264px" viewBox="0 0 168.953 187.264" enable-background="new 0 0 168.953 187.264"
	 xml:space="preserve">
<g>
	
		<rect x="115.811" y="18.855" transform="matrix(-0.9547 0.2976 -0.2976 -0.9547 252.3747 2.3073)" fill="#504F53" width="20.401" height="3.021"/>
	<circle fill="#EDEEEF" cx="151.189" cy="19.527" r="8.646"/>
	<path fill="#39373A" d="M142.242,1.992c9.512-4.854,21.438-0.533,26.633,9.652c0.854,1.673-5.424,8.417-14.938,13.271
		c-9.512,4.854-18.656,5.98-19.511,4.307C129.23,19.037,132.729,6.846,142.242,1.992z"/>
	<ellipse fill="#B2B2B2" cx="59.76" cy="180.895" rx="32.6" ry="6.368"/>
	<path fill="#39373A" d="M28.249,175.172c0,0,18.795,0,32.056,0c12.593,0,32.054,0,32.054,0s0,4.393,0,5.226
		c0,2.886-14.352,5.225-32.054,5.225c-17.704,0-32.056-2.339-32.056-5.225C28.249,179.673,28.249,175.172,28.249,175.172z"/>
	<ellipse fill="#504F53" cx="60.304" cy="175.173" rx="32.055" ry="5.225"/>
	
		<rect x="26.056" y="61.974" transform="matrix(-0.9749 0.2226 -0.2226 -0.9749 83.1909 228.7095)" fill="#39373A" width="5.294" height="114.141"/>
	
		<rect x="32.899" y="61.723" transform="matrix(-0.9674 0.2532 -0.2532 -0.9674 97.6132 214.3046)" fill="#504F53" width="4.235" height="103.422"/>
	
		<rect x="-3.461" y="41.385" transform="matrix(-0.9278 0.3731 -0.3731 -0.9278 128.5629 63.1813)" fill="#39373A" width="123.258" height="5.293"/>
	
		<rect x="16.816" y="44.577" transform="matrix(-0.9186 0.3952 -0.3952 -0.9186 149.9332 62.5055)" fill="#504F53" width="103.427" height="4.235"/>
	<path fill="#39373A" d="M35.809,164.613l-0.021-0.088c-0.565-2.408,1.288-4.596,3.75-4.849l8.213-1.022
		c1.29-0.132,2.512,0.952,2.854,2.407l0.013,0.054c0.342,1.455-0.27,2.97-1.483,3.427l-7.809,2.741
		C39.009,168.155,36.375,167.021,35.809,164.613z"/>
	<circle fill="#39373A" cx="18.841" cy="63.379" r="8.32"/>
	<circle fill="#504F53" cx="18.841" cy="63.379" r="6.411"/>
	<circle fill="#D8DADC" cx="18.841" cy="63.582" r="2.189"/>
	<path fill="#68676C" d="M18.841,64.517c1.6,0,1.994-1.351,1.994-0.936c0,1.102-0.893,1.994-1.994,1.994
		c-1.101,0-1.994-0.892-1.994-1.994C16.847,63.255,17.373,64.517,18.841,64.517z"/>
	<circle fill="#39373A" cx="114.082" cy="24.08" r="8.32"/>
	<circle fill="#504F53" cx="114.082" cy="24.08" r="6.411"/>
	<circle fill="#D8DADC" cx="114.143" cy="24.274" r="2.189"/>
	<path fill="#68676C" d="M114.139,25.209c1.602,0.005,1.998-1.343,1.998-0.928c-0.004,1.101-0.9,1.991-2,1.988
		c-1.102-0.004-1.992-0.899-1.988-2C112.148,23.941,112.671,25.204,114.139,25.209z"/>
	<circle fill="#D8DADC" cx="39.221" cy="163.698" r="1.647"/>
	<path fill="#68676C" d="M39.221,164.401c1.204,0,1.5-1.016,1.5-0.703c0,0.829-0.672,1.501-1.5,1.501
		c-0.829,0-1.501-0.672-1.501-1.501C37.72,163.453,38.115,164.401,39.221,164.401z"/>
	<circle fill="#D8DADC" cx="47.675" cy="161.818" r="1.647"/>
	<path fill="#68676C" d="M47.675,162.521c1.204,0,1.5-1.016,1.5-0.703c0,0.829-0.672,1.501-1.5,1.501
		c-0.829,0-1.501-0.672-1.501-1.501C46.174,161.572,46.569,162.521,47.675,162.521z"/>
</g>
</svg>
