<?xml version="1.0" encoding="utf-8"?>
<!-- Generator: Adobe Illustrator 16.0.0, SVG Export Plug-In . SVG Version: 6.00 Build 0)  -->
<!DOCTYPE svg PUBLIC "-//W3C//DTD SVG 1.1//EN" "http://www.w3.org/Graphics/SVG/1.1/DTD/svg11.dtd">
<svg version="1.1" id="Layer_1" xmlns="http://www.w3.org/2000/svg" xmlns:xlink="http://www.w3.org/1999/xlink" x="0px" y="0px"
	 width="111.803px" height="111.802px" viewBox="0 0 111.803 111.802" enable-background="new 0 0 111.803 111.802"
	 xml:space="preserve">
<g>
	<circle fill="#007AB9" cx="55.901" cy="55.901" r="55.901"/>
	<g>
		<path fill="#F1F2F2" d="M89.302,60.399v23.046H75.939v-21.5c0-5.4-1.929-9.086-6.768-9.086c-3.691,0-5.885,2.481-6.854,4.885
			c-0.352,0.859-0.442,2.051-0.442,3.256v22.445H48.514c0,0,0.18-36.418,0-40.188h13.363v5.695
			c-0.027,0.046-0.064,0.089-0.088,0.132h0.088v-0.132c1.776-2.732,4.943-6.638,12.043-6.638
			C82.711,42.314,89.302,48.057,89.302,60.399L89.302,60.399z M34.535,23.886c-4.572,0-7.562,3-7.562,6.942
			c0,3.859,2.903,6.945,7.386,6.945h0.087c4.66,0,7.558-3.086,7.558-6.945C41.916,26.886,39.106,23.886,34.535,23.886L34.535,23.886
			z M27.768,83.445h13.357V43.257H27.768V83.445z"/>
	</g>
</g>
</svg>
