<?xml version="1.0" encoding="utf-8"?>
<!-- Generator: Adobe Illustrator 16.0.0, SVG Export Plug-In . SVG Version: 6.00 Build 0)  -->
<!DOCTYPE svg PUBLIC "-//W3C//DTD SVG 1.1//EN" "http://www.w3.org/Graphics/SVG/1.1/DTD/svg11.dtd">
<svg version="1.1" id="Layer_1" xmlns="http://www.w3.org/2000/svg" xmlns:xlink="http://www.w3.org/1999/xlink" x="0px" y="0px"
	 width="40.624px" height="437.836px" viewBox="0 0 40.624 437.836" enable-background="new 0 0 40.624 437.836"
	 xml:space="preserve">
<g>
	
		<rect x="5.797" y="152.393" transform="matrix(-1 0.0019 -0.0019 -1 41.9177 578.6267)" fill="#FF5A27" width="29.788" height="273.88"/>
	
		<rect x="-103.652" y="285.221" transform="matrix(0.0019 1 -1 0.0019 322.564 255.5117)" fill="#CE4521" width="273.883" height="8.232"/>
	<path fill="#D2EEFF" d="M30.018,437.82l-18.085,0.035c-3.233,0.004-5.856-2.611-5.864-5.84l-0.011-5.692l29.79-0.055l0.011,5.691
		C35.866,435.189,33.251,437.815,30.018,437.82z"/>
	<path fill="#D2EEFF" d="M32.372,0L20.16,0.022L7.948,0.044C3.547,0.053-0.009,4.383,0,9.72l0.267,142.719l20.177-0.037l20.18-0.038
		L40.356,9.645C40.346,4.31,36.771-0.01,32.372,0z"/>
	<path fill="#BAD4E0" d="M32.372,0l-5.136,0.008C31.635,0,35.21,4.32,35.222,9.654l0.264,142.719l5.138-0.008L40.356,9.645
		C40.346,4.31,36.771-0.01,32.372,0z"/>
	<rect x="29.219" y="12.486" fill="#BAD4E0" width="2.2" height="139.913"/>
	<rect x="19.219" y="12.501" fill="#BAD4E0" width="2.202" height="139.913"/>
	<rect x="9.543" y="12.522" fill="#BAD4E0" width="2.202" height="139.913"/>
	<polygon fill="#CE4521" points="5.549,152.429 5.555,155.958 35.79,173.144 35.486,152.373 	"/>
</g>
</svg>
