<?xml version="1.0" encoding="utf-8"?>
<!-- Generator: Adobe Illustrator 16.0.0, SVG Export Plug-In . SVG Version: 6.00 Build 0)  -->
<!DOCTYPE svg PUBLIC "-//W3C//DTD SVG 1.1//EN" "http://www.w3.org/Graphics/SVG/1.1/DTD/svg11.dtd">
<svg version="1.1" id="Layer_1" xmlns="http://www.w3.org/2000/svg" xmlns:xlink="http://www.w3.org/1999/xlink" x="0px" y="0px"
	 width="4729.355px" height="3963.14px" viewBox="0 0 4729.355 3963.14" enable-background="new 0 0 4729.355 3963.14"
	 xml:space="preserve">
<g>
	<path fill="#BCBCBC" d="M2054.07,3178.326c0,0-12.344,611.789-475.815,611.789v92.676h1594.29v-98.867
		c0,0-438.717-68.006-438.717-605.598H2054.07L2054.07,3178.326z"/>
	<path fill="#EFEFEF" d="M2054.07,3178.326c0,0-12.344,611.789-475.815,611.789v92.676h1594.29v-98.867
		c0,0-438.717-68.006-438.717-605.598H2054.07L2054.07,3178.326z"/>
	<path fill="#FFFFFF" d="M3659.748,3839.77l-11.04,68.2c0,11.689-9.48,21.17-21.15,21.17h-2440.27c-11.68,0-21.15-9.48-21.15-21.17
		l11.04-68.2c0-22.141,575.93-89.36,587.77-89.36h1284.93c11.77,0,600.56,66.17,609.76,88.83
		C3659.708,3839.419,3659.748,3839.6,3659.748,3839.77z"/>
	<path fill="#2A2B30" d="M4550.641,0H204.636C102.221,0,19.248,83.007,19.248,185.388v2590.232h3483.675h796.476h444.758v-817.171
		v-501.004v-190.688V193.554C4744.156,91.173,4653.009,0,4550.641,0"/>
	<path fill="#3B3D40" d="M4550.641,2602.13v167.902H200.189V2602.13V331.021c0-92.739,75.173-167.932,167.938-167.932h4014.59
		c92.74,0,167.922,75.192,167.922,167.932V2602.13H4550.641z"/>
	<path fill="#FFFFFF" d="M200.189,3295.746h4350.45c102.371,0,185.379-83,185.379-185.389v-340.324H14.801v340.324
		C14.801,3212.746,97.782,3295.746,200.189,3295.746"/>
	<path fill="#C4C4C4" d="M2487.686,3036.197c0,60.088-50.298,108.863-112.262,108.863c-62,0-112.279-48.775-112.279-108.863
		c0-60.143,50.278-108.898,112.279-108.898C2437.388,2927.298,2487.686,2976.056,2487.686,3036.197"/>
</g>
<path fill="#F7F7F7" d="M3659.748,3839.77h-2482.57c0-22.141,575.93-89.36,587.77-89.36h1284.93c11.77,0,600.56,66.17,609.76,88.83
	L3659.748,3839.77z"/>
</svg>
