<?xml version="1.0" encoding="utf-8"?>
<!-- Generator: Adobe Illustrator 16.0.0, SVG Export Plug-In . SVG Version: 6.00 Build 0)  -->
<!DOCTYPE svg PUBLIC "-//W3C//DTD SVG 1.1//EN" "http://www.w3.org/Graphics/SVG/1.1/DTD/svg11.dtd">
<svg version="1.1" id="Layer_1" xmlns="http://www.w3.org/2000/svg" xmlns:xlink="http://www.w3.org/1999/xlink" x="0px" y="0px"
	 width="4768.58px" height="3963.14px" viewBox="0 0 4768.58 3963.14" enable-background="new 0 0 4768.58 3963.14"
	 xml:space="preserve">
<rect x="125.604" y="88.81" fill="#424242" width="4481.104" height="2713.608"/>
<g>
	<path fill="#BCBCBC" d="M2054.07,3178.326c0,0-12.345,611.789-475.815,611.789v92.676h1594.29v-98.867
		c0,0-438.717-68.006-438.717-605.598H2054.07L2054.07,3178.326z"/>
	<path fill="#EFEFEF" d="M2054.07,3178.326c0,0-12.345,611.789-475.815,611.789v92.676h1594.29v-98.867
		c0,0-438.717-68.006-438.717-605.598H2054.07L2054.07,3178.326z"/>
	<path fill="#FFFFFF" d="M3659.748,3839.771l-11.039,68.199c0,11.689-9.479,21.17-21.149,21.17H1187.289
		c-11.681,0-21.15-9.48-21.15-21.17l11.04-68.199c0-22.143,575.934-89.361,587.771-89.361h1284.929
		c11.771,0,600.562,66.17,609.762,88.83C3659.708,3839.419,3659.748,3839.601,3659.748,3839.771z"/>
	<path fill="#2A2B30" d="M4550.638,0H204.639c-102.42,0-185.39,83.01-185.39,185.39v2590.23H4744.16V193.55
		C4744.158,91.17,4653.007,0,4550.638,0z M4550.638,2770.031H200.188V331.02c0-92.738,75.17-167.93,167.94-167.93h4014.59
		c92.74,0,167.92,75.19,167.92,167.93V2770.031z"/>
	<path fill="#FFFFFF" d="M200.189,3295.746h4350.449c102.371,0,185.379-83,185.379-185.389v-340.324H14.801v340.324
		C14.801,3212.746,97.782,3295.746,200.189,3295.746"/>
	<path fill="#C4C4C4" d="M2487.685,3036.197c0,60.088-50.297,108.863-112.262,108.863c-62,0-112.279-48.775-112.279-108.863
		c0-60.143,50.278-108.898,112.279-108.898C2437.388,2927.298,2487.685,2976.056,2487.685,3036.197"/>
</g>
<path fill="#F7F7F7" d="M3659.748,3839.771h-2482.57c0-22.143,575.931-89.361,587.771-89.361h1284.929
	c11.771,0,600.561,66.17,609.76,88.83L3659.748,3839.771z"/>
<rect x="14.801" y="2770.031" fill="#2A2B30" width="4729.358" height="64.775"/>
</svg>
