<?xml version="1.0" encoding="utf-8"?>
<!-- Generator: Adobe Illustrator 16.0.0, SVG Export Plug-In . SVG Version: 6.00 Build 0)  -->
<!DOCTYPE svg PUBLIC "-//W3C//DTD SVG 1.1//EN" "http://www.w3.org/Graphics/SVG/1.1/DTD/svg11.dtd">
<svg version="1.1" id="Layer_1" xmlns="http://www.w3.org/2000/svg" xmlns:xlink="http://www.w3.org/1999/xlink" x="0px" y="0px"
	 width="114px" height="63.454px" viewBox="0 0 114 63.454" enable-background="new 0 0 114 63.454" xml:space="preserve">
<g>
	<path fill="#D6D6D6" d="M0,15.712c0,0,21.025,28.558,56.235,42.313c38.431,15.013,55.897-11.481,55.897-11.481
		S42.548,0.579,0,15.712"/>
	<path fill="#FFFFFF" d="M0,15.712C2.001,13.43,9.708,7.149,25.987,3.721C42.262,0.297,63.688-3.15,89.089,13.43
		c27.697,18.076,27.605,31.412,18.184,39.975c-9.427,8.566-28.549,14.703-42.106-1.867c-15-18.333-27.733-23.167-39-28.667
		C16.413,18.109,0,15.712,0,15.712z"/>
</g>
<path fill="#E2E2E2" d="M24.667,5.012c0,0,10.45-4.21,15.884,4.549C40.551,9.561,35.648,11.117,24.667,5.012z"/>
<path fill="#3A3A3A" d="M27.521,5.039c0,0,6.18-3.999,9.912,3.282C37.434,8.321,32.224,8.664,27.521,5.039z"/>
</svg>
