<?xml version="1.0" encoding="utf-8"?>
<!-- Generator: Adobe Illustrator 16.0.0, SVG Export Plug-In . SVG Version: 6.00 Build 0)  -->
<!DOCTYPE svg PUBLIC "-//W3C//DTD SVG 1.1//EN" "http://www.w3.org/Graphics/SVG/1.1/DTD/svg11.dtd">
<svg version="1.1" id="Layer_1" xmlns="http://www.w3.org/2000/svg" xmlns:xlink="http://www.w3.org/1999/xlink" x="0px" y="0px"
	 width="114px" height="63.454px" viewBox="0 0 114 63.454" enable-background="new 0 0 114 63.454" xml:space="preserve">
<g>
	<path fill="#D6D6D6" d="M0,15.712c0,0,21.025,28.558,56.235,42.313c38.431,15.013,55.897-11.481,55.897-11.481
		S42.548,0.579,0,15.712"/>
	<path fill="#FFFFFF" d="M0,15.712C2.001,13.43,9.708,7.149,25.987,3.721C42.262,0.297,63.688-3.15,89.089,13.43
		c27.697,18.076,27.604,31.412,18.185,39.975c-9.428,8.566-28.549,14.703-42.106-1.867c-15-18.332-27.733-23.167-39-28.667
		C16.413,18.109,0,15.712,0,15.712z"/>
</g>
<path fill="#E2E2E2" d="M35.5,4.204c0,0,9.7-3.199,15.134,5.56C50.634,9.764,46.481,10.309,35.5,4.204z"/>
<path fill="#3A3A3A" d="M38.111,4.729c0,0,6.18-3.999,9.912,3.282C48.024,8.011,42.814,8.354,38.111,4.729z"/>
</svg>
