<?xml version="1.0" encoding="utf-8"?>
<!-- Generator: Adobe Illustrator 16.0.0, SVG Export Plug-In . SVG Version: 6.00 Build 0)  -->
<!DOCTYPE svg PUBLIC "-//W3C//DTD SVG 1.1//EN" "http://www.w3.org/Graphics/SVG/1.1/DTD/svg11.dtd">
<svg version="1.1" id="Layer_1" xmlns="http://www.w3.org/2000/svg" xmlns:xlink="http://www.w3.org/1999/xlink" x="0px" y="0px"
	 width="467.447px" height="130.826px" viewBox="0 0 467.447 130.826" enable-background="new 0 0 467.447 130.826"
	 xml:space="preserve">
<path fill="#318480" d="M113.162,130.826c-4.167,0-17.608-3.131-24.701-9.203l-0.135-0.116l-0.12-0.13
	c-0.661-0.718-63.423-71.533-85.698-100.478C-0.568,16.901-0.486,9.417,2.389,6.958c4.467-3.82,7.795-1.382,12.281-1.382
	l295.816-0.535c10.638,0.14,19.909,4.186,30.101,13.119c4.135,3.475,111.055,79.804,117.958,87.666
	c4.056,4.62,10.582,8.48,7.6,15.066c-2.494,5.511-6.39,8.946-10.922,8.946L113.162,130.826z"/>
<path fill="#2EA09D" d="M11.431,0h320.458c9.5,0.125,18,3.5,28.125,12.375c0,0,97.739,86.118,104.571,93.9
	c6.792,7.736,0.345,22.402-7.369,22.402l-344.046-0.852c-3.955,0-16.5-3.125-22.758-8.482c0,0-66.041-71.677-88.492-100.851
	C-3.74,11.139,5.027,0,11.431,0z"/>
</svg>
