<?xml version="1.0" encoding="utf-8"?>
<!-- Generator: Adobe Illustrator 16.0.0, SVG Export Plug-In . SVG Version: 6.00 Build 0)  -->
<!DOCTYPE svg PUBLIC "-//W3C//DTD SVG 1.1//EN" "http://www.w3.org/Graphics/SVG/1.1/DTD/svg11.dtd">
<svg version="1.1" id="Layer_1" xmlns="http://www.w3.org/2000/svg" xmlns:xlink="http://www.w3.org/1999/xlink" x="0px" y="0px"
	 width="122.395px" height="71.576px" viewBox="0 0 122.395 71.576" enable-background="new 0 0 122.395 71.576"
	 xml:space="preserve">
<path fill="#29726E" d="M86.066,71.576c-7.306,0-15.093-1.596-23.144-4.74C27.579,53.028,6.677,25.03,5.804,23.845L4.851,22.55
	l1.06-1.209c0.763-0.87,8.002-8.612,27.079-12.629c6.634-1.396,14.446-2.885,23.215-2.885c14.579,0,28.119,4.212,41.392,12.876
	c19.528,12.744,27.584,24.562,23.949,35.133c0,0-0.288,0.813-0.4,1.077c-0.063,0.147-0.272,0.579-0.272,0.579
	c-1.065,2.258-2.688,4.385-4.839,6.34c-5.98,5.434-14.164,8.28-21.826,9.06C91.548,71.162,88.835,71.576,86.066,71.576
	C86.067,71.576,86.067,71.576,86.066,71.576z"/>
<g>
	<path fill="#D6D6D6" d="M0,15.712c0,0,21.025,28.558,56.235,42.313c38.431,15.013,55.897-11.481,55.897-11.481
		S42.548,0.579,0,15.712"/>
	<path fill="#FFFFFF" d="M0,15.712C2.001,13.43,9.708,7.149,25.987,3.721C42.262,0.297,63.688-3.15,89.089,13.43
		c27.697,18.076,27.604,31.412,18.185,39.975c-9.428,8.566-28.549,14.703-42.106-1.867c-15-18.332-27.733-23.167-39-28.667
		C16.413,18.109,0,15.712,0,15.712z"/>
</g>
<path fill="#E2E2E2" d="M35.5,4.204c0,0,9.7-3.199,15.134,5.56C50.634,9.764,46.481,10.309,35.5,4.204z"/>
<path fill="#3A3A3A" d="M38.111,4.729c0,0,6.18-3.999,9.912,3.282C48.024,8.011,42.814,8.354,38.111,4.729z"/>
</svg>
