<?xml version="1.0" encoding="utf-8"?>
<!-- Generator: Adobe Illustrator 16.0.0, SVG Export Plug-In . SVG Version: 6.00 Build 0)  -->
<!DOCTYPE svg PUBLIC "-//W3C//DTD SVG 1.1//EN" "http://www.w3.org/Graphics/SVG/1.1/DTD/svg11.dtd">
<svg version="1.1" id="Layer_1" xmlns="http://www.w3.org/2000/svg" xmlns:xlink="http://www.w3.org/1999/xlink" x="0px" y="0px"
	 width="945px" height="1080px" viewBox="487.5 0 945 1080" enable-background="new 487.5 0 945 1080" xml:space="preserve">
<path fill="#E2E5E7" d="M690,0c-37.125,0-67.5,30.375-67.5,67.5v945c0,37.125,30.375,67.5,67.5,67.5h675
	c37.125,0,67.5-30.375,67.5-67.5V270l-270-270H690z"/>
<path fill="#B0B7BD" d="M1230,270h202.5l-270-270v202.5C1162.5,239.625,1192.875,270,1230,270z"/>
<polygon fill="#CAD1D8" points="1432.5,472.5 1230,270 1432.5,270 "/>
<path fill="#F15642" d="M1297.5,877.5c0,18.563-15.188,33.75-33.75,33.75h-742.5c-18.563,0-33.75-15.188-33.75-33.75V540
	c0-18.563,15.188-33.75,33.75-33.75h742.5c18.563,0,33.75,15.188,33.75,33.75V877.5z"/>
<g>
	<path fill="#FFFFFF" d="M634.616,639.461c0-8.91,7.02-18.63,18.326-18.63h62.336c35.101,0,66.69,23.49,66.69,68.513
		c0,42.66-31.59,66.42-66.69,66.42h-45.056v35.641c0,11.88-7.561,18.596-17.28,18.596c-8.91,0-18.326-6.716-18.326-18.596V639.461z
		 M670.223,654.817v67.23h45.056c18.091,0,32.4-15.964,32.4-32.704c0-18.866-14.31-34.526-32.4-34.526H670.223z"/>
	<path fill="#FFFFFF" d="M834.821,810c-8.91,0-18.63-4.86-18.63-16.706V640.001c0-9.687,9.72-16.739,18.63-16.739h61.796
		c123.323,0,120.623,186.738,2.431,186.738H834.821z M851.831,656.201v120.893h44.786c72.866,0,76.106-120.893,0-120.893H851.831
		L851.831,656.201z"/>
	<path fill="#FFFFFF" d="M1060.979,658.361v42.896h68.816c9.721,0,19.44,9.72,19.44,19.136c0,8.91-9.72,16.2-19.44,16.2h-68.816
		v56.666c0,9.45-6.716,16.706-16.166,16.706c-11.88,0-19.136-7.256-19.136-16.706V639.968c0-9.687,7.29-16.74,19.136-16.74h94.736
		c11.88,0,18.9,7.054,18.9,16.74c0,8.64-7.021,18.359-18.9,18.359h-78.57V658.361z"/>
</g>
<path fill="#CAD1D8" d="M1263.75,911.25H622.5V945h641.25c18.563,0,33.75-15.188,33.75-33.75V877.5
	C1297.5,896.063,1282.313,911.25,1263.75,911.25z"/>
</svg>
