<?xml version="1.0" encoding="utf-8"?>
<!-- Generator: Adobe Illustrator 16.0.0, SVG Export Plug-In . SVG Version: 6.00 Build 0)  -->
<!DOCTYPE svg PUBLIC "-//W3C//DTD SVG 1.1//EN" "http://www.w3.org/Graphics/SVG/1.1/DTD/svg11.dtd">
<svg version="1.1" id="Layer_1" xmlns="http://www.w3.org/2000/svg" xmlns:xlink="http://www.w3.org/1999/xlink" x="0px" y="0px"
	 width="62.166px" height="447.004px" viewBox="0 0 62.166 447.004" enable-background="new 0 0 62.166 447.004"
	 xml:space="preserve">
<g>
	<path fill="#3EADFF" d="M39.69,17.153c0.889,0.009,17.179,0.185,20.054,8.112c2.125,5.853,2.422,132.721,2.422,132.721
		s-1.227,3.837-5.366,3.201c-4.14-0.637-4.095-4.784-4.095-4.784s2.07-123.491-1.158-126.191c-3.229-2.7-9.017-1.578-9.908-1.292
		C40.746,29.207,39.69,17.153,39.69,17.153z"/>
	<rect x="7.802" y="421.336" fill="#485FC1" width="30.327" height="9.896"/>
	<ellipse fill="#485FC1" cx="22.966" cy="431.234" rx="15.164" ry="15.771"/>
	<rect x="7.802" y="166.43" fill="#3EADFF" width="30.327" height="254.906"/>
	<rect x="27.723" y="166.43" fill="#369AD8" width="10.407" height="254.906"/>
	<path fill="#3EADFF" d="M45.069,166.43H2.063V11.846C2.063,5.304,7.366,0,13.908,0h19.314c6.543,0,11.847,5.304,11.847,11.846
		V166.43z"/>
	<path fill="#369AD8" d="M33.222,0H21.659c6.542,0,11.846,5.304,11.846,11.846v154.583h11.563V11.846
		C45.069,5.304,39.765,0,33.222,0z"/>
	<polygon fill="#369AD8" points="7.802,166.43 38.13,166.43 38.13,187.782 7.802,170.357 	"/>
	<path opacity="0.31" fill="#FFFFFF" enable-background="new    " d="M8.5,7.294c-1.898,3.131-1.993,6.992-2.034,10.653
		C6.354,28.185,6.24,38.424,6.129,48.661C6.006,59.735,5.885,70.829,6.836,81.862c0.125,1.457,0.421,3.148,1.717,3.824
		c2.294,1.196,4.396-1.932,4.994-4.45c4.832-20.332-0.776-41.632,0.46-62.495c0.17-2.893,1.004-6.436,3.815-7.143
		c1.745-0.438,3.828,0.417,5.268-0.662C26.817,8.146,13.593-1.103,8.5,7.294z"/>
	<path opacity="0.31" fill="#FFFFFF" enable-background="new    " d="M7.705,94.001c-0.637,1.495-0.356,3.2-0.097,4.804
		c1.211,7.517,1.675,15.153,1.383,22.761c-0.072,1.864,0.097,4.205,1.828,4.897c1.334,0.535,2.897-0.374,3.59-1.634
		c0.692-1.261,0.737-2.763,0.766-4.201c0.103-5.211,0.205-10.421,0.307-15.633c0.066-3.368,0.127-6.784-0.698-10.05
		C13.969,91.732,9.208,90.474,7.705,94.001z"/>
	<path opacity="0.31" fill="#FFFFFF" enable-background="new    " d="M11.581,401.34c0.137,8.445,0.275,16.896,0.413,25.344
		c0.054,3.273,0.405,7.105,3.18,8.838c0.524,0.328,1.138,0.563,1.753,0.492c1.824-0.203,2.347-2.576,2.398-4.41
		c0.262-9.564,0.279-19.139,0.049-28.707C19.219,396.497,11.452,393.543,11.581,401.34z"/>
</g>
</svg>
