<?xml version="1.0" encoding="utf-8"?>
<!-- Generator: Adobe Illustrator 16.0.0, SVG Export Plug-In . SVG Version: 6.00 Build 0)  -->
<!DOCTYPE svg PUBLIC "-//W3C//DTD SVG 1.1//EN" "http://www.w3.org/Graphics/SVG/1.1/DTD/svg11.dtd">
<svg version="1.1" id="Layer_1" xmlns="http://www.w3.org/2000/svg" xmlns:xlink="http://www.w3.org/1999/xlink" x="0px" y="0px"
	 width="61.427px" height="472.804px" viewBox="0 0 61.427 472.804" enable-background="new 0 0 61.427 472.804"
	 xml:space="preserve">
<g>
	<path fill="#D2EEFF" d="M38.507,4.006l6.682,0.337c3.118,0.157,5.519,2.813,5.361,5.931l-1.608,31.908l-17.974-0.905l1.607-31.907
		C32.732,6.25,35.388,3.849,38.507,4.006z"/>
	<path fill="#369AD8" d="M13.94,177.092c0.033-0.658,0.664-13.171,0.664-13.171s-8.811-14.308-9.817-34.385
		C3.783,109.459,16.9,71.908,16.9,71.908l0.754-14.949l-5.163-0.26c0,0-13.794,51.843-12.391,71.281
		c1.403,19.436,10.997,36.426,10.997,36.426l-0.504,13.619L13.94,177.092z"/>
	
		<rect x="15.017" y="41.552" transform="matrix(0.9987 0.0503 -0.0503 0.9987 9.0529 -1.4338)" fill="#3EADFF" width="35.997" height="275.209"/>
	
		<rect x="-116.379" y="172.402" transform="matrix(0.0503 -0.9987 0.9987 0.0503 -158.1912 190.7948)" fill="#369AD8" width="275.209" height="12.347"/>
	<path fill="#D2EEFF" d="M5.261,419.328c1.338,20.108,7.856,38.457,7.856,38.457l5.861,0.295l5.862,0.295
		c0,0,8.33-17.602,11.681-37.471c3.352-19.873,7.561-103.418,7.561-103.418l-17.976-0.905l-17.974-0.905
		C8.133,315.675,3.925,399.22,5.261,419.328z"/>
	<path fill="#BAD4E0" d="M5.261,419.328c1.338,20.108,7.856,38.457,7.856,38.457l5.861,0.295l5.862,0.295c0,0,0.24-0.51,0.647-1.433
		c-1.55-4.75-6.241-20.244-7.353-36.965c-1.338-20.11,2.871-103.655,2.871-103.655l-12.872-0.648
		C8.133,315.675,3.925,399.22,5.261,419.328z"/>
	<path fill="#939393" d="M22.205,458.242l-6.451-0.325c0,0,0.088,14.708,2.483,14.886C20.632,472.979,22.205,458.242,22.205,458.242
		z"/>
	<path opacity="0.31" fill="#FFFFFF" enable-background="new    " d="M37.36,335.411c-1.475-23.952,1.512-47.929,2.174-71.917
		c0.02-0.732,0.032-1.492-0.264-2.164c-0.714-1.625-3.028-2.002-4.599-1.172c-1.568,0.831-2.518,2.479-3.23,4.104
		c-4.521,10.318-2.674,22.127-2.53,33.392c0.245,19.463-5.99,39.079-4.21,58.496c0.652,7.106,3.784,17.105,11.158,8.708
		C41.132,358.852,37.801,342.551,37.36,335.411z"/>
	
		<rect x="14.134" y="50.984" transform="matrix(0.9987 0.0503 -0.0503 0.9987 3.1689 -1.8076)" fill="#369AD8" width="46.764" height="22.208"/>
	<path opacity="0.31" fill="#FFFFFF" enable-background="new    " d="M56.623,71.896c0.516-0.367,0.688-1.048,0.777-1.675
		c0.378-2.586,0.02-5.216-0.338-7.807c-0.164-1.18-0.325-2.36-0.488-3.541c-0.079-0.567-0.166-1.159-0.497-1.628
		c-0.586-0.827-1.72-1.008-2.727-1.118c-0.867-0.094-1.871-0.141-2.465,0.497c-0.342,0.367-0.46,0.884-0.563,1.375
		c-0.724,3.463-1.273,6.963-1.644,10.482c-0.189,1.795,0.278,3.408,2.15,3.882C52.007,72.658,55.696,72.559,56.623,71.896z"/>
</g>
</svg>
