<?xml version="1.0" encoding="utf-8"?>
<!-- Generator: Adobe Illustrator 16.0.0, SVG Export Plug-In . SVG Version: 6.00 Build 0)  -->
<!DOCTYPE svg PUBLIC "-//W3C//DTD SVG 1.1//EN" "http://www.w3.org/Graphics/SVG/1.1/DTD/svg11.dtd">
<svg version="1.1" id="Layer_1" xmlns="http://www.w3.org/2000/svg" xmlns:xlink="http://www.w3.org/1999/xlink" x="0px" y="0px"
	 width="39.003px" height="483.739px" viewBox="0 0 39.003 483.739" enable-background="new 0 0 39.003 483.739"
	 xml:space="preserve">
<g>
	
		<rect x="5.42" y="66.733" transform="matrix(-1 0.0086 -0.0086 -1 44.6209 493.4283)" fill="#FEC84D" width="31.649" height="360.154"/>
	<path fill="#DB7B07" d="M26.95,483.677l-7.333,0.062c-6.714,0.059-12.205-5.339-12.262-12.053l-0.386-44.664l31.648-0.272
		l0.385,44.664C39.059,478.125,33.664,483.618,26.95,483.677z"/>
	
		<rect x="6.843" y="407.087" transform="matrix(-1 0.0087 -0.0087 -1 48.9056 823.703)" fill="#DB7B07" width="31.648" height="9.741"/>
	<path fill="#FCD695" d="M3.873,68.212c-0.011-1.343,8.112-44.081,8.112-44.081l15.827-0.304l7.709,44.112
		c0,0-1.494,5.676-5.344,6.905c-3.85,1.23-6.998-5.786-6.998-5.786l-3.422,6.012c-3.476-0.206-8.157-5.912-8.157-5.912l-2.817,5.347
		C4.153,74.633,3.873,68.212,3.873,68.212z"/>
	<path fill="#87867B" d="M11.983,24.13C12.12,23.267,16.8,0.021,19.108,0c2.315-0.021,8.701,23.851,8.701,23.851L11.983,24.13z"/>
	<path opacity="0.31" fill="#FFFFFF" enable-background="new    " d="M12.371,380.379c1.866,28.044-3.771,56.32-0.42,84.226
		c0.265,2.205,0.638,4.526,2.051,6.24c1.413,1.716,4.22,2.473,5.882,0.998c1.564-1.39,1.364-3.846,1.067-5.917
		c-4.517-31.505-1.352-63.557-2.359-95.369c-0.108-3.376-2.05-9.255-5.552-4.706C10.474,369.183,12.115,376.537,12.371,380.379z"/>
	<path opacity="0.31" fill="#FFFFFF" enable-background="new    " d="M10.125,120.258c2.228,69.98-1.419,129.897,2.293,199.552
		c0.292,5.505-0.93,21.847,0.504,26.141c1.435,4.297,4.253,6.224,5.896,2.565c1.548-3.45-0.95-13.146-1.098-18.327
		c-2.263-78.567-0.082-154.983-1.5-234.354c-0.151-8.421-2.17-23.112-5.613-11.814C8.084,92.301,9.82,110.667,10.125,120.258z"/>
</g>
</svg>
