<?xml version="1.0" encoding="utf-8"?>
<!-- Generator: Adobe Illustrator 16.0.0, SVG Export Plug-In . SVG Version: 6.00 Build 0)  -->
<!DOCTYPE svg PUBLIC "-//W3C//DTD SVG 1.1//EN" "http://www.w3.org/Graphics/SVG/1.1/DTD/svg11.dtd">
<svg version="1.1" id="Layer_1" xmlns="http://www.w3.org/2000/svg" xmlns:xlink="http://www.w3.org/1999/xlink" x="0px" y="0px"
	 width="270.83px" height="365.949px" viewBox="0 140.732 270.83 365.949" enable-background="new 0 140.732 270.83 365.949"
	 xml:space="preserve">
<path fill="#E54C54" d="M267.521,167.739c0-0.01,0-0.01-0.011-0.021c-1.97-7.087-15.92-13.477-37.579-18.266
	c-1.19-0.269-2.4-0.526-3.641-0.773c-6.71-1.374-14.1-2.599-22.03-3.651c-20.45-2.728-44.569-4.295-70.39-4.295
	c-25.76,0-49.82,1.568-70.24,4.274c-32.3,4.274-55.48,11.415-61.86,19.77c-0.65,2.041-1.13,4.285-1.42,6.765
	c4.97,14.884,62.85,26.642,133.52,26.642c33.32,0,63.79-2.62,87.22-6.937c1.341-0.247,2.66-0.505,3.95-0.751
	c26.24-5.241,42.67-12.714,42.71-21.004v-0.032C267.681,168.868,267.601,168.297,267.521,167.739z"/>
<path fill="#E54C54" d="M268.181,175.092l-34.451,262.46c-5.84,30.141-14.56,45.911-45.314,59.629l-10.181,3.404
	c3.391-9.891,3.976-21.463,5.956-31.693l36.899-281.12c1.341-0.23,2.66-0.47,3.95-0.7c26.24-4.88,42.67-11.84,42.71-19.56
	C268.03,169.802,268.181,172.322,268.181,175.092z"/>
<path fill="#E54C54" d="M267.75,167.482c-0.069-0.55-0.149-1.08-0.229-1.6C267.67,166.413,267.75,166.942,267.75,167.482z"/>
<path fill="#E54C54" d="M230.009,144.601c-0.96,0.01-2.07,0.02-3.26,0.03v-0.02C227.858,144.601,228.938,144.601,230.009,144.601z"
	/>
<path fill="#E54C54" d="M0,167.482c0-1.48,0.6-2.94,1.77-4.36c-0.65,1.9-1.13,3.99-1.42,6.3C0.12,168.782,0,168.132,0,167.482z"/>
<path fill="#E54C54" d="M225.04,187.072l-35.98,280.66c-1.979,10.23-3.939,21.74-7.33,31.631c0,0-9.814,5.344-51.564,5.318
	c-40.213-0.024-49.645-5.318-49.645-5.318c-33.855-10.682-39.09-29.121-46.07-61.811L0,175.092c0-2.02,0.12-3.91,0.35-5.67
	c4.97,13.86,62.85,24.81,133.52,24.81c33.32,0,63.79-2.44,87.22-6.46C222.431,187.542,223.75,187.302,225.04,187.072z"/>
</svg>
