<?xml version="1.0" encoding="utf-8"?>
<!-- Generator: Adobe Illustrator 16.0.0, SVG Export Plug-In . SVG Version: 6.00 Build 0)  -->
<!DOCTYPE svg PUBLIC "-//W3C//DTD SVG 1.1//EN" "http://www.w3.org/Graphics/SVG/1.1/DTD/svg11.dtd">
<svg version="1.1" id="Capa_1" xmlns="http://www.w3.org/2000/svg" xmlns:xlink="http://www.w3.org/1999/xlink" x="0px" y="0px"
	 width="1080px" height="1080px" viewBox="0 0 1080 1080" enable-background="new 0 0 1080 1080" xml:space="preserve">
<circle fill="#385BA3" cx="540" cy="540" r="540"/>
<path fill="#274A87" d="M721.457,423.097c-43.114,0-76.157,7.891-99.183,23.62L518.136,343.965l0,0
	c-16.203-17.217-35.406-28.757-57.638-34.581c-32.006-8.581-108.443-6.984-262.675-6.984v465.637l311.051,311.05
	C519.179,1079.671,529.55,1080,540,1080c249.883,0,460.091-169.746,521.69-400.207L841.448,459.551l-0.01,0.011
	C813.555,431.398,771.892,423.097,721.457,423.097z"/>
<g>
	<path fill="#76C8DA" d="M197.823,768.036V302.4c154.231,0,230.669-1.593,262.675,6.984c26.679,6.988,49.018,22.186,67.017,45.579
		c34.87,45.339,33.324,121.671,11.437,162.782c-19.8,37.176-53.209,60.326-88.298,67.973c-41.313,8.185-102.479,6.67-158.813,6.67
		v175.646L197.823,768.036L197.823,768.036z M291.841,381.173v132.131c95.27,0,132.414,3.084,155.157-30.175
		c15.099-22.083,14.778-57.033-4.286-78.135C418.882,378.646,392.846,381.173,291.841,381.173z"/>
	<path fill="#76C8DA" d="M567.093,671.796l89.57-13.66c8.336,37.983,33.953,53.044,72.099,53.044
		c29.105,0,63.843-7.301,63.843-36.525c0-19.647-16.433-23.978-36.209-28.585c-71.994-15.881-117.631-30.384-136.896-43.516
		c-26.682-18.208-40.019-43.515-40.019-75.911c0-29.223,11.537-53.782,34.617-73.688c23.076-19.901,58.863-29.855,107.356-29.855
		c73.699,0,128.685,17.699,149.282,89.252l-84.172,15.564c-3.604-13.124-10.432-23.187-20.484-30.175
		c-22.994-15.973-75.761-12.111-93.541-0.635c-12.688,8.721-14.126,24.662-1.271,34.303c25.844,19.052,136.272,25.994,182.95,64.796
		c18.633,15.882,27.952,38.011,27.952,66.382c0,30.919-12.918,57.489-38.75,79.725c-25.838,22.232-64.057,33.353-114.661,33.353
		c-45.952,0-82.317-9.314-109.104-27.951C592.869,729.076,575.351,703.771,567.093,671.796z"/>
</g>
</svg>
