<?xml version="1.0" encoding="utf-8"?>
<!-- Generator: Adobe Illustrator 16.0.0, SVG Export Plug-In . SVG Version: 6.00 Build 0)  -->
<!DOCTYPE svg PUBLIC "-//W3C//DTD SVG 1.1//EN" "http://www.w3.org/Graphics/SVG/1.1/DTD/svg11.dtd">
<svg version="1.1" id="Layer_1" xmlns="http://www.w3.org/2000/svg" xmlns:xlink="http://www.w3.org/1999/xlink" x="0px" y="0px"
	 width="198.539px" height="121.221px" viewBox="0 0 198.539 121.221" enable-background="new 0 0 198.539 121.221"
	 xml:space="preserve">
<g>
	<g>
		<path fill="#FFFFFF" d="M45.89,55.631v68.86H1.479c0.19-1.24,0.12-2.33-0.14-3.27H0v-9.67c-0.09,0.09-0.18,0.18-0.26,0.27v-4.74
			c-0.23,0.28-0.47,0.55-0.72,0.82c0.25-0.58,0.49-1.15,0.72-1.71c0.09-0.22,0.17-0.43,0.26-0.65v-49.91H45.89z"/>
		<g>
			<linearGradient id="SVGID_1_" gradientUnits="userSpaceOnUse" x1="198.5332" y1="91.4182" x2="197.2316" y2="122.2838">
				<stop  offset="0.0515" style="stop-color:#FFEDD1"/>
				<stop  offset="1" style="stop-color:#FFFFFF"/>
			</linearGradient>
			<path fill="url(#SVGID_1_)" d="M198.539,87.24v33.98h-0.909l-0.091-11.67l-0.17-20.44v-0.04
				C197.369,89.071,197.75,88.38,198.539,87.24z"/>
			<linearGradient id="SVGID_2_" gradientUnits="userSpaceOnUse" x1="198.3604" y1="121.925" x2="198.2471" y2="124.6095">
				<stop  offset="0.0515" style="stop-color:#FFEDD1"/>
				<stop  offset="1" style="stop-color:#FFFFFF"/>
			</linearGradient>
			<path fill="url(#SVGID_2_)" d="M198.989,122.931v1.56h-1.33l-0.02-2.96C198.109,121.99,198.56,122.46,198.989,122.931z"/>
			<linearGradient id="SVGID_3_" gradientUnits="userSpaceOnUse" x1="101.167" y1="12.2048" x2="96.086" y2="132.6949">
				<stop  offset="0.0515" style="stop-color:#FFEDD1"/>
				<stop  offset="1" style="stop-color:#FFFFFF"/>
			</linearGradient>
			<path fill="url(#SVGID_3_)" d="M198.539,20.01v39.42c0.16,0.06,0.311,0.12,0.45,0.19v4.51c-0.14,0.23-0.29,0.461-0.45,0.69v19.78
				c0.15-0.04,0.301-0.08,0.45-0.12v2.13c-0.17,0.22-0.31,0.43-0.45,0.63v33.98h-0.909l0.01,0.31c0.47,0.46,0.92,0.93,1.35,1.4v1.56
				H1.479c0.19-1.24,0.12-2.33-0.14-3.27H0v-9.67c-0.09,0.09-0.18,0.18-0.26,0.27v-4.74c-0.23,0.28-0.47,0.55-0.72,0.82
				c0.25-0.58,0.49-1.15,0.72-1.71c0.09-0.22,0.17-0.43,0.26-0.65v-54.93c-0.08,0.01-0.17,0.01-0.26,0.01
				c-0.63,0-1.14-0.18-1.14-0.42c0-0.23,0.51-0.42,1.14-0.42c0.09,0,0.18,0,0.26,0.01v-11.7h-0.26v-10.76
				c-0.59-0.15-1.17-0.28-1.75-0.4c0.28-1.08,0.8-2.4,1.75-3.52c0.08-0.1,0.17-0.19,0.26-0.29V7.711h-0.26v-6.52
				c0.08-0.11,0.17-0.23,0.26-0.34v-0.85h198.54v15.6c0.15-0.04,0.301-0.07,0.45-0.12v4.12
				C198.84,19.74,198.689,19.881,198.539,20.01z"/>
			<linearGradient id="SVGID_4_" gradientUnits="userSpaceOnUse" x1="53.8696" y1="-0.0691" x2="53.8696" y2="-0.0691">
				<stop  offset="0.0515" style="stop-color:#FFEDD1"/>
				<stop  offset="1" style="stop-color:#FFFFFF"/>
			</linearGradient>
			<path fill="url(#SVGID_4_)" d="M53.87-0.07"/>
			<linearGradient id="SVGID_5_" gradientUnits="userSpaceOnUse" x1="35.0098" y1="-0.1399" x2="35" y2="0.0925">
				<stop  offset="0.0515" style="stop-color:#FFEDD1"/>
				<stop  offset="1" style="stop-color:#FFFFFF"/>
			</linearGradient>
			<path fill="url(#SVGID_5_)" d="M32.7-0.269c0.11,0.1,0.21,0.19,0.32,0.27h4.3"/>
			<linearGradient id="SVGID_6_" gradientUnits="userSpaceOnUse" x1="-2.0103" y1="62.1106" x2="186.6592" y2="62.1106">
				<stop  offset="0.0515" style="stop-color:#FFEDD1"/>
				<stop  offset="1" style="stop-color:#FFFFFF"/>
			</linearGradient>
			<path fill="url(#SVGID_6_)" d="M186.659,112.571l-0.56,1.1l-0.05,0.08l-1.37,2.67l-2.47,4.801l-0.141,0.27l-0.31,0.601
				l-1.23,2.399H1.479c0.19-1.24,0.12-2.33-0.14-3.27H0v-9.67c-0.09,0.09-0.18,0.18-0.26,0.27v-4.74c-0.23,0.28-0.47,0.55-0.72,0.82
				c0.25-0.58,0.49-1.15,0.72-1.71c0.09-0.22,0.17-0.43,0.26-0.65v-54.93c-0.08,0.01-0.17,0.01-0.26,0.01
				c-0.63,0-1.14-0.18-1.14-0.42c0-0.23,0.51-0.42,1.14-0.42c0.09,0,0.18,0,0.26,0.01v-11.7h-0.26v-10.76
				c-0.59-0.15-1.17-0.28-1.75-0.4c0.28-1.08,0.8-2.4,1.75-3.52c0.08-0.1,0.17-0.19,0.26-0.29V7.711h-0.26v-6.52
				c0.08-0.11,0.17-0.23,0.26-0.34v-0.85h30.25l2.45-0.27c0.11,0.1,0.21,0.19,0.32,0.27c0.46,0.38,0.93,0.76,1.4,1.11
				c2.03,1.57,4.16,2.99,6.37,4.28c0.15,0.09,0.3,0.18,0.45,0.26c1.07,0.62,2.16,1.21,3.27,1.77c0.3,0.15,0.6,0.3,0.91,0.46
				c3.91,1.9,8.01,3.47,12.21,4.74c24.5,7.46,52.07,5.02,63.121,3.56c7.5,14.12,9.64,25.37,11.75,34.73c0,0.01,0,0.01,0,0.01
				c0.92,4.09,1.84,7.81,3.18,11.25c0,0,0,0,0,0.011c0.27,0.689,0.56,1.35,0.859,2.01c0.431,0.93,0.91,1.85,1.431,2.74
				c0.3,0.52,0.62,1.029,0.96,1.54c1.07,1.59,2.32,3.13,3.82,4.609c2.6,2.58,5.93,5.011,10.31,7.34c2.64,1.421,5.66,2.79,9.12,4.15
				c3.25,1.28,6.35,2.56,9.33,3.85l2.18,3.48L186.659,112.571z"/>
			<g>
				<path fill="#FFFFFF" d="M65.43,7.95l-6.95-0.03l-13.06-0.04l-0.9-0.01h-1.56l-1.78-0.01l-2.36-0.01h-0.01l-10.59-0.04
					l-20.74-0.08L2.76,7.72L0,7.711h-0.26v-6.52c0.08-0.11,0.17-0.23,0.26-0.34c0.23-0.29,0.46-0.57,0.71-0.85h28.41
					c0.23,0.35,0.43,0.68,0.6,0.99c0.71,1.25,0.99,2.12,0.99,2.12s1.19-0.83,3.23-1.78c0.15-0.07,0.31-0.14,0.48-0.22
					c0.84-0.37,1.82-0.76,2.9-1.11l16.55-0.07c0.06,0.02,0.13,0.05,0.19,0.07c1.02,0.37,2.06,0.83,3.1,1.38
					C59.919,2.841,62.709,4.961,65.43,7.95z"/>
				<path fill="#FFFFFF" d="M48.743,39.639c0,0,6.604-11.319,19.112-11.306c12.509,0.013,15.881,6.729,15.881,6.729
					s18.575-12.921,34.727,4.845L48.743,39.639z"/>
			</g>
		</g>
		<g>
			<g>
				<linearGradient id="SVGID_7_" gradientUnits="userSpaceOnUse" x1="119.0537" y1="99.2083" x2="145.1602" y2="42.979">
					<stop  offset="0" style="stop-color:#AABF56"/>
					<stop  offset="1" style="stop-color:#D4DE5F"/>
				</linearGradient>
				<path fill="url(#SVGID_7_)" d="M116.461,80.017c0,0,13.531-34.004,23.5-33.828c9.97,0.179,8.188,21.364-4.096,40.236
					C123.582,105.294,116.461,80.017,116.461,80.017z"/>
				<g>
					<path fill="none" stroke="#85AE28" stroke-width="1.0399" stroke-miterlimit="10" d="M138.987,51.563
						c0,0-6.696,24.589-15.281,36.669"/>
					<polyline fill="none" stroke="#85AE28" stroke-width="1.0399" stroke-miterlimit="10" points="134.813,52.763 136.366,60.436 
						143.262,57.326 					"/>
					<polyline fill="none" stroke="#85AE28" stroke-width="1.0399" stroke-miterlimit="10" points="130.83,59.854 133.452,68.402 
						141.222,65.874 					"/>
					<polyline fill="none" stroke="#85AE28" stroke-width="1.0399" stroke-miterlimit="10" points="127.723,67.721 130.539,75.49 
						137.534,73.839 					"/>
				</g>
				<path opacity="0.6" fill="#004502" d="M145.593,50.751c-1.447,5.688-6.526,18.283-22.813,15.483
					c-3.738,7.295-6.319,13.782-6.319,13.782s7.121,25.277,19.404,6.408C144.719,72.825,148.115,58.028,145.593,50.751z"/>
			</g>
			<g>
				<linearGradient id="SVGID_8_" gradientUnits="userSpaceOnUse" x1="105.5352" y1="100.3098" x2="114.4337" y2="-13.2763">
					<stop  offset="0" style="stop-color:#018C83"/>
					<stop  offset="1" style="stop-color:#D4DE5F"/>
				</linearGradient>
				<path fill="url(#SVGID_8_)" d="M91.065,73.642c0,0,0.93-9.096,10.207-15.592c0,0,0.186,7.052,3.526,9.282
					c0,0,1.3-13.735,4.827-16.704c0,0,4.639,10.95,4.083,18.187l7.796-10.023c0,0,5.938,11.51,0.556,21.902
					C116.679,91.089,91.065,73.642,91.065,73.642z"/>
				<path opacity="0.6" fill="#004502" d="M124.191,68.534c-4.992,2.994-11.478,6.179-16.612,6.283
					c-6.608,0.132-10.259-6.902-11.926-11.446c-4.072,5.245-4.588,10.271-4.588,10.271s25.613,17.447,30.995,7.052
					C124.205,76.552,124.55,72.233,124.191,68.534z"/>
			</g>
			<g>
				<linearGradient id="SVGID_9_" gradientUnits="userSpaceOnUse" x1="159.2793" y1="82.5696" x2="200.625" y2="-5.29">
					<stop  offset="0" style="stop-color:#018C83"/>
					<stop  offset="1" style="stop-color:#D4DE5F"/>
				</linearGradient>
				<path fill="url(#SVGID_9_)" d="M198.989,84.481v2.13c-0.17,0.22-0.31,0.43-0.45,0.63v21.87c-0.329,0.15-0.67,0.29-1,0.44
					c-3.64,1.55-7.47,2.96-11.439,4.119c-0.05,0.021-0.1,0.03-0.16,0.04c-1.77,0.53-3.58,1-5.41,1.41h-0.01
					c-0.54,0.12-1.07,0.24-1.61,0.351c-3.96,0.819-8.029,1.35-12.159,1.52c-4.511,0.19-9.091-0.06-13.7-0.87c0,0-0.011,0-0.021,0
					c-0.83-0.14-1.649-0.31-2.479-0.49c-3.45-0.75-6.9-1.819-10.33-3.25c-0.11-0.05-0.22-0.1-0.33-0.14c0,0,0,0-0.01-0.01
					c-10.891-4.64-21.591-12.98-31.391-26.58h-0.01v-0.01c-0.479-0.66-0.96-1.34-1.44-2.03c0,0,0.461-0.38,1.37-1.04
					c0.15-0.11,0.311-0.22,0.48-0.35c1.29-0.9,3.229-2.19,5.82-3.69c0.439-0.25,0.89-0.5,1.359-0.76c0.55-0.3,1.12-0.61,1.72-0.92
					c0,0,0,0,0.011-0.01c0.779-0.41,1.6-0.83,2.47-1.261c0.54-0.26,1.1-0.52,1.67-0.79c0.33-0.16,0.67-0.31,1.01-0.47
					c0.4-0.18,0.801-0.36,1.2-0.55c1.57-0.68,3.24-1.38,5.021-2.05c1.119-0.44,2.279-0.86,3.489-1.271
					c1.98-0.689,4.07-1.359,6.271-1.979c1.88-0.54,3.83-1.04,5.859-1.511c7.101-1.64,15.141-2.83,24.061-3.149
					c6.95-0.25,13.43,0.31,19.38,1.42c1.6,0.29,3.16,0.62,4.68,0.99c1.271,0.31,2.5,0.64,3.71,0.989
					c0.53,0.15,1.04,0.301,1.551,0.46c0.13,0.04,0.25,0.07,0.369,0.11v16.82C198.689,84.561,198.84,84.521,198.989,84.481z"/>
				<path opacity="0.6" fill="#004502" d="M198.989,84.481v2.13c-0.17,0.22-0.31,0.43-0.45,0.63v21.87c-0.329,0.15-0.67,0.29-1,0.44
					c-3.64,1.55-7.47,2.96-11.439,4.119c-0.05,0.021-0.1,0.03-0.16,0.04c-1.77,0.53-3.58,1-5.41,1.41h-0.01
					c-0.54,0.12-1.07,0.24-1.61,0.351c-3.96,0.819-8.029,1.35-12.159,1.52c-4.511,0.19-9.091-0.06-13.7-0.87c0,0-0.011,0-0.021,0
					c-0.83-0.14-1.649-0.31-2.479-0.49c-3.45-0.75-6.9-1.819-10.33-3.25c-0.11-0.05-0.22-0.1-0.33-0.14c0,0,0,0-0.01-0.01
					c-10.891-4.64-21.591-12.98-31.391-26.58h-0.01v-0.01c-0.479-0.66-0.96-1.34-1.44-2.03c0,0,0.461-0.38,1.37-1.04
					c0.15-0.11,0.311-0.22,0.48-0.35c1.29-0.9,3.229-2.19,5.82-3.69c0.439-0.24,0.89-0.5,1.359-0.76c0.55-0.3,1.12-0.61,1.72-0.92
					c0,0,0,0,0.011-0.01c0.779-0.41,1.6-0.83,2.47-1.261c0.54-0.26,1.1-0.52,1.67-0.79c0.33-0.16,0.67-0.31,1.01-0.47
					c0.33,0.14,0.69,0.28,1.061,0.42l0.01,0.01c1.63,0.641,3.63,1.351,5.97,2.04c2.86,0.851,6.23,1.67,10.07,2.32h0.01
					c3.86,0.66,8.21,1.15,12.99,1.31c8.39,0.29,18.14-0.42,29.02-2.93c1.91-0.439,3.79-0.88,5.641-1.3
					c3.72-0.86,7.33-1.68,10.819-2.42v10.83C198.689,84.561,198.84,84.521,198.989,84.481z"/>
			</g>
		</g>
		<g>
			<g>
				<linearGradient id="SVGID_10_" gradientUnits="userSpaceOnUse" x1="82.1719" y1="117.6672" x2="110.721" y2="-15.5614">
					<stop  offset="0" style="stop-color:#AABF56"/>
					<stop  offset="1" style="stop-color:#D4DE5F"/>
				</linearGradient>
				<path fill="url(#SVGID_10_)" d="M182.5,124.49H1.479c0.19-1.24,0.12-2.33-0.14-3.27H0v-9.67c-0.09,0.09-0.18,0.18-0.26,0.27
					v-4.74c-0.23,0.28-0.47,0.55-0.72,0.82c0.25-0.58,0.49-1.15,0.72-1.71c0.09-0.22,0.17-0.43,0.26-0.65v-54.93
					c-0.08,0.01-0.17,0.01-0.26,0.01c-0.63,0-1.14-0.18-1.14-0.42c0-0.23,0.51-0.42,1.14-0.42c0.09,0,0.18,0,0.26,0.01v-11.7h-0.26
					v-10.76c0.09,0.02,0.17,0.04,0.26,0.06c0.86,0.2,1.74,0.41,2.62,0.64c1.24,0.3,2.5,0.64,3.78,1c0.49,0.13,0.98,0.27,1.48,0.41
					c0.68,0.19,1.37,0.39,2.06,0.6c2.25,0.67,4.47,1.38,6.66,2.14c8.26,2.83,16.17,6.23,23.81,9.97c0.02,0,0.04,0.01,0.06,0.02
					c1.47,0.72,2.93,1.45,4.38,2.2c1.28,0.66,2.56,1.32,3.83,2c0.4,0.21,0.79,0.42,1.19,0.63c1.13,0.61,2.26,1.23,3.38,1.84
					c0,0.01,0,0.01,0,0.01c1.17,0.64,2.34,1.3,3.5,1.96c1.08,0.61,2.15,1.23,3.22,1.85c1.07,0.62,2.14,1.24,3.2,1.87
					c2.11,1.24,4.21,2.5,6.29,3.77c5.5,3.33,10.87,6.7,16.13,9.98c1.41,0.88,2.82,1.75,4.22,2.62c0.53,0.33,1.07,0.66,1.6,0.99h0.01
					v0.01c1.71,1.05,3.41,2.09,5.1,3.11c0.9,0.55,1.8,1.09,2.69,1.63c0.97,0.58,1.94,1.149,2.91,1.72
					c0.881,0.52,1.761,1.03,2.641,1.53c1.38,0.8,2.76,1.58,4.13,2.33c0.58,0.33,1.16,0.64,1.74,0.96
					c0.06,0.04,0.13,0.069,0.189,0.109c0.01,0,0.01,0,0.021,0c0,0,0.01,0,0.01,0.011h0.01c0.34,0.189,0.68,0.369,1.021,0.55
					c0.359,0.189,0.729,0.39,1.09,0.58c0.06,0.029,0.12,0.06,0.18,0.09c0.17,0.1,0.34,0.189,0.51,0.28
					c0.471,0.25,0.94,0.489,1.41,0.729c0.28,0.14,0.55,0.28,0.83,0.41c0.061,0.04,0.12,0.07,0.18,0.1
					c0.07,0.04,0.15,0.07,0.221,0.11c0.779,0.4,1.56,0.78,2.33,1.15c0.21,0.1,0.42,0.199,0.62,0.3c0.1,0.05,0.199,0.1,0.3,0.14
					c0.109,0.061,0.22,0.11,0.319,0.16v0.01h0.011c0.27,0.12,0.52,0.25,0.779,0.37c0.24,0.11,0.471,0.21,0.7,0.311
					c0.24,0.119,0.47,0.229,0.7,0.329c0.06,0.03,0.12,0.061,0.18,0.08c0.16,0.08,0.32,0.15,0.48,0.21
					c0.149,0.07,0.3,0.141,0.439,0.21c0.301,0.131,0.61,0.271,0.92,0.4c0.45,0.2,0.9,0.4,1.351,0.58c0.91,0.39,1.8,0.76,2.71,1.11
					c0.08,0.029,0.17,0.06,0.25,0.1c0.1,0.04,0.2,0.08,0.3,0.12s0.2,0.08,0.3,0.12c0.08,0.029,0.17,0.06,0.25,0.09
					c0.29,0.11,0.58,0.22,0.87,0.33c0.09,0.03,0.17,0.06,0.26,0.1h0.011c0.149,0.05,0.31,0.11,0.46,0.17
					c0.399,0.141,0.81,0.29,1.22,0.44c0.04,0.01,0.08,0.02,0.13,0.04c0.32,0.12,0.62,0.22,0.94,0.33c0.13,0.05,0.27,0.09,0.399,0.13
					c0.101,0.03,0.2,0.06,0.3,0.1c0.091,0.03,0.171,0.061,0.261,0.09c0.26,0.08,0.529,0.171,0.79,0.25
					c0.26,0.091,0.52,0.171,0.779,0.25c0.11,0.03,0.21,0.07,0.311,0.101c0.02,0.02,0.05,0.03,0.069,0.02
					c0.021,0.011,0.051,0.021,0.07,0.021c0.061,0.02,0.13,0.04,0.19,0.05c0.42,0.13,0.85,0.26,1.27,0.37
					c0.12,0.03,0.24,0.06,0.351,0.1c0.189,0.061,0.39,0.11,0.58,0.16c0.14,0.04,0.27,0.07,0.409,0.101
					c0.141,0.039,0.271,0.079,0.41,0.119c0.19,0.051,0.37,0.101,0.55,0.141c0.101,0.02,0.19,0.05,0.29,0.069
					c0.03,0,0.061,0.011,0.091,0.021c0.38,0.1,0.76,0.189,1.13,0.28c0.069,0.02,0.14,0.029,0.21,0.04c0.38,0.1,0.77,0.18,1.16,0.26
					c0.06,0.02,0.119,0.03,0.18,0.03c0.189,0.05,0.38,0.09,0.58,0.13c1.45,0.29,2.899,0.54,4.35,0.739
					c0.58,0.07,1.17,0.15,1.75,0.21c0.82,0.091,1.61,0.19,2.391,0.32c0.449,0.061,0.89,0.141,1.329,0.22
					c0.53,0.091,1.051,0.2,1.561,0.32c0.34,0.061,0.68,0.14,1.01,0.23c0.16,0.029,0.33,0.069,0.49,0.109l0.01,0.011
					c9.46,2.38,15.8,7.31,20.03,13.17c0.76,1.05,1.45,2.13,2.07,3.239c0.149,0.24,0.279,0.48,0.409,0.721
					c1.011,1.88,1.86,3.81,2.551,5.75c0.02,0.069,0.05,0.13,0.069,0.199c0.08,0.221,0.16,0.45,0.23,0.671
					C182.029,122.891,182.279,123.691,182.5,124.49z"/>
				<path opacity="0.6" fill="#004502" d="M168.51,108.58l-19.67,2.641l-8.25,1.109c0,0,0,0-0.011,0l-0.359,0.05l-24.15,3.24
					c-0.01,0-0.02,0-0.02,0l-41.7,5.601l-24.36,3.27H1.479c0.19-1.24,0.12-2.33-0.14-3.27H0v-9.67c-0.09,0.09-0.18,0.18-0.26,0.27
					v-4.74c-0.23,0.28-0.47,0.55-0.72,0.82c0.25-0.58,0.49-1.15,0.72-1.71c0.09-0.22,0.17-0.43,0.26-0.65v-54.93
					c-0.08,0.01-0.17,0.01-0.26,0.01c-0.63,0-1.14-0.18-1.14-0.42c0-0.23,0.51-0.42,1.14-0.42c0.09,0,0.18,0,0.26,0.01v-1.72
					c3.81,0.24,7.97,0.24,12.51-0.03c6.82-0.41,13.75-0.35,20.64,0.07c2.35,0.14,4.68,0.32,7.02,0.54c0.01,0,0.01,0,0.01,0
					c0.06,0.01,0.12,0.01,0.18,0.02c1.51,0.14,3.01,0.3,4.51,0.48c2.91,0.33,5.8,0.72,8.65,1.15c1.08,0.16,2.16,0.33,3.23,0.51
					c1.08,0.61,2.15,1.23,3.22,1.85c1.07,0.62,2.14,1.24,3.2,1.87c2.11,1.24,4.21,2.5,6.29,3.77c5.5,3.33,10.87,6.7,16.13,9.98
					c1.41,0.88,2.82,1.75,4.22,2.62c0.53,0.33,1.07,0.66,1.6,0.99h0.01v0.01c1.71,1.05,3.41,2.09,5.1,3.11
					c0.9,0.55,1.8,1.09,2.69,1.63c0.97,0.58,1.94,1.149,2.91,1.72c0.881,0.52,1.761,1.03,2.641,1.53c1.38,0.8,2.76,1.58,4.13,2.33
					c0.58,0.33,1.16,0.64,1.74,0.96c0.06,0.04,0.13,0.069,0.189,0.109c0.01,0,0.021,0.011,0.03,0.011h0.01
					c0.34,0.189,0.68,0.369,1.021,0.55c0.359,0.189,0.729,0.39,1.09,0.58c0.06,0.029,0.12,0.06,0.18,0.09
					c0.17,0.1,0.34,0.189,0.51,0.28c0.471,0.25,0.94,0.489,1.41,0.729c0.34,0.17,0.67,0.34,1.01,0.51
					c0.07,0.04,0.15,0.07,0.221,0.11c0.779,0.4,1.56,0.78,2.33,1.15c0.21,0.1,0.42,0.199,0.62,0.3c0.1,0.05,0.199,0.1,0.3,0.14
					c0.109,0.061,0.22,0.11,0.319,0.16v0.01h0.011c0.27,0.12,0.52,0.25,0.779,0.37c0.471,0.22,0.931,0.43,1.4,0.64
					c0.06,0.03,0.12,0.061,0.18,0.08c0.311,0.141,0.61,0.28,0.92,0.42c0.301,0.131,0.61,0.271,0.92,0.4c0.45,0.2,0.9,0.4,1.351,0.58
					c0.91,0.39,1.8,0.76,2.71,1.11c0.08,0.029,0.17,0.06,0.25,0.1c0.1,0.04,0.2,0.08,0.3,0.12s0.2,0.08,0.3,0.12
					c0.08,0.029,0.17,0.06,0.25,0.09c0.29,0.11,0.58,0.22,0.87,0.33c0.09,0.03,0.17,0.06,0.26,0.1h0.011
					c0.149,0.05,0.31,0.11,0.46,0.17c0.41,0.16,0.81,0.301,1.22,0.44c0.04,0.01,0.08,0.02,0.13,0.04c0.32,0.12,0.62,0.22,0.94,0.33
					c0.13,0.05,0.27,0.09,0.399,0.13c0.101,0.03,0.2,0.06,0.3,0.1c0.091,0.03,0.171,0.061,0.261,0.09
					c0.529,0.181,1.05,0.341,1.569,0.5c0.11,0.03,0.21,0.07,0.311,0.101c0.02,0.02,0.05,0.03,0.069,0.02
					c0.021,0.011,0.051,0.021,0.07,0.021c0.061,0.02,0.13,0.04,0.19,0.05c0.42,0.13,0.85,0.26,1.27,0.37
					c0.12,0.03,0.24,0.06,0.351,0.1c0.189,0.061,0.39,0.11,0.58,0.16c0.279,0.08,0.55,0.15,0.819,0.22
					c0.19,0.051,0.37,0.101,0.55,0.141c0.101,0.02,0.19,0.05,0.29,0.069c0.03,0,0.061,0.011,0.091,0.021
					c0.38,0.1,0.76,0.189,1.13,0.28c0.069,0.02,0.14,0.029,0.21,0.04c0.38,0.1,0.77,0.18,1.16,0.26c0.06,0.02,0.119,0.03,0.18,0.04
					c0.189,0.04,0.39,0.08,0.58,0.12c1.45,0.29,2.899,0.54,4.35,0.739c0.58,0.07,1.17,0.15,1.75,0.21
					c0.82,0.091,1.61,0.19,2.391,0.32c0.449,0.061,0.89,0.141,1.329,0.22c0.53,0.091,1.051,0.2,1.561,0.32
					c0.34,0.061,0.68,0.14,1.01,0.23c0.16,0.029,0.33,0.069,0.49,0.109l0.01,0.011L168.51,108.58z"/>
				<g>
					<path fill="#FFFFFF" d="M0.879,50.2c0,0.21-0.37,0.37-0.88,0.41c-0.08,0.01-0.17,0.01-0.26,0.01c-0.63,0-1.14-0.18-1.14-0.42
						c0-0.23,0.51-0.42,1.14-0.42c0.09,0,0.18,0,0.26,0.01C0.51,49.841,0.879,50.001,0.879,50.2z"/>
					<ellipse fill="#FFFFFF" cx="49.29" cy="60.163" rx="1.145" ry="0.42"/>
					<ellipse fill="#FFFFFF" cx="16.157" cy="42.6" rx="1.144" ry="0.421"/>
				</g>
				<path opacity="0.6" fill="#004502" d="M154,124.49H1.479c0.19-1.24,0.12-2.33-0.14-3.27H0v-9.67c-0.09,0.09-0.18,0.18-0.26,0.27
					v-4.74c-0.23,0.28-0.47,0.55-0.72,0.82c0.25-0.58,0.49-1.15,0.72-1.71c0.09-0.22,0.17-0.43,0.26-0.65v-48.01
					c2.8,0,5.76-0.04,8.87-0.14c13.68-0.4,25.87,0.85,37.02,3.01c17.24,3.33,31.98,8.81,45.81,13.66c2.53,0.89,5.03,1.75,7.51,2.58
					c0.97,0.58,1.94,1.149,2.91,1.72c0.881,0.52,1.761,1.03,2.641,1.53c1.38,0.8,2.76,1.58,4.13,2.33c0.58,0.33,1.16,0.64,1.74,0.96
					c0.069,0.029,0.14,0.069,0.21,0.109c0,0,0.01,0,0.01,0.011h0.01c0.34,0.189,0.68,0.369,1.021,0.55
					c0.359,0.189,0.729,0.39,1.09,0.58c0.06,0.029,0.12,0.06,0.18,0.09c0.92,0.49,1.83,0.96,2.75,1.42
					c0.91,0.47,1.82,0.92,2.73,1.36c0.21,0.1,0.42,0.199,0.62,0.3c0.1,0.05,0.199,0.1,0.3,0.14c0.1,0.05,0.2,0.09,0.3,0.14h0.01
					c0.5,0.25,1,0.48,1.5,0.711c0.45,0.21,0.91,0.42,1.36,0.619c0.91,0.41,1.81,0.801,2.71,1.19c0.91,0.38,1.81,0.75,2.71,1.11
					c0.08,0.029,0.17,0.06,0.25,0.1c0.1,0.04,0.2,0.08,0.3,0.12s0.2,0.08,0.3,0.12c0.08,0.029,0.17,0.06,0.25,0.09
					c0.29,0.11,0.58,0.22,0.87,0.33c0.09,0.03,0.17,0.06,0.26,0.1h0.011c0.149,0.05,0.31,0.11,0.46,0.17
					c0.399,0.141,0.81,0.29,1.22,0.44c0.04,0.01,0.08,0.02,0.13,0.04c0.45,0.149,0.89,0.31,1.34,0.46c0.101,0.03,0.2,0.06,0.3,0.1
					c0.091,0.03,0.171,0.061,0.261,0.09c0.26,0.08,0.529,0.171,0.79,0.25c0.439,0.141,0.87,0.271,1.31,0.4
					c0.021,0.01,0.03,0.021,0.05,0.01c0.45,0.141,0.891,0.271,1.33,0.4c0.12,0.03,0.24,0.06,0.351,0.1
					c0.33,0.09,0.659,0.181,0.989,0.261c0.41,0.109,0.83,0.22,1.25,0.329c0.03,0,0.061,0.011,0.091,0.021
					c0.449,0.11,0.89,0.21,1.34,0.32c0.449,0.1,0.89,0.199,1.34,0.29v0.01l5.91,15.16l0.66,1.699l1.05,2.71l0.29,0.74l1.89,4.851
					L154,124.49z"/>
			</g>
			<g>
				<g>
					<g>
						<path fill="#4D2547" d="M7.97,35.2l-5.39,0.42c0,0,0.01-1.3,0.01-3.6c0.01-1.11,0.02-2.45,0.03-3.99
							c0.01-1.92,0.02-4.16,0.04-6.64c0.03-3.99,0.06-8.63,0.1-13.67c0.02-2.48,0.04-5.07,0.07-7.72h4.5
							c0.06,2.65,0.11,5.24,0.15,7.73c0.1,4.95,0.19,9.51,0.25,13.44c0.05,2.27,0.08,4.33,0.11,6.12c0.01,0.77,0.03,1.48,0.04,2.15
							C7.939,33.081,7.97,35.2,7.97,35.2z"/>
					</g>
				</g>
				<g>
					<linearGradient id="SVGID_11_" gradientUnits="userSpaceOnUse" x1="-0.0923" y1="39.051" x2="27.3328" y2="8.5357">
						<stop  offset="0.2791" style="stop-color:#219491"/>
						<stop  offset="1" style="stop-color:#D4DE5F"/>
					</linearGradient>
					<path fill="url(#SVGID_11_)" d="M16.609,31.831c0,0.11,0,0.23-0.01,0.35c0,0.17-0.01,0.35-0.03,0.52
						c-0.01,0.18-0.03,0.36-0.06,0.53c-0.02,0.21-0.06,0.42-0.1,0.62c-0.02,0.14-0.05,0.29-0.09,0.43c-0.03,0.17-0.08,0.34-0.12,0.5
						c-0.04,0.17-0.09,0.33-0.14,0.49c-0.09,0.32-0.19,0.63-0.29,0.91c-0.39,1.13-0.77,1.91-0.77,1.91H-0.26v-10.76
						c-0.59-0.15-1.17-0.28-1.75-0.4c0.28-1.08,0.8-2.4,1.75-3.52c0.08-0.1,0.17-0.19,0.26-0.29c0.67-0.72,1.54-1.34,2.66-1.73
						c0.79-0.29,1.71-0.46,2.77-0.48c0.9-0.01,1.66,0.08,2.3,0.26c1.3,0.33,2.11,1,2.59,1.79c0.74,1.18,0.77,2.63,0.65,3.68
						c-0.01,0.1-0.02,0.2-0.04,0.3c-0.09,0.66-0.23,1.1-0.23,1.1c0.15-0.02,0.31-0.04,0.45-0.06c0.29-0.03,0.56-0.06,0.82-0.07
						c1.45-0.06,2.48,0.21,3.19,0.71c0.11,0.07,0.21,0.15,0.3,0.23c0.1,0.09,0.2,0.19,0.28,0.29c0.07,0.09,0.14,0.17,0.2,0.27
						c0.1,0.13,0.17,0.27,0.24,0.41c0.04,0.07,0.07,0.15,0.1,0.23c0.1,0.23,0.17,0.47,0.21,0.72c0.03,0.13,0.05,0.26,0.07,0.4
						c0.01,0.08,0.02,0.17,0.03,0.25C16.6,31.561,16.609,31.691,16.609,31.831z"/>
					<path opacity="0.6" fill="#004502" d="M16.609,31.831c0,0.11,0,0.23-0.01,0.35c0,0.17-0.01,0.35-0.03,0.52
						c-0.01,0.18-0.03,0.36-0.06,0.53c-0.02,0.21-0.06,0.42-0.1,0.62c-0.02,0.14-0.05,0.29-0.09,0.43c-0.03,0.17-0.08,0.34-0.12,0.5
						c-0.04,0.17-0.09,0.33-0.14,0.49c-0.09,0.32-0.19,0.63-0.29,0.91c-0.39,1.13-0.77,1.91-0.77,1.91H-0.26V33.2
						c0.09-0.03,0.17-0.05,0.26-0.08c0.94-0.29,1.8-0.66,2.59-1.1c1.49-0.82,2.76-1.86,3.81-2.99c0.53-0.57,1.01-1.15,1.44-1.74
						c1.14-1.55,1.95-3.11,2.48-4.33c0.74,1.18,0.77,2.63,0.65,3.68c-0.01,0.1-0.02,0.2-0.04,0.3c-0.09,0.66-0.23,1.1-0.23,1.1
						c0.15-0.02,0.31-0.04,0.45-0.06c0.29-0.03,0.56-0.06,0.82-0.07c1.45-0.06,2.48,0.21,3.19,0.71c0.11,0.07,0.21,0.15,0.3,0.23
						c0.1,0.09,0.2,0.19,0.28,0.29c0.07,0.09,0.14,0.17,0.2,0.27c0.1,0.13,0.17,0.27,0.24,0.41c0.04,0.07,0.07,0.15,0.1,0.23
						c0.1,0.23,0.17,0.47,0.21,0.72c0.03,0.13,0.05,0.26,0.07,0.4c0.01,0.08,0.02,0.17,0.03,0.25
						C16.6,31.561,16.609,31.691,16.609,31.831z"/>
				</g>
			</g>
			<g>
				<g>
					<g>
						<linearGradient id="SVGID_12_" gradientUnits="userSpaceOnUse" x1="41.0093" y1="26.093" x2="54.5477" y2="-81.0264">
							<stop  offset="0.1403" style="stop-color:#6AA465"/>
							<stop  offset="1" style="stop-color:#D4DE5F"/>
						</linearGradient>
						<path fill="url(#SVGID_12_)" d="M56.45,0.001c0.26,0.45,0.5,0.91,0.71,1.38c0.19,0.42,0.36,0.85,0.51,1.29
							c0.54,1.54,0.82,3.19,0.82,4.91c0,0.11,0,0.23-0.01,0.34c-0.03,1.65-0.33,3.23-0.85,4.7c-1.93,5.49-6.94,9.53-12.95,10.05
							c-0.44,0.04-0.88,0.06-1.33,0.06c-0.85,0-1.69-0.07-2.5-0.21c-7.1-1.18-12.53-7.3-12.63-14.71c-0.01-0.08-0.01-0.15-0.01-0.23
							c0-2.36,0.54-4.59,1.51-6.59c0.16-0.34,0.34-0.67,0.53-0.99"/>
						<linearGradient id="SVGID_13_" gradientUnits="userSpaceOnUse" x1="53.8701" y1="-0.0691" x2="53.8701" y2="-0.0691">
							<stop  offset="0.1403" style="stop-color:#6AA465"/>
							<stop  offset="1" style="stop-color:#D4DE5F"/>
						</linearGradient>
						<path fill="url(#SVGID_13_)" d="M53.87-0.07"/>
						<linearGradient id="SVGID_14_" gradientUnits="userSpaceOnUse" x1="34.9517" y1="0.323" x2="35.2518" y2="-2.0521">
							<stop  offset="0.1403" style="stop-color:#6AA465"/>
							<stop  offset="1" style="stop-color:#D4DE5F"/>
						</linearGradient>
						<path fill="url(#SVGID_14_)" d="M32.7-0.269c0.11,0.1,0.21,0.19,0.32,0.27h4.3"/>
						<linearGradient id="SVGID_15_" gradientUnits="userSpaceOnUse" x1="41.9316" y1="10.5369" x2="45.0616" y2="-14.2281">
							<stop  offset="0.1403" style="stop-color:#6AA465"/>
							<stop  offset="1" style="stop-color:#D4DE5F"/>
						</linearGradient>
						<path fill="url(#SVGID_15_)" d="M53.87-0.07c-0.01,0.03-0.03,0.05-0.05,0.07c-0.24,0.36-0.5,0.69-0.78,1.02
							c-2.18,2.57-5.18,4.28-8.55,4.59c-0.37,0.04-0.75,0.06-1.14,0.06c-0.72,0-1.42-0.06-2.11-0.19c-0.15-0.02-0.3-0.05-0.45-0.09
							c-1.22-0.26-2.39-0.71-3.47-1.32v-0.01c-0.06-0.02-0.12-0.06-0.17-0.09c-1.19-0.7-2.27-1.59-3.21-2.64
							c-0.38-0.42-0.73-0.86-1.05-1.33c-0.08-0.09-0.14-0.18-0.19-0.27c0.11,0.1,0.21,0.19,0.32,0.27h4.3"/>
					</g>
					<path opacity="0.6" fill="#004502" d="M51.22,0.001c0.58,0.37,1.19,0.71,1.82,1.02c1.41,0.69,2.95,1.25,4.63,1.65
						c0.54,1.54,0.82,3.19,0.82,4.91c0,0.11,0,0.23-0.01,0.34c-0.03,1.65-0.33,3.23-0.85,4.7c-1.93,5.49-6.94,9.53-12.95,10.05
						c-0.44,0.04-0.88,0.06-1.33,0.06c-0.85,0-1.69-0.07-2.5-0.21c-7.1-1.18-12.53-7.3-12.63-14.71c-0.01-0.08-0.01-0.15-0.01-0.23
						c0-2.36,0.54-4.59,1.51-6.59c0.16-0.34,0.34-0.67,0.53-0.99"/>
					<path opacity="0.6" fill="#004502" d="M32.7-0.269c0.11,0.1,0.21,0.19,0.32,0.27h4.3"/>
					<g>
						<path fill="#4D2547" d="M44.41,0.001c0.03,1.85,0.06,3.72,0.08,5.61c0.01,0.6,0.02,1.2,0.02,1.81
							c0.01,0.15,0.01,0.3,0.01,0.45c0.06,4.99,0.11,10.01,0.16,14.8c0.07,6.85,0.11,13.24,0.15,18.45
							c0.01,1.14,0.01,2.23,0.02,3.25c0.01,1.81,0.02,3.42,0.02,4.78c0.01,0.66,0.01,1.26,0.01,1.8c0.02,2,0.02,3.13,0.02,3.13
							l-4.63-0.36c0,0,0.03-1.82,0.08-4.94c0-0.03,0-0.07,0.01-0.11c0.02-1.78,0.06-3.98,0.11-6.5v-0.06
							c0.1-5.38,0.23-12.22,0.38-19.59c0.09-4.07,0.18-8.31,0.29-12.56c0.01-0.7,0.02-1.41,0.04-2.1c0.01-0.14,0.01-0.28,0.01-0.42
							c0.02-0.6,0.03-1.19,0.05-1.79v-0.17c0.05-1.84,0.09-3.67,0.14-5.48"/>
						<path fill="#4D2547" d="M37.161,3.563c0,0,0.859,4.102,5.8,4.073l0.021,3.499C42.981,11.135,36.805,7.974,37.161,3.563z"/>
						<path fill="#4D2547" d="M43.5-0.479"/>
					</g>
				</g>
				<g>
					<linearGradient id="SVGID_16_" gradientUnits="userSpaceOnUse" x1="36.4824" y1="58.7292" x2="64.9213" y2="27.086">
						<stop  offset="0.2791" style="stop-color:#219491"/>
						<stop  offset="1" style="stop-color:#D4DE5F"/>
					</linearGradient>
					<path fill="url(#SVGID_16_)" d="M33.972,55.632h18.186c0,0,4.799-9.806-3.646-8.508c0,0,1.95-6.125-4.454-6.033
						c-6.403,0.094-6.589,6.868-6.589,6.868s-2.134-1.948-4.27,0.092C31.064,50.093,33.972,55.632,33.972,55.632z"/>
					<path opacity="0.6" fill="#004502" d="M37.682,46.491c-0.197,0.856-0.214,1.469-0.214,1.469s-2.134-1.948-4.27,0.092
						c-2.134,2.041,0.773,7.581,0.773,7.581h18.186c0,0,0.936-1.915,1.253-3.942C45.096,52.519,40.218,49.203,37.682,46.491z"/>
				</g>
			</g>
			<g>
				<g>
					<g>
						<linearGradient id="SVGID_17_" gradientUnits="userSpaceOnUse" x1="187.9883" y1="39.7161" x2="208.3081" y2="-70.6886">
							<stop  offset="0.2791" style="stop-color:#219491"/>
							<stop  offset="1" style="stop-color:#D4DE5F"/>
						</linearGradient>
						<path fill="url(#SVGID_17_)" d="M198.989,15.481v4.12c-0.149,0.14-0.3,0.28-0.45,0.41v15.45c-0.319,0.07-0.64,0.14-0.97,0.2
							c-0.78,0.15-1.59,0.22-2.42,0.22c-0.68,0-1.35-0.05-2.01-0.15c-6.51-0.97-11.5-6.58-11.5-13.35c0-3.86,1.62-7.34,4.21-9.79
							c2.04-1.94,4.68-3.25,7.62-3.62c0.55-0.06,1.109-0.1,1.68-0.1c0.61,0,1.21,0.04,1.8,0.12c0.54,0.07,1.07,0.17,1.59,0.32v6.29
							C198.689,15.561,198.84,15.531,198.989,15.481z"/>
						<linearGradient id="SVGID_18_" gradientUnits="userSpaceOnUse" x1="185.6689" y1="26.5759" x2="195.5597" y2="-27.1637">
							<stop  offset="0.2791" style="stop-color:#219491"/>
							<stop  offset="1" style="stop-color:#D4DE5F"/>
						</linearGradient>
						<path fill="url(#SVGID_18_)" d="M198.539,0.001v15.6c-0.46,0.12-0.939,0.21-1.42,0.28c-0.649,0.09-1.3,0.14-1.97,0.14
							c-0.6,0-1.2-0.04-1.79-0.11c-2.8-0.36-5.37-1.54-7.51-3.32c-3.5-2.92-5.85-7.45-6.14-12.59H198.539z"/>
					</g>
					<path opacity="0.6" fill="#004502" d="M198.989,15.481v4.12c-0.149,0.14-0.3,0.28-0.45,0.41v15.45
						c-0.319,0.07-0.64,0.14-0.97,0.2c-0.78,0.15-1.59,0.22-2.42,0.22c-0.68,0-1.35-0.05-2.01-0.15c-6.51-0.97-11.5-6.58-11.5-13.35
						c0-3.86,1.62-7.34,4.21-9.79c-3.5-2.92-5.85-7.45-6.14-12.59h18.829v15.6C198.689,15.561,198.84,15.531,198.989,15.481z"/>
					<g>
						<path fill="#4D2547" d="M198.26,73.301l-5.391,0.42c0,0,0.011-1.29,0.011-3.591c0.01-1.09,0.02-2.399,0.029-3.909
							c0.011-1.94,0.021-4.21,0.04-6.74c0.04-6.55,0.11-14.85,0.19-23.75c0.06-6.43,0.14-13.18,0.22-19.82
							c0.04-2.33,0.07-4.65,0.11-6.94v-0.72c0.02-1.18,0.04-2.35,0.06-3.51c0.03-1.61,0.05-3.19,0.08-4.74h3.09
							c0.09,2.91,0.17,5.92,0.25,8.99c0.061,2.27,0.12,4.57,0.17,6.89c0.021,0.74,0.04,1.48,0.051,2.22
							c0.029,0.98,0.06,1.96,0.08,2.94c0.109,4.93,0.22,9.86,0.319,14.62c0.181,8.86,0.34,17.11,0.45,23.61
							c0.04,2.27,0.08,4.33,0.1,6.13c0.021,0.81,0.04,1.57,0.051,2.27C198.229,71.231,198.26,73.301,198.26,73.301z"/>
						<path fill="#4D2547" d="M198.989,17.381v2.22c-0.149,0.14-0.3,0.28-0.45,0.41c-0.439,0.39-0.88,0.73-1.289,1.03
							c-1.19,0.86-2.141,1.35-2.141,1.35l0.021-4.07c0.76,0,1.439-0.08,2.04-0.22c0.51-0.12,0.96-0.28,1.369-0.47
							C198.699,17.551,198.85,17.47,198.989,17.381z"/>
						<path fill="#4D2547" d="M187.82-0.02c0,0,0.947,4.787,6.701,4.818l-0.023,4.071C194.498,8.869,187.351,5.112,187.82-0.02z"/>
					</g>
				</g>
				<g>
					<linearGradient id="SVGID_19_" gradientUnits="userSpaceOnUse" x1="184.9111" y1="78.1653" x2="218.259" y2="41.0599">
						<stop  offset="0.2791" style="stop-color:#219491"/>
						<stop  offset="1" style="stop-color:#D4DE5F"/>
					</linearGradient>
					<path fill="url(#SVGID_19_)" d="M198.989,59.62v4.51c-0.14,0.23-0.29,0.461-0.45,0.69v11.37H183.81c0,0,0,0-0.01-0.01
						c0-0.011-0.011-0.021-0.011-0.03c-0.09-0.17-0.449-0.89-0.819-1.87c-0.08-0.18-0.15-0.38-0.22-0.58
						c-0.04-0.109-0.08-0.22-0.12-0.34c-0.051-0.16-0.11-0.33-0.16-0.51c-0.01-0.04-0.021-0.08-0.04-0.13
						c-0.03-0.13-0.07-0.271-0.11-0.41c-0.069-0.3-0.14-0.62-0.2-0.931c-0.29-1.59-0.229-3.189,0.771-4.14
						c2.52-2.41,5.05-0.11,5.05-0.11s0.021-0.8,0.29-1.899c0.46-1.89,1.65-4.66,4.72-5.75c0.79-0.28,1.71-0.45,2.771-0.47
						c0.899-0.01,1.66,0.08,2.3,0.26c0.19,0.04,0.36,0.09,0.52,0.16C198.699,59.49,198.85,59.551,198.989,59.62z"/>
					<path opacity="0.6" fill="#004502" d="M198.539,64.821v11.37H183.81c0,0,0,0-0.01-0.01c0-0.011-0.011-0.021-0.011-0.03
						c-0.09-0.17-0.449-0.89-0.819-1.87c-0.08-0.18-0.15-0.38-0.22-0.58c-0.04-0.109-0.08-0.22-0.12-0.34
						c-0.051-0.16-0.11-0.33-0.16-0.51c-0.01-0.04-0.021-0.08-0.04-0.13c-0.03-0.13-0.07-0.271-0.11-0.41
						c-0.069-0.3-0.14-0.62-0.2-0.931c4.48,0.99,8.011,0.261,10.761-1.25c1.46-0.8,2.699-1.819,3.739-2.92
						c0.561-0.59,1.061-1.199,1.5-1.81C198.27,65.21,198.409,65.011,198.539,64.821z"/>
				</g>
			</g>
		</g>
		<g>
			<linearGradient id="SVGID_20_" gradientUnits="userSpaceOnUse" x1="101.8711" y1="137.4788" x2="90.1622" y2="-31.1295">
				<stop  offset="0" style="stop-color:#6AA465"/>
				<stop  offset="1" style="stop-color:#E3ED65"/>
			</linearGradient>
			<path fill="url(#SVGID_20_)" d="M198.539,121.221h-0.909l0.01,0.31c0.47,0.46,0.92,0.93,1.35,1.4v1.56H1.479
				c0.19-1.24,0.12-2.33-0.14-3.27H0v-9.67c-0.09,0.09-0.18,0.18-0.26,0.27v-4.74c-0.23,0.28-0.47,0.55-0.72,0.82
				c0.25-0.58,0.49-1.15,0.72-1.71c0.09-0.22,0.17-0.43,0.26-0.65v-45.52c4.12-0.11,8.44-0.03,12.98,0.26c0.01,0,0.01,0,0.01,0
				c0.27,0.02,0.54,0.04,0.81,0.06c5.29,0.37,10.86,1.04,16.73,2.06c5.36,0.93,10.47,1.96,15.36,3.06
				c23.61,5.341,42.12,12.46,58.07,18.49c0.55,0.21,1.1,0.42,1.649,0.62c0.48,0.18,0.96,0.36,1.44,0.54
				c0.479,0.18,0.96,0.36,1.43,0.53v0.01h0.01c0.67,0.25,1.34,0.5,2.011,0.75c0.989,0.37,1.979,0.729,2.96,1.08
				c0.05,0.02,0.1,0.04,0.149,0.06c1.03,0.37,2.05,0.74,3.07,1.09c0,0,0.01,0.011,0.02,0.011c1.021,0.359,2.03,0.71,3.03,1.05
				c0.04,0.02,0.08,0.03,0.12,0.04c0.58,0.2,1.15,0.39,1.71,0.57c0.39,0.13,0.78,0.25,1.16,0.38c1.12,0.359,2.22,0.71,3.319,1.029
				c0.511,0.16,1.021,0.311,1.521,0.45c0.71,0.21,1.41,0.41,2.11,0.601c0.01,0,0.01,0,0.01,0c0.34,0.1,0.67,0.18,1,0.27
				c0.46,0.12,0.92,0.24,1.38,0.35c0.75,0.19,1.49,0.37,2.229,0.53c0.471,0.11,0.94,0.22,1.41,0.311
				c0.09,0.02,0.181,0.04,0.271,0.05c0.02,0.02,0.05,0.03,0.069,0.02c0.021,0.011,0.051,0.021,0.07,0.021
				c0.03,0.01,0.05,0.01,0.08,0.01c0.021,0.01,0.03,0.021,0.05,0.01c0.57,0.13,1.15,0.24,1.721,0.34
				c0.47,0.091,0.949,0.181,1.42,0.25c0.5,0.101,1,0.181,1.5,0.24c0.489,0.08,0.97,0.15,1.46,0.21c0.479,0.061,0.96,0.12,1.449,0.17
				c0.4,0.051,0.801,0.09,1.2,0.12c1.05,0.11,2.101,0.181,3.15,0.22c0.399,0.021,0.8,0.04,1.2,0.04
				c5.66,0.16,11.35-0.439,17.25-2.02c1.06-0.28,2.12-0.58,3.189-0.88c1.29-0.36,2.59-0.74,3.91-1.12c4.67-1.37,9.5-2.86,14.47-4.33
				c0.75-0.229,1.511-0.45,2.271-0.67c1-0.3,2.01-0.59,3.03-0.88c1.67-0.48,3.369-0.96,5.079-1.42c0.15-0.04,0.301-0.08,0.45-0.12
				v2.13c-0.17,0.22-0.31,0.43-0.45,0.63V121.221z"/>
			<path opacity="0.6" fill="#004502" d="M198.989,122.931v1.56H1.479c0.19-1.24,0.12-2.33-0.14-3.27H0v-9.67
				c-0.09,0.09-0.18,0.18-0.26,0.27v-4.74c-0.23,0.28-0.47,0.55-0.72,0.82c0.25-0.58,0.49-1.15,0.72-1.71
				c0.09-0.22,0.17-0.43,0.26-0.65V83.681c2.49,0.12,5.15,0.149,7.98,0.06h0.01c0.87-0.03,1.74-0.07,2.64-0.12
				c0.18-0.01,0.36-0.02,0.54-0.029c0.18-0.011,0.37-0.021,0.56-0.04c1.72-0.11,3.51-0.261,5.35-0.46
				c4.8-0.5,10.01-1.311,15.68-2.461c3.97-0.81,8.43-1.289,13.13-1.52c25.52-1.24,58.07,4.84,58.07,4.84
				c0.55,0.21,1.1,0.42,1.649,0.62c0.48,0.18,0.96,0.36,1.44,0.54c0.479,0.18,0.96,0.36,1.43,0.54h0.01
				c0.67,0.25,1.34,0.5,2.011,0.75c0.989,0.37,1.979,0.729,2.96,1.08c0.05,0.02,0.1,0.04,0.149,0.06c1.03,0.37,2.05,0.74,3.07,1.09
				c0,0,0.01,0.011,0.02,0.011c1.021,0.359,2.03,0.71,3.03,1.05c0.04,0.02,0.08,0.03,0.12,0.04c0.58,0.2,1.15,0.39,1.71,0.57
				c0.01,0.01,0.01,0.01,0.01,0.01c0.391,0.12,0.771,0.25,1.15,0.37c1.12,0.359,2.22,0.71,3.319,1.029
				c0.511,0.16,1.021,0.311,1.521,0.45c0.71,0.21,1.41,0.41,2.11,0.601c0.01,0,0.01,0,0.01,0c0.34,0.1,0.67,0.18,1,0.27
				c0.46,0.12,0.92,0.24,1.38,0.35c0.75,0.19,1.49,0.37,2.229,0.53c0.471,0.11,0.94,0.22,1.41,0.311
				c0.09,0.02,0.181,0.04,0.271,0.05c0.02,0.02,0.05,0.03,0.069,0.02c0.021,0.011,0.051,0.021,0.07,0.021
				c0.03,0.01,0.05,0.01,0.08,0.01c0.021,0.01,0.03,0.021,0.05,0.01c0.57,0.13,1.15,0.24,1.721,0.34
				c0.47,0.091,0.949,0.181,1.42,0.25c0.5,0.101,1,0.181,1.5,0.24c0.489,0.08,0.97,0.15,1.46,0.21c0.479,0.061,0.96,0.12,1.449,0.17
				c0.4,0.051,0.801,0.09,1.2,0.12c1.05,0.11,2.101,0.181,3.15,0.22c0.399,0.021,0.8,0.04,1.2,0.04
				c5.66,0.16,11.35-0.439,17.25-2.02c1.06-0.28,2.12-0.58,3.189-0.88c1.29-0.36,2.59-0.74,3.91-1.12c4.67-1.37,9.5-2.86,14.47-4.33
				c0.75-0.229,1.511-0.45,2.271-0.67c1-0.3,2.01-0.59,3.03-0.88c1.189,1.01,2.479,2.04,3.909,3.09c0.381,0.27,0.771,0.55,1.17,0.83
				v31.28h-0.909l0.01,0.31C198.109,121.99,198.56,122.46,198.989,122.931z"/>
			<g>
				<ellipse fill="#FFFFFF" cx="1.332" cy="69.205" rx="1.145" ry="0.422"/>
				<ellipse fill="#FFFFFF" cx="31.578" cy="74.364" rx="1.145" ry="0.422"/>
				<ellipse fill="#FFFFFF" cx="42.205" cy="69.692" rx="1.145" ry="0.421"/>
				<ellipse fill="#FFFFFF" cx="61.547" cy="83.128" rx="1.144" ry="0.42"/>
				<ellipse fill="#FFFFFF" cx="74.675" cy="77.363" rx="1.145" ry="0.421"/>
				<path fill="#FFFFFF" d="M190.993,94.19c-0.636,0-1.146,0.189-1.146,0.422s0.51,0.422,1.146,0.422
					c0.629,0,1.144-0.189,1.144-0.422S191.622,94.19,190.993,94.19z"/>
				<ellipse fill="#FFFFFF" cx="195.287" cy="105.665" rx="1.145" ry="0.421"/>
				<ellipse fill="#FFFFFF" cx="86.288" cy="88.222" rx="1.144" ry="0.421"/>
			</g>
			<path opacity="0.6" fill="#0B700B" d="M198.989,122.931v1.56H28.669l-1.52-3.27l-6.71-14.45v-0.01l-3.66-7.881
				c0,0,11.05-5,29.11-6.14c0.75-0.05,1.53-0.09,2.31-0.13c0.01,0,0.02,0.01,0.03,0c12.35-0.52,27.69,0.82,44.86,6.58
				c23.4,7.85,36.11,11.63,46.791,13.04c0.01,0.01,0.01,0.01,0.01,0.01c0.229,0.03,0.46,0.061,0.689,0.09c0.011,0,0.011,0,0.011,0
				c3.05,0.38,5.949,0.561,8.91,0.59c5.949,0.07,12.109-0.479,20.189-1.319c2.38-0.25,4.62-0.271,6.74-0.09
				c3.51,0.27,6.68,1.06,9.51,2.199c0.04,0.011,0.08,0.03,0.11,0.04c4.59,1.851,8.319,4.591,11.27,7.471
				c0.11,0.1,0.21,0.199,0.32,0.31C198.109,121.99,198.56,122.46,198.989,122.931z"/>
		</g>
		<g>
			<path fill="#004502" d="M0,111.551v7.27c-0.08-0.09-0.17-0.18-0.26-0.27v-6.73C-0.181,111.731-0.09,111.641,0,111.551z"/>
			<linearGradient id="SVGID_21_" gradientUnits="userSpaceOnUse" x1="94.4668" y1="132.5227" x2="108.5481" y2="66.8102">
				<stop  offset="0.2674" style="stop-color:#98C050"/>
				<stop  offset="1" style="stop-color:#D4DE5F"/>
			</linearGradient>
			<path fill="url(#SVGID_21_)" d="M195.149,124.49H1.479c0.19-1.24,0.12-2.33-0.14-3.27H0v-9.67c1.46-1.49,3.04-2.971,4.74-4.431
				c0.25-0.22,0.51-0.439,0.77-0.649c1.16-0.971,2.37-1.92,3.64-2.841c0.35-0.26,0.7-0.51,1.06-0.76c1.44-1,2.95-1.97,4.52-2.88
				c8.49-4.92,18.87-8.24,31.16-7.54c0.04,0.01,0.08,0.01,0.12,0.01c0.74,0.04,1.47,0.101,2.19,0.15c0.01,0,0.02,0.01,0.03,0
				c24.65,2,39.14,12.07,55.25,18.78c0.53,0.22,1.07,0.439,1.6,0.649c0.131,0.061,0.271,0.11,0.4,0.16
				c0.79,0.32,1.59,0.62,2.39,0.91c1.24,0.45,2.5,0.88,3.771,1.28c0.56,0.18,1.13,0.35,1.689,0.51c0.57,0.16,1.15,0.32,1.721,0.47
				c0.33,0.09,0.67,0.17,1,0.25c0,0,0.01,0,0.02,0c0.3,0.08,0.61,0.15,0.92,0.221c0.5,0.119,1.011,0.229,1.53,0.34
				c0.04,0.01,0.09,0.02,0.14,0.029c0.49,0.101,0.98,0.19,1.48,0.28c0.82,0.15,1.649,0.28,2.49,0.4c0.38,0.06,0.76,0.109,1.14,0.149
				c0.31,0.04,0.62,0.08,0.93,0.11c0.9,0.1,1.82,0.18,2.761,0.24c0.05,0.01,0.1,0.01,0.149,0.01c0.351,0.03,0.71,0.05,1.07,0.06
				c0.229,0.021,0.47,0.03,0.7,0.03c0.34,0.021,0.689,0.03,1.04,0.04c0.869,0.021,1.76,0.021,2.659,0.01
				c0.73-0.01,1.45-0.029,2.16-0.05c0.721-0.01,1.42-0.04,2.12-0.07c0.48-0.02,0.96-0.04,1.43-0.069
				c4.311-0.21,8.311-0.58,12.051-0.98c0.75-0.08,1.479-0.16,2.189-0.25c0.01,0,0.021,0,0.021,0c1.189-0.13,2.35-0.27,3.489-0.41
				c0.801-0.09,1.591-0.18,2.36-0.279c0.78-0.09,1.55-0.17,2.3-0.261c0.471-0.05,0.931-0.1,1.38-0.149
				c5.96-0.65,11.181-0.98,15.921-0.271c0.68,0.101,1.359,0.221,2.02,0.37h0.01c1.431,0.32,2.811,0.74,4.15,1.3
				c2.58,1.07,5.02,2.62,7.38,4.801c0.1,0.09,0.2,0.18,0.3,0.279C193.3,122.391,194.229,123.38,195.149,124.49z"/>
			<path opacity="0.6" fill="#004502" d="M195.149,124.49H1.479c0.19-1.24,0.12-2.33-0.14-3.27H0v-9.67
				c1.46-1.49,3.04-2.971,4.74-4.431c0.25-0.22,0.51-0.439,0.77-0.649c1.16-0.971,2.37-1.92,3.64-2.841
				c0.35-0.26,0.7-0.51,1.06-0.76c1.44-1,2.95-1.97,4.52-2.88c1.04,2.01,2.79,4.45,5.71,6.771v0.01c4.74,3.78,12.56,7.28,25.45,8.18
				c4.36,0.311,9.29,0.32,14.88-0.06c16.3-1.101,30.54-2.4,42.71-3.5c0.53,0.22,1.07,0.439,1.6,0.649
				c0.131,0.061,0.271,0.11,0.4,0.16c0.79,0.311,1.59,0.62,2.39,0.91c1.24,0.45,2.5,0.88,3.771,1.28c0.56,0.18,1.13,0.35,1.689,0.51
				c0.57,0.16,1.15,0.32,1.721,0.47c0.33,0.09,0.67,0.17,1,0.25c0,0,0.01,0,0.02,0c0.3,0.08,0.61,0.15,0.92,0.221
				c0.5,0.119,1.011,0.229,1.53,0.34c0.04,0.01,0.09,0.02,0.14,0.029c0.49,0.101,0.98,0.19,1.48,0.28c0.82,0.15,1.649,0.28,2.49,0.4
				c0.38,0.06,0.76,0.109,1.14,0.149c0.31,0.04,0.62,0.08,0.93,0.11c0.9,0.1,1.82,0.18,2.761,0.24c0.05,0.01,0.1,0.01,0.149,0.01
				c0.351,0.03,0.71,0.05,1.07,0.06c0.229,0.021,0.47,0.03,0.7,0.03c0.34,0.021,0.689,0.03,1.04,0.04
				c0.869,0.021,1.76,0.021,2.659,0.01c0.73-0.01,1.45-0.029,2.16-0.05c0.721-0.01,1.42-0.04,2.12-0.07
				c0.48-0.02,0.96-0.04,1.43-0.069c4.311-0.21,8.311-0.58,12.051-0.98c0.75-0.08,1.479-0.16,2.189-0.25c0.01,0,0.021,0,0.021,0
				c1.189-0.13,2.35-0.27,3.489-0.41c0.801-0.09,1.591-0.18,2.36-0.279c0.78-0.09,1.55-0.17,2.3-0.261
				c0.471-0.05,0.931-0.1,1.38-0.149c1.351,0.66,2.74,1.33,4.171,1.97c3.979,1.79,8.319,3.41,13.38,4.23
				c0.46,0.069,0.93,0.14,1.399,0.199c0.181,0.021,0.36,0.051,0.54,0.07c3.13,0.36,6.54,0.41,10.29,0.01
				C193.3,122.391,194.229,123.38,195.149,124.49z"/>
		</g>
		<g>
			<g>
				<path fill="none" stroke="#065C5F" stroke-width="1.0399" stroke-miterlimit="10" d="M13.81,66.901c0,0-0.03,0.9-0.17,2.47v0.01
					c-0.14,1.561-0.39,3.79-0.83,6.45c-0.01,0-0.01,0.011-0.01,0.011c-0.07,0.46-0.15,0.939-0.24,1.43
					c-0.36,1.95-0.81,4.08-1.39,6.32c-0.06,0.22-0.11,0.439-0.18,0.67c-0.15,0.58-0.31,1.159-0.49,1.76
					c-0.81,2.8-1.83,5.71-3.08,8.59c-0.38,0.84-0.76,1.68-1.18,2.51c-1.68,3.41-3.74,6.71-6.24,9.67
					c-0.08,0.101-0.16,0.19-0.26,0.29"/>
				<g>
					<path fill="#065C5F" d="M6.313,97.287c0,0,9.46-3.118,7.798-5.764c-1.663-2.646-6.806,3.213-6.806,3.213
						s0.942-8.046-1.97-7.407C2.424,87.97,6.313,97.287,6.313,97.287z"/>
					<path fill="#065C5F" d="M10.709,86.109c0,0,8.367-1.495,6.541-5.375c-0.906-1.923-6.501,3.768-6.501,3.768
						s-1.007-8.652-2.584-8.033C6.587,77.084,6.042,84.418,10.709,86.109z"/>
					<path fill="#065C5F" d="M12.55,77.281c0,0,5.404-2.853,4.364-4.708c-1.041-1.854-4.132,3.298-4.132,3.298
						s-0.606-6.826-3.053-6.318C7.282,70.062,11.104,76.778,12.55,77.281z"/>
					<path fill="#065C5F" d="M13.662,69.432c0,0,3.538-8.106,0.065-9.122C10.253,59.294,13.662,69.432,13.662,69.432z"/>
				</g>
			</g>
			<g>
				<linearGradient id="SVGID_22_" gradientUnits="userSpaceOnUse" x1="-5.2397" y1="106.5071" x2="4.6742" y2="85.1541">
					<stop  offset="0" style="stop-color:#AABF56"/>
					<stop  offset="1" style="stop-color:#D4DE5F"/>
				</linearGradient>
				<path fill="url(#SVGID_22_)" d="M0,105.54v-20.64C4.01,87.601,3.91,95.54,0,105.54z"/>
				<g>
					<line fill="none" stroke="#85AE28" stroke-width="1.0399" stroke-miterlimit="10" x1="0.12" y1="95" x2="0" y2="95.051"/>
				</g>
			</g>
			<g>
				<linearGradient id="SVGID_23_" gradientUnits="userSpaceOnUse" x1="0.1836" y1="120.8811" x2="2.7614" y2="116.3188">
					<stop  offset="0.1856" style="stop-color:#037477"/>
					<stop  offset="1" style="stop-color:#D4DE5F"/>
				</linearGradient>
				<path fill="url(#SVGID_23_)" d="M1.339,121.221H0v-2.4C0.62,119.49,1.08,120.29,1.339,121.221z"/>
				<path opacity="0.6" fill="#004502" d="M1.339,121.221H0v-2.4C0.62,119.49,1.08,120.29,1.339,121.221z"/>
			</g>
		</g>
	</g>
</g>
<path fill="#224C58" d="M183.543,103.144c-1.003-0.278-1.449,0.336-2.899,1.116c0,0-0.678,0.643-0.503,1.005
	c0,0-6.258,1.057-9.363-4c0.77-0.238,1.5-0.622,2-1.243c0,0-2.287-7.477-3.403-10.154c0,0,1.004-0.057,1.786-0.446
	c0,0-0.239-1.33-0.527-3.084c1.474-0.301,4.609-1.213,4.822-3.554c0.206-2.27-2.026-4.72-3.204-5.843
	c0.159-0.266,0.288-0.501,0.358-0.685c0,0-4.296-4.741-5.021-4.575c0,0-1.115-1.507-4.406-1.617l-0.446-1.172
	c0,0,6.693-0.837,8.146-8.758c0,0,1.003,0,1.171-1.617c0.168-1.619-0.334-2.456-1.004-1.898c0,0,1.395-3.403-0.057-6.136
	c-1.448-2.734-4.238-5.188-9.705-5.467c-5.469-0.278-6.975,1.283-7.254,1.395c-0.278,0.112-1.673,0.056-1.896-0.39
	c0,0-0.502,1.115-0.111,1.729c0,0-0.781-0.167-0.892-0.501c0,0-0.336,0.669,0.111,1.283c0,0-3.683,3.347-0.837,10.655
	c0,0-0.837,0.167,0.055,2.01c0.893,1.84,1.228,1.394,1.563,1.227c0,0,1.785,6.525,9.262,6.638l0.278,1.227
	c0,0-2.009,0.335-2.455,1.006c0,0-2.788,1.059-5.801,3.346l0.714,1.006c-1.155,0.917-3.229,2.285-5.345,2.285
	c-3.181,0-5.189-4.854-5.189-4.854c0.586-1.254,0.085-2.76,0.085-2.76s0.334-0.586-0.335-2.176c-0.67-1.59-3.18-2.343-3.18-2.343
	c-11.631-11.464-14.812-26.862-15.146-27.699c-0.336-0.836-1.173-1.422-1.173-1.422c-1.339-0.418-4.435-1.757-4.435-1.757v-1.674
	c1.005-0.585,2.176-1.84,2.176-1.84s6.024,4.352,9.874-0.335c3.849-4.686,3.096-18.744-4.185-23.011S112.359,8.81,112.359,8.81
	c-5.772-1.674-5.689,8.368-6.526,13.305s-3.933,5.606-3.933,5.606c3.681,5.021,8.368,2.093,8.368,2.093
	c2.845,4.352,7.364,4.017,7.364,4.017v1.088c-1.089,1.003-3.264,1.506-3.85,1.589c-0.587,0.084-1.256,0.586-1.256,0.586
	c-3.08,1.842-6.617,3.17-9.932,4.119c-6.77-1-11.354-3.137-11.734-3.491c-0.572-0.53-0.695-0.449-0.695-0.449
	c-1.798-2.371-4.577-2.084-4.577-2.084c-1.431-2.411-3.105-2.411-3.105-2.411l-0.204-1.879c7.682,0.246,9.766-8.785,9.766-8.785
	c0.572,0.613,1.308-0.164,1.635-1.921c0.327-1.757-0.327-2.083-0.327-2.083s0.572-0.899,0.613-1.594
	c0.041-0.694,0.164-1.552,0.327-2.492c0.163-0.94-0.695-1.594-0.695-1.594s0.981-0.572,2.084-2.329
	c1.103-1.757,0.45-6.661-5.884-8.336C83.466,0.089,79.42,1.723,79.175,1.846c-0.246,0.123-0.736,0.163-0.94,0.163
	c-0.205,0-0.94,0.613-1.104,0.899c-0.163,0.286-0.409,0.164-0.531,0.164s-0.818,0.654-1.021,1.267
	c-0.205,0.612,0.286,1.553,0.041,1.839c-0.246,0.286-0.858-0.531-1.512,0c-0.653,0.531-1.594,3.105-1.675,5.434
	c-0.082,2.33,0.694,4.005,0.694,4.005c-1.185-0.286-1.267,1.471-0.98,2.86c0.286,1.39,1.308,1.348,1.308,1.348
	c1.063,9.93,7.151,10.87,7.151,10.87l0.163,2.329c-2.615,0.45-2.86,2.37-2.86,2.37c-2.411,0.654-2.778,1.798-2.778,1.798
	c-0.654-0.082-1.021,0.777-1.021,0.777s-1.512,6.823-4.944,15.854c-3.432,9.03-10.869,15.69-10.869,15.69l0.327,0.49
	c0,0-1.961,0.205-2.983,1.268c-1.021,1.063-0.653,2.328-0.653,2.328c-0.531,1.961,0.858,3.188,0.858,3.188s-0.818,5.065-1.717,5.475
	c-0.899,0.408-4.495-5.148-4.495-5.148s0.654-0.694,0.777-1.471c0.122-0.776-0.082-2.37-1.921-2.819
	c-1.839-0.45-3.064,0.94-3.064,0.94c-0.776-1.022-2.166-1.146-2.166-1.146l0.041-0.613c0,0,2.656,0.123,5.271-2.002
	c2.615-2.124,2.738-5.557,2.738-5.557c0.572,0.203,1.063-0.858,1.267-2.002c0.204-1.145-0.327-1.185-0.327-1.185
	c1.063-3.147-0.368-6.579-0.368-6.579c0.163-0.287,1.43-1.063,2.248,0.327c0.817,1.389,2.574,1.512,2.574,1.512
	c-0.531-0.287-0.817-1.349-0.572-2.657c0.245-1.308,0.245-4.291-2.738-5.067c-3.925-1.021-4.944,1.716-4.944,1.716
	s-1.552-1.226-4.291-1.267c-5.028-0.075-6.701,3.228-6.701,3.228c-3.228-0.45-4.699,1.839-4.699,1.839s-1.634-2.534-4.822-1.104
	c-3.187,1.43-1.797,5.067-0.817,6.087c0.981,1.022,1.39,2.412,0.409,2.82c0,0,1.961,0.083,2.288-1.756s0.817-1.676,1.348-2.003
	c0,0-0.572,3.189,1.472,5.476c0,0-0.776,0.326,0.163,2.002c0.94,1.676,1.349,1.593,1.553,1.185c0,0,2.819,4.945,7.845,4.985
	l-0.041,0.613c0,0-1.267,0.246-1.634,0.694c0,0-1.063-2.084-3.31-1.388c-2.248,0.693-2.084,2.613-1.635,3.432
	c0,0-4.658,2.613-4.291,4.82s3.678,4.903,3.678,4.903s-2.37,3.434-6.701,7.111c0,0,2.167,2.033,6.889,3.439
	c-0.717,1.644-2.21,4.134-3.05,3.782c-1.408-0.586-7.462-2.414-7.937-2.544c-0.475-0.13-0.388-1.595-0.388-1.595
	c-0.345-1.425-1.51-0.863-1.51-0.863c-4.098,0.517-8.065,2.588-7.979,3.104c0.086,0.519,0.949,0.475,0.949,0.475
	c3.278-0.473,7.053,0.302,9.187,0.776c7.16,1.598,7.117,2.935,8.541,2.374c1.522-0.601,2.983-3.529,3.677-5.11
	c1.437,0.345,3.065,0.623,4.902,0.778c1.156,0.098,2.24,0.138,3.253,0.132c0.3,2.231,0.592,8.244-2.342,19.125
	c0,0-0.819,2.241,0.819,2.415c1.639,0.173,7.418,0.475,7.98-0.088c0,0,0.518-0.818-0.647-1.206
	c-1.165-0.389-5.867-0.604-5.823-2.458c0.041-1.733,2.565-12.015,1.453-17.826c6.106-0.301,9.253-2.238,9.486-2.504
	c0,0-7.6-7.029-8.745-16.509c0,0,0.817,0.326,1.512-0.04c0,0,4.454,7.149,6.17,6.578s2.493-6.743,2.493-6.743
	s1.594-0.571,1.798-2.818c0,0,1.471-0.777,1.43-2.941c0,0,10.142-6.213,13.489-18.681c0,0,0.418,17.991,0.251,18.577
	c-0.167,0.586,0.167,0.837,0.167,0.837l2.26-0.084c-0.335,6.862,0.753,41.505,0.753,41.505c0.241,0.143,0.495,0.258,0.756,0.35
	c-1.659,2.318-6.289,3.097-7.09,3.579c-0.863,0.518-0.344,1.553-0.344,1.553c2.544,0.517,11.861-0.174,12.25-0.346
	c0.388-0.173,0.043-1.077,0.043-1.077c0.56-1.381-0.216-2.288-0.302-2.676c-0.05-0.224-0.143-0.663-0.212-0.995
	c0.317-0.074,0.507-0.135,0.507-0.135c-0.168-3.85-0.335-38.41-0.335-38.41c1.088,1.172,2.845,0.166,2.845,0.166
	c0.502,3.349,2.511,38.326,2.511,38.326c0.156,0.057,0.319,0.101,0.487,0.138c-0.067,0.318-0.149,0.705-0.195,0.91
	c-0.086,0.388-0.863,1.295-0.302,2.676c0,0-0.345,0.904,0.043,1.077c0.389,0.172,9.706,0.862,12.25,0.346
	c0,0,0.518-1.035-0.345-1.553c-0.815-0.489-5.597-1.288-7.176-3.705c0.317-0.079,0.509-0.14,0.509-0.14
	c0.585-9.205-1.927-41.626-1.927-41.626c2.615,0.042,2.982-0.245,2.982-0.245c-0.861-3.573-2.147-20.081-2.668-27.143
	c1.171-0.097,3.426-0.341,6.367-0.921c6.813,1.587,13.469,1.118,16.073,0.833c0.262,0.839,0.55,1.607,0.847,2.158
	c1.171,2.176,1.003,5.44,1.003,5.44c-9.622,8.619-15.313,35.563-15.313,35.563c4.519,2.286,8.798,3.561,12.745,4.152
	c0.648,4.203,2.224,14.632,2.401,17.857c0.223,4.071-2.734,5.912-4.186,7.308c-1.126,1.082-2.844,1.061-2.565,1.729
	c0.279,0.67,4.185,0.502,5.523-0.39c1.339-0.893,1.784-2.064,2.23-2.01c0.447,0.057,0.502,2.176,0.502,2.176h0.614
	c0,0,0.168-1.394,0.279-2.063c0.11-0.669,0.893-1.617-0.057-3.682c-0.859-1.872-0.894-13.05-0.269-20.525
	c1.304,0.034,2.561,0.002,3.767-0.088c0.632,7.476,0.602,18.734-0.262,20.613c-0.948,2.064-0.167,3.013-0.056,3.682
	c0.111,0.67,0.279,2.063,0.279,2.063h0.613c0,0,0.056-2.119,0.502-2.176c0.447-0.055,0.893,1.117,2.23,2.01
	c1.34,0.892,5.246,1.06,5.524,0.39c0.278-0.668-1.439-0.646-2.566-1.729c-1.45-1.396-4.407-3.236-4.185-7.308
	c0.182-3.31,1.837-14.205,2.45-18.174c7.7-1.564,12.39-5.09,12.39-5.09c-4.269-21.004-16.234-34.225-16.234-34.225
	c-0.251-1.172-0.334-3.097,0.418-5.105c0.753-2.008,1.59-5.271,1.59-5.271c5.857,18.158,13.641,23.179,13.976,23.765
	c0.334,0.586,0.334,0.921,0.334,0.921c-0.419,3.85,1.255,4.101,1.255,4.101c0.754,2.76,2.26,2.594,2.26,2.594
	s1.339,5.02,5.521,5.856c2.979,0.596,5.912-1.436,7.358-2.655l0.816,1.15l1.506-0.949c0,0-0.559,5.522-2.566,10.935
	c0,0,0.613,0.39,1.004,0.613c0,0-2.677,8.537-3.682,11.659c0,0,0.606,0.603,1.901,1.148c-0.489,2.287-0.939,7.253,2.115,13.523
	c0,0-0.559,1.061-1.115,1.284c-0.559,0.222-5.301,0.613-5.245,3.401c0,0-0.056,0.446,0.726,0.446s8.089,0.112,8.871,0
	c0.781-0.111,0.892-2.397-0.112-4.071c0,0-0.446-0.837-0.67-0.502c0,0-3.757-6.471-2.529-13.467
	c0.401,0.081,0.835,0.146,1.303,0.188c0,0,2.846-7.141,4.185-11.771c0,0,0.781,0.392,1.505,0.111c0,0,3.292,9.037,4.186,10.935
	c0,0,0.634,0.071,1.5,0.029c0.967,1.854,3.963,6.034,11.274,5.772c0,0,2.119,1.004,3.18,1.786c0.483,0.355,2.119,3.236,3.96,2.678
	c0,0,0.274,0.227,0.67-0.447C188.124,110.729,184.304,103.357,183.543,103.144z M35.879,83.65c0,0-3.198-2.239-2.699-4.117
	c0.5-1.879,3.358-3.038,3.358-3.038s1.06,0.899,2.539,0.318C39.078,76.813,38.438,80.032,35.879,83.65z M91.456,43.387
	c-0.067-0.922-0.104-1.456-0.104-1.456c0.868,0.425,1.756,0.797,2.655,1.127C92.891,43.225,92.016,43.328,91.456,43.387z
	 M107.33,41.676c1.736-0.61,3.537-1.321,5.365-2.155c0,0,0.159,0.876,0.425,2.067C111.106,41.748,109.169,41.763,107.33,41.676z
	 M170.156,79.881c0,0,0.661-0.841,1.306-1.751c0.935,0.904,2.65,2.778,2.487,4.207c-0.15,1.309-2.232,1.99-3.587,2.298
	c-0.274-1.76-0.539-3.646-0.653-4.976L170.156,79.881z"/>
<path fill="#004502" d="M-0.26,23.41v3.92c-0.59-0.15-1.17-0.28-1.75-0.4C-1.73,25.851-1.21,24.531-0.26,23.41z"/>
<path fill="#004502" d="M-0.26,49.781v0.84c-0.63,0-1.14-0.18-1.14-0.42C-1.4,49.97-0.891,49.781-0.26,49.781z"/>
<path fill="#004502" d="M-0.26,106.191v0.89c-0.23,0.28-0.47,0.55-0.72,0.82C-0.73,107.321-0.49,106.75-0.26,106.191z"/>
</svg>
