<?xml version="1.0" encoding="utf-8"?>
<!-- Generator: Adobe Illustrator 16.0.0, SVG Export Plug-In . SVG Version: 6.00 Build 0)  -->
<!DOCTYPE svg PUBLIC "-//W3C//DTD SVG 1.1//EN" "http://www.w3.org/Graphics/SVG/1.1/DTD/svg11.dtd">
<svg version="1.1" id="Layer_1" xmlns="http://www.w3.org/2000/svg" xmlns:xlink="http://www.w3.org/1999/xlink" x="0px" y="0px"
	 width="198.129px" height="121.221px" viewBox="0.41 0 198.129 121.221" enable-background="new 0.41 0 198.129 121.221"
	 xml:space="preserve">
<g>
	<g>
		<g>
			
				<linearGradient id="SVGID_1_" gradientUnits="userSpaceOnUse" x1="420.7666" y1="-312.0115" x2="418.1783" y2="-373.3893" gradientTransform="matrix(1 0 0 -1 -247.6602 -248.7388)">
				<stop  offset="0.0515" style="stop-color:#FFEDD1"/>
				<stop  offset="1" style="stop-color:#FFFFFF"/>
			</linearGradient>
			<path fill="url(#SVGID_1_)" d="M198.63,56.041v65.33h-54.95l-0.01-1.641l-0.061-6.649l-0.101-11.33v-0.01
				c0,0,0.66-1.221,2.109-2.87c1.45-1.66,3.69-3.75,6.841-5.49c0.01,0,0.01,0,0.01,0c1.77-0.989,3.84-1.859,6.221-2.47
				c1.34-0.351,2.779-0.62,4.33-0.771c0.229-0.03,0.469-0.05,0.709-0.07c0.01,0,0.01,0,0.021,0c0.85-0.069,1.738-0.109,2.648-0.109
				c0.461,0,0.91-0.029,1.352-0.08c1.359-0.159,2.609-0.569,3.779-1.189c0.729-0.37,1.42-0.83,2.08-1.37
				c0.72-0.55,1.399-1.199,2.061-1.909c0.04-0.04,0.08-0.091,0.13-0.13c0.819-0.91,1.601-1.91,2.351-2.99
				c1.26-1.8,2.43-3.811,3.57-5.891c0.27-0.47,0.529-0.949,0.789-1.43c0.35-0.65,0.689-1.301,1.051-1.95
				c0.129-0.25,0.27-0.51,0.399-0.76c0.63-1.17,1.261-2.33,1.909-3.471C189.26,62.811,193.039,57.51,198.63,56.041z"/>
			
				<linearGradient id="SVGID_2_" gradientUnits="userSpaceOnUse" x1="349.0127" y1="-260.5706" x2="344.0492" y2="-378.2743" gradientTransform="matrix(1 0 0 -1 -247.6602 -248.7388)">
				<stop  offset="0.0515" style="stop-color:#FFEDD1"/>
				<stop  offset="1" style="stop-color:#FFFFFF"/>
			</linearGradient>
			<path fill="url(#SVGID_2_)" d="M0.41,0.001h198.22v110.56c-2.479,0.37-4.92,0.75-7.301,1.12c-12.71,2.01-23.71,4.021-30.13,5.949
				c-4.25,1.28-6.5,2.54-5.93,3.74H0.41V0.001z"/>
			<g>
				<path fill="#FFFFFF" d="M31.737,56.626c0,0,3.661-8.362,10.594-8.355c6.934,0.007,8.804,5.819,8.804,5.819
					s10.295-7.162,19.249,2.686L31.737,56.626z"/>
				<path fill="#FFFFFF" d="M61.132,74.339c0,0,3.66-6.274,10.594-6.269c6.933,0.01,8.804,3.731,8.804,3.731
					s10.295-7.163,19.248,2.686L61.132,74.339z"/>
				<path fill="#FFFFFF" d="M0.542,31.708c0,0,3.661-6.274,10.594-6.268c6.934,0.009,8.804,3.729,8.804,3.729
					s10.295-7.162,19.248,2.686L0.542,31.708z"/>
			</g>
		</g>
		<g>
			<g>
				
					<linearGradient id="SVGID_3_" gradientUnits="userSpaceOnUse" x1="340.2725" y1="-356.7078" x2="345.205" y2="-293.7463" gradientTransform="matrix(1 0 0 -1 -247.6602 -248.7388)">
					<stop  offset="0" style="stop-color:#1D998D"/>
					<stop  offset="1" style="stop-color:#E5E880"/>
				</linearGradient>
				<path fill="url(#SVGID_3_)" d="M84.592,93.187c0,0,0.514-5.042,5.659-8.643c0,0,0.103,3.91,1.954,5.145
					c0,0,0.72-7.613,2.675-9.259c0,0,2.572,6.069,2.263,10.081l4.321-5.555c0,0,3.292,6.378,0.31,12.14
					C98.789,102.857,84.592,93.187,84.592,93.187z"/>
				<path opacity="0.6" fill="#155B15" enable-background="new    " d="M102.953,90.357c-2.768,1.658-6.361,3.425-9.208,3.481
					c-3.663,0.074-5.687-3.825-6.61-6.346c-2.257,2.908-2.543,5.693-2.543,5.693s14.197,9.67,17.182,3.909
					C102.961,94.798,103.152,92.406,102.953,90.357z"/>
			</g>
			<g>
				
					<linearGradient id="SVGID_4_" gradientUnits="userSpaceOnUse" x1="375.585" y1="-349.1975" x2="398.7971" y2="-299.8717" gradientTransform="matrix(1 0 0 -1 -247.6602 -248.7388)">
					<stop  offset="0" style="stop-color:#1D998D"/>
					<stop  offset="1" style="stop-color:#E5E880"/>
				</linearGradient>
				<path fill="url(#SVGID_4_)" d="M93.444,98.712c0,0,12.313-10.172,34.263-10.976c21.951-0.804,35.337,13.115,35.337,13.115
					S121.283,139.132,93.444,98.712z"/>
				<path opacity="0.6" fill="#155B15" enable-background="new    " d="M163.044,100.853c0,0-4.707-4.893-13.112-8.709
					c-4.547,0.766-9.535,1.94-14.892,3.176c-16.339,3.771-28.052,0.198-32.774-1.758c-5.77,2.631-8.821,5.15-8.821,5.15
					C121.283,139.132,163.044,100.853,163.044,100.853z"/>
			</g>
		</g>
		<g>
			<g>
				
					<linearGradient id="SVGID_5_" gradientUnits="userSpaceOnUse" x1="310.5508" y1="-368.2834" x2="328.5629" y2="-284.2274" gradientTransform="matrix(1 0 0 -1 -247.6602 -248.7388)">
					<stop  offset="0" style="stop-color:#CEE085"/>
					<stop  offset="1" style="stop-color:#E5E880"/>
				</linearGradient>
				<path fill="url(#SVGID_5_)" d="M117.044,106.205c-23.032-2.497-45.788-27.75-77.422-37.186
					c-24.988-7.453-35.776-0.709-39.208,2.454v49.897h134.861C133.383,114.583,128.604,107.458,117.044,106.205z"/>
				<path opacity="0.6" fill="#155B15" enable-background="new    " d="M127.518,112.554l-6.721-5.682
					c-1.165-0.293-2.411-0.521-3.753-0.667c-16.228-1.761-32.318-14.815-51.473-25.676c-7.9-1.295-16.354-2.028-24.524-1.534
					c-20.361,1.23-26.85-7.644-28.892-12.768C5.769,67.36,2.15,69.874,0.415,71.474v49.897h61.41L127.518,112.554z"/>
				<g>
					<ellipse fill="#FFFFFF" cx="20.041" cy="70.176" rx="0.634" ry="0.233"/>
					<ellipse fill="#FFFFFF" cx="33.969" cy="80.195" rx="0.634" ry="0.235"/>
					<ellipse fill="#FFFFFF" cx="61.435" cy="85.715" rx="0.634" ry="0.233"/>
					<ellipse fill="#FFFFFF" cx="21.324" cy="76.281" rx="0.634" ry="0.234"/>
					<ellipse fill="#FFFFFF" cx="43.07" cy="75.98" rx="0.635" ry="0.233"/>
					<ellipse fill="#FFFFFF" cx="3.894" cy="76.783" rx="0.634" ry="0.233"/>
				</g>
				<path opacity="0.6" fill="#155B15" enable-background="new    " d="M113.341,105.61c-7.929-1.661-15.882-5.771-24.234-10.764
					C75.361,90.259,60.49,83.547,39.032,84.178c-25.983,0.763-32.414-4.221-38.618-6.592v43.786h119.064L113.341,105.61z"/>
			</g>
			<g>
				<g>
					<g>
						
							<linearGradient id="SVGID_6_" gradientUnits="userSpaceOnUse" x1="257.9619" y1="-310.1921" x2="267.3216" y2="-236.136" gradientTransform="matrix(1 0 0 -1 -247.6602 -248.7388)">
							<stop  offset="0.1403" style="stop-color:#84B57F"/>
							<stop  offset="1" style="stop-color:#E5E880"/>
						</linearGradient>
						<path fill="url(#SVGID_6_)" d="M22.639,21.528c0,2.298-1.062,4.35-2.723,5.682c-1.25,1.01-2.839,1.612-4.568,1.612
							c-1.315,0-2.551-0.349-3.616-0.963c-0.335-0.187-0.654-0.406-0.952-0.648c-1.661-1.332-2.723-3.384-2.723-5.682
							c0-2.38,1.137-4.49,2.9-5.822c0.147-0.113,0.298-0.216,0.456-0.318c1.137-0.726,2.486-1.15,3.935-1.15
							c2.654,0,4.976,1.417,6.25,3.538C22.259,18.87,22.639,20.153,22.639,21.528z"/>
						
							<linearGradient id="SVGID_7_" gradientUnits="userSpaceOnUse" x1="261.6494" y1="-310.658" x2="271.0104" y2="-236.5917" gradientTransform="matrix(1 0 0 -1 -247.6602 -248.7388)">
							<stop  offset="0.1403" style="stop-color:#84B57F"/>
							<stop  offset="1" style="stop-color:#E5E880"/>
						</linearGradient>
						<path fill="url(#SVGID_7_)" d="M23.751,51.174c0,4.64-3.763,8.405-8.404,8.405c-4.64,0-8.404-3.766-8.404-8.405
							c0-2.396,1.003-4.563,2.617-6.089c1.507-1.435,3.541-2.314,5.788-2.314s4.281,0.88,5.787,2.314
							C22.749,46.612,23.751,48.777,23.751,51.174z"/>
						
							<linearGradient id="SVGID_8_" gradientUnits="userSpaceOnUse" x1="259.834" y1="-310.429" x2="269.1942" y2="-236.3689" gradientTransform="matrix(1 0 0 -1 -247.6602 -248.7388)">
							<stop  offset="0.1403" style="stop-color:#84B57F"/>
							<stop  offset="1" style="stop-color:#E5E880"/>
						</linearGradient>
						<path fill="url(#SVGID_8_)" d="M24.971,36.577c0,2.072-0.534,4.007-1.465,5.645c-0.624,1.105-1.428,2.076-2.371,2.862
							c-1.609,1.339-3.613,2.138-5.787,2.138c-2.175,0-4.178-0.798-5.788-2.138c-2.329-1.945-3.836-5.034-3.836-8.507
							c0-2.802,0.976-5.35,2.579-7.25c0.713-0.85,1.549-1.568,2.477-2.119c0.257-0.158,0.523-0.298,0.797-0.43
							c1.155-0.547,2.432-0.85,3.771-0.85c1.654,0,3.208,0.463,4.568,1.278c1.644,0.979,3,2.475,3.894,4.294
							C24.55,33.013,24.971,34.741,24.971,36.577z"/>
					</g>
					<path opacity="0.6" fill="#155B15" enable-background="new    " d="M23.751,51.174c0,4.64-3.763,8.405-8.404,8.405
						c-4.64,0-8.404-3.766-8.404-8.405c0-2.396,1.003-4.563,2.617-6.089c-2.329-1.945-3.836-5.034-3.836-8.507
						c0-2.802,0.976-5.35,2.579-7.25c0.713-0.85,1.549-1.568,2.477-2.119c-1.661-1.332-2.723-3.384-2.723-5.682
						c0-2.38,1.137-4.49,2.9-5.822c0.147-0.113,0.298-0.216,0.456-0.318c-0.218,2.583-0.417,6.937,0.164,11.395
						c0.044,0.358,0.097,0.72,0.155,1.077c1.085,6.813,4.12,13.563,11.774,14.364c-0.624,1.105-1.428,2.076-2.371,2.862
						C22.749,46.612,23.751,48.777,23.751,51.174z"/>
					<g>
						<path fill="#5B3757" d="M13.119,84.776c0,0,1.009-67.273,2.044-67.232c1.035,0.039,1.31,67.494,1.31,67.494L13.119,84.776z"/>
						<path fill="#5B3757" d="M10.785,31.263c0,0,0.622,2.97,4.201,2.951L15,36.747C15,36.747,10.527,34.459,10.785,31.263z"/>
						<path fill="#5B3757" d="M10.864,45.697c0,0,0.623,2.972,4.202,2.951l0.014,2.533C15.08,51.181,10.606,48.892,10.864,45.697z"
							/>
						<path fill="#5B3757" d="M19.612,37.241c0,0-0.59,2.977-4.169,2.996l0.014,2.533C15.458,42.771,19.905,40.434,19.612,37.241z"
							/>
						<path fill="#5B3757" d="M19.604,24.02c0,0-0.59,2.977-4.169,2.997l0.014,2.533C15.448,29.55,19.896,27.212,19.604,24.02z"/>
					</g>
				</g>
				<g>
					
						<linearGradient id="SVGID_9_" gradientUnits="userSpaceOnUse" x1="256.9639" y1="-345.5051" x2="268.8015" y2="-310.9031" gradientTransform="matrix(1 0 0 -1 -247.6602 -248.7388)">
						<stop  offset="0.2791" style="stop-color:#3AA39E"/>
						<stop  offset="1" style="stop-color:#E5E880"/>
					</linearGradient>
					<path fill="url(#SVGID_9_)" d="M6.783,93.129c0,0-3.787-3.534-1.893-6.667c1.894-3.131,3.205-1.455,3.205-1.455
						s-1.238-5.684,3.277-6.266c4.516-0.582,4.516,3.933,4.516,3.933s1.093-3.859,3.934-3.132c2.841,0.729,0.364,8.887,0.364,8.887
						L6.783,93.129z"/>
					<path opacity="0.6" fill="#155B15" enable-background="new    " d="M6.783,93.129l13.403-4.7c0,0,2.477-8.158-0.364-8.887
						c-0.149-0.037-0.291-0.061-0.43-0.074c-0.649,2.426-3.427,8.616-14.952,9.698C4.859,91.332,6.783,93.129,6.783,93.129z"/>
				</g>
			</g>
			<g>
				<g>
					<g>
						
							<linearGradient id="SVGID_10_" gradientUnits="userSpaceOnUse" x1="278.2012" y1="-301.5867" x2="289.4681" y2="-240.3699" gradientTransform="matrix(1 0 0 -1 -247.6602 -248.7388)">
							<stop  offset="0.2791" style="stop-color:#3AA39E"/>
							<stop  offset="1" style="stop-color:#E5E880"/>
						</linearGradient>
						<path fill="url(#SVGID_10_)" d="M44.88,18.812c0,1.994-0.722,3.819-1.921,5.23c-1.479,1.744-3.688,2.849-6.154,2.849
							c-0.456,0-0.901-0.037-1.332-0.108c-1.922-0.318-3.613-1.319-4.818-2.74c-1.202-1.411-1.925-3.236-1.925-5.23
							c0-4.458,3.616-8.074,8.075-8.074c2.038,0,3.897,0.753,5.318,1.999C43.812,14.214,44.88,16.388,44.88,18.812z"/>
						
							<linearGradient id="SVGID_11_" gradientUnits="userSpaceOnUse" x1="282.625" y1="-302.3948" x2="293.8877" y2="-241.2008" gradientTransform="matrix(1 0 0 -1 -247.6602 -248.7388)">
							<stop  offset="0.2791" style="stop-color:#3AA39E"/>
							<stop  offset="1" style="stop-color:#E5E880"/>
						</linearGradient>
						<path fill="url(#SVGID_11_)" d="M44.295,43.651c0,4.135-3.353,7.487-7.49,7.487c-4.133,0-7.486-3.353-7.486-7.487
							c0-2.136,0.897-4.063,2.332-5.428c1.342-1.277,3.154-2.057,5.154-2.057c1.997,0,3.815,0.779,5.154,2.057
							C43.397,39.583,44.295,41.511,44.295,43.651z"/>
						
							<linearGradient id="SVGID_12_" gradientUnits="userSpaceOnUse" x1="280.3096" y1="-301.9705" x2="291.575" y2="-240.7612" gradientTransform="matrix(1 0 0 -1 -247.6602 -248.7388)">
							<stop  offset="0.2791" style="stop-color:#3AA39E"/>
							<stop  offset="1" style="stop-color:#E5E880"/>
						</linearGradient>
						<path fill="url(#SVGID_12_)" d="M45.38,30.645c0,3.1-1.346,5.85-3.421,7.578c-1.435,1.196-3.219,1.905-5.154,1.905
							s-3.719-0.709-5.154-1.905c-2.076-1.732-3.418-4.481-3.418-7.578c0-0.642,0.059-1.267,0.168-1.873
							c0.329-1.819,1.127-3.45,2.254-4.729c1.558-1.777,3.739-2.88,6.15-2.88c1.154,0,2.25,0.249,3.253,0.708
							c1.099,0.498,2.085,1.24,2.9,2.172C44.459,25.748,45.38,28.077,45.38,30.645z"/>
					</g>
					<path opacity="0.6" fill="#155B15" enable-background="new    " d="M44.295,43.651c0,4.135-3.353,7.487-7.49,7.487
						c-4.133,0-7.486-3.353-7.486-7.487c0-2.136,0.897-4.063,2.332-5.428c-2.076-1.732-3.418-4.481-3.418-7.578
						c0-0.642,0.059-1.267,0.168-1.873c2.935-0.169,5.25-0.901,7.072-1.99c2.13-1.271,3.592-3.025,4.585-4.912
						c1.695-3.216,2.048-6.824,2.065-9.134c1.688,1.478,2.756,3.651,2.756,6.075c0,1.994-0.722,3.819-1.921,5.23
						c1.5,1.706,2.421,4.035,2.421,6.603c0,3.1-1.346,5.85-3.421,7.578C43.397,39.583,44.295,41.511,44.295,43.651z"/>
					<g>
						<path fill="#5B3757" d="M38.53,71.879c0,0-0.899-58.229-1.821-58.195c-0.923,0.036-1.167,58.427-1.167,58.427L38.53,71.879z"
							/>
						<path fill="#5B3757" d="M40.609,25.911c0,0-0.554,2.646-3.744,2.63l-0.012,2.257C36.853,30.798,40.839,28.759,40.609,25.911z"
							/>
						<path fill="#5B3757" d="M40.538,38.771c0,0-0.554,2.647-3.743,2.628l-0.013,2.259C36.782,43.658,40.767,41.618,40.538,38.771z
							"/>
						<path fill="#5B3757" d="M32.744,31.236c0,0,0.525,2.653,3.714,2.672l-0.012,2.256C36.446,36.163,32.483,34.081,32.744,31.236z
							"/>
						<path fill="#5B3757" d="M32.751,19.457c0,0,0.526,2.651,3.715,2.669l-0.013,2.258C36.454,24.384,32.491,22.301,32.751,19.457z
							"/>
					</g>
				</g>
				<g>
					
						<linearGradient id="SVGID_13_" gradientUnits="userSpaceOnUse" x1="279.8242" y1="-324.2527" x2="298.4516" y2="-303.5265" gradientTransform="matrix(1 0 0 -1 -247.6602 -248.7388)">
						<stop  offset="0.2791" style="stop-color:#3AA39E"/>
						<stop  offset="1" style="stop-color:#E5E880"/>
					</linearGradient>
					<path fill="url(#SVGID_13_)" d="M30.519,73.484h11.912c0,0,3.144-6.424-2.388-5.571c0,0,1.276-4.014-2.918-3.951
						c-4.195,0.06-4.316,4.498-4.316,4.498s-1.398-1.278-2.797,0.06C28.613,69.857,30.519,73.484,30.519,73.484z"/>
					<path opacity="0.6" fill="#155B15" enable-background="new    " d="M40.042,67.911c0,0,0.522-1.649-0.207-2.816
						c-1.046,2.389-3.958,7.105-10.254,5.721c0.242,1.344,0.937,2.668,0.937,2.668H42.43C42.431,73.484,45.574,67.06,40.042,67.911z
						"/>
				</g>
			</g>
			<g>
				<g>
					<g>
						
							<linearGradient id="SVGID_14_" gradientUnits="userSpaceOnUse" x1="301.3125" y1="-321.033" x2="309.6445" y2="-255.1083" gradientTransform="matrix(1 0 0 -1 -247.6602 -248.7388)">
							<stop  offset="0.1403" style="stop-color:#84B57F"/>
							<stop  offset="1" style="stop-color:#E5E880"/>
						</linearGradient>
						<path fill="url(#SVGID_14_)" d="M64.635,36.753c0,1.701-0.651,3.246-1.723,4.403c-1.185,1.284-2.884,2.089-4.77,2.089
							c-0.62,0-1.223-0.086-1.792-0.254c-1.158-0.328-2.185-0.975-2.976-1.835c-1.071-1.157-1.722-2.702-1.722-4.403
							c0-2.548,1.472-4.758,3.613-5.816c0.866-0.435,1.843-0.674,2.877-0.674C61.727,30.263,64.635,33.171,64.635,36.753z"/>
						
							<linearGradient id="SVGID_15_" gradientUnits="userSpaceOnUse" x1="304.4473" y1="-316.0413" x2="313.7965" y2="-242.0675" gradientTransform="matrix(1 0 0 -1 -247.6602 -248.7388)">
							<stop  offset="0.1403" style="stop-color:#84B57F"/>
							<stop  offset="1" style="stop-color:#E5E880"/>
						</linearGradient>
						<path fill="url(#SVGID_15_)" d="M66.536,56.571c0,4.638-3.757,8.394-8.394,8.394c-4.634,0-8.39-3.756-8.39-8.394
							c0-2.026,0.715-3.883,1.914-5.335c1.538-1.865,3.867-3.059,6.477-3.059c0.12,0,0.236,0.004,0.353,0.007
							c2.465,0.103,4.657,1.271,6.127,3.051c0.633,0.769,1.133,1.65,1.459,2.61C66.378,54.701,66.536,55.616,66.536,56.571z"/>
						
							<linearGradient id="SVGID_16_" gradientUnits="userSpaceOnUse" x1="303.373" y1="-315.3264" x2="310.5375" y2="-258.6392" gradientTransform="matrix(1 0 0 -1 -247.6602 -248.7388)">
							<stop  offset="0.1403" style="stop-color:#84B57F"/>
							<stop  offset="1" style="stop-color:#E5E880"/>
						</linearGradient>
						<path fill="url(#SVGID_16_)" d="M65.508,47.363c0,1.4-0.322,2.724-0.887,3.873c-0.301,0.616-0.675,1.188-1.106,1.695
							c-1.343,1.586-3.254,2.58-5.374,2.58c-2.798,0-5.233-1.729-6.477-4.274c-0.564-1.149-0.887-2.473-0.887-3.872
							c0-2.486,1.007-4.717,2.596-6.207c0.672-0.634,1.445-1.133,2.291-1.469c0.774-0.306,1.606-0.473,2.477-0.473
							c1.818,0,3.486,0.729,4.77,1.941C64.502,42.646,65.508,44.876,65.508,47.363z"/>
					</g>
					<path opacity="0.6" fill="#155B15" enable-background="new    " d="M66.536,56.571c0,4.638-3.757,8.394-8.394,8.394
						c-4.634,0-8.39-3.756-8.39-8.394c0-2.026,0.715-3.883,1.914-5.335c-0.564-1.149-0.887-2.473-0.887-3.873
						c0-2.485,1.007-4.716,2.596-6.206c-1.071-1.157-1.722-2.702-1.722-4.403c0-2.548,1.472-4.758,3.613-5.816
						c-0.109,2.305-0.099,5.479,0.4,8.75c0.168,1.1,0.391,2.211,0.685,3.305c0.493,1.837,1.185,3.612,2.144,5.192
						c1.205,1.993,2.832,3.671,5.021,4.746c0.78,0.387,1.633,0.696,2.565,0.915C66.378,54.701,66.536,55.616,66.536,56.571z"/>
					<g>
						<path fill="#5B3757" d="M56.438,82.143c0,0,0.771-49.38,1.564-49.35c0.792,0.031,1.002,49.549,1.002,49.549L56.438,82.143z"/>
						<path fill="#5B3757" d="M54.651,43.295c0,0,0.477,2.272,3.216,2.258l0.011,1.94C57.878,47.493,54.454,45.74,54.651,43.295z"/>
						<path fill="#5B3757" d="M54.712,54.341c0,0,0.476,2.274,3.216,2.259l0.01,1.938C57.938,58.539,54.515,56.788,54.712,54.341z"
							/>
						<path fill="#5B3757" d="M61.407,47.869c0,0-0.451,2.278-3.19,2.294l0.01,1.938C58.227,52.103,61.631,50.313,61.407,47.869z"/>
						<path fill="#5B3757" d="M61.401,37.752c0,0-0.452,2.276-3.191,2.292l0.011,1.938C58.22,41.984,61.625,40.195,61.401,37.752z"
							/>
					</g>
				</g>
				<g>
					
						<linearGradient id="SVGID_17_" gradientUnits="userSpaceOnUse" x1="301.9971" y1="-333.6599" x2="317.7598" y2="-316.1211" gradientTransform="matrix(1 0 0 -1 -247.6602 -248.7388)">
						<stop  offset="0.2791" style="stop-color:#3AA39E"/>
						<stop  offset="1" style="stop-color:#E5E880"/>
					</linearGradient>
					<path fill="url(#SVGID_17_)" d="M52.945,83.204h10.08c0,0,2.661-5.438-2.021-4.717c0,0,1.081-3.396-2.469-3.345
						c-3.549,0.053-3.652,3.809-3.652,3.809s-1.183-1.081-2.366,0.051S52.945,83.204,52.945,83.204z"/>
					<path opacity="0.6" fill="#155B15" enable-background="new    " d="M55.001,78.138c-0.109,0.474-0.119,0.813-0.119,0.813
						s-1.183-1.081-2.366,0.051s0.429,4.202,0.429,4.202h10.08c0,0,0.519-1.063,0.695-2.186
						C59.111,81.479,56.407,79.64,55.001,78.138z"/>
				</g>
			</g>
		</g>
		<g>
			
				<linearGradient id="SVGID_18_" gradientUnits="userSpaceOnUse" x1="348.5674" y1="-380.6643" x2="341.5037" y2="-278.947" gradientTransform="matrix(1 0 0 -1 -247.6602 -248.7388)">
				<stop  offset="0" style="stop-color:#84B57F"/>
				<stop  offset="1" style="stop-color:#EFF275"/>
			</linearGradient>
			<path fill="url(#SVGID_18_)" d="M198.63,102.521v18.851H0.41V97.12c0.35-0.29,0.73-0.601,1.13-0.91
				c0.28-0.22,0.58-0.449,0.9-0.681c0.13-0.09,0.26-0.188,0.39-0.279c0.82-0.59,1.73-1.199,2.73-1.811l0.81-0.479
				c0.05-0.029,0.1-0.061,0.15-0.09h0.01c0.22-0.13,0.44-0.261,0.67-0.391c0.59-0.319,1.2-0.649,1.84-0.96
				C9.35,91.36,9.67,91.2,10,91.05c0.66-0.311,1.34-0.62,2.05-0.921c0.35-0.149,0.71-0.289,1.08-0.439
				c0.31-0.13,0.63-0.25,0.96-0.37c1.95-0.72,4.08-1.38,6.39-1.939c5.76-1.39,12.67-2.13,20.82-1.601
				c0.15,0.011,0.3,0.021,0.46,0.04c2.93,0.2,6.02,0.57,9.28,1.131c17.28,2.989,30.03,7.92,40.7,11.949
				c0.25,0.091,0.5,0.19,0.74,0.28c0.59,0.22,1.18,0.439,1.76,0.649c0,0,0,0.011,0.01,0.011c0.32,0.119,0.62,0.239,0.93,0.35
				c0.99,0.37,1.97,0.721,2.92,1.07c0.53,0.18,1.06,0.369,1.58,0.55c0.589,0.2,1.169,0.399,1.74,0.59
				c0.029,0.011,0.051,0.021,0.08,0.021v0.011c1.42,0.46,2.8,0.89,4.159,1.271c0.11,0.029,0.221,0.061,0.329,0.09
				c0.171,0.04,0.341,0.09,0.5,0.13c0.281,0.07,0.551,0.149,0.83,0.21c0.781,0.2,1.541,0.37,2.301,0.53c0.011,0.01,0.021,0,0.021,0
				c0.02,0.01,0.029,0.01,0.039,0.01c0.01,0.011,0.021,0.011,0.021,0.011c0.03,0,0.051,0.01,0.069,0.01
				c0.28,0.061,0.551,0.11,0.82,0.16c0.359,0.069,0.721,0.13,1.08,0.189c0.17,0.029,0.35,0.061,0.529,0.08
				c0.34,0.05,0.681,0.101,1.011,0.141c0.31,0.04,0.619,0.069,0.92,0.1c0.33,0.04,0.67,0.07,1,0.091
				c0.239,0.021,0.479,0.04,0.72,0.05c0.291,0.021,0.57,0.03,0.86,0.04c0.369,0.011,0.75,0.021,1.119,0.021
				c2.83,0,5.681-0.351,8.62-1.141c0.58-0.159,1.17-0.319,1.771-0.489c0.719-0.2,1.449-0.41,2.18-0.62
				c0.479-0.149,0.949-0.29,1.43-0.431c0.949-0.279,1.9-0.569,2.87-0.859c0.399-0.13,0.812-0.25,1.229-0.37
				c1.141-0.34,2.291-0.689,3.461-1.04c0.09-0.029,0.188-0.05,0.279-0.079c0.561-0.16,1.119-0.32,1.689-0.479
				c1.399-0.41,2.82-0.801,4.26-1.181c3.811-0.99,7.761-1.88,11.869-2.49c0.091-0.021,0.182-0.029,0.281-0.039
				c1.609-0.24,3.26-0.431,4.92-0.57c0.35-0.029,0.699-0.061,1.049-0.09c0.111,0,0.23-0.011,0.352-0.021
				c1.51-0.101,3.051-0.16,4.6-0.16c0.391,0,0.781,0,1.181,0.011c2.391,0.029,4.819,0.189,7.312,0.51
				c1.709,0.21,3.449,0.5,5.209,0.88c1.16,0.24,2.34,0.521,3.53,0.841c0.479,0.119,0.96,0.26,1.438,0.399
				C191.02,99.21,194.779,100.651,198.63,102.521z"/>
			<path opacity="0.6" fill="#155B15" enable-background="new    " d="M198.626,111.46c-37.272,1.715-50.397-5.574-57.276-11.415
				c-5.256,1.508-10.219,3.117-14.896,4.371c-11.498,3.08-21.523-0.537-34.715-5.519c0,0-25.299-4.723-39.463-1.838
				c-27.687,5.642-35.932-3.781-38.184-7.739c-6.392,2.379-10.878,5.446-13.676,7.798v24.254h198.212L198.626,111.46L198.626,111.46
				z"/>
			<g>
				<ellipse fill="#FFFFFF" cx="34.853" cy="90.727" rx="0.634" ry="0.233"/>
				<ellipse fill="#FFFFFF" cx="32.671" cy="94.276" rx="0.634" ry="0.233"/>
				<ellipse fill="#FFFFFF" cx="51.618" cy="93.588" rx="0.634" ry="0.234"/>
				<ellipse fill="#FFFFFF" cx="57.508" cy="90.998" rx="0.634" ry="0.233"/>
				<ellipse fill="#FFFFFF" cx="149.895" cy="102.702" rx="0.635" ry="0.233"/>
				<ellipse fill="#FFFFFF" cx="153.721" cy="111.038" rx="0.635" ry="0.233"/>
				<ellipse fill="#FFFFFF" cx="147.715" cy="106.249" rx="0.635" ry="0.234"/>
				<ellipse fill="#FFFFFF" cx="68.229" cy="98.444" rx="0.634" ry="0.233"/>
				<ellipse fill="#FFFFFF" cx="75.506" cy="95.249" rx="0.634" ry="0.234"/>
				<ellipse fill="#FFFFFF" cx="155.855" cy="105.181" rx="0.635" ry="0.233"/>
				<ellipse fill="#FFFFFF" cx="139.98" cy="104.809" rx="0.635" ry="0.234"/>
				<path fill="#FFFFFF" d="M154.451,99.763c-0.348,0-0.635,0.104-0.635,0.233s0.287,0.233,0.635,0.233
					c0.351,0,0.635-0.104,0.635-0.233S154.802,99.763,154.451,99.763z"/>
				<ellipse fill="#FFFFFF" cx="142.361" cy="110.937" rx="0.634" ry="0.233"/>
				<ellipse fill="#FFFFFF" cx="81.943" cy="101.268" rx="0.634" ry="0.234"/>
			</g>
			<path opacity="0.6" fill="#155B15" enable-background="new    " d="M128.176,114.228c-14.602,1.513-17.96,1.344-42.465-6.882
				c-24.506-8.225-42.297-0.168-42.297-0.168l6.59,14.194h95.159C142.044,117.61,136.586,113.359,128.176,114.228z"/>
		</g>
		<g>
			
				<linearGradient id="SVGID_19_" gradientUnits="userSpaceOnUse" x1="331.8916" y1="-375.1443" x2="340.1141" y2="-336.7725" gradientTransform="matrix(1 0 0 -1 -247.6602 -248.7388)">
				<stop  offset="0.2674" style="stop-color:#AECE67"/>
				<stop  offset="1" style="stop-color:#E5E880"/>
			</linearGradient>
			<path fill="url(#SVGID_19_)" d="M28.333,121.372h113.953c-7.945-9.548-17.097-4.097-34.402-3.854
				c-18.624,0.264-26.231-12.59-48.265-13.901C42.673,102.61,32.245,115.406,28.333,121.372z"/>
			<path opacity="0.6" fill="#155B15" enable-background="new    " d="M140.738,119.713c-7.262,0.771-12.161-1.479-16.51-3.593
				c-4.552,0.49-9.879,1.309-16.347,1.398c-6.437,0.092-11.556-1.385-16.41-3.409c-6.749,0.61-14.637,1.33-23.672,1.939
				c-17.922,1.211-23.688-4.731-25.524-8.257c-6.963,4.039-11.612,10.021-13.944,13.579h113.953
				C141.775,120.758,141.26,120.207,140.738,119.713z"/>
		</g>
		<g>
			<g>
				<path fill="none" stroke="#186D6D" stroke-width="1.0399" stroke-miterlimit="10" d="M41.772,89.451
					c0,0-0.654,19.354-12.603,26.309"/>
				<g>
					<path fill="#186D6D" d="M37.613,106.293c0,0,5.245-1.729,4.322-3.194c-0.921-1.468-3.772,1.781-3.772,1.781
						s0.522-4.461-1.092-4.106C35.457,101.128,37.613,106.293,37.613,106.293z"/>
					<path fill="#186D6D" d="M40.05,100.097c0,0,4.638-0.829,3.625-2.979c-0.502-1.065-3.603,2.089-3.603,2.089
						s-0.558-4.797-1.433-4.453C37.765,95.095,37.464,99.16,40.05,100.097z"/>
					<path fill="#186D6D" d="M41.071,95.203c0,0,2.995-1.581,2.418-2.607c-0.577-1.028-2.29,1.826-2.29,1.826
						s-0.336-3.784-1.692-3.501C38.15,91.203,40.27,94.925,41.071,95.203z"/>
					<path fill="#186D6D" d="M41.687,90.853c0,0,1.96-4.494,0.036-5.056C39.797,85.234,41.687,90.853,41.687,90.853z"/>
				</g>
			</g>
			<g>
				
					<linearGradient id="SVGID_20_" gradientUnits="userSpaceOnUse" x1="259.7666" y1="-371.4812" x2="290.2192" y2="-317.5849" gradientTransform="matrix(1 0 0 -1 -247.6602 -248.7388)">
					<stop  offset="0.1856" style="stop-color:#2C7777"/>
					<stop  offset="1" style="stop-color:#E5E880"/>
				</linearGradient>
				<path fill="url(#SVGID_20_)" d="M25.016,116.303c0,0,5.567-7.065-0.535-9.636c-6.102-2.567-9.314,2.569-9.314,2.569
					s1.713-5.354-3.533-7.707c-4.05-1.818-9.118,1.34-11.22,2.873v16.97h34.52C35.88,115.021,25.016,116.303,25.016,116.303z"/>
				<path opacity="0.6" fill="#155B15" enable-background="new    " d="M25.016,116.303c0,0,0.289-0.367,0.663-0.963
					c-15.213-0.125-21.445-8.112-23.595-12.05c-0.661,0.4-1.231,0.793-1.669,1.112v16.97h34.52
					C35.88,115.021,25.016,116.303,25.016,116.303z"/>
			</g>
		</g>
		<g>
			<g>
				<g>
					<g>
						<path fill="none" stroke="#9EBF43" stroke-width="1.0399" stroke-miterlimit="10" d="M170.527,113.943"/>
						<path fill="none" stroke="#9EBF43" stroke-width="1.0399" stroke-miterlimit="10" d="M162.059,93.618"/>
						<path fill="none" stroke="#9EBF43" stroke-width="1.0399" stroke-miterlimit="10" d="M160.816,101.552"/>
						<path fill="none" stroke="#9EBF43" stroke-width="1.0399" stroke-miterlimit="10" d="M166.576,98.216"/>
					</g>
				</g>
			</g>
			<g>
				<path fill="none" stroke="#186D6D" stroke-width="1.0399" stroke-miterlimit="10" d="M184.896,66.666
					c0,0-5.748,18.493,3.25,28.988"/>
				<g>
					<path fill="#186D6D" d="M183.287,83.939c0,0-4.385-3.355-3.03-4.438c1.351-1.081,2.976,2.925,2.976,2.925
						s0.976-4.386,2.384-3.519C187.021,79.77,183.287,83.939,183.287,83.939z"/>
					<path fill="#186D6D" d="M183.023,77.285c0,0-4.107-2.31-2.444-4.006c0.825-0.842,2.716,3.156,2.716,3.156
						s2.105-4.346,2.816-3.732C186.826,73.314,185.771,77.252,183.023,77.285z"/>
					<path fill="#186D6D" d="M183.67,72.329c0,0-2.309-2.479-1.428-3.261c0.884-0.78,1.563,2.479,1.563,2.479s1.562-3.463,2.75-2.75
						C187.744,69.512,184.518,72.329,183.67,72.329z"/>
					<path fill="#186D6D" d="M184.518,68.018c0,0-0.373-4.89,1.631-4.788C188.148,63.333,184.518,68.018,184.518,68.018z"/>
				</g>
			</g>
			<g>
				
					<linearGradient id="SVGID_21_" gradientUnits="userSpaceOnUse" x1="433.9814" y1="-368.7869" x2="404.2568" y2="-308.1293" gradientTransform="matrix(1 0 0 -1 -247.6602 -248.7388)">
					<stop  offset="0.1856" style="stop-color:#2C7777"/>
					<stop  offset="1" style="stop-color:#E5E880"/>
				</linearGradient>
				<path fill="url(#SVGID_21_)" d="M198.63,91.46v29.91H160.65c0-0.58,0.039-2.091,0.55-3.74c0.45-1.409,1.239-2.909,2.641-3.979
					c1.279-0.97,3.069-1.59,5.569-1.449c0.091,0,0.181,0.01,0.271,0.021c0,0,0-0.021-0.011-0.04c0-0.021,0-0.04-0.011-0.061
					c0-0.051-0.01-0.12-0.02-0.21c-0.041-0.271-0.08-0.7-0.111-1.25c-0.09-2.16,0.131-6.17,2.621-9.271c0,0,0,0,0-0.011
					c0.16-0.199,0.34-0.399,0.529-0.601v-0.01c1.25-1.33,2.979-2.43,5.37-3.061c1.261-0.351,2.688-0.55,4.341-0.59
					c0,0,0-0.08,0-0.221c0.01-0.659,0.109-2.76,1.09-4.83c0,0,0,0,0-0.01c0.34-0.7,0.779-1.41,1.359-2.05
					c0.93-1.04,2.229-1.9,4.01-2.351c0.371-0.091,0.74-0.171,1.09-0.21c0.062-0.021,0.121-0.021,0.19-0.03
					c0.199-0.029,0.399-0.05,0.601-0.061c0.779-0.05,1.5,0,2.16,0.13c0.5,0.091,0.959,0.221,1.389,0.391
					c0.861,0.32,1.591,0.771,2.201,1.229c0.299,0.24,0.569,0.48,0.81,0.71c0.229,0.23,0.44,0.46,0.631,0.67
					C198.279,90.92,198.51,91.271,198.63,91.46z"/>
				<path opacity="0.6" fill="#155B15" enable-background="new    " d="M198.63,91.46v29.91H160.65c0-0.58,0.039-2.091,0.55-3.74
					c0.45-1.409,1.239-2.909,2.641-3.979c1.279-0.97,3.069-1.59,5.569-1.449c0.091,0,0.181,0.01,0.271,0.021c0,0,0-0.021-0.011-0.04
					c0-0.021,0-0.04-0.011-0.061c0-0.051-0.01-0.12-0.02-0.21c1.18-0.229,2.299-0.521,3.35-0.87c1.119-0.34,2.17-0.76,3.15-1.229
					c5.84-2.739,9.25-7.181,11.219-11.67c1.711-3.88,2.361-7.79,2.58-10.689v-0.011c0.062-0.01,0.131-0.021,0.19-0.021
					c0.199-0.029,0.399-0.05,0.601-0.061c0.779-0.05,1.5,0,2.16,0.131c0.5,0.09,0.959,0.22,1.39,0.39
					c0.86,0.32,1.59,0.771,2.2,1.229c0.3,0.23,0.569,0.471,0.81,0.71c0.24,0.23,0.45,0.461,0.631,0.671
					C198.279,90.92,198.51,91.271,198.63,91.46z"/>
			</g>
		</g>
	</g>
</g>
</svg>
