<?xml version="1.0" encoding="utf-8"?>
<!-- Generator: Adobe Illustrator 16.0.0, SVG Export Plug-In . SVG Version: 6.00 Build 0)  -->
<!DOCTYPE svg PUBLIC "-//W3C//DTD SVG 1.1//EN" "http://www.w3.org/Graphics/SVG/1.1/DTD/svg11.dtd">
<svg version="1.1" id="Layer_1" xmlns="http://www.w3.org/2000/svg" xmlns:xlink="http://www.w3.org/1999/xlink" x="0px" y="0px"
	 width="748.601px" height="743.109px" viewBox="0 0 748.601 743.109" enable-background="new 0 0 748.601 743.109"
	 xml:space="preserve">
<g>
	<path fill="#FFFFFF" d="M743.101,371.55c0,185.921-136.551,339.95-314.84,367.261c-4.881,0.75-9.801,1.4-14.751,1.959
		c-3.97,0.441-7.95,0.83-11.96,1.141c-9.891,0.791-19.9,1.199-30,1.199C166.35,743.109,0,576.76,0,371.55
		C0,166.35,166.35,0,371.55,0C576.749,0,743.101,166.35,743.101,371.55z"/>
	<g>
		<path fill="#EAEAEA" d="M444.419,601.279c-18.078,0-32.729-14.648-32.729-32.729c0-18.111,14.65-32.75,32.729-32.75
			c18.08,0,32.75,14.639,32.75,32.75C477.169,586.631,462.499,601.279,444.419,601.279z M483.19,126.55l-40.201,149.92L209,313.97
			l-67.61,154.69l112.15,112.151l51.51,51.51L413.51,740.77c4.95-0.559,9.87-1.209,14.751-1.959
			c178.289-27.311,314.84-181.34,314.84-367.261L483.19,126.55z"/>
		<path fill="#EAEAEA" d="M428.261,738.811c-4.881,0.75-9.801,1.4-14.751,1.959c-3.97,0.441-7.95,0.83-11.96,1.141L261.68,602.051
			c3.01-1.541,5.99-2.92,8.95-4.15c106.529-44.449,182.939,103.17,185.98,107.551C458.53,708.221,441.579,725.75,428.261,738.811z"
			/>
		<g>
			<g>
				<path fill="#FFFFFF" d="M485.169,571.555c0,24.154-19.598,43.725-43.752,43.725s-43.727-19.57-43.727-43.725
					c0-24.195,19.572-43.754,43.727-43.754S485.169,547.359,485.169,571.555z"/>
				<path fill="#FFD140" d="M535.22,244.62c0,0-4.17,57.939-14.379,86.93c-31.521,89.53-163.921,25.75-235.011,57.969
					c-37.7,17.102-47.44,132.98-32.29,191.292c2.19,8.449,4.91,15.689,8.14,21.24c8.13,14.01,23.72,23.91,43.37,30.27
					c60.76,19.68,160.359,5.539,198.141-25.439c5.74-20.311,5.139-57.24,4.869-86.59H351.18v-13.75h156.819
					c0-0.201,77.291-0.432,77.291-0.432C696.229,506.109,706.169,244.62,535.22,244.62z M444.419,535.8
					c18.08,0,32.75,14.639,32.75,32.75c0,18.08-14.67,32.729-32.75,32.729c-18.078,0-32.729-14.648-32.729-32.729
					C411.69,550.439,426.341,535.8,444.419,535.8z"/>
				<path fill="#3771A1" d="M474.438,355.666c43.197-19.581,49.635-168.623,24.15-212.521
					c-33.291-57.309-191.54-45.801-241.509-4.838c-5.737,20.35-5.137,57.276-4.871,86.631h156.849v13.743H252.243
					c0,0.2-69.817,0.434-69.817,0.434c-120.388,0-117.886,261.456,40.963,261.456c0,0,5.838-57.908,16.045-86.93
					C270.957,324.076,403.386,387.89,474.438,355.666z M310.219,203.722c-18.081,0-32.724-14.644-32.724-32.757
					c0-18.08,14.644-32.758,32.724-32.758c18.112,0,32.757,14.678,32.757,32.758C343.009,189.045,328.331,203.722,310.219,203.722z"
					/>
			</g>
		</g>
	</g>
</g>
</svg>
