<?xml version="1.0" encoding="utf-8"?>
<!-- Generator: Adobe Illustrator 16.0.0, SVG Export Plug-In . SVG Version: 6.00 Build 0)  -->
<!DOCTYPE svg PUBLIC "-//W3C//DTD SVG 1.1//EN" "http://www.w3.org/Graphics/SVG/1.1/DTD/svg11.dtd">
<svg version="1.1" id="Capa_1" xmlns="http://www.w3.org/2000/svg" xmlns:xlink="http://www.w3.org/1999/xlink" x="0px" y="0px"
	 width="1080px" height="1080px" viewBox="359 0 1080 1080" enable-background="new 359 0 1080 1080" xml:space="preserve">
<path fill="#FFFFFF" d="M1439,540c0,267.71-194.81,489.92-450.4,532.6c-29.14,4.87-59.079,7.4-89.6,7.4
	c-298.229,0-540-241.77-540-540C359,241.77,600.771,0,899,0c278.6,0,507.93,211,536.91,481.91C1437.95,500.99,1439,520.37,1439,540z
	"/>
<path fill="#FFFFFF" d="M1819.485,289L1819.485,289z"/>
<path fill="#EAEAEA" d="M1439,540c0,267.71-194.81,489.92-450.4,532.6L577.56,661.56l0.7-0.698l116.79-116.79l85.75-85.75
	l264.92-264.92l1.771-1.77l3.64-3.64c10.28-0.54,24.2,1.53,41.53,10.35l117.84,59.39c0,0,1.26,0.65,3.2,1.97l13.739,13.74
	l208.471,208.47C1437.95,500.99,1439,520.37,1439,540z"/>
<g>
	<path fill="#0077B9" d="M1125.324,315.177L637.248,694.348c0,0-17.482,2.998-24.478,0l-50.457-48.957
		c0,0-4.995-17.985,4.496-26.479l463.096-424.638C1029.905,194.272,1102.344,162.811,1125.324,315.177z"/>
	<path fill="#0083D1" d="M563.313,394.61l49.457-45.961c0,0,13.988-4.496,23.479,0l452.479,343.321
		c0,0,42.714,139.379-37.467,161.484l-15.729,0.756l-472.219-430.13C563.313,424.081,554.676,402.636,563.313,394.61z"/>
	<path fill="#23ACF2" d="M1233.82,288.45v462.34c0,0-0.841,18.74-16.58,30.729L1065.87,855.7c0,0-17.98,3.75-28.47,0
		c-1.512-0.54-2.062-1.03-1.892-1.51c1-2.882,27.48-5.45,28.12-15.722l0.33-165.3l0.61-310.79l0.3-152.11
		c0,0-3.181-14.22-19.15-16.87c-4.278-0.71-9.479-0.59-15.79,0.86c0.471-0.36,7.71-5.56,21.2-6.27c10.28-0.54,24.2,1.53,41.53,10.35
		l117.84,59.39c0,0,1.26,0.65,3.2,1.97c3.479,2.37,9.159,6.9,13.739,13.74C1230.22,277.59,1232.59,282.58,1233.82,288.45z"/>
</g>
</svg>
