<?xml version="1.0" encoding="utf-8"?>
<!-- Generator: Adobe Illustrator 16.0.0, SVG Export Plug-In . SVG Version: 6.00 Build 0)  -->
<!DOCTYPE svg PUBLIC "-//W3C//DTD SVG 1.1//EN" "http://www.w3.org/Graphics/SVG/1.1/DTD/svg11.dtd">
<svg version="1.1" id="Capa_1" xmlns="http://www.w3.org/2000/svg" xmlns:xlink="http://www.w3.org/1999/xlink" x="0px" y="0px"
	 width="1079.481px" height="1080px" viewBox="420 0 1079.481 1080" enable-background="new 420 0 1079.481 1080"
	 xml:space="preserve">
<circle fill="#05CDFF" cx="960" cy="540" r="540"/>
<path fill="#0485BD" d="M1497.38,486.682l-235.452-235.453l-326.81,38.844v32.122l-28.709-28.708l-248.337,29.516v204.675
	l28.709,28.709h-28.709v200.61l322.572,322.571C1269.306,1068.713,1500,831.317,1500,540
	C1500,522.007,1499.1,504.223,1497.38,486.682z"/>
<g>
	<polygon fill="#FFFFFF" points="906.409,527.679 906.409,293.486 658.072,323.004 658.072,527.679 	"/>
	<polygon fill="#FFFFFF" points="935.118,527.679 1261.93,527.679 1261.93,251.229 935.118,290.073 	"/>
	<polygon fill="#FFFFFF" points="906.409,556.388 658.072,556.388 658.072,756.998 906.409,786.515 	"/>
	<polygon fill="#FFFFFF" points="935.118,556.388 935.118,789.925 1261.93,828.771 1261.93,556.388 	"/>
</g>
</svg>
