<?xml version="1.0" encoding="utf-8"?>
<!-- Generator: Adobe Illustrator 16.0.0, SVG Export Plug-In . SVG Version: 6.00 Build 0)  -->
<!DOCTYPE svg PUBLIC "-//W3C//DTD SVG 1.1//EN" "http://www.w3.org/Graphics/SVG/1.1/DTD/svg11.dtd">
<svg version="1.1" id="Layer_1" xmlns="http://www.w3.org/2000/svg" xmlns:xlink="http://www.w3.org/1999/xlink" x="0px" y="0px"
	 width="92.744px" height="198.636px" viewBox="-4.883 0 92.744 198.636" enable-background="new -4.883 0 92.744 198.636"
	 xml:space="preserve">
<g id="_x32_7">
	<g>
		<rect x="-4.883" y="191.091" fill="#FFFFFF" width="123.411" height="7.545"/>
		<g>
			<rect x="7.457" y="6.728" fill="#97C5D1" width="98.731" height="55.098"/>
			<rect x="7.457" y="68.916" fill="#97C5D1" width="98.731" height="115.566"/>
			<g>
				<polygon fill="#B4EFEF" points="106.535,7.202 106.535,54.324 59.413,7.202 				"/>
				<polygon fill="#B4EFEF" points="59.413,7.202 106.535,54.324 106.535,184.671 9.76,184.671 9.76,7.202 				"/>
				<rect x="87.861" y="89.324" fill="#D8EEEF" width="18.674" height="94.806"/>
				<rect x="63.031" y="97.916" fill="#D8EBEC" width="21.283" height="86.755"/>
				<rect x="79.477" y="113.832" fill="#C8DDDD" width="27.058" height="70.84"/>
				<rect x="52.389" y="131.246" fill="#A6C6C9" width="27.088" height="53.426"/>
				<rect x="16.297" y="156.332" fill="#84B7B7" width="38.521" height="28.34"/>
				<path fill="#D4F9F8" d="M25.394,48.854c-0.214-0.685-0.329-1.413-0.329-2.168c0-4.016,3.255-7.271,7.271-7.271
					c0.199,0,0.395,0.014,0.589,0.03c0.829-4.697,4.929-8.267,9.863-8.267c2.137,0,4.116,0.671,5.742,1.812
					c1.466-3.713,5.084-6.341,9.319-6.341c5.163,0,9.411,3.905,9.958,8.922c0.611-0.117,1.242-0.181,1.89-0.181
					c5.533,0,10.019,4.486,10.019,10.019c0,1.211-0.215,2.372-0.607,3.446H25.394z"/>
				<path fill="#D4F9F8" d="M9.76,115.979c1.704-1.343,3.853-2.147,6.189-2.147c5.163,0,9.412,3.905,9.958,8.922
					c0.612-0.117,1.243-0.18,1.89-0.18c5.533,0,10.02,4.484,10.02,10.018c0,1.211-0.215,2.373-0.608,3.447H9.76V115.979z"/>
				<path fill="#D4F9F8" d="M10.7,89.324c-0.136-0.446-0.209-0.919-0.209-1.411c0-2.612,2.064-4.73,4.611-4.73
					c0.126,0,0.25,0.009,0.373,0.019c0.525-3.056,3.125-5.378,6.255-5.378c1.354,0,2.609,0.437,3.642,1.178
					c0.93-2.416,3.226-4.125,5.91-4.125c3.274,0,5.969,2.541,6.315,5.805c0.388-0.076,0.789-0.118,1.197-0.118
					c3.51,0,6.354,2.918,6.354,6.519c0,0.788-0.136,1.542-0.386,2.242L10.7,89.324L10.7,89.324z"/>
				<path fill="#D4F9F8" d="M48.813,74.877c-0.137-0.446-0.209-0.919-0.209-1.411c0-2.612,2.063-4.73,4.61-4.73
					c0.126,0,0.25,0.009,0.373,0.02c0.526-3.056,3.125-5.378,6.255-5.378c1.355,0,2.61,0.437,3.643,1.178
					c0.93-2.416,3.225-4.125,5.911-4.125c3.273,0,5.969,2.541,6.314,5.805c0.389-0.076,0.789-0.118,1.198-0.118
					c3.509,0,6.354,2.918,6.354,6.518c0,0.788-0.137,1.543-0.387,2.242L48.813,74.877L48.813,74.877z"/>
				<polygon opacity="0.32" fill="#FCFCFC" enable-background="new    " points="9.76,32.554 106.535,129.33 106.535,151.229 
					9.76,54.454 				"/>
				<polygon opacity="0.32" fill="#FCFCFC" enable-background="new    " points="9.76,60.426 9.76,75.227 106.535,172.001 
					106.535,157.201 				"/>
				<polygon opacity="0.32" fill="#FCFCFC" enable-background="new    " points="9.76,91.151 103.28,184.671 83.747,184.671 
					9.76,110.684 				"/>
				<polygon opacity="0.32" fill="#FCFCFC" enable-background="new    " points="35.903,7.202 106.535,77.834 106.535,96.183 
					17.555,7.202 				"/>
			</g>
			<rect x="0" y="188.171" fill="#B7C9CE" width="113.645" height="3.037"/>
			<path fill="#FFFFFF" d="M0,188.171h113.645V68.916v-7.09V0H0v61.826v7.09V188.171z M7.457,68.916h98.731v115.566H7.457V68.916z
				 M7.457,61.826V6.728h98.731v55.098H7.457z"/>
		</g>
	</g>
</g>
<rect x="-2.736" y="0.121" fill="#B7C9CE" width="2.735" height="190.971"/>
</svg>
