<?xml version="1.0" encoding="utf-8"?>
<!-- Generator: Adobe Illustrator 16.0.0, SVG Export Plug-In . SVG Version: 6.00 Build 0)  -->
<!DOCTYPE svg PUBLIC "-//W3C//DTD SVG 1.1//EN" "http://www.w3.org/Graphics/SVG/1.1/DTD/svg11.dtd">
<svg version="1.1" id="Capa_1" xmlns="http://www.w3.org/2000/svg" xmlns:xlink="http://www.w3.org/1999/xlink" x="0px" y="0px"
	 width="1079.481px" height="1080px" viewBox="0 0 1079.481 1080" enable-background="new 0 0 1079.481 1080" xml:space="preserve">
<circle fill="#05CDFF" cx="539.741" cy="540" r="540"/>
<path fill="#0485BD" d="M1077.12,486.682L841.668,251.229l-326.811,38.844v32.122l-28.709-28.708l-248.336,29.516v204.675
	l28.709,28.709h-28.709v200.61l322.57,322.571c288.662-10.855,519.357-248.251,519.357-539.568
	C1079.741,522.007,1078.84,504.223,1077.12,486.682z"/>
<g>
	<polygon fill="#FFFFFF" points="486.149,527.679 486.149,293.486 237.813,323.004 237.813,527.679 	"/>
	<polygon fill="#FFFFFF" points="514.858,527.679 841.67,527.679 841.67,251.229 514.858,290.073 	"/>
	<polygon fill="#FFFFFF" points="486.149,556.388 237.813,556.388 237.813,756.998 486.149,786.515 	"/>
	<polygon fill="#FFFFFF" points="514.858,556.388 514.858,789.925 841.67,828.771 841.67,556.388 	"/>
</g>
</svg>
